<svg width="375" height="459" viewBox="0 0 375 459" fill="none" xmlns="http://www.w3.org/2000/svg">
<path d="M619 -6H-158V264.709H619V-6Z" fill="#ECFAF9"/>
<path d="M619 -5.99747H303.875V260.677H619V-5.99747Z" fill="#DFFCFF"/>
<path d="M303.94 97.6372H293.192V73.6634L292.686 73.3755H289.481H270.838H270.822V76.9699H270.838V79.4428H270.822V83.0322H270.838V85.5127H270.822V89.1071H270.838V89.1197L268.862 89.1071V70.309H247.943V72.6909V76.2828V79.4428V83.0322V85.5127V89.1071V91.4007V94.9951V97.2886V100.883V103.045V105.319V105.571H224.364V126.14H215.553V131.318H206.057V122.402H188.97V98.1525H186.297V95.7377H185.913V98.1525H172.616V95.7402H172.234V98.1525H169.367V110.34L155.013 110.275V117.799H142.842V71.2966H106.779V121.121H95.77V94.1792H59.7319V268.482L306.085 267.543L303.94 97.6372Z" fill="#E1F9FA"/>
<path d="M59.7521 125.915V142.253V166.555V267.293H41.6445V166.555V142.253V125.915H59.7521Z" fill="#E1F9FA"/>
<path d="M229.426 95.9827H228.762V105.751H229.426V95.9827Z" fill="#E1F9FA"/>
<path d="M240.989 87.5941H239.956V106.511H240.989V87.5941Z" fill="#E1F9FA"/>
<path d="M109.603 67.8133H109.174V71.2966H109.603V67.8133Z" fill="#E1F9FA"/>
<path d="M118.73 67.8133H118.301V71.2966H118.73V67.8133Z" fill="#E1F9FA"/>
<path d="M139.652 67.8133H139.222V71.2966H139.652V67.8133Z" fill="#E1F9FA"/>
<path d="M250.361 67.6214H250.027V70.309H250.361V67.6214Z" fill="#E1F9FA"/>
<path d="M266.066 67.6214H265.732V70.309H266.066V67.6214Z" fill="#E1F9FA"/>
<path d="M131.472 67.8133H131.043V71.2966H131.472V67.8133Z" fill="#E1F9FA"/>
<path d="M69.2075 102.126H64.961V109.38H69.2075V102.126Z" fill="#EFFFFF"/>
<path d="M85.5314 115.822H81.285V123.076H85.5314V115.822Z" fill="#EFFFFF"/>
<path d="M184.777 103.891H180.53V111.146H184.777V103.891Z" fill="#EFFFFF"/>
<path d="M116.904 77.1189H112.657V84.3735H116.904V77.1189Z" fill="#EFFFFF"/>
<path d="M125.334 77.1189H121.087V84.3735H125.334V77.1189Z" fill="#EFFFFF"/>
<path d="M256.782 73.4917H252.536V80.7462H256.782V73.4917Z" fill="#EFFFFF"/>
<path d="M256.782 118.239H252.536V125.493H256.782V118.239Z" fill="#EFFFFF"/>
<path d="M276.744 100.868H272.497V108.122H276.744V100.868Z" fill="#EFFFFF"/>
<path d="M250.027 148.606H245.781V155.86H250.027V148.606Z" fill="#EFFFFF"/>
<path d="M268.188 166.623H263.941V173.878H268.188V166.623Z" fill="#EFFFFF"/>
<path d="M287.035 137.226H282.789V144.481H287.035V137.226Z" fill="#EFFFFF"/>
<path d="M71.332 137.226H67.0856V144.481H71.332V137.226Z" fill="#EFFFFF"/>
<path d="M97.3893 144.981H93.1428V152.236H97.3893V144.981Z" fill="#EFFFFF"/>
<path d="M42.0665 97.6347H31.3177V73.6634L30.8124 73.378H27.6168H8.97128H8.95613V76.9699H8.97128V79.4428H8.95613V83.0322H8.97128V85.5127H8.95613V89.1071H8.97128H6.99583V70.3115H-13.9207V72.6909H-13.9334V76.2828H-13.9207V79.4428H-13.9334V83.0322H-13.9207V85.5127H-13.9334V89.1071H-13.9207V91.4007H-13.9334V94.9951H-13.9207V97.2887H-13.9334V100.883H-13.9207V103.045H-13.9334V105.319H-13.9207V105.571H-37.5024V126.138H-46.3111V131.318H-55.8094V122.404H-72.8913V98.1551H-75.5715V95.7402H-75.9505V98.1551H-89.2507V95.7428H-89.6321V98.1551H-92.5195V110.343L-106.873 110.277V117.799H-119.042V71.2966H-158V264.709H44.1657L42.0665 97.6347Z" fill="#E1F9FA"/>
<path d="M4.1918 67.6214H3.85837V70.309H4.1918V67.6214Z" fill="#E1F9FA"/>
<path d="M12.1315 148.606H7.88506V155.86H12.1315V148.606Z" fill="#EFFFFF"/>
<path d="M27.8973 -5.99747H18.7905V260.677H27.8973V-5.99747Z" fill="#C8F7FC"/>
<path d="M312.982 -5.99747H303.875V260.677H312.982V-5.99747Z" fill="#C8F7FC"/>
<path d="M448.851 53.4508H350.303V138.515H448.851V53.4508Z" fill="#B5F5FB"/>
<path d="M446.936 54.8679H352.18V136.82H446.936V54.8679Z" fill="#E1FBFB"/>
<path d="M385.298 90.5242H364.535V64.5978L368.054 61.4252H385.298V90.5242Z" fill="#EFFFFF"/>
<path d="M364.535 64.5978H367.943L368.054 61.4252L364.535 64.5978Z" fill="#B6FDFF"/>
<path d="M378.242 63.9486H371.593V64.2644H378.242V63.9486Z" fill="#B6FDFF"/>
<path d="M379.806 64.8984H370.027V65.2141H379.806V64.8984Z" fill="#B6FDFF"/>
<path d="M383.229 70.9985H366.993V71.4052H383.229V70.9985Z" fill="#B6FDFF"/>
<path d="M383.229 72.2338H366.993V72.6404H383.229V72.2338Z" fill="#B6FDFF"/>
<path d="M383.229 73.4689H366.993V73.8756H383.229V73.4689Z" fill="#B6FDFF"/>
<path d="M383.229 74.7067H366.993V75.1133H383.229V74.7067Z" fill="#B6FDFF"/>
<path d="M383.229 87.9325H366.993V88.3392H383.229V87.9325Z" fill="#B6FDFF"/>
<path d="M382.52 111.977L371.082 112.775L371.785 122.857L383.224 122.059L382.52 111.977Z" fill="#EFFFFF"/>
<path d="M368.14 119.171L356.674 119.29L356.778 129.395L368.244 129.277L368.14 119.171Z" fill="#EFFFFF"/>
<path d="M361.918 121.093C361.918 120.993 361.948 120.896 362.003 120.813C362.059 120.729 362.138 120.665 362.23 120.626C362.322 120.588 362.424 120.578 362.522 120.598C362.62 120.617 362.71 120.665 362.781 120.736C362.851 120.807 362.899 120.897 362.919 120.995C362.938 121.093 362.928 121.194 362.89 121.287C362.852 121.379 362.787 121.458 362.704 121.513C362.621 121.569 362.523 121.598 362.423 121.598C362.289 121.598 362.161 121.545 362.066 121.45C361.971 121.356 361.918 121.227 361.918 121.093Z" fill="#B6FDFF"/>
<path d="M373.002 98.3749L361.788 100.767L363.897 110.65L375.111 108.259L373.002 98.3749Z" fill="#BEE8CD"/>
<path d="M367.443 101.297C367.37 101.25 367.313 101.183 367.279 101.104C367.245 101.024 367.235 100.936 367.25 100.851C367.266 100.766 367.306 100.688 367.367 100.626C367.427 100.564 367.504 100.521 367.589 100.503C367.673 100.485 367.761 100.492 367.842 100.524C367.922 100.556 367.991 100.612 368.04 100.683C368.089 100.754 368.116 100.838 368.117 100.925C368.118 101.011 368.094 101.096 368.046 101.169C367.983 101.266 367.884 101.334 367.771 101.358C367.658 101.382 367.54 101.36 367.443 101.297Z" fill="#FF7D1D"/>
<path d="M619 264.706H-158V459.997H619V264.706Z" fill="#D5F9FC"/>
<path d="M619 260.677H-158V268.738H619V260.677Z" fill="#C8F7FC"/>
<g opacity="0.7">
<path opacity="0.7" d="M20.5588 287.437H20.632C21.0665 287.437 21.4152 286.879 21.4076 286.199L20.2329 206.632L16.7872 205.99L19.7353 286.204C19.7479 286.897 20.1142 287.437 20.5588 287.437Z" fill="#80DEE5"/>
<path opacity="0.7" d="M25.9572 203.283H-144.995C-146.111 203.283 -147.016 204.187 -147.016 205.303V206.064C-147.016 207.18 -146.111 208.084 -144.995 208.084H25.9572C27.0733 208.084 27.9781 207.18 27.9781 206.064V205.303C27.9781 204.187 27.0733 203.283 25.9572 203.283Z" fill="#80DEE5"/>
<path opacity="0.7" d="M7.78148 197.339H-41.3396L-38.0506 163.572H11.0705L7.78148 197.339Z" fill="#B5EDED"/>
<path opacity="0.7" d="M9.55989 197.339H-39.5612L-36.2722 163.572H12.8489L9.55989 197.339Z" fill="#80DEE5"/>
</g>
<path d="M344.316 23.4197H225.508C224.523 23.4197 223.579 23.0285 222.883 22.3322C222.186 21.6358 221.795 20.6914 221.795 19.7066C221.796 18.7222 222.187 17.7784 222.883 17.0826C223.58 16.3868 224.524 15.996 225.508 15.996H344.316C345.3 15.996 346.244 16.3869 346.94 17.0828C347.636 17.7787 348.027 18.7225 348.027 19.7066C348.027 20.1941 347.931 20.6769 347.745 21.1274C347.559 21.5779 347.285 21.9872 346.941 22.332C346.596 22.6769 346.187 22.9504 345.737 23.137C345.286 23.3237 344.803 23.4197 344.316 23.4197Z" fill="white"/>
<path d="M240.359 -5.99747H236.646V15.9833H240.359V-5.99747Z" fill="white"/>
<path d="M332.706 -5.99747H328.992V15.9833H332.706V-5.99747Z" fill="white"/>
<path d="M149.451 317.946H142.456C140.988 317.946 139.359 316.478 138.95 313.79C138.54 311.103 135.527 309.633 134.875 307.433C134.223 305.232 137.565 302.128 137.565 302.128L138.123 301.411L138.705 300.653L144.247 301.956C144.247 301.956 144.383 303.275 144.469 304.955C144.542 306.236 144.55 307.52 144.492 308.802C144.33 311.737 145.315 314.897 147.92 315.468C150.524 316.038 149.451 317.946 149.451 317.946Z" fill="#305864"/>
<path d="M190.726 210.201C190.726 210.201 185.12 224.314 178.12 240.535C174.301 249.376 170.067 258.869 166.101 267.025C164.08 271.208 162.104 275.042 160.308 278.263C148.569 299.291 144.899 305.159 144.899 305.159C144.899 305.159 138.172 302.469 137.573 300.635C137.573 300.635 142.059 260.041 149.921 250.144C154.362 244.552 159.581 227.772 159.826 221.901C160.071 216.031 161.415 204.419 161.415 204.419L190.726 210.201Z" fill="#FF8460"/>
<path d="M179.429 212.745L178.12 240.53C174.301 249.371 170.067 258.864 166.101 267.02L163.001 219.785L179.429 212.745Z" fill="#ED6644"/>
<path d="M217.422 161.589C217.422 161.589 211.458 154.633 217.056 150.222C217.056 150.222 221.143 147.747 224.475 147.949C224.475 147.949 219.754 155.868 221.282 156.656C222.81 157.444 225.907 147.444 225.907 147.444C225.907 147.444 235.211 146.542 238.205 147.982C238.205 147.982 230.25 154.489 231.925 154.875C233.6 155.262 242.191 148.876 242.191 148.876C242.191 148.876 250.848 150.349 250.388 155.631C249.929 160.912 246.943 162.544 245.632 162.403C244.321 162.261 236.649 159.334 236.482 160.41C236.315 161.486 240.933 164.994 244.167 165.158C244.167 165.158 238.061 171.89 234.004 169.958C229.947 168.025 229.601 164.936 227.072 163.779C224.543 162.622 222.383 162.627 223.429 163.807C224.475 164.987 229.05 166.128 230.503 168.687C231.955 171.246 233.246 172.981 229.05 172.34C224.854 171.698 218.028 168.637 217.73 165.118L217.422 161.589Z" fill="#9DB37D"/>
<path d="M246.134 155.78C246.134 155.78 222.616 154.873 217.422 161.589C217.422 161.589 216.273 165.03 212.739 168.157L212.188 169.657C212.188 169.657 216.263 165.363 217.723 165.11C217.723 165.105 215.442 156.775 246.134 155.78Z" fill="#9DB37D"/>
<path d="M212.739 168.157C212.739 168.157 207.686 171.89 207.34 178.559L208.257 178.642C208.257 178.642 209.869 171.744 212.784 169.043C215.699 166.343 212.739 168.157 212.739 168.157Z" fill="#9DB37D"/>
<path d="M202.043 154.496C202.043 154.496 208.623 153.15 207.37 148.078C207.37 148.078 206.107 144.809 204.086 143.428C204.086 143.428 203.26 150.132 202.02 149.902C200.78 149.672 203.483 142.496 203.483 142.496C203.483 142.496 198.504 137.792 196.127 137.28C196.127 137.28 197.801 144.62 196.66 144.1C195.518 143.579 193.416 136.017 193.416 136.017C193.416 136.017 187.745 132.985 185.638 136.241C183.531 139.497 184.524 141.798 185.345 142.304C186.166 142.809 191.913 144.577 191.537 145.262C191.16 145.946 186.899 145.916 184.969 144.557C184.969 144.557 185.474 151.195 188.695 151.882C191.915 152.569 193.494 150.955 195.482 151.425C197.47 151.895 198.711 152.865 197.579 153.077C196.447 153.289 193.285 151.895 191.297 152.723C189.309 153.552 187.783 153.968 190.496 155.502C193.209 157.035 198.536 158.311 200.29 156.411L202.043 154.496Z" fill="#C0D2A3"/>
<path d="M188.061 138.224C188.061 138.224 202.076 148.27 202.056 154.496C202.056 154.496 201.174 157.002 201.803 160.402L201.227 160.132C201.227 160.132 200.661 157.07 200.295 156.396C200.29 156.396 205.355 152.599 188.061 138.224Z" fill="#9DB37D"/>
<path d="M201.798 160.402C201.798 160.402 204.038 168.99 201.245 173.017H200.53C200.53 173.017 203.462 170.291 201.373 160.892C200.742 158.053 201.798 160.402 201.798 160.402Z" fill="#9DB37D"/>
<path d="M211.662 145.512C211.662 145.512 199.155 138.51 204.986 129.004C204.986 129.004 209.654 123.17 214.659 121.679C214.659 121.679 211.988 135.855 214.659 136.188C217.329 136.522 216.492 120.179 216.492 120.179C216.492 120.179 229.666 113.844 234.835 114.344C234.835 114.344 226.663 128.184 229.333 127.85C232.003 127.517 241.173 113.51 241.173 113.51C241.173 113.51 254.68 111.01 256.835 119.012C258.99 127.014 255.501 131.018 253.501 131.518C251.5 132.018 238.66 131.851 238.99 133.518C239.321 135.185 247.996 137.855 252.834 136.355C252.834 136.355 247.496 149.528 240.494 148.861C233.491 148.194 231.321 143.857 226.984 143.524C222.646 143.19 219.481 144.357 221.648 145.524C223.816 146.691 231.154 145.908 234.656 148.884C238.157 151.859 240.994 153.696 234.489 155.029C227.984 156.363 216.313 155.535 213.976 150.528L211.662 145.512Z" fill="#C0D2A3"/>
<path d="M250.684 121.5C250.684 121.5 215.666 132.839 211.662 145.512C211.662 145.512 211.829 151.182 208.328 157.684V160.187C208.328 160.187 211.996 151.682 213.997 150.515C213.997 150.515 206.161 139.51 250.684 121.5Z" fill="#9DB37D"/>
<path d="M208.328 157.684C208.328 157.684 202.927 165.886 206.006 175.871L207.396 175.497C207.396 175.497 206.047 164.502 208.874 158.972C211.7 153.443 208.328 157.684 208.328 157.684Z" fill="#9DB37D"/>
<path d="M235.742 173.017C235.742 179.515 233.16 185.747 228.565 190.342C223.969 194.937 217.737 197.518 211.238 197.518C204.739 197.518 198.507 194.937 193.911 190.342C189.316 185.747 186.734 179.515 186.734 173.017H235.742Z" fill="#80DEE5"/>
<path d="M236.298 173.017H185.936V173.769H236.298V173.017Z" fill="#317A8B"/>
<path d="M224.349 187.25C225.382 186.581 227.721 185.106 227.827 185.459C227.903 185.712 227.764 186.134 227.474 186.566C229.52 187.324 230.985 183.787 232.71 184.825C233.291 185.174 232.907 189.372 230.5 190.817C228.093 192.262 225.791 192.944 224.114 191.805L221.825 191.332L221.686 187.528C221.686 187.528 223.005 187.422 224.349 187.25Z" fill="#FFA087"/>
<path d="M164.706 148.096C164.706 148.096 171.241 153.433 177.552 149.505C177.552 149.505 178.353 145.688 177.883 143.074C177.825 142.751 177.771 142.44 177.721 142.142C177.216 139.194 176.996 137.527 176.996 137.527C176.663 137.456 165.787 135.203 165.861 135.547C167.515 143.466 164.706 148.096 164.706 148.096Z" fill="#FFA087"/>
<path d="M167.222 137.252C168.533 138.873 172.527 141.778 177.721 142.142C177.216 139.194 176.996 137.527 176.996 137.527C176.693 137.504 166.841 136.774 167.222 137.252Z" fill="#ED8267"/>
<path d="M179.052 136.835C179.052 136.835 168.19 141.634 165.313 134.814C162.435 127.994 159.086 124.046 165.894 120.694C172.702 117.342 175.16 119.365 176.675 121.401C178.191 123.437 181.803 135.4 179.052 136.835Z" fill="#FFA087"/>
<path d="M166.063 136.678C165.926 136.807 163.625 138.015 157.269 129.666C156.271 128.355 155.19 125.317 156.365 122.232C157.54 119.148 163.135 115.849 167.945 113.967C169.884 113.231 172.008 113.133 174.008 113.687C174.49 113.817 174.942 114.041 175.337 114.348C175.732 114.654 176.062 115.035 176.308 115.47C176.554 115.905 176.711 116.384 176.771 116.881C176.83 117.377 176.789 117.88 176.652 118.36C175.743 121.545 173.487 123.5 170.63 123.412C168.718 123.354 168.839 127.262 168.862 128.194C168.885 129.126 168.831 129.919 166.422 129.532C164.358 129.199 165.522 131.924 166.214 133.152C166.571 133.751 166.746 134.441 166.72 135.137C166.709 135.717 166.473 136.269 166.063 136.678Z" fill="#308796"/>
<path d="M198.165 317.946H179.621C179.485 317.925 179.353 317.886 179.227 317.832C177.989 317.213 178.375 312.472 178.524 311.012C178.552 310.742 178.575 310.582 178.575 310.582C178.575 310.582 185.095 305.366 185.992 309.36C186.022 309.486 186.052 309.612 186.088 309.729C187.219 313.465 192.279 315.162 195.205 315.634C197.428 316.006 198.006 317.306 198.165 317.946Z" fill="#305864"/>
<path d="M194.416 211.022C194.416 211.022 193.426 223.377 192.264 238.229C190.68 258.404 188.778 283.191 188.591 287.879C188.265 296.033 186.959 309.072 186.959 309.072C186.959 309.072 183.862 312.169 177.668 310.863C177.668 310.863 172.146 292.249 170.567 272.554C170.544 272.231 170.519 271.905 170.494 271.582C169.029 251.531 160.965 208.516 160.965 208.516L194.416 211.022Z" fill="#FF8460"/>
<path d="M191.665 209.31C189.053 209.469 161.47 208.425 161.463 206.885C161.437 201.527 160.316 192.855 158.919 182.322C158.663 180.359 158.461 178.414 158.313 176.487C157.923 171.761 157.912 167.012 158.282 162.284C158.977 154.183 162.418 147.649 165.929 144.602C166.391 144.218 168.091 145.509 170.943 146.663C173.578 147.732 175.662 146.967 178.032 146.305L181.063 148.967C183.589 151.316 186.28 154.893 187.596 158.119C187.591 158.119 191.9 209.294 191.665 209.31Z" fill="#308796"/>
<path d="M187.591 158.119L180.055 159.869L169.698 187.945C168.972 189.914 167.659 191.613 165.937 192.813C164.215 194.013 162.167 194.656 160.068 194.656L160.975 208.516L194.426 211.022L187.591 158.119Z" fill="#FF8460"/>
<path d="M223.717 189.375C223.957 187.182 222.831 186.77 222.831 186.77C222.831 186.77 200.626 181.852 198.746 181.183C196.867 180.514 181.268 162.973 181.268 162.973C181.268 162.973 175.309 155.706 170.153 157.06C165.666 158.237 163.799 161.627 163.079 164.891C162.669 166.799 162.842 168.787 163.578 170.595C164.313 172.403 165.576 173.947 167.202 175.027C174.652 180.001 189.574 189.814 193.131 191.009C201.048 193.666 222.649 192.34 222.649 192.34C223.227 191.446 223.593 190.432 223.717 189.375Z" fill="#308796"/>
<path d="M172.249 151.738C170.481 150.109 164.87 145.633 164.87 145.633L165.929 144.605C166.687 144.446 172.497 148.818 174.429 150.543C176.759 152.62 183.231 159.399 183.231 159.399L180.055 159.872C180.055 159.872 174.313 153.655 172.249 151.738Z" fill="#ED6644"/>
<g opacity="0.7">
<path opacity="0.7" d="M542.281 206.013H376.876C375.796 206.013 374.92 206.888 374.92 207.968V208.703C374.92 209.783 375.796 210.658 376.876 210.658H542.281C543.361 210.658 544.236 209.783 544.236 208.703V207.968C544.236 206.888 543.361 206.013 542.281 206.013Z" fill="#80DEE5"/>
</g>
<path d="M363.376 381.882C363.376 381.882 364.417 390.218 362.542 391.148C360.668 392.077 338.291 391.772 338.291 391.772C338.291 391.772 338.291 388.96 342.144 388.336C345.996 387.712 352.753 385.421 353.908 380.321C355.062 375.221 363.376 381.882 363.376 381.882Z" fill="#305864"/>
<path d="M343.119 254.724C343.119 254.724 344.382 270.503 345.87 289.471C347.891 315.235 350.321 346.885 350.561 352.872C350.978 363.281 352.645 379.935 352.645 379.935C352.645 379.935 356.598 383.893 364.518 382.223C364.518 382.223 371.568 358.452 373.582 333.298C373.614 332.887 373.645 332.47 373.675 332.056C375.549 306.447 378.475 252.529 378.475 252.529L343.119 254.724Z" fill="#F97B50"/>
<path d="M353.271 267.343L373.581 333.308C373.614 332.897 373.645 332.48 373.675 332.066C375.549 306.458 378.475 252.539 378.475 252.539L353.271 267.343Z" fill="#ED6644"/>
<path d="M348.896 256.598C348.896 256.598 371.692 313.745 386.682 340.601C401.672 367.457 406.358 374.954 406.358 374.954C406.358 374.954 414.947 371.521 415.728 369.177C415.728 369.177 409.993 317.332 399.954 304.694C394.283 297.551 387.619 276.121 387.309 268.626C386.998 261.132 385.288 246.297 385.288 246.297L348.896 256.598Z" fill="#F97B50"/>
<path d="M320.269 275.227C320.269 275.227 315.116 282.509 314.649 283.901C314.181 285.293 314.212 290.845 314.57 291.064C314.929 291.284 315.328 291.191 315.725 290.395C316.122 289.599 316.882 286.763 317.137 287.068C317.392 287.374 315.72 295.76 317.246 296.488C318.771 297.215 323.425 294.164 325.099 290.655C326.774 287.147 325.514 278.366 325.711 277.74C327.378 272.423 320.269 275.227 320.269 275.227Z" fill="#FFA087"/>
<path d="M321.965 279.018C319.067 278.404 318.777 278.008 318.777 278.008C318.777 278.008 319.259 249.518 319.188 246.845C319.118 244.173 307.8 208.067 307.8 208.067L327.179 188.529C327.179 188.529 334.297 239.646 334.345 246.426C334.426 257.631 326.128 278.798 326.128 278.798C324.782 279.226 323.348 279.302 321.965 279.018Z" fill="#275962"/>
<path d="M320.58 183.643C320.58 183.643 315.419 201.747 307.093 205.975C307.093 205.975 306.401 201.949 307.012 198.162C307.105 197.609 307.046 197.04 306.84 196.518C306.633 195.996 306.289 195.54 305.843 195.2C305.327 194.811 304.846 194.44 304.4 194.088C302.868 192.903 301.399 191.638 300 190.299L301.033 181.509L301.733 175.545C303.025 176.962 304.465 178.237 306.027 179.349C313.441 184.588 320.58 183.643 320.58 183.643Z" fill="#FFA087"/>
<path d="M306.032 179.344C306.032 179.344 309.063 187.048 304.405 194.088C302.873 192.903 301.404 191.638 300.005 190.299L301.038 181.509C304.011 179.741 306.032 179.344 306.032 179.344Z" fill="#ED8267"/>
<path d="M297.905 192.05C297.905 192.05 310.124 183.494 304.678 175.967C299.232 168.44 297.143 162.266 289.109 167.412C281.076 172.557 281.657 176.505 282.865 179.468C284.072 182.431 294.586 194.081 297.905 192.05Z" fill="#FFA087"/>
<path d="M324.865 238.959C324.262 238.265 323.639 237.567 322.998 236.865C319.77 233.35 316.847 229.566 314.26 225.556C312.402 222.707 310.772 219.717 309.384 216.612C307.513 212.346 306.775 208.819 306.588 205.121C306.588 205.091 306.588 199.382 306.588 199.36C314.139 193.351 313.729 182.966 313.729 182.966C313.729 182.966 344.043 181.097 369.749 215.839C369.749 215.839 371.518 218.448 373.902 222.338C374.42 223.182 374.971 224.086 375.539 225.041C379.407 231.51 332.936 248.229 324.865 238.959Z" fill="#308796"/>
<path d="M341.525 211.724C346.933 213.492 360.37 215.753 363.901 225.453C365.058 228.63 372.945 221.848 374.122 222.707L367.981 212.889L341.525 211.724Z" fill="#275962"/>
<path d="M302.829 159.97C302.879 159.76 303.104 159.493 303.726 159.124C303.252 159.104 302.781 159.2 302.354 159.404C301.75 158.573 300.444 157.222 298.711 157.636C299.04 157.655 299.359 157.748 299.647 157.907C299.935 158.066 300.183 158.288 300.373 158.556C297.64 157.634 293.144 158.268 283.074 164.59C269.802 172.926 279.063 179.546 281.417 179.685C283.772 179.824 286.747 174.527 290.228 173.055C293.709 171.582 296.903 176.151 298.385 176.235C299.868 176.318 298.805 175.358 299.969 173.855C301.134 172.352 302.629 174.866 303.061 176.765C303.493 178.665 306.755 179.796 306.755 179.796L307.669 176.358C308.583 172.921 305.446 162.011 303.375 160.415L302.829 159.97Z" fill="#317A8B"/>
<path d="M375.501 257.628C371.965 266.785 349.944 270.473 348.3 265.621C347.913 264.484 344.561 271.43 344.346 270.102C341.527 252.539 332.938 248.224 324.867 238.959C324.264 238.265 323.642 237.567 323 236.865C319.773 233.35 316.849 229.567 314.262 225.556C312.405 222.708 310.775 219.717 309.387 216.612L322.629 207.266C323.857 206.4 325.359 206.012 326.854 206.175C328.348 206.338 329.731 207.041 330.743 208.153C336.129 214.053 347.024 224.119 358.321 223.622C366.458 223.263 371.204 222.75 373.897 222.333C374.415 223.177 374.966 224.081 375.534 225.036C379.409 231.505 384.537 239.54 385.28 246.287C385.858 251.498 376.13 255.979 375.501 257.628Z" fill="#F97B50"/>
<path d="M315.937 182.984C315.937 182.984 313.949 187.258 315.179 196.756C316.225 204.816 319.294 210.527 319.294 210.527L321.603 209.09C321.603 209.09 314.904 196.649 318.352 183.163C318.357 183.163 318.158 182.999 315.937 182.984Z" fill="#F97B50"/>
<path d="M458.799 381.443C457.867 381.443 439.12 381.259 426.211 367.356C417.355 357.813 413.525 344.291 414.844 327.168C417.511 292.199 411.812 263.903 399.182 249.538C393.493 243.069 386.523 239.575 378.467 239.154C364.674 238.431 351.74 254.259 351.611 254.418L346.953 250.659C347.56 249.902 361.981 232.301 378.783 233.177C388.514 233.682 396.89 237.86 403.683 245.587C410.666 253.526 415.693 264.901 418.625 279.395C421.46 293.416 422.202 309.643 420.831 327.623C419.656 343.016 422.953 355.014 430.627 363.284C441.811 375.333 458.62 375.459 458.824 375.459V381.443H458.799Z" fill="#80DEE5"/>
<path d="M354.471 255.012L282.44 350.311L255.1 386.487L250.474 383.113L276.706 346.128L345.809 248.694L354.471 255.012Z" fill="#317A8B"/>
<path d="M282.44 350.311L255.1 386.487L250.474 383.113L276.706 346.128L282.44 350.311Z" fill="#F98250"/>
<path d="M264.35 385.406V388.47C264.347 389.201 264.054 389.902 263.538 390.419C263.021 390.936 262.321 391.229 261.589 391.234H234.795C234.064 391.228 233.364 390.935 232.848 390.418C232.332 389.901 232.04 389.201 232.036 388.47V385.406C232.041 384.676 232.333 383.977 232.849 383.46C233.365 382.943 234.064 382.651 234.795 382.645H261.589C262.32 382.65 263.02 382.942 263.537 383.459C264.053 383.976 264.346 384.675 264.35 385.406Z" fill="#ED5E35"/>
<path d="M257.783 385.406V388.47C257.779 389.201 257.487 389.902 256.97 390.419C256.453 390.936 255.753 391.229 255.021 391.234H234.812C234.081 391.228 233.382 390.935 232.866 390.418C232.349 389.901 232.057 389.201 232.053 388.47V385.406C232.058 384.676 232.35 383.977 232.866 383.46C233.383 382.943 234.082 382.651 234.812 382.645H255.021C255.752 382.65 256.452 382.942 256.969 383.459C257.486 383.976 257.778 384.675 257.783 385.406Z" fill="#F98250"/>
<path d="M392.477 233.144C389.37 233.65 387.235 233.144 387.235 233.144C387.235 233.144 369.779 215.475 367.337 214.015C364.894 212.555 333.567 210.886 333.567 210.886C330.437 207.616 327.875 203.846 325.989 199.731C323.21 193.724 319.304 183.285 319.304 183.285C319.304 183.285 326.504 183.229 331.955 184.873C344.192 188.561 368.534 196.089 373.074 198.923C383.178 205.238 396.125 230.138 396.125 230.138C396.125 230.138 395.013 232.728 392.477 233.144Z" fill="#308796"/>
<path d="M322.22 211.51C322.22 211.251 322.296 210.999 322.44 210.784C322.583 210.569 322.787 210.402 323.026 210.303C323.265 210.204 323.527 210.178 323.781 210.229C324.034 210.279 324.267 210.404 324.449 210.586C324.632 210.769 324.756 211.002 324.807 211.255C324.857 211.508 324.831 211.771 324.732 212.009C324.634 212.248 324.466 212.452 324.251 212.595C324.037 212.739 323.784 212.816 323.526 212.816C323.179 212.816 322.847 212.678 322.602 212.433C322.357 212.188 322.22 211.856 322.22 211.51Z" fill="#ED6644"/>
<path d="M74.1992 322.384V258.545C74.1992 247.315 82.4218 238.209 92.5669 238.209H134.104C144.25 238.209 152.472 247.315 152.472 258.545V322.384H74.1992Z" fill="#80DEE5"/>
<path d="M78.6124 322.384V258.545C78.6124 247.315 86.835 238.209 96.98 238.209H138.518C148.663 238.209 156.885 247.315 156.885 258.545V322.384H78.6124Z" fill="#A6F1F7"/>
<path d="M74.1992 322.374H169.117V332.452H80.3075C78.6875 332.452 77.1338 331.809 75.9883 330.663C74.8428 329.518 74.1992 327.964 74.1992 326.344V322.374Z" fill="#80DEE5"/>
<path d="M179.76 322.381H112.571C110.077 322.381 108.055 324.403 108.055 326.898V327.943C108.055 330.438 110.077 332.46 112.571 332.46H179.76C182.254 332.46 184.276 330.438 184.276 327.943V326.898C184.276 324.403 182.254 322.381 179.76 322.381Z" fill="#B6FDFF"/>
<path d="M123.823 405.351H118.096L116.487 332.46H125.24L123.823 405.351Z" fill="#6AD3D6"/>
<path d="M148.721 405.351H93.0064V400.319L121.403 397.758L148.721 400.319V405.351Z" fill="#6AD3D6"/>
<path d="M96.7175 405.328C97.1209 402.83 95.4224 400.478 92.924 400.075C90.4255 399.671 88.0731 401.37 87.6698 403.868C87.2665 406.366 88.965 408.718 91.4634 409.122C93.9619 409.525 96.3142 407.827 96.7175 405.328Z" fill="#6AD3D6"/>
<path d="M153.616 404.279C154.02 401.774 152.318 399.415 149.812 399.01C147.307 398.605 144.947 400.308 144.542 402.813C144.137 405.319 145.84 407.678 148.346 408.083C150.851 408.488 153.211 406.785 153.616 404.279Z" fill="#6AD3D6"/>
<path d="M146.722 337.244H95.0046C93.7361 337.244 92.5195 336.74 91.6223 335.843C90.7251 334.947 90.2207 333.731 90.22 332.462H151.504C151.504 333.73 151.001 334.947 150.104 335.843C149.207 336.74 147.991 337.244 146.722 337.244Z" fill="#6AD3D6"/>
<path d="M48.3642 429.494H48.2505C47.5862 429.494 47.0532 428.61 47.0683 427.536L48.8695 301.78L54.1567 300.769L49.65 427.547C49.6096 428.64 49.0488 429.494 48.3642 429.494Z" fill="#66D5D8"/>
<path d="M273.192 429.494H273.306C273.97 429.494 274.503 428.61 274.488 427.536L272.687 301.78L267.4 300.769L271.909 427.544C271.949 428.64 272.51 429.494 273.192 429.494Z" fill="#66D5D8"/>
<path d="M283.668 296.493H38.982C37.3023 296.493 35.9405 297.854 35.9405 299.534V301.039C35.9405 302.719 37.3023 304.081 38.982 304.081H283.668C285.348 304.081 286.709 302.719 286.709 301.039V299.534C286.709 297.854 285.348 296.493 283.668 296.493Z" fill="#66D5D8"/>
<path d="M272.737 287.407H197.635L202.664 235.779H277.764L272.737 287.407Z" fill="#275962"/>
<path d="M275.453 287.407H200.353L205.38 235.779H280.482L275.453 287.407Z" fill="#317A8B"/>
<path d="M242.183 295.245H228.858L233.216 265.492H246.543L242.183 295.245Z" fill="#275962"/>
<path d="M248.385 294.351H221.027V296.495H248.385V294.351Z" fill="#275962"/>
<path d="M45.6738 169.01C45.6738 169.01 44.6128 158.743 33.3436 160.96C33.3436 160.96 36.9409 161.213 39.0729 162.728C39.0729 162.728 31.0524 159.925 24.5046 167.95C17.9568 175.975 24.2773 190.102 22.5064 193.659C20.7356 197.215 2.29717 198.284 10.0904 216.087C14.1979 225.468 50.2562 227.294 50.0744 235.913C50.0744 235.913 57.9484 217.448 48.5587 211.575C48.5587 211.575 53.1361 214.452 54.3688 218.698C54.3688 218.698 53.755 210.052 47.8539 208.41C42.6298 206.955 37.0167 198.986 37.1202 197.342C37.2238 195.697 45.6738 169.01 45.6738 169.01Z" fill="#305864"/>
<path d="M88.6336 287.576L82.7805 289.978C82.7805 289.978 66.2569 280.397 58.59 273.476C58.2532 273.18 57.9417 272.889 57.6554 272.602C54.48 269.518 37.628 238.31 33.859 228.747C30.09 219.183 45.0347 217.885 45.0347 217.885C51.3956 218.448 64.9281 259.563 69.1746 264.047C69.5308 264.421 70.0133 264.994 70.5918 265.722C73.8606 269.816 80.2114 278.753 84.3366 284.219C86.4434 287.025 88.6336 287.576 88.6336 287.576Z" fill="#FFA087"/>
<path d="M103.803 295.361C103.172 296.253 95.4668 294.803 91.7837 294.222C91.1989 294.114 90.6086 294.039 90.0154 293.997C89.1464 293.997 87.7191 294.793 86.5419 295.202C85.7437 295.477 85.0591 295.576 84.7408 295.121C84.5817 294.88 84.4423 294.627 84.324 294.363C84.0587 293.79 83.7809 293.057 83.5383 292.355C83.1089 291.125 82.7805 289.998 82.7805 289.998L86.9259 287.495C86.9259 287.495 87.6206 287.515 88.6336 287.596C90.9071 287.771 94.8075 288.251 95.9594 289.493C97.652 291.274 104.27 294.707 103.803 295.361Z" fill="#FFA087"/>
<path d="M92.4734 295.212C92.1374 295.404 90.6116 295.113 87.032 295.212C86.8602 295.212 86.7011 295.212 86.5445 295.212C85.4481 295.159 84.761 294.803 84.3265 294.363C83.5687 293.58 83.5864 292.524 83.5409 292.355H88.7549C88.7549 292.355 90.5232 293.843 91.3821 294.08C91.5224 294.12 91.6586 294.174 91.7888 294.24C92.4001 294.527 92.7512 295.048 92.4734 295.212Z" fill="#FFA087"/>
<path d="M38.8128 269.553C38.5524 269.881 38.2135 270.137 37.8276 270.299C36.6352 270.776 33.715 270.607 33.715 270.607C33.7453 270.541 34.2783 269.493 35.8092 268.74C37.3931 267.962 39.4696 267.146 39.5302 267.745C39.5731 268.141 39.3306 268.942 38.8128 269.553Z" fill="#FFA087"/>
<path d="M27.6497 421.558L22.9207 423.326C22.9207 423.326 2.38308 394.841 -0.145602 369.776C-0.597784 365.3 -0.44873 360.965 0.528893 356.961C0.528893 356.961 0.329329 355.815 -0.0218077 353.789C-0.186007 352.844 -0.385581 351.705 -0.612935 350.399C-1.28237 346.575 -2.19936 341.341 -3.25024 335.38C-5.66777 321.664 -8.80778 304.131 -11.2304 291.241L-9.96728 290.832L3.83058 286.371L6.68261 277.333L16.9464 274.631C16.9464 274.631 19.2401 279.117 21.2914 300.307C21.6678 303.085 22.0113 306.149 22.2715 309.474C23.2155 321.847 22.8879 334.284 21.2939 346.59C20.824 350.273 20.2228 354.07 19.4902 357.982C18.9496 360.846 18.8688 364.749 19.0961 369.233C20.1293 389.718 27.6497 421.558 27.6497 421.558Z" fill="#F97B50"/>
<path d="M0.528888 356.959C0.367214 356.014 -0.385586 351.702 -0.61294 350.391C-1.28237 346.567 -8.79768 304.124 -11.2228 291.234C-11.2228 291.234 12.2528 282.352 12.3109 284.666C13.0788 316.397 0.528888 356.959 0.528888 356.959Z" fill="#ED5E35"/>
<path d="M42.4479 429.494H18.6313C18.6313 429.494 17.7421 425.705 19.3058 423.111C20.6901 420.838 20.1596 419.522 19.134 417.63C20.398 418.178 21.7686 418.437 23.1455 418.387C24.3328 418.319 25.5858 417.781 26.6822 417.142C27.7078 418.312 32.0957 423.285 33.4674 424.27C35.0286 425.387 41.9704 424.988 42.4479 429.494Z" fill="#275962"/>
<path d="M40.2022 166.012C40.235 165.368 28.0513 174.744 27.5158 175.639C22.5645 183.911 26.1744 192.724 29.8171 192.098C32.1538 191.696 32.462 195.649 32.462 195.649L56.2079 179.599C56.2079 179.599 49.506 162.034 40.2022 166.012Z" fill="#305864"/>
<path d="M40.2805 212.346C40.2805 212.346 46.6161 216.695 49.8521 222.386C49.8521 222.386 47.4194 234.584 35.938 240.03C35.9405 240.03 37.3198 213.222 40.2805 212.346Z" fill="#EAB9A8"/>
<path d="M33.9474 228.363C19.0608 227.898 22.6327 207.188 23.527 207.377C25.4216 206.587 30.6609 201.178 33.2047 193.649L33.8186 194L44.0697 199.946C44.0697 199.946 42.6348 203.326 41.5107 206.581C40.6316 209.13 39.9445 211.608 40.2779 212.346C41.0939 212.76 37.9185 228.489 33.9474 228.363Z" fill="#FFA087"/>
<path d="M44.0697 199.948C44.0697 199.948 42.6323 203.326 41.5082 206.584C35.41 204.311 34.0788 197.571 33.811 194.002L44.0697 199.948Z" fill="#ED8369"/>
<path d="M45.0802 203.742C45.0802 203.742 30.4285 198.994 33.5256 189.915C36.6226 180.837 36.8096 174.11 46.3028 176.758C55.7961 179.405 56.4075 183.487 56.1195 186.768C55.8315 190.049 48.9654 204.743 45.0802 203.742Z" fill="#FFA087"/>
<path d="M57.4078 181.575C56.0916 178.074 54.1844 178.091 52.9491 178.584C46.4847 171.481 39.1361 176.194 39.1361 176.194C35.9329 182.373 29.9611 184.495 29.9611 184.495C29.9611 184.495 32.0553 187.043 38.7142 187.566C40.7503 187.725 42.8748 186.967 44.8452 185.843C42.3266 187.926 39.5355 189.656 36.5493 190.984C45.0195 190.107 51.4385 180.943 52.0978 179.968C52.7142 181.072 53.8661 183.406 53.8257 185.29C53.76 187.849 52.459 192.719 53.9015 193.032C53.9015 193.032 59.3832 186.823 57.4078 181.575Z" fill="#305864"/>
<path d="M39.4013 247.871C34.8214 252.198 29.0441 255.216 26.4043 257.722C20.0257 263.797 -15.108 252.96 -8.8962 242.622C-8.88421 242.6 -8.87071 242.579 -8.85579 242.559C-8.16362 241.408 -7.46893 240.289 -6.77171 239.199L-6.71866 239.113C-2.35702 232.238 2.6415 225.789 8.21091 219.85C10.6132 217.3 13.1426 214.873 15.7894 212.578C16.1506 212.262 16.5068 211.959 16.8579 211.664C23.3552 206.198 25.1235 206.299 25.1235 206.299C25.1235 206.299 33.8665 212.677 37.9058 214.548C40.6568 215.811 40.2905 212.429 40.2905 212.358C40.3461 212.578 42.8167 221.328 43.2613 230.98C43.5644 237.835 42.8293 244.632 39.4013 247.871Z" fill="#F9D4C4"/>
<path d="M81.3052 296.495C81.3052 296.495 79.302 293.777 93.0089 293.07C95.4466 292.944 97.1493 294.313 100.686 294.866C104.222 295.419 105.991 295.566 105.991 296.495H81.3052Z" fill="#308796"/>
<path d="M39.4013 247.871C34.8214 252.198 29.0441 255.216 26.4043 257.722C20.0257 263.797 17.0575 275.441 17.0575 275.441C-20.3473 293.502 -26.0059 281.537 -26.0059 281.537C-21.1178 265.785 -15.108 252.971 -8.89621 242.637C-8.88422 242.615 -8.87073 242.594 -8.8558 242.574L-6.70604 239.136C-6.70604 239.136 13.2935 247.424 26.8337 241.45C40.3739 235.476 35.117 231.581 37.1252 231.093C39.149 230.687 41.23 230.652 43.2663 230.99C43.5644 237.835 42.8293 244.632 39.4013 247.871Z" fill="#F97B50"/>
<path d="M40.6518 231.439L37.2061 231.881C37.2061 231.881 36.3472 218.092 27.8594 213.51C19.4725 208.989 8.50144 219.572 8.22104 219.855C10.6234 217.305 13.1527 214.878 15.7995 212.583C21.0867 210.178 24.444 210.36 24.444 210.36C38.4743 211.792 40.6518 231.439 40.6518 231.439Z" fill="#F97B50"/>
<path d="M33.8514 275.388C18.8637 274.252 7.93557 272.281 1.28168 270.046C-2.86374 268.657 -5.35453 267.159 -6.13258 265.696C-8.15351 261.882 14.5667 218.62 14.5667 218.62C24.9518 211.707 26.9929 231.374 26.2704 234.736C25.5479 238.098 9.92366 257.058 8.9132 258.055C8.66058 258.308 10.0828 259.215 12.3664 260.435C19.1871 264.107 33.715 270.607 33.715 270.607L33.8514 275.388Z" fill="#FFA087"/>
<path d="M14.9103 218.087C12.2199 220.815 8.76416 225.193 5.80351 231.727C5.80351 231.727 13.5563 240.389 27.7255 236.221C27.7255 236.221 31.1105 226.776 28.0488 220.232C25.6692 215.139 18.8511 214.086 14.9103 218.087Z" fill="#F9D4C4"/>
<path d="M37.0495 274.663L36.9838 294.891C36.9825 295.116 37.0256 295.339 37.1107 295.547C37.1957 295.755 37.3211 295.945 37.4795 296.104C37.638 296.264 37.8264 296.391 38.0339 296.477C38.2415 296.564 38.4641 296.609 38.689 296.609L46.5656 296.634C46.7904 296.635 47.0131 296.592 47.2212 296.507C47.4292 296.421 47.6184 296.296 47.778 296.138C47.9375 295.979 48.0643 295.791 48.151 295.584C48.2377 295.376 48.2827 295.154 48.2833 294.929L48.3061 288.144C48.3106 285.968 47.4994 283.869 46.0325 282.261L43.2361 279.185C41.6845 277.471 40.7896 275.264 40.7099 272.953L40.4902 269.303C40.4698 268.87 40.2787 268.463 39.9587 268.17C39.6386 267.878 39.2157 267.724 38.7825 267.742C38.3194 267.761 37.8817 267.959 37.5613 268.294C37.241 268.629 37.063 269.075 37.0647 269.538L37.0495 274.663Z" fill="#9DB37D"/>
<path d="M37.6886 264.027L45.6207 264.052C45.9378 264.053 46.2415 264.18 46.465 264.405C46.6886 264.63 46.8137 264.935 46.813 265.252C46.8119 265.515 46.7239 265.771 46.5628 265.98C46.4016 266.189 46.1762 266.338 45.9213 266.406C44.686 266.732 42.5161 267.464 41.7254 268.73C41.6182 268.905 41.4678 269.05 41.2887 269.15C41.1096 269.251 40.9077 269.303 40.7023 269.303H36.6605C36.3585 269.301 36.0687 269.185 35.8496 268.977C35.6306 268.769 35.4987 268.486 35.4808 268.184C35.4531 267.829 35.3948 267.476 35.3065 267.131C35.21 266.766 35.1985 266.383 35.2729 266.013C35.3472 265.642 35.5055 265.294 35.7355 264.994C35.9655 264.694 36.2611 264.451 36.5997 264.284C36.9383 264.116 37.3108 264.028 37.6886 264.027Z" fill="#9DB37D"/>
<path d="M44.2087 272.418C44.1593 272.418 44.1103 272.409 44.0647 272.39C41.0333 271.087 40.134 267.977 40.0961 267.843C40.081 267.796 40.0756 267.746 40.0803 267.696C40.085 267.646 40.0996 267.598 40.1234 267.554C40.1471 267.511 40.1794 267.472 40.2183 267.441C40.2573 267.41 40.3022 267.387 40.3502 267.373C40.3982 267.36 40.4484 267.356 40.4979 267.363C40.5473 267.369 40.595 267.386 40.638 267.411C40.681 267.436 40.7185 267.47 40.7482 267.51C40.7779 267.55 40.7992 267.595 40.811 267.644C40.8261 267.694 41.6648 270.549 44.3476 271.703C44.4262 271.737 44.4908 271.797 44.5302 271.873C44.5697 271.949 44.5817 272.036 44.5641 272.12C44.5466 272.204 44.5006 272.279 44.434 272.333C44.3674 272.387 44.2842 272.416 44.1986 272.415L44.2087 272.418Z" fill="#9DB37D"/>
<path d="M49.3267 285.111H38.0272V291.049H49.3267V285.111Z" fill="#F97B50"/>
<path d="M43.3119 275.131C41.882 277.136 33.8438 275.383 33.8438 275.383L33.7074 270.602C33.8084 270.579 36.2538 270.003 38.8001 269.551C41.4779 269.073 44.2693 268.73 44.5699 269.298C45.1762 270.435 44.7518 273.128 43.3119 275.131Z" fill="#FFA087"/>
<path d="M103.803 295.361C103.172 296.253 95.4668 294.803 91.7837 294.222C92.4001 294.527 92.7512 295.048 92.4733 295.212C92.1374 295.404 90.6115 295.114 87.032 295.212C86.8602 295.212 86.7011 295.212 86.5445 295.212C85.7462 295.487 85.0616 295.586 84.7433 295.131C84.5842 294.89 84.4448 294.637 84.3265 294.373C83.5686 293.59 83.5863 292.535 83.5409 292.365C83.1114 291.135 82.783 290.009 82.783 290.009C82.783 290.009 66.2594 280.428 58.5926 273.507C61.9574 272.284 67.0122 269.897 70.5943 265.764C73.8632 269.859 80.2139 278.796 84.3391 284.262C86.4485 287.041 88.6336 287.604 88.6336 287.604C90.9071 287.778 94.8075 288.258 95.9594 289.501C97.652 291.274 104.27 294.707 103.803 295.361Z" fill="#FF9C49"/>
<path d="M43.3119 275.131C41.882 277.136 33.8438 275.383 33.8438 275.383C18.8561 274.247 7.928 272.276 1.27411 270.041C8.66311 267.856 11.3181 263.246 12.3589 260.442C19.1795 264.115 33.7074 270.614 33.7074 270.614C33.7377 270.549 34.2707 269.5 35.8016 268.748C37.3855 267.97 39.462 267.154 39.5226 267.752C39.5605 268.152 39.318 268.94 38.8001 269.564C41.4779 269.086 44.2693 268.743 44.5699 269.311C45.1762 270.435 44.7518 273.128 43.3119 275.131Z" fill="#FF9C49"/>
<path d="M138.151 274.628L138.22 294.856C138.22 295.081 138.177 295.304 138.091 295.512C138.006 295.72 137.88 295.909 137.721 296.068C137.563 296.228 137.374 296.355 137.167 296.441C136.959 296.528 136.737 296.573 136.512 296.574L128.635 296.601C128.181 296.602 127.745 296.423 127.423 296.103C127.101 295.783 126.919 295.348 126.917 294.894L126.895 288.109C126.89 285.933 127.701 283.834 129.168 282.226L131.965 279.15C133.517 277.436 134.412 275.229 134.491 272.918L134.713 269.268C134.733 268.835 134.923 268.428 135.243 268.135C135.563 267.842 135.985 267.688 136.418 267.707C136.881 267.727 137.319 267.924 137.639 268.259C137.959 268.594 138.137 269.04 138.136 269.503L138.151 274.628Z" fill="#F9D4C4"/>
<path d="M137.515 263.991L129.58 264.017C129.423 264.017 129.267 264.049 129.122 264.11C128.977 264.17 128.846 264.259 128.735 264.371C128.624 264.482 128.537 264.615 128.477 264.76C128.417 264.906 128.387 265.062 128.388 265.219C128.389 265.483 128.478 265.738 128.639 265.947C128.801 266.155 129.027 266.304 129.282 266.371C130.515 266.697 132.685 267.429 133.475 268.695C133.582 268.868 133.73 269.012 133.907 269.113C134.083 269.213 134.283 269.268 134.486 269.271L138.528 269.255C138.829 269.253 139.118 269.137 139.337 268.93C139.555 268.722 139.687 268.44 139.705 268.139C139.733 267.783 139.791 267.431 139.879 267.086C139.974 266.722 139.985 266.342 139.911 265.974C139.837 265.606 139.68 265.26 139.452 264.962C139.224 264.663 138.931 264.421 138.595 264.253C138.26 264.085 137.89 263.995 137.515 263.991Z" fill="#F9D4C4"/>
<path d="M130.992 272.385C131.042 272.385 131.091 272.375 131.136 272.355C134.168 271.051 135.069 267.944 135.105 267.808C135.121 267.76 135.127 267.71 135.123 267.659C135.119 267.609 135.104 267.56 135.081 267.515C135.057 267.471 135.024 267.432 134.985 267.4C134.946 267.368 134.9 267.345 134.851 267.332C134.803 267.318 134.752 267.315 134.702 267.322C134.652 267.329 134.604 267.346 134.561 267.372C134.517 267.398 134.48 267.433 134.451 267.474C134.421 267.515 134.401 267.562 134.39 267.611C134.39 267.659 133.536 270.513 130.853 271.67C130.763 271.709 130.692 271.782 130.655 271.874C130.619 271.965 130.62 272.067 130.659 272.158C130.687 272.223 130.733 272.28 130.792 272.32C130.851 272.36 130.921 272.383 130.992 272.385Z" fill="#F9D4C4"/>
<path d="M126.89 291.757L138.189 291.719L138.169 285.781L126.87 285.818L126.89 291.757Z" fill="#F97B50"/>
<g opacity="0.3">
<path opacity="0.3" d="M146.566 68.0584C145.442 68.9551 144.108 68.0356 142.388 67.4622C140.667 66.8888 142.807 64.9565 142.807 64.9565C142.864 64.953 142.92 64.9375 142.971 64.911C143.476 64.7216 145.068 64.0446 146.359 63.9006C146.659 63.8641 146.962 63.8701 147.261 63.9183C149.307 64.3124 147.688 67.1667 146.566 68.0584Z" fill="#ED8267"/>
<path opacity="0.3" d="M146.566 65.3859L145.919 66.1285L143.524 66.2826C143.524 66.2826 143.194 65.4895 142.971 64.911C143.476 64.7216 145.068 64.0446 146.359 63.9006L146.566 65.3859Z" fill="#FFA087"/>
<path opacity="0.3" d="M151.634 35.0665L150.503 34.8948L142.215 89.4995L143.346 89.6712L151.634 35.0665Z" fill="#308796"/>
<path opacity="0.3" d="M161.546 34.3622L141.794 37.2443L141.807 29.4492L161.561 26.5671L161.546 34.3622Z" fill="#FF8460"/>
<path opacity="0.3" d="M147.354 64.5397C147.354 64.5397 146.005 65.4642 145.97 66.2245C145.934 66.9848 146.222 68.215 146.745 67.9927C147.268 67.7704 148.034 66.3357 147.892 65.6309C147.814 65.2256 147.628 64.8488 147.354 64.5397Z" fill="#ED8267"/>
<path opacity="0.3" d="M100.987 39.4823C100.987 39.4823 95.04 42.3012 93.9891 43.6905C92.9382 45.0798 97.9552 46.2973 97.9552 46.2973L101.997 43.1247L100.987 39.4823Z" fill="#308796"/>
<path opacity="0.3" d="M142.757 66.2927C142.757 66.2927 143.34 67.0783 144.08 67.0783C144.82 67.0783 147.16 67.1818 147.349 66.7499C147.539 66.318 146.061 65.199 145.417 65.2343C144.772 65.2697 143.282 65.3505 142.757 66.2927Z" fill="#FFA087"/>
<path opacity="0.3" d="M143.6 66.3912C143.787 64.9262 143.039 64.6382 143.039 64.6382C143.039 64.6382 128.231 61.0665 126.983 60.5967C125.735 60.1269 115.517 48.1741 115.517 48.1741C115.517 48.1741 111.617 43.2333 108.143 44.0744C105.112 44.807 103.834 47.0551 103.311 49.235C103.011 50.5075 103.103 51.8406 103.573 53.0603C104.043 54.2801 104.87 55.3299 105.945 56.0727C110.871 59.4979 120.739 66.2573 123.106 67.101C128.375 68.9803 142.855 68.364 142.855 68.364C143.251 67.7721 143.506 67.0972 143.6 66.3912Z" fill="#24747C"/>
<path opacity="0.3" d="M122.711 156.242H110.237C110.151 156.227 110.066 156.202 109.985 156.169C109.151 155.757 109.394 152.582 109.479 151.599C109.497 151.417 109.51 151.311 109.51 151.311C109.51 151.311 113.857 147.795 114.474 150.465C114.494 150.548 114.517 150.632 114.539 150.718C115.312 153.216 118.707 154.335 120.665 154.64C122.163 154.87 122.61 155.807 122.711 156.242Z" fill="#305864"/>
<path opacity="0.3" d="M99.9129 41.8592C99.9129 41.8592 104.223 45.5168 108.502 42.9655C108.502 42.9655 109.085 40.4194 108.802 38.6714L108.706 38.0475C108.398 36.0672 108.28 34.9482 108.28 34.9482C108.057 34.8951 100.802 33.2507 100.848 33.4806C101.853 38.7851 99.9129 41.8592 99.9129 41.8592Z" fill="#FFA087"/>
<path opacity="0.3" d="M101.734 34.6198C102.593 35.7237 105.238 37.7192 108.704 38.0273C108.396 36.047 108.277 34.928 108.277 34.928C108.075 34.9078 101.479 34.2965 101.734 34.6198Z" fill="#ED8267"/>
<path opacity="0.3" d="M109.661 34.4834C109.661 34.4834 102.335 37.56 100.486 32.9678C98.6371 28.3756 96.4444 25.6779 101.052 23.5182C105.66 21.3586 107.274 22.7453 108.262 24.127C109.25 25.5087 111.518 33.564 109.661 34.4834Z" fill="#FFA087"/>
<path opacity="0.3" d="M100.966 34.2232C100.873 34.3066 99.3167 35.0871 95.1561 29.4239C94.6807 28.6927 94.3868 27.8585 94.2989 26.9908C94.211 26.123 94.3317 25.2469 94.6509 24.4352C95.4769 22.3866 97.705 20.8786 100.951 19.6788C104.197 18.479 106.878 19.598 107.987 21.3586C108.186 21.6714 108.416 21.9634 108.674 22.23C109.894 23.5132 108.825 25.6198 107.059 25.4658C105.796 25.3521 104.708 25.1399 104.187 25.4051C103.045 25.9886 102.939 27.9614 102.952 28.5853C102.964 29.2092 102.909 29.7397 101.3 29.4492C99.6906 29.1587 100.976 31.7225 101.3 32.1898C101.305 32.1823 101.742 33.5235 100.966 34.2232Z" fill="#308796"/>
<path opacity="0.3" d="M90.0457 156.199L85.3597 156.227C84.377 156.227 83.2807 155.254 82.9977 153.448C82.7148 151.642 80.6888 150.67 80.2442 149.205C79.7996 147.739 82.0277 145.645 82.0277 145.645L82.399 145.163L82.7855 144.658L86.5015 145.509C86.5015 145.509 86.5975 146.393 86.6607 147.53C86.7138 148.388 86.7239 149.247 86.691 150.106C86.5925 152.074 87.2619 154.186 89.01 154.56C90.7581 154.933 90.0457 156.199 90.0457 156.199Z" fill="#305864"/>
<path opacity="0.3" d="M119.021 84.3583C119.021 84.3583 119.145 92.6939 118.42 102.649C117.434 116.165 116.25 132.768 116.146 135.913C115.959 141.374 115.136 150.111 115.136 150.111C115.136 150.111 113.072 152.198 108.919 151.346C108.919 151.346 105.152 138.901 104.023 125.716L103.97 125.064C102.914 111.641 101.232 83.3858 101.232 83.3858L119.021 84.3583Z" fill="#FF8460"/>
<path opacity="0.3" d="M116.424 86.0633C116.424 86.0633 117.748 89.0338 115.413 98.7335C113.698 105.859 104.015 125.721 104.015 125.721L103.962 125.069C102.906 111.646 101.224 83.3909 101.224 83.3909L116.424 86.0633Z" fill="#ED6644"/>
<path opacity="0.3" d="M117.288 83.8809C117.288 83.8809 104.948 115.455 97.1645 129.578C89.3814 143.7 86.9461 147.646 86.9461 147.646C86.9461 147.646 82.4319 145.878 82.0151 144.643C82.0151 144.643 84.8722 117.441 90.0988 110.795C93.0519 107.034 95.4037 95.5533 95.5427 91.623C95.6327 89.2281 95.8808 86.8418 96.2853 84.4796L117.288 83.8809Z" fill="#FF8460"/>
<path opacity="0.3" d="M117.202 83.1787C115.449 83.2519 96.9926 82.2087 96.9926 81.1756C97.0431 77.5887 96.4015 71.7664 95.5982 64.6963C95.4516 63.3803 95.3456 62.0718 95.2647 60.7811C95.0636 57.6118 95.1169 54.4316 95.4239 51.2709C95.9897 45.8552 98.3744 41.5232 100.764 39.5277C101.077 39.2751 102.202 40.1592 104.096 40.97C105.847 41.7278 107.251 41.2226 108.845 40.8185L110.841 42.6397C112.498 44.2437 114.259 46.6812 115.1 48.8485C115.113 48.8485 117.358 83.1711 117.202 83.1787Z" fill="#308796"/>
<path opacity="0.3" d="M113.521 49.0379L109.053 49.5734C108.202 49.6752 107.407 50.0472 106.784 50.6347C106.161 51.2222 105.743 51.9942 105.592 52.837L102.752 68.5964C102.241 69.9061 101.34 71.0274 100.172 71.8093C99.0032 72.5911 97.6229 72.9958 96.2171 72.9688L96.2879 84.4669L119.023 84.3583L115.287 50.4474C115.265 50.2384 115.202 50.0357 115.101 49.8514C115 49.667 114.863 49.5045 114.699 49.3733C114.535 49.2422 114.346 49.145 114.144 49.0874C113.942 49.0299 113.73 49.013 113.521 49.0379Z" fill="#FF8460"/>
<path opacity="0.3" d="M104.614 43.6981C102.371 41.2883 99.0565 40.4472 99.0565 40.4472L100.405 39.7702C101.472 39.7702 104.495 41.5864 105.806 43.0843C107.183 44.6579 109.596 49.5103 109.596 49.5103L107.842 49.9271C107.842 49.9271 105.9 45.0798 104.614 43.6981Z" fill="#ED6644"/>
<path opacity="0.3" d="M63.9254 -6H62.2556V159.47H63.9254V-6Z" fill="#80DEE5"/>
<path opacity="0.3" d="M132.258 -6H130.588V159.47H132.258V-6Z" fill="#80DEE5"/>
<path opacity="0.3" d="M137.131 156.242H56.7864V163.802H137.131V156.242Z" fill="#80DEE5"/>
<path opacity="0.3" d="M132.258 78.0434H62.2909V80.241H132.258V78.0434Z" fill="#80DEE5"/>
<path opacity="0.3" d="M132.258 103.801H62.2909V105.998H132.258V103.801Z" fill="#80DEE5"/>
<path opacity="0.3" d="M132.258 129.212H62.2909V131.409H132.258V129.212Z" fill="#80DEE5"/>
<path opacity="0.3" d="M86.8123 82.8427C86.8123 82.8427 86.5925 84.0729 86.8123 84.9064C87.0321 85.74 88.1234 88.074 88.4871 87.9376C89.8184 87.4778 88.8736 84.8458 89.3182 84.5654C89.6087 84.381 89.346 85.6263 89.6011 85.884C89.9068 86.1972 90.215 85.015 90.263 84.381C90.311 83.747 89.442 82.6129 89.442 82.6129L86.8123 82.8427Z" fill="#FFA087"/>
<path opacity="0.3" d="M88.2118 83.3934C89.4749 83.305 89.6441 82.7089 89.6441 82.7089C89.6441 82.7089 91.3518 67.6315 91.6221 66.323C91.8924 65.0146 102.06 53.029 102.06 53.029C102.06 53.029 106.322 48.3964 104.94 45.1C103.74 42.2356 101.315 41.3111 99.0792 41.1469C97.7753 41.0528 96.4733 41.3538 95.3432 42.0108C94.213 42.6678 93.3071 43.6502 92.7437 44.8297C90.1418 50.2353 85.0314 61.0489 84.5742 63.5218C83.5637 69.0208 86.7138 83.0297 86.7138 83.0297C86.7138 83.0297 87.0523 83.4768 88.2118 83.3934Z" fill="#308796"/>
</g>
<path d="M205.193 355.534H164.729V388.897H205.193V355.534Z" fill="#EAB9A8"/>
<path d="M184.961 355.534H144.497V388.897H184.961V355.534Z" fill="#F9D4C4"/>
<path d="M205.17 380.438H198.759L199.322 378.634L198.759 377.343H205.17V380.438Z" fill="#D89C8B"/>
<path d="M184.961 365.86H178.55L179.113 364.057L178.55 362.766H184.961V365.86Z" fill="white"/>
<path d="M184.961 362.766H191.372L190.809 364.572L191.372 365.86H184.961V362.766Z" fill="#D89C8B"/>
<path d="M144.495 380.796H150.908L150.343 382.6L150.908 383.888H144.495V380.796Z" fill="white"/>
<path d="M166.128 385.325H181.755V379.248H166.128V385.325Z" fill="white"/>
</svg>
