<svg width="373" height="467" viewBox="0 0 373 467" fill="none" xmlns="http://www.w3.org/2000/svg">
<ellipse cx="195.48" cy="187" rx="322.5" ry="280" fill="white"/>
<mask id="mask0_13_1009" style="mask-type:alpha" maskUnits="userSpaceOnUse" x="-119" y="-85" width="628" height="544">
<ellipse cx="195.48" cy="187" rx="313.5" ry="272" fill="#C4C4C4"/>
</mask>
<g mask="url(#mask0_13_1009)">
<g clip-path="url(#clip0_13_1009)">
<path d="M431.98 -6H-345.02V264.709H431.98V-6Z" fill="#ECFAF9"/>
<path d="M431.98 -5.99747H116.855V260.677H431.98V-5.99747Z" fill="#DFFCFF"/>
<path d="M116.92 97.6372H106.172V73.6634L105.666 73.3755H102.461H83.8176H83.8024V76.9699H83.8176V79.4428H83.8024V83.0322H83.8176V85.5127H83.8024V89.1071H83.8176V89.1197L81.8421 89.1071V70.309H60.923V72.6909V76.2828V79.4428V83.0322V85.5127V89.1071V91.4007V94.9951V97.2886V100.883V103.045V105.319V105.571H37.3439V126.14H28.5327V131.318H19.0369V122.402H1.94994V98.1525H-0.722717V95.7377H-1.1067V98.1525H-14.4044V95.7402H-14.7858V98.1525H-17.653V110.34L-32.0066 110.275V117.799H-44.1776V71.2966H-80.241V121.121H-91.25V94.1792H-127.288V268.482L119.065 267.543L116.92 97.6372Z" fill="#E1F9FA"/>
<path d="M42.4064 95.9827H41.742V105.751H42.4064V95.9827Z" fill="#E1F9FA"/>
<path d="M53.9686 87.5941H52.9355V106.511H53.9686V87.5941Z" fill="#E1F9FA"/>
<path d="M63.3406 67.6214H63.0073V70.309H63.3406V67.6214Z" fill="#E1F9FA"/>
<path d="M79.0457 67.6214H78.7122V70.309H79.0457V67.6214Z" fill="#E1F9FA"/>
<path d="M69.7621 73.4917H65.5157V80.7462H69.7621V73.4917Z" fill="#EFFFFF"/>
<path d="M69.7621 118.239H65.5157V125.493H69.7621V118.239Z" fill="#EFFFFF"/>
<path d="M89.7238 100.868H85.4773V108.122H89.7238V100.868Z" fill="#EFFFFF"/>
<path d="M63.0073 148.606H58.7607V155.86H63.0073V148.606Z" fill="#EFFFFF"/>
<path d="M81.1677 166.623H76.9214V173.878H81.1677V166.623Z" fill="#EFFFFF"/>
<path d="M100.015 137.226H95.769V144.481H100.015V137.226Z" fill="#EFFFFF"/>
<path d="M125.962 -5.99747H116.855V260.677H125.962V-5.99747Z" fill="#C8F7FC"/>
<path d="M261.831 53.4508H163.283V138.515H261.831V53.4508Z" fill="#B5F5FB"/>
<path d="M259.916 54.8679H165.16V136.82H259.916V54.8679Z" fill="#E1FBFB"/>
<path d="M198.278 90.5242H177.515V64.5978L181.034 61.4252H198.278V90.5242Z" fill="#EFFFFF"/>
<path d="M177.515 64.5978H180.923L181.034 61.4252L177.515 64.5978Z" fill="#B6FDFF"/>
<path d="M191.222 63.9486H184.573V64.2644H191.222V63.9486Z" fill="#B6FDFF"/>
<path d="M192.786 64.8984H183.007V65.2141H192.786V64.8984Z" fill="#B6FDFF"/>
<path d="M196.209 70.9985H179.973V71.4052H196.209V70.9985Z" fill="#B6FDFF"/>
<path d="M196.209 72.2338H179.973V72.6404H196.209V72.2338Z" fill="#B6FDFF"/>
<path d="M196.209 73.4689H179.973V73.8756H196.209V73.4689Z" fill="#B6FDFF"/>
<path d="M196.209 74.7067H179.973V75.1133H196.209V74.7067Z" fill="#B6FDFF"/>
<path d="M196.209 87.9325H179.973V88.3392H196.209V87.9325Z" fill="#B6FDFF"/>
<path d="M222.254 126.494H201.491V100.567L205.01 97.3947H222.254V126.494Z" fill="#EFFFFF"/>
<path d="M201.491 100.567H204.899L205.01 97.3947L201.491 100.567Z" fill="#B6FDFF"/>
<path d="M215.195 99.9182H208.547V100.234H215.195V99.9182Z" fill="#B6FDFF"/>
<path d="M216.762 100.868H206.983V101.184H216.762V100.868Z" fill="#B6FDFF"/>
<path d="M220.185 106.968H203.949V107.375H220.185V106.968Z" fill="#B6FDFF"/>
<path d="M220.185 108.203H203.949V108.61H220.185V108.203Z" fill="#B6FDFF"/>
<path d="M220.185 109.438H203.949V109.845H220.185V109.438Z" fill="#B6FDFF"/>
<path d="M220.185 110.676H203.949V111.083H220.185V110.676Z" fill="#B6FDFF"/>
<path d="M220.185 114.478H203.949V114.884H220.185V114.478Z" fill="#B6FDFF"/>
<path d="M220.185 115.715H203.949V116.122H220.185V115.715Z" fill="#B6FDFF"/>
<path d="M220.185 117.148H203.949V117.554H220.185V117.148Z" fill="#B6FDFF"/>
<path d="M233.972 61.4252H222.506V71.5315H233.972V61.4252Z" fill="#B6FDFF"/>
<path d="M227.735 62.6301C227.735 62.5302 227.765 62.4325 227.82 62.3494C227.876 62.2663 227.955 62.2016 228.047 62.1633C228.139 62.1251 228.241 62.1151 228.339 62.1346C228.437 62.1541 228.527 62.2022 228.598 62.2728C228.668 62.3435 228.717 62.4335 228.736 62.5315C228.756 62.6295 228.746 62.7311 228.707 62.8234C228.669 62.9157 228.604 62.9946 228.521 63.0501C228.438 63.1056 228.34 63.1353 228.24 63.1353C228.106 63.1353 227.978 63.082 227.883 62.9873C227.789 62.8926 227.735 62.7641 227.735 62.6301Z" fill="#FF7D1D"/>
<path d="M233.604 74.7403L222.166 75.5381L222.869 85.6199L234.307 84.8221L233.604 74.7403Z" fill="#EFFFFF"/>
<path d="M227.513 76.9699C227.505 76.87 227.527 76.7699 227.576 76.6826C227.626 76.5953 227.7 76.5245 227.789 76.4794C227.879 76.4343 227.98 76.4168 228.079 76.4292C228.179 76.4416 228.272 76.4832 228.348 76.5489C228.424 76.6147 228.478 76.7014 228.504 76.7981C228.531 76.8949 228.527 76.9972 228.495 77.0922C228.463 77.1872 228.404 77.2704 228.324 77.3314C228.244 77.3924 228.149 77.4283 228.048 77.4347C227.916 77.443 227.786 77.399 227.685 77.312C227.585 77.225 227.523 77.1022 227.513 76.9699Z" fill="#B6FDFF"/>
<path d="M195.5 111.977L184.062 112.775L184.765 122.857L196.203 122.059L195.5 111.977Z" fill="#EFFFFF"/>
<path d="M189.413 114.205C189.406 114.105 189.429 114.005 189.478 113.918C189.528 113.831 189.602 113.761 189.692 113.716C189.781 113.671 189.882 113.654 189.981 113.667C190.081 113.68 190.174 113.722 190.249 113.787C190.325 113.853 190.379 113.94 190.405 114.037C190.431 114.133 190.428 114.236 190.396 114.331C190.363 114.425 190.304 114.508 190.224 114.569C190.145 114.63 190.049 114.666 189.949 114.672C189.816 114.681 189.685 114.636 189.585 114.549C189.485 114.461 189.423 114.338 189.413 114.205Z" fill="#B6FDFF"/>
<path d="M181.12 119.171L169.654 119.29L169.758 129.395L181.224 129.277L181.12 119.171Z" fill="#EFFFFF"/>
<path d="M174.898 121.093C174.898 120.993 174.928 120.896 174.983 120.813C175.039 120.729 175.118 120.665 175.21 120.626C175.302 120.588 175.404 120.578 175.502 120.598C175.6 120.617 175.69 120.665 175.761 120.736C175.831 120.807 175.879 120.897 175.899 120.995C175.918 121.093 175.908 121.194 175.87 121.287C175.832 121.379 175.767 121.458 175.684 121.513C175.601 121.569 175.503 121.598 175.403 121.598C175.269 121.598 175.141 121.545 175.046 121.45C174.951 121.356 174.898 121.227 174.898 121.093Z" fill="#B6FDFF"/>
<path d="M250.974 82.8027L239.687 80.7861L237.909 90.7349L249.197 92.7515L250.974 82.8027Z" fill="#EFFFFF"/>
<path d="M244.65 83.0953C244.665 83.01 244.705 82.9311 244.765 82.8686C244.825 82.806 244.902 82.7627 244.987 82.744C245.071 82.7254 245.159 82.7323 245.24 82.7639C245.321 82.7955 245.39 82.8503 245.44 82.9214C245.489 82.9925 245.516 83.0767 245.518 83.1633C245.519 83.2498 245.495 83.3349 245.448 83.4077C245.401 83.4805 245.333 83.5376 245.254 83.572C245.175 83.6063 245.087 83.6162 245.001 83.6005C244.945 83.5905 244.891 83.5694 244.843 83.5386C244.795 83.5077 244.754 83.4677 244.721 83.4208C244.689 83.3738 244.665 83.3209 244.653 83.2651C244.641 83.2092 244.64 83.1516 244.65 83.0953Z" fill="#81E7EA"/>
<path d="M215.747 74.4781L204.348 75.7124L205.436 85.76L216.836 84.5257L215.747 74.4781Z" fill="#EFFFFF"/>
<path d="M209.757 76.5329C209.748 76.447 209.764 76.3605 209.804 76.2841C209.845 76.2077 209.907 76.1449 209.982 76.1036C210.058 76.0624 210.145 76.0445 210.231 76.0523C210.317 76.0601 210.398 76.0932 210.466 76.1473C210.533 76.2015 210.582 76.2744 210.608 76.3568C210.634 76.4391 210.635 76.5273 210.611 76.6102C210.586 76.693 210.538 76.7668 210.472 76.8223C210.406 76.8778 210.325 76.9125 210.239 76.9219C210.182 76.9282 210.124 76.9231 210.069 76.907C210.013 76.8908 209.962 76.8639 209.917 76.8277C209.872 76.7916 209.835 76.7469 209.807 76.6963C209.78 76.6457 209.763 76.5902 209.757 76.5329Z" fill="#81E7EA"/>
<path d="M185.982 98.3749L174.768 100.767L176.877 110.65L188.091 108.259L185.982 98.3749Z" fill="#BEE8CD"/>
<path d="M180.423 101.297C180.35 101.25 180.293 101.183 180.259 101.104C180.225 101.024 180.215 100.936 180.23 100.851C180.246 100.766 180.286 100.688 180.347 100.626C180.407 100.564 180.484 100.521 180.569 100.503C180.653 100.485 180.741 100.492 180.822 100.524C180.902 100.556 180.971 100.612 181.02 100.683C181.069 100.754 181.096 100.838 181.097 100.925C181.098 101.011 181.074 101.096 181.026 101.169C180.963 101.266 180.864 101.334 180.751 101.358C180.638 101.382 180.52 101.36 180.423 101.297Z" fill="#FF7D1D"/>
<path d="M216.044 71.5315H205.131V64.2012L208.152 61.4252H216.044V71.5315Z" fill="#EFFFFF"/>
<path d="M205.073 64.2012H208.054L208.152 61.4252L205.073 64.2012Z" fill="#EFFFFF"/>
<path d="M210.628 62.3623C210.628 62.2914 210.649 62.2221 210.689 62.1631C210.728 62.1041 210.784 62.0581 210.85 62.031C210.915 62.0038 210.987 61.9967 211.057 62.0106C211.126 62.0244 211.19 62.0586 211.24 62.1087C211.291 62.1589 211.325 62.2228 211.339 62.2924C211.352 62.3619 211.345 62.4341 211.318 62.4996C211.291 62.5651 211.245 62.6211 211.186 62.6606C211.127 62.7 211.058 62.721 210.987 62.721C210.94 62.7213 210.893 62.7123 210.849 62.6944C210.805 62.6765 210.766 62.6501 210.732 62.6167C210.699 62.5833 210.673 62.5437 210.655 62.5C210.637 62.4563 210.628 62.4095 210.628 62.3623Z" fill="#B6FDFF"/>
<path d="M247.929 131.548H237.016V124.215L240.038 121.439H247.929V131.548Z" fill="#EFFFFF"/>
<path d="M236.958 124.215H239.939L240.038 121.439L236.958 124.215Z" fill="#EFFFFF"/>
<path d="M242.513 122.376C242.513 122.305 242.534 122.236 242.574 122.177C242.613 122.118 242.669 122.072 242.735 122.045C242.8 122.018 242.872 122.011 242.942 122.025C243.011 122.038 243.075 122.073 243.126 122.123C243.176 122.173 243.21 122.237 243.224 122.306C243.238 122.376 243.23 122.448 243.203 122.514C243.176 122.579 243.13 122.635 243.071 122.675C243.012 122.714 242.943 122.735 242.872 122.735C242.777 122.735 242.686 122.697 242.618 122.63C242.551 122.563 242.513 122.472 242.513 122.376Z" fill="#B6FDFF"/>
<path d="M252.906 116.999H241.995V109.666L245.017 106.89H252.906V116.999Z" fill="#EFFFFF"/>
<path d="M241.935 109.666H244.916L245.017 106.89L241.935 109.666Z" fill="#EFFFFF"/>
<path d="M247.49 107.827C247.49 107.756 247.511 107.687 247.55 107.628C247.59 107.569 247.646 107.523 247.711 107.496C247.777 107.468 247.849 107.461 247.919 107.475C247.988 107.489 248.052 107.523 248.102 107.573C248.152 107.623 248.187 107.687 248.201 107.757C248.214 107.827 248.207 107.899 248.18 107.964C248.153 108.03 248.107 108.086 248.048 108.125C247.989 108.165 247.92 108.186 247.849 108.186C247.754 108.185 247.663 108.147 247.596 108.08C247.528 108.013 247.49 107.922 247.49 107.827Z" fill="#B6FDFF"/>
<path d="M238.507 116.999H227.594V109.666L230.615 106.89H238.507V116.999Z" fill="#BEE8CD"/>
<path d="M227.536 109.666H230.517L230.615 106.89L227.536 109.666Z" fill="#A5D6B5"/>
<path d="M233.088 107.827C233.088 107.756 233.109 107.687 233.149 107.628C233.188 107.569 233.244 107.523 233.31 107.496C233.375 107.468 233.447 107.461 233.517 107.475C233.587 107.489 233.65 107.523 233.701 107.573C233.751 107.623 233.785 107.687 233.799 107.757C233.813 107.827 233.806 107.899 233.778 107.964C233.751 108.03 233.705 108.086 233.646 108.125C233.587 108.165 233.518 108.186 233.447 108.186C233.352 108.185 233.261 108.147 233.194 108.08C233.127 108.013 233.089 107.922 233.088 107.827Z" fill="#F97B50"/>
<path d="M255.985 69.003H245.075V61.6702L248.096 58.8942H255.985V69.003Z" fill="#BEE8CD"/>
<path d="M245.017 61.6702H247.995L248.096 58.8942L245.017 61.6702Z" fill="#A5D6B5"/>
<path d="M250.569 59.8313C250.569 59.7604 250.59 59.6911 250.63 59.6321C250.669 59.5731 250.725 59.5271 250.791 59.5C250.856 59.4728 250.928 59.4657 250.998 59.4795C251.067 59.4934 251.131 59.5275 251.181 59.5777C251.232 59.6279 251.266 59.6918 251.28 59.7614C251.293 59.8309 251.286 59.9031 251.259 59.9686C251.232 60.0342 251.186 60.0902 251.127 60.1296C251.068 60.169 250.999 60.19 250.928 60.19C250.833 60.1894 250.742 60.1514 250.675 60.0842C250.608 60.0171 250.57 59.9263 250.569 59.8313Z" fill="#F97B50"/>
<path d="M219.237 171.63L219.351 171.756L219.465 171.877C220.551 172.82 224.158 171.12 227.644 168.01C231.13 164.901 233.214 161.496 232.399 160.311L232.292 160.185L232.181 160.056C231.423 159.198 230.504 158.499 229.474 157.998C228.445 157.497 227.327 157.204 226.184 157.137C225.042 157.069 223.897 157.229 222.816 157.605C221.735 157.982 220.739 158.569 219.886 159.332C219.033 160.095 218.339 161.019 217.844 162.051C217.35 163.083 217.064 164.203 217.003 165.346C216.943 166.489 217.109 167.632 217.493 168.711C217.876 169.789 218.469 170.781 219.237 171.63Z" fill="#A6F1F7"/>
<path d="M219.351 171.756L219.386 171.802C219.412 171.829 219.437 171.852 219.465 171.877C220.551 172.82 224.158 171.12 227.644 168.01C231.13 164.901 233.215 161.498 232.399 160.311C232.378 160.281 232.356 160.253 232.333 160.225C232.321 160.211 232.307 160.199 232.292 160.187C231.552 159.485 229.541 160.112 227.192 161.632C226.096 162.35 225.056 163.15 224.082 164.027C223.3 164.726 222.559 165.469 221.862 166.252C219.748 168.662 218.679 170.87 219.351 171.756Z" fill="#BAFAFC"/>
<path d="M221.862 166.25C222.515 166.783 223.336 167.069 224.179 167.057C225.022 167.044 225.834 166.735 226.471 166.182C227.109 165.63 227.53 164.87 227.662 164.037C227.794 163.205 227.628 162.352 227.192 161.63C226.096 162.347 225.056 163.148 224.082 164.024C223.3 164.723 222.559 165.466 221.862 166.25Z" fill="#CAFDFF"/>
<path d="M212.202 204.129H212.998V190.42L204.853 169.639L219.396 158.371L218.909 157.742L203.896 169.377L212.202 190.572V204.129Z" fill="#A6F1F7"/>
<path d="M221.038 159.821C221.214 159.697 221.333 159.508 221.37 159.295C221.406 159.083 221.357 158.865 221.233 158.689L220.02 156.982C219.896 156.806 219.707 156.687 219.495 156.651C219.283 156.614 219.065 156.663 218.889 156.787C218.802 156.849 218.727 156.928 218.671 157.018C218.614 157.109 218.576 157.209 218.558 157.315C218.54 157.42 218.543 157.528 218.567 157.632C218.591 157.736 218.635 157.834 218.697 157.922L219.907 159.629C219.968 159.716 220.047 159.79 220.137 159.847C220.227 159.904 220.328 159.942 220.433 159.96C220.538 159.978 220.646 159.975 220.749 159.951C220.853 159.927 220.952 159.883 221.038 159.821Z" fill="#A6F1F7"/>
<path d="M205.609 169.402C205.609 169.194 205.547 168.99 205.431 168.817C205.315 168.644 205.151 168.509 204.958 168.429C204.766 168.349 204.554 168.328 204.35 168.369C204.145 168.41 203.958 168.51 203.81 168.657C203.663 168.805 203.563 168.992 203.522 169.197C203.481 169.401 203.502 169.613 203.582 169.805C203.662 169.998 203.797 170.162 203.97 170.278C204.143 170.394 204.347 170.455 204.555 170.455C204.835 170.455 205.103 170.344 205.3 170.147C205.498 169.949 205.609 169.681 205.609 169.402Z" fill="#A6F1F7"/>
<path d="M216.746 206.013H208.736V205.255C208.736 204.849 208.897 204.46 209.184 204.173C209.471 203.886 209.861 203.725 210.267 203.725H215.274C215.664 203.725 216.039 203.88 216.315 204.156C216.591 204.432 216.746 204.807 216.746 205.197V206.006V206.013Z" fill="#A6F1F7"/>
<path d="M211.762 204.129H213.445V191.393H211.762V204.129Z" fill="#A6F1F7"/>
<g opacity="0.7">
<path opacity="0.7" d="M384.006 203.949C384.006 203.949 387.608 199.749 384.228 197.079C384.228 197.079 381.76 195.586 379.747 195.707C379.747 195.707 382.599 200.489 381.677 200.964C380.754 201.439 378.883 195.407 378.883 195.407C378.883 195.407 373.264 194.861 371.458 195.73C371.458 195.73 376.258 199.66 375.247 199.895C374.237 200.13 369.048 196.271 369.048 196.271C369.048 196.271 363.819 197.16 364.097 200.35C364.375 203.54 366.179 204.523 366.969 204.439C367.76 204.356 372.393 202.585 372.494 203.235C372.595 203.884 369.809 206.013 367.856 206.104C367.856 206.104 371.542 210.168 373.992 208.994C376.442 207.819 376.649 205.963 378.178 205.265C379.706 204.568 381.007 204.568 380.378 205.281C379.749 205.993 376.983 206.683 376.109 208.228C375.235 209.774 374.452 210.815 376.988 210.434C379.524 210.052 383.642 208.198 383.824 206.074L384.006 203.949Z" fill="#80DEE5"/>
<path opacity="0.7" d="M366.664 200.436C366.664 200.436 380.866 199.888 384.001 203.949C384.612 205.48 385.582 206.841 386.83 207.918L387.161 208.825C387.161 208.825 384.7 206.23 383.821 206.074C383.821 206.074 385.198 201.042 366.664 200.436Z" fill="#80DEE5"/>
<path opacity="0.7" d="M387.479 194.242C387.479 194.242 395.032 190.014 391.508 184.272C391.508 184.272 388.687 180.749 385.665 179.842C385.665 179.842 387.277 188.402 385.665 188.602C384.054 188.801 384.559 178.937 384.559 178.937C384.559 178.937 376.604 175.111 373.482 175.414C373.482 175.414 378.415 183.77 376.806 183.568C375.197 183.365 369.655 174.909 369.655 174.909C369.655 174.909 361.5 173.393 360.189 178.233C358.878 183.072 360.995 185.482 362.21 185.783C363.425 186.083 371.17 185.985 370.971 186.993C370.771 188.001 365.532 189.61 362.612 188.703C362.612 188.703 365.835 196.657 370.064 196.255C374.293 195.854 375.601 193.224 378.221 193.032C380.84 192.84 382.75 193.537 381.442 194.242C380.133 194.947 375.702 194.472 373.588 196.263C371.473 198.054 369.761 199.168 373.689 199.974C377.617 200.779 384.665 200.274 386.067 197.256L387.479 194.242Z" fill="#A6EEF4"/>
<path opacity="0.7" d="M363.915 179.743C363.915 179.743 385.062 186.589 387.479 194.242C387.479 194.242 387.378 197.665 389.5 201.593V203.108C389.5 203.108 387.29 197.963 386.07 197.263C386.07 197.263 390.801 190.617 363.915 179.743Z" fill="#A6EEF4"/>
<path opacity="0.7" d="M387.734 225.642C385.791 225.642 383.867 225.26 382.072 224.516C380.277 223.772 378.646 222.682 377.272 221.308C375.899 219.934 374.809 218.303 374.066 216.507C373.323 214.712 372.941 212.788 372.941 210.845H402.528C402.528 212.788 402.146 214.712 401.403 216.507C400.66 218.303 399.57 219.934 398.197 221.308C396.823 222.682 395.192 223.772 393.397 224.516C391.602 225.26 389.677 225.642 387.734 225.642Z" fill="#A6EEF4"/>
<path opacity="0.7" d="M372.605 211.302H403.015V210.848H372.605V211.302Z" fill="#80DEE5"/>
</g>
<path d="M431.98 264.706H-345.02V459.997H431.98V264.706Z" fill="#D5F9FC"/>
<path d="M431.98 260.677H-345.02V268.738H431.98V260.677Z" fill="#C8F7FC"/>
<path d="M157.296 23.4197H38.4883C37.5034 23.4197 36.5589 23.0285 35.8625 22.3322C35.1661 21.6358 34.7749 20.6914 34.7749 19.7066C34.7755 18.7222 35.1671 17.7784 35.8634 17.0826C36.5597 16.3868 37.5039 15.996 38.4883 15.996H157.296C158.28 15.996 159.224 16.3869 159.92 17.0828C160.616 17.7787 161.007 18.7225 161.007 19.7066C161.007 20.1941 160.911 20.6769 160.725 21.1274C160.539 21.5779 160.265 21.9872 159.921 22.332C159.576 22.6769 159.167 22.9504 158.717 23.137C158.266 23.3237 157.783 23.4197 157.296 23.4197Z" fill="white"/>
<path d="M53.3394 -5.99747H49.6261V15.9833H53.3394V-5.99747Z" fill="white"/>
<path d="M145.686 -5.99747H141.972V15.9833H145.686V-5.99747Z" fill="white"/>
<path d="M396.366 23.4197H277.559C276.574 23.4191 275.63 23.0276 274.934 22.3313C274.239 21.635 273.848 20.6909 273.848 19.7066C273.848 18.7225 274.239 17.7787 274.935 17.0828C275.631 16.3869 276.574 15.996 277.559 15.996H396.366C397.351 15.996 398.295 16.3868 398.991 17.0826C399.687 17.7784 400.079 18.7222 400.08 19.7066C400.08 20.6914 399.688 21.6358 398.992 22.3322C398.296 23.0285 397.351 23.4197 396.366 23.4197Z" fill="white"/>
<path d="M292.41 -5.99747H288.696V15.9833H292.41V-5.99747Z" fill="white"/>
<path d="M364.281 226.4V227.769C364.281 228.249 364.436 228.641 364.625 228.641H414.572C414.762 228.641 414.916 228.249 414.916 227.769V226.403C414.916 225.923 414.762 225.531 414.572 225.531H364.625C364.436 225.529 364.281 225.92 364.281 226.4Z" fill="#80DEE5"/>
<path d="M364.281 226.4V227.769C364.281 228.249 364.423 228.641 364.597 228.641H404.24C404.412 228.641 404.556 228.249 404.556 227.769V226.403C404.556 225.923 404.412 225.531 404.24 225.531H364.597C364.423 225.529 364.281 225.92 364.281 226.4Z" fill="#B5F5FB"/>
<path d="M366.987 280.304H402.437V228.638H366.987V280.304Z" fill="#B6FDFF"/>
<path d="M368.889 230.098H400.529V277.452H368.889V230.098ZM400.188 230.439H369.23V277.111H400.188V230.439Z" fill="#A6F1F7"/>
<path d="M400.36 245.762H369.061V246.103H400.36V245.762Z" fill="#A6F1F7"/>
<path d="M400.36 261.733H369.061V262.074H400.36V261.733Z" fill="#A6F1F7"/>
<path d="M3.70569 210.201C3.70569 210.201 -1.89986 224.314 -8.89985 240.535C-12.7194 249.376 -16.9533 258.869 -20.9193 267.025C-22.9402 271.208 -24.9157 275.042 -26.7118 278.263C-38.4508 299.291 -42.1213 305.159 -42.1213 305.159C-42.1213 305.159 -48.8485 302.469 -49.4472 300.635C-49.4472 300.635 -44.9607 260.041 -37.0993 250.144C-32.6584 244.552 -27.4393 227.772 -27.1943 221.901C-26.9493 216.031 -25.6053 204.419 -25.6053 204.419L3.70569 210.201Z" fill="#FF8460"/>
<path d="M30.4021 161.589C30.4021 161.589 24.4378 154.633 30.0358 150.222C30.0358 150.222 34.1231 147.747 37.4551 147.949C37.4551 147.949 32.7337 155.868 34.262 156.656C35.7904 157.444 38.8874 147.444 38.8874 147.444C38.8874 147.444 48.1913 146.542 51.1848 147.982C51.1848 147.982 43.2299 154.489 44.9047 154.875C46.5796 155.262 55.1711 148.876 55.1711 148.876C55.1711 148.876 63.8282 150.349 63.3684 155.631C62.9087 160.912 59.9228 162.544 58.6117 162.403C57.3006 162.261 49.6287 159.334 49.4619 160.41C49.2952 161.486 53.913 164.994 57.1465 165.158C57.1465 165.158 51.0408 171.89 46.9838 169.958C42.9268 168.025 42.5807 164.936 40.052 163.779C37.5233 162.622 35.3635 162.627 36.4093 163.807C37.4551 164.987 42.03 166.128 43.4825 168.687C44.9351 171.246 46.2259 172.981 42.03 172.34C37.834 171.698 31.0083 168.637 30.7103 165.118L30.4021 161.589Z" fill="#9DB37D"/>
<path d="M59.1143 155.78C59.1143 155.78 35.5959 154.873 30.4021 161.589C30.4021 161.589 29.2527 165.03 25.7186 168.157L25.1679 169.657C25.1679 169.657 29.2426 165.363 30.7027 165.11C30.7027 165.105 28.4216 156.775 59.1143 155.78Z" fill="#9DB37D"/>
<path d="M25.7185 168.157C25.7185 168.157 20.6663 171.89 20.3202 178.559L21.2372 178.642C21.2372 178.642 22.8489 171.744 25.764 169.043C28.6792 166.343 25.7185 168.157 25.7185 168.157Z" fill="#9DB37D"/>
<path d="M15.0227 154.496C15.0227 154.496 21.6033 153.15 20.3504 148.078C20.3504 148.078 19.0873 144.809 17.0664 143.428C17.0664 143.428 16.2404 150.132 15 149.902C13.7597 149.672 16.4627 142.496 16.4627 142.496C16.4627 142.496 11.4836 137.792 9.10654 137.28C9.10654 137.28 10.7814 144.62 9.63956 144.1C8.49774 143.579 6.39597 136.017 6.39597 136.017C6.39597 136.017 0.724807 132.985 -1.38199 136.241C-3.48879 139.497 -2.49603 141.798 -1.67503 142.304C-0.854039 142.809 4.89293 144.577 4.51654 145.262C4.14014 145.946 -0.121456 145.916 -2.05143 144.557C-2.05143 144.557 -1.5462 151.195 1.67463 151.882C4.89546 152.569 6.47429 150.955 8.46237 151.425C10.4504 151.895 11.6908 152.865 10.5591 153.077C9.42736 153.289 6.26464 151.895 4.27657 152.723C2.28849 153.552 0.762694 153.968 3.47577 155.502C6.18884 157.035 11.5165 158.311 13.2696 156.411L15.0227 154.496Z" fill="#C0D2A3"/>
<path d="M1.04056 138.224C1.04056 138.224 15.0558 148.27 15.0356 154.496C15.0356 154.496 14.154 157.002 14.783 160.402L14.207 160.132C14.207 160.132 13.6411 157.07 13.2749 156.396C13.2698 156.396 18.3348 152.599 1.04056 138.224Z" fill="#9DB37D"/>
<path d="M14.7778 160.402C14.7778 160.402 17.0184 168.99 14.2245 173.017H13.5097C13.5097 173.017 16.4424 170.291 14.3534 160.892C13.7219 158.053 14.7778 160.402 14.7778 160.402Z" fill="#9DB37D"/>
<path d="M24.6425 145.512C24.6425 145.512 12.1354 138.51 17.9658 129.004C17.9658 129.004 22.6342 123.17 27.6385 121.679C27.6385 121.679 24.9683 135.855 27.6385 136.188C30.3086 136.522 29.4725 120.179 29.4725 120.179C29.4725 120.179 42.6464 113.844 47.8149 114.344C47.8149 114.344 39.6428 128.184 42.3129 127.85C44.9831 127.517 54.153 113.51 54.153 113.51C54.153 113.51 67.6604 111.01 69.8152 119.012C71.97 127.014 68.4814 131.018 66.4807 131.518C64.48 132.018 51.6395 131.851 51.9704 133.518C52.3014 135.185 60.9762 137.855 65.8138 136.355C65.8138 136.355 60.476 149.528 53.4735 148.861C46.471 148.194 44.301 143.857 39.9636 143.524C35.6262 143.19 32.4609 144.357 34.6283 145.524C36.7958 146.691 44.1343 145.908 47.6355 148.884C51.1368 151.859 53.9737 153.696 47.4688 155.029C40.964 156.363 29.2931 155.535 26.9564 150.528L24.6425 145.512Z" fill="#C0D2A3"/>
<path d="M63.664 121.5C63.664 121.5 28.6464 132.839 24.6425 145.512C24.6425 145.512 24.8092 151.182 21.3079 157.684V160.187C21.3079 160.187 24.9759 151.682 26.9766 150.515C26.9766 150.515 19.1405 139.51 63.664 121.5Z" fill="#9DB37D"/>
<path d="M21.3079 157.684C21.3079 157.684 15.907 165.886 18.9864 175.871L20.3758 175.497C20.3758 175.497 19.0268 164.502 21.8536 158.972C24.6804 153.443 21.3079 157.684 21.3079 157.684Z" fill="#9DB37D"/>
<path d="M48.7218 173.017C48.7218 179.515 46.1401 185.747 41.5448 190.342C36.9495 194.937 30.7168 197.518 24.218 197.518C17.7193 197.518 11.4866 194.937 6.8913 190.342C2.29596 185.747 -0.285675 179.515 -0.285675 173.017H48.7218Z" fill="#80DEE5"/>
<path d="M49.2775 173.017H-1.08395V173.769H49.2775V173.017Z" fill="#317A8B"/>
<path d="M37.3288 187.25C38.362 186.581 40.7012 185.106 40.8073 185.459C40.8831 185.712 40.7441 186.134 40.4536 186.566C42.4998 187.324 43.965 183.787 45.6904 184.825C46.2714 185.174 45.8874 189.372 43.48 190.817C41.0725 192.262 38.7712 192.944 37.0938 191.805L34.8051 191.332L34.6662 187.528C34.6662 187.528 35.9849 187.422 37.3288 187.25Z" fill="#FFA087"/>
<path d="M11.1452 317.946H-7.39934C-7.535 317.925 -7.66741 317.886 -7.79341 317.832C-9.03123 317.213 -8.64473 312.472 -8.49569 311.012C-8.4679 310.742 -8.44518 310.582 -8.44518 310.582C-8.44518 310.582 -1.92513 305.366 -1.02835 309.36C-0.998032 309.486 -0.967748 309.612 -0.932382 309.729C0.199338 313.465 5.25926 315.162 8.18455 315.634C10.4076 316.006 10.9861 317.306 11.1452 317.946Z" fill="#305864"/>
<path d="M7.39636 211.022C7.39636 211.022 6.40611 223.377 5.24408 238.229C3.66018 258.404 1.75798 283.191 1.57104 287.879C1.24517 296.033 -0.0608444 309.072 -0.0608444 309.072C-0.0608444 309.072 -3.15792 312.169 -9.35204 310.863C-9.35204 310.863 -14.8742 292.249 -16.4531 272.554C-16.4758 272.231 -16.5011 271.905 -16.5263 271.582C-17.9915 251.531 -26.055 208.516 -26.055 208.516L7.39636 211.022Z" fill="#FF8460"/>
<path d="M4.64543 209.31C2.03338 209.469 -25.5498 208.425 -25.5574 206.885C-25.5826 201.527 -26.7042 192.855 -28.1012 182.322C-28.3572 180.359 -28.5593 178.414 -28.7075 176.487C-29.0975 171.761 -29.1076 167.012 -28.7378 162.284C-28.0431 154.183 -24.6025 147.649 -21.0911 144.602C-20.6288 144.218 -18.9287 145.509 -16.0767 146.663C-13.4419 147.732 -11.3578 146.967 -8.98825 146.305L-5.95686 148.967C-3.4307 151.316 -0.740343 154.893 0.575785 158.119C0.570734 158.119 4.88036 209.294 4.64543 209.31Z" fill="#308796"/>
<path d="M0.570704 158.119L-6.96481 159.869L-17.322 187.945C-18.0483 189.914 -19.3609 191.613 -21.0827 192.813C-22.8046 194.013 -24.853 194.656 -26.9518 194.656L-26.0449 208.516L7.40646 211.022L0.570704 158.119Z" fill="#FF8460"/>
<path d="M36.6973 189.375C36.9372 187.182 35.8106 186.77 35.8106 186.77C35.8106 186.77 13.6057 181.852 11.7262 181.183C9.84675 180.514 -5.75228 162.973 -5.75228 162.973C-5.75228 162.973 -11.7115 155.706 -16.8674 157.06C-21.3538 158.237 -23.2207 161.627 -23.9406 164.891C-24.3514 166.799 -24.1778 168.787 -23.4424 170.595C-22.707 172.403 -21.444 173.947 -19.8179 175.027C-12.3683 180.001 2.55371 189.814 6.11054 191.009C14.0275 193.666 35.6287 192.34 35.6287 192.34C36.207 191.446 36.5725 190.432 36.6973 189.375Z" fill="#308796"/>
<path d="M380.833 287.202H319.859V337.474H380.833V287.202Z" fill="#D85433"/>
<path d="M350.345 287.202H289.371V337.474H350.345V287.202Z" fill="#FF8460"/>
<path d="M380.795 324.725H371.135L371.986 322.005L371.135 320.062H380.795V324.725Z" fill="#C14323"/>
<path d="M350.345 302.76H340.682L341.533 300.039L340.682 298.097H350.345V302.76Z" fill="#FFA087"/>
<path d="M350.345 298.097H360.007L359.156 300.817L360.007 302.76H350.345V298.097Z" fill="#C14323"/>
<path d="M289.371 325.263H299.034L298.182 327.981L299.034 329.924H289.371V325.263Z" fill="#FFA087"/>
<path d="M293.362 297.437H310.909V290.612H293.362V297.437Z" fill="white"/>
<g opacity="0.7">
<path opacity="0.7" d="M231.797 223.336V182.939C231.797 175.828 237.001 170.056 243.418 170.056H269.705C276.124 170.056 281.325 175.818 281.325 182.939V223.336H231.797Z" fill="#A6F1F7"/>
<path opacity="0.7" d="M234.591 223.336V182.939C234.591 175.828 239.795 170.056 246.212 170.056H272.501C278.923 170.056 284.122 175.818 284.122 182.939V223.336H234.591Z" fill="#B5F5FB"/>
<path opacity="0.7" d="M231.797 223.336H291.867V229.714H235.662C234.637 229.714 233.654 229.307 232.929 228.582C232.204 227.857 231.797 226.874 231.797 225.849V223.323V223.336Z" fill="#A6F1F7"/>
<path opacity="0.7" d="M298.604 223.336H256.081C254.503 223.336 253.224 224.615 253.224 226.193V226.857C253.224 228.435 254.503 229.714 256.081 229.714H298.604C300.182 229.714 301.461 228.435 301.461 226.857V226.193C301.461 224.615 300.182 223.336 298.604 223.336Z" fill="#B6FDFF"/>
<path opacity="0.7" d="M263.202 275.843H259.577L258.559 229.714H264.099L263.202 275.843Z" fill="#A6F1F7"/>
<path opacity="0.7" d="M278.958 275.843H243.701V272.658L261.672 271.039L278.958 272.658V275.843Z" fill="#A6F1F7"/>
<path opacity="0.7" d="M240.268 275.343C240.268 274.769 240.439 274.209 240.758 273.733C241.076 273.256 241.53 272.885 242.06 272.666C242.589 272.447 243.173 272.389 243.735 272.502C244.297 272.614 244.814 272.89 245.219 273.296C245.624 273.701 245.9 274.218 246.012 274.781C246.124 275.343 246.066 275.926 245.847 276.456C245.627 276.985 245.255 277.438 244.778 277.757C244.302 278.075 243.741 278.245 243.168 278.245C242.787 278.245 242.409 278.17 242.057 278.024C241.705 277.878 241.385 277.665 241.116 277.395C240.847 277.125 240.633 276.806 240.488 276.453C240.342 276.101 240.267 275.724 240.268 275.343Z" fill="#A6F1F7"/>
<path opacity="0.7" d="M275.533 275.343C275.533 274.769 275.703 274.208 276.022 273.73C276.341 273.253 276.794 272.881 277.325 272.661C277.855 272.442 278.439 272.384 279.002 272.497C279.565 272.609 280.083 272.885 280.488 273.292C280.894 273.698 281.17 274.215 281.282 274.778C281.394 275.341 281.336 275.925 281.116 276.455C280.896 276.986 280.523 277.439 280.046 277.757C279.568 278.076 279.007 278.246 278.433 278.245C278.052 278.245 277.674 278.17 277.322 278.024C276.97 277.878 276.65 277.665 276.381 277.395C276.112 277.125 275.898 276.806 275.753 276.453C275.607 276.101 275.532 275.724 275.533 275.343Z" fill="#A6F1F7"/>
<path opacity="0.7" d="M277.695 232.74H244.964C244.16 232.74 243.389 232.421 242.82 231.852C242.252 231.284 241.932 230.513 241.932 229.709H280.716C280.716 230.511 280.398 231.281 279.832 231.849C279.266 232.417 278.497 232.738 277.695 232.74Z" fill="#A6F1F7"/>
<path opacity="0.7" d="M350.037 287.437H350.11C350.529 287.437 350.868 286.897 350.868 286.24L349.733 209.244L346.366 208.633L349.221 286.245C349.253 286.914 349.61 287.437 350.037 287.437Z" fill="#80DEE5"/>
<path opacity="0.7" d="M355.261 206.013H189.856C188.776 206.013 187.9 206.888 187.9 207.968V208.703C187.9 209.783 188.776 210.658 189.856 210.658H355.261C356.34 210.658 357.216 209.783 357.216 208.703V207.968C357.216 206.888 356.34 206.013 355.261 206.013Z" fill="#80DEE5"/>
<path opacity="0.7" d="M337.676 200.264H290.149L293.332 167.591H340.859L337.676 200.264Z" fill="#B5EDED"/>
<path opacity="0.7" d="M339.396 200.264H291.867L295.05 167.591H342.577L339.396 200.264Z" fill="#80DEE5"/>
<path opacity="0.7" d="M318.341 205.223H309.906L312.665 186.394H321.099L318.341 205.223Z" fill="#A6F1F7"/>
<path opacity="0.7" d="M322.267 204.657H304.952V206.013H322.267V204.657Z" fill="#A6F1F7"/>
</g>
<path d="M228.708 371.099C228.708 371.099 232.975 375.055 232.141 377.864C231.307 380.673 227.457 382.549 226.937 385.982C226.417 389.415 224.335 391.287 222.461 391.287H213.528C213.528 391.287 212.149 388.869 215.478 388.142C218.808 387.414 220.066 383.375 219.859 379.629C219.652 375.883 220.172 370.884 220.172 370.884L227.245 369.22L228.708 371.099Z" fill="#305864"/>
<path d="M176.356 381.882C176.356 381.882 177.397 390.218 175.522 391.148C173.648 392.077 151.271 391.772 151.271 391.772C151.271 391.772 151.271 388.96 155.124 388.336C158.976 387.712 165.733 385.421 166.888 380.321C168.042 375.221 176.356 381.882 176.356 381.882Z" fill="#305864"/>
<path d="M156.099 254.724C156.099 254.724 157.362 270.503 158.85 289.471C160.871 315.235 163.301 346.885 163.541 352.872C163.957 363.281 165.625 379.935 165.625 379.935C165.625 379.935 169.578 383.893 177.498 382.223C177.498 382.223 184.548 358.452 186.561 333.298C186.594 332.887 186.625 332.47 186.655 332.056C188.529 306.447 191.455 252.529 191.455 252.529L156.099 254.724Z" fill="#F97B50"/>
<path d="M166.251 267.343L186.561 333.308C186.594 332.897 186.625 332.48 186.655 332.066C188.529 306.458 191.455 252.539 191.455 252.539L166.251 267.343Z" fill="#ED6644"/>
<path d="M161.876 256.598C161.876 256.598 184.672 313.745 199.662 340.601C214.652 367.457 219.338 374.954 219.338 374.954C219.338 374.954 227.927 371.521 228.708 369.177C228.708 369.177 222.973 317.332 212.934 304.694C207.263 297.551 200.599 276.121 200.289 268.626C199.978 261.132 198.268 246.297 198.268 246.297L161.876 256.598Z" fill="#F97B50"/>
<path d="M133.249 275.227C133.249 275.227 128.096 282.509 127.629 283.901C127.161 285.293 127.192 290.845 127.55 291.064C127.909 291.284 128.308 291.191 128.705 290.395C129.101 289.599 129.862 286.763 130.117 287.068C130.372 287.374 128.7 295.76 130.226 296.488C131.751 297.215 136.405 294.164 138.079 290.655C139.754 287.147 138.494 278.366 138.691 277.74C140.358 272.423 133.249 275.227 133.249 275.227Z" fill="#FFA087"/>
<path d="M134.945 279.018C132.047 278.404 131.757 278.008 131.757 278.008C131.757 278.008 132.239 249.518 132.168 246.845C132.098 244.173 120.78 208.067 120.78 208.067L140.158 188.529C140.158 188.529 147.277 239.646 147.325 246.426C147.406 257.631 139.108 278.798 139.108 278.798C137.761 279.226 136.328 279.302 134.945 279.018Z" fill="#275962"/>
<path d="M133.56 183.643C133.56 183.643 128.399 201.747 120.073 205.975C120.073 205.975 119.381 201.949 119.992 198.162C120.085 197.609 120.026 197.04 119.82 196.518C119.613 195.996 119.269 195.54 118.823 195.2C118.307 194.811 117.826 194.44 117.38 194.088C115.848 192.903 114.379 191.638 112.98 190.299L114.013 181.509L114.713 175.545C116.005 176.962 117.445 178.237 119.007 179.349C126.421 184.588 133.56 183.643 133.56 183.643Z" fill="#FFA087"/>
<path d="M119.012 179.344C119.012 179.344 122.043 187.048 117.385 194.088C115.853 192.903 114.384 191.638 112.985 190.299L114.018 181.509C116.991 179.741 119.012 179.344 119.012 179.344Z" fill="#ED8267"/>
<path d="M110.885 192.05C110.885 192.05 123.104 183.494 117.658 175.967C112.212 168.44 110.123 162.266 102.089 167.412C94.0562 172.557 94.6372 176.505 95.8447 179.468C97.0522 182.431 107.566 194.081 110.885 192.05Z" fill="#FFA087"/>
<path d="M137.845 238.959C137.242 238.265 136.619 237.567 135.978 236.865C132.75 233.35 129.827 229.566 127.24 225.556C125.382 222.707 123.752 219.717 122.364 216.612C120.492 212.346 119.755 208.819 119.568 205.121C119.568 205.091 119.568 199.382 119.568 199.36C127.119 193.351 126.709 182.966 126.709 182.966C126.709 182.966 157.023 181.097 182.729 215.839C182.729 215.839 184.498 218.448 186.882 222.338C187.4 223.182 187.951 224.086 188.519 225.041C192.387 231.51 145.916 248.229 137.845 238.959Z" fill="#308796"/>
<path d="M154.505 211.724C159.913 213.492 173.35 215.753 176.881 225.453C178.038 228.63 185.925 221.848 187.102 222.707L180.961 212.889L154.505 211.724Z" fill="#275962"/>
<path d="M115.809 159.97C115.859 159.76 116.084 159.493 116.706 159.124C116.232 159.104 115.761 159.2 115.334 159.404C114.73 158.573 113.424 157.222 111.691 157.636C112.019 157.655 112.339 157.748 112.627 157.907C112.915 158.066 113.163 158.288 113.353 158.556C110.62 157.634 106.124 158.268 96.0543 164.59C82.7819 172.926 92.0428 179.546 94.3972 179.685C96.7516 179.824 99.7274 174.527 103.208 173.055C106.689 171.582 109.883 176.151 111.365 176.235C112.848 176.318 111.785 175.358 112.949 173.855C114.114 172.352 115.609 174.866 116.041 176.765C116.473 178.665 119.735 179.796 119.735 179.796L120.649 176.358C121.563 172.921 118.426 162.011 116.355 160.415L115.809 159.97Z" fill="#317A8B"/>
<path d="M188.481 257.628C184.945 266.785 162.924 270.473 161.28 265.621C160.893 264.484 157.541 271.43 157.326 270.102C154.507 252.539 145.918 248.224 137.847 238.959C137.244 238.265 136.622 237.567 135.98 236.865C132.753 233.35 129.829 229.567 127.242 225.556C125.385 222.708 123.755 219.717 122.367 216.612L135.609 207.266C136.837 206.4 138.339 206.012 139.834 206.175C141.328 206.338 142.711 207.041 143.723 208.153C149.109 214.053 160.004 224.119 171.301 223.622C179.438 223.263 184.184 222.75 186.877 222.333C187.395 223.177 187.946 224.081 188.514 225.036C192.389 231.505 197.517 239.54 198.26 246.287C198.838 251.498 189.11 255.979 188.481 257.628Z" fill="#F97B50"/>
<path d="M128.917 182.984C128.917 182.984 126.929 187.258 128.159 196.756C129.205 204.816 132.274 210.527 132.274 210.527L134.583 209.09C134.583 209.09 127.884 196.649 131.332 183.163C131.337 183.163 131.138 182.999 128.917 182.984Z" fill="#F97B50"/>
<path d="M307.001 386.515C307.001 385.522 307.295 384.552 307.847 383.726C308.399 382.901 309.183 382.258 310.1 381.878C311.017 381.498 312.027 381.399 313.001 381.593C313.974 381.786 314.869 382.265 315.571 382.967C316.272 383.669 316.75 384.564 316.944 385.537C317.137 386.511 317.037 387.52 316.657 388.437C316.277 389.355 315.633 390.138 314.807 390.689C313.981 391.241 313.011 391.535 312.018 391.534C311.359 391.534 310.706 391.404 310.097 391.152C309.488 390.9 308.935 390.53 308.469 390.064C308.004 389.598 307.634 389.044 307.382 388.436C307.13 387.827 307.001 387.174 307.001 386.515Z" fill="#F98250"/>
<path d="M308.954 386.515C308.954 385.909 309.134 385.316 309.472 384.813C309.809 384.309 310.288 383.917 310.849 383.685C311.409 383.454 312.026 383.394 312.62 383.513C313.215 383.632 313.76 383.925 314.188 384.355C314.616 384.784 314.907 385.331 315.024 385.925C315.142 386.52 315.08 387.136 314.847 387.696C314.613 388.256 314.219 388.733 313.715 389.069C313.21 389.405 312.617 389.583 312.01 389.582C311.199 389.58 310.421 389.256 309.848 388.681C309.274 388.106 308.953 387.327 308.954 386.515Z" fill="#ED5E35"/>
<path d="M271.779 381.443C270.847 381.443 252.1 381.259 239.191 367.356C230.335 357.813 226.505 344.291 227.824 327.168C230.491 292.199 224.792 263.903 212.162 249.538C206.473 243.069 199.503 239.575 191.447 239.154C177.654 238.431 164.72 254.259 164.591 254.418L159.933 250.659C160.54 249.902 174.961 232.301 191.763 233.177C201.494 233.682 209.87 237.86 216.663 245.587C223.646 253.526 228.673 264.901 231.605 279.395C234.44 293.416 235.182 309.643 233.811 327.623C232.636 343.016 235.933 355.014 243.607 363.284C254.79 375.333 271.6 375.459 271.804 375.459V381.443H271.779Z" fill="#80DEE5"/>
<path d="M323.797 384.125C323.123 384.796 322.323 385.327 321.443 385.688C320.563 386.048 319.62 386.232 318.669 386.227H265.425C264.75 386.227 264.083 386.071 263.478 385.77C262.873 385.47 262.346 385.033 261.937 384.495C261.529 383.957 261.251 383.332 261.125 382.668C260.998 382.004 261.027 381.321 261.209 380.67C263.384 372.991 268.06 359.601 275.149 355.241C276.48 354.457 277.931 353.897 279.443 353.582C292.006 350.73 316.338 357.929 324.843 374.971C324.843 374.971 325.048 375.34 325.336 375.982C325.942 377.334 326.12 378.839 325.844 380.295C325.569 381.751 324.855 383.088 323.797 384.125Z" fill="#F98250"/>
<path d="M167.451 255.012L95.4203 350.311L68.0797 386.487L63.4543 383.113L89.6859 346.128L158.789 248.694L167.451 255.012Z" fill="#317A8B"/>
<path d="M95.4203 350.311L68.0797 386.487L63.4543 383.113L89.6859 346.128L95.4203 350.311Z" fill="#F98250"/>
<path d="M77.3305 385.406V388.47C77.3265 389.201 77.0344 389.902 76.5175 390.419C76.0007 390.936 75.3007 391.229 74.5694 391.234H47.7746C47.0437 391.228 46.3444 390.935 45.828 390.418C45.3117 389.901 45.02 389.201 45.016 388.47V385.406C45.0206 384.676 45.3127 383.977 45.8289 383.46C46.3452 382.943 47.0441 382.651 47.7746 382.645H74.5694C75.3002 382.65 75.9999 382.942 76.5167 383.459C77.0335 383.976 77.3258 384.675 77.3305 385.406Z" fill="#ED5E35"/>
<path d="M70.7626 385.406V388.47C70.7586 389.201 70.4665 389.902 69.9496 390.419C69.4327 390.936 68.7327 391.229 68.0014 391.234H47.792C47.0612 391.228 46.3618 390.935 45.8455 390.418C45.3291 389.901 45.0374 389.201 45.0334 388.47V385.406C45.0381 384.676 45.3301 383.977 45.8464 383.46C46.3626 382.943 47.0616 382.651 47.792 382.645H68.0014C68.7323 382.65 69.4319 382.942 69.9488 383.459C70.4656 383.976 70.7579 384.675 70.7626 385.406Z" fill="#F98250"/>
<path d="M323.797 384.125C323.123 384.796 322.323 385.327 321.443 385.688C320.563 386.048 319.62 386.232 318.669 386.227H265.425C264.75 386.227 264.083 386.071 263.478 385.77C262.873 385.47 262.346 385.033 261.937 384.495C261.529 383.957 261.251 383.332 261.125 382.668C260.998 382.004 261.027 381.321 261.209 380.67C263.384 372.991 268.06 359.601 275.149 355.241C276.48 354.457 277.931 353.897 279.443 353.582C284.308 362.741 297.558 382.357 323.797 384.125Z" fill="#F37042"/>
<path d="M269.528 379.543C269.527 377.171 270.231 374.852 271.548 372.879C272.866 370.907 274.739 369.369 276.931 368.461C279.123 367.553 281.535 367.315 283.861 367.778C286.188 368.241 288.326 369.383 290.003 371.06C291.681 372.738 292.823 374.875 293.286 377.202C293.749 379.528 293.511 381.94 292.603 384.132C291.695 386.323 290.157 388.196 288.184 389.514C286.211 390.832 283.892 391.535 281.52 391.534C278.339 391.534 275.289 390.271 273.04 388.022C270.791 385.773 269.528 382.724 269.528 379.543Z" fill="#275962"/>
<path d="M274.194 379.543C274.194 378.095 274.623 376.678 275.428 375.474C276.233 374.269 277.377 373.33 278.716 372.776C280.055 372.221 281.528 372.076 282.949 372.359C284.37 372.642 285.675 373.339 286.7 374.364C287.724 375.388 288.422 376.693 288.705 378.114C288.987 379.535 288.842 381.008 288.288 382.347C287.733 383.685 286.794 384.829 285.59 385.634C284.385 386.439 282.968 386.869 281.52 386.869C279.577 386.869 277.713 386.097 276.339 384.723C274.966 383.349 274.194 381.486 274.194 379.543Z" fill="#308796"/>
<path d="M202.683 232.543C202.683 232.543 201.064 239.222 201.127 240.351C201.19 241.48 202.087 244.923 202.405 244.979C202.724 245.034 203.694 245.193 203.749 244.511C203.805 243.829 203.439 243.145 203.709 243.291C203.979 243.438 203.754 246.004 205.055 246.092C206.356 246.181 210.327 245.203 210.529 242.215C210.732 239.227 207.331 233.301 207.293 232.796C206.975 228.527 202.683 232.543 202.683 232.543Z" fill="#FFA087"/>
<path d="M205.457 233.144C202.35 233.65 200.215 233.144 200.215 233.144C200.215 233.144 182.759 215.475 180.317 214.015C177.874 212.555 146.547 210.886 146.547 210.886C143.417 207.616 140.855 203.846 138.969 199.731C136.19 193.724 132.284 183.285 132.284 183.285C132.284 183.285 139.484 183.229 144.935 184.873C157.172 188.561 181.514 196.089 186.054 198.923C196.158 205.238 209.105 230.138 209.105 230.138C209.105 230.138 207.993 232.728 205.457 233.144Z" fill="#308796"/>
<path d="M135.2 211.51C135.2 211.251 135.276 210.999 135.42 210.784C135.563 210.569 135.767 210.402 136.006 210.303C136.244 210.204 136.507 210.178 136.76 210.229C137.014 210.279 137.247 210.404 137.429 210.586C137.612 210.769 137.736 211.002 137.787 211.255C137.837 211.508 137.811 211.771 137.712 212.009C137.613 212.248 137.446 212.452 137.231 212.595C137.016 212.739 136.764 212.816 136.506 212.816C136.159 212.816 135.827 212.678 135.582 212.433C135.337 212.188 135.2 211.856 135.2 211.51Z" fill="#ED6644"/>
<path d="M346.955 40.8716H308.188C306.401 40.8716 304.952 42.3202 304.952 44.1073V81.5217C304.952 83.3087 306.401 84.7574 308.188 84.7574H346.955C348.742 84.7574 350.191 83.3087 350.191 81.5217V44.1073C350.191 42.3202 348.742 40.8716 346.955 40.8716Z" fill="#C5F7FB"/>
<path d="M345.275 42.7711H309.868C308.236 42.7711 306.912 44.0942 306.912 45.7264V79.8975C306.912 81.5297 308.236 82.8528 309.868 82.8528H345.275C346.907 82.8528 348.23 81.5297 348.23 79.8975V45.7264C348.23 44.0942 346.907 42.7711 345.275 42.7711Z" fill="#E1FBFD"/>
<path d="M326.634 46.7772C326.634 46.5919 326.689 46.4107 326.792 46.2566C326.895 46.1025 327.041 45.9824 327.213 45.9114C327.384 45.8405 327.572 45.8219 327.754 45.8581C327.936 45.8943 328.103 45.9835 328.234 46.1146C328.365 46.2456 328.454 46.4126 328.491 46.5944C328.527 46.7762 328.508 46.9646 328.437 47.1358C328.366 47.3071 328.246 47.4534 328.092 47.5564C327.938 47.6594 327.757 47.7143 327.571 47.7143C327.323 47.7143 327.084 47.6156 326.909 47.4399C326.733 47.2641 326.634 47.0258 326.634 46.7772Z" fill="#BCF2F3"/>
<path d="M334.195 48.1033C334.284 47.9398 334.419 47.8064 334.584 47.72C334.748 47.6336 334.935 47.5982 335.12 47.6183C335.305 47.6383 335.48 47.713 335.622 47.8327C335.765 47.9525 335.868 48.1118 335.92 48.2906C335.971 48.4693 335.968 48.6593 335.911 48.8364C335.854 49.0135 335.746 49.1697 335.6 49.2851C335.454 49.4004 335.277 49.4697 335.092 49.4842C334.906 49.4987 334.721 49.4576 334.559 49.3663C334.344 49.2456 334.186 49.0455 334.118 48.8093C334.05 48.573 334.078 48.3195 334.195 48.1033Z" fill="#BCF2F3"/>
<path d="M340.675 53.2487C340.83 53.1484 341.013 53.0966 341.198 53.0997C341.383 53.1029 341.563 53.1609 341.716 53.2664C341.868 53.372 341.986 53.5203 342.054 53.6927C342.122 53.8651 342.137 54.0538 342.098 54.2349C342.059 54.416 341.967 54.5814 341.833 54.7103C341.7 54.8391 341.532 54.9256 341.35 54.9587C341.167 54.9918 340.979 54.9702 340.809 54.8965C340.639 54.8227 340.495 54.7003 340.394 54.5445C340.327 54.4411 340.281 54.3255 340.259 54.2043C340.237 54.0831 340.239 53.9587 340.265 53.8383C340.291 53.7179 340.34 53.6038 340.411 53.5026C340.481 53.4014 340.571 53.3151 340.675 53.2487Z" fill="#BCF2F3"/>
<path d="M343.883 61.213C344.068 61.213 344.249 61.268 344.404 61.3709C344.558 61.4739 344.678 61.6203 344.749 61.7915C344.82 61.9628 344.838 62.1512 344.802 62.333C344.766 62.5147 344.677 62.6817 344.546 62.8128C344.414 62.9439 344.247 63.0331 344.066 63.0693C343.884 63.1054 343.695 63.0869 343.524 63.0159C343.353 62.945 343.207 62.8249 343.104 62.6708C343.001 62.5167 342.946 62.3355 342.946 62.1501C342.946 61.9018 343.045 61.6638 343.221 61.4882C343.396 61.3126 343.634 61.2137 343.883 61.213Z" fill="#BCF2F3"/>
<path d="M342.243 70.458C342.375 70.589 342.464 70.7559 342.501 70.9378C342.537 71.1196 342.519 71.3082 342.448 71.4796C342.377 71.6509 342.257 71.7974 342.102 71.9005C341.948 72.0036 341.767 72.0586 341.581 72.0586C341.396 72.0586 341.215 72.0036 341.06 71.9005C340.906 71.7974 340.786 71.6509 340.715 71.4796C340.644 71.3082 340.626 71.1196 340.662 70.9378C340.699 70.7559 340.788 70.589 340.919 70.458C341.095 70.2828 341.333 70.1844 341.581 70.1844C341.83 70.1844 342.068 70.2828 342.243 70.458Z" fill="#BCF2F3"/>
<path d="M335.698 77.955C336.216 77.955 336.635 77.5355 336.635 77.0179C336.635 76.5003 336.216 76.0808 335.698 76.0808C335.18 76.0808 334.761 76.5003 334.761 77.0179C334.761 77.5355 335.18 77.955 335.698 77.955Z" fill="#BCF2F3"/>
<path d="M326.634 79.3973C326.634 79.212 326.689 79.0308 326.792 78.8767C326.895 78.7226 327.041 78.6025 327.213 78.5315C327.384 78.4606 327.572 78.4421 327.754 78.4782C327.936 78.5144 328.103 78.6036 328.234 78.7347C328.365 78.8657 328.454 79.0327 328.491 79.2145C328.527 79.3963 328.508 79.5847 328.437 79.756C328.366 79.9272 328.246 80.0736 328.092 80.1765C327.938 80.2795 327.757 80.3345 327.571 80.3345C327.323 80.3345 327.084 80.2357 326.909 80.06C326.733 79.8842 326.634 79.6459 326.634 79.3973Z" fill="#BCF2F3"/>
<path d="M320.918 48.1033C320.829 47.9398 320.694 47.8064 320.529 47.72C320.364 47.6336 320.177 47.5982 319.992 47.6183C319.807 47.6383 319.633 47.713 319.49 47.8327C319.348 47.9525 319.244 48.1118 319.193 48.2906C319.141 48.4693 319.144 48.6593 319.201 48.8364C319.258 49.0135 319.366 49.1697 319.512 49.2851C319.658 49.4004 319.835 49.4697 320.021 49.4842C320.206 49.4987 320.392 49.4576 320.554 49.3663C320.768 49.2456 320.926 49.0455 320.994 48.8093C321.062 48.573 321.035 48.3195 320.918 48.1033Z" fill="#BCF2F3"/>
<path d="M314.438 53.2487C314.282 53.1484 314.1 53.0966 313.915 53.0997C313.729 53.1029 313.549 53.1609 313.397 53.2664C313.244 53.372 313.127 53.5203 313.059 53.6927C312.991 53.8651 312.975 54.0538 313.015 54.2349C313.054 54.416 313.146 54.5814 313.279 54.7103C313.412 54.8391 313.581 54.9256 313.763 54.9587C313.945 54.9918 314.133 54.9702 314.303 54.8965C314.473 54.8227 314.618 54.7003 314.718 54.5445C314.852 54.3353 314.898 54.0816 314.845 53.8387C314.793 53.5959 314.646 53.3838 314.438 53.2487Z" fill="#BCF2F3"/>
<path d="M311.23 61.213C311.044 61.213 310.863 61.268 310.709 61.3709C310.555 61.4739 310.435 61.6203 310.364 61.7915C310.293 61.9628 310.274 62.1512 310.31 62.333C310.347 62.5147 310.436 62.6817 310.567 62.8128C310.698 62.9439 310.865 63.0331 311.047 63.0693C311.229 63.1054 311.417 63.0869 311.588 63.0159C311.76 62.945 311.906 62.8249 312.009 62.6708C312.112 62.5167 312.167 62.3355 312.167 62.1501C312.166 61.9018 312.067 61.6638 311.892 61.4882C311.716 61.3126 311.478 61.2137 311.23 61.213Z" fill="#BCF2F3"/>
<path d="M313.531 72.0569C314.049 72.0569 314.468 71.6374 314.468 71.1198C314.468 70.6022 314.049 70.1827 313.531 70.1827C313.013 70.1827 312.594 70.6022 312.594 71.1198C312.594 71.6374 313.013 72.0569 313.531 72.0569Z" fill="#BCF2F3"/>
<path d="M319.414 77.955C319.932 77.955 320.352 77.5355 320.352 77.0179C320.352 76.5003 319.932 76.0808 319.414 76.0808C318.897 76.0808 318.477 76.5003 318.477 77.0179C318.477 77.5355 318.897 77.955 319.414 77.955Z" fill="#BCF2F3"/>
<path d="M327.319 62.1501C327.319 61.9648 327.374 61.7836 327.477 61.6295C327.58 61.4754 327.726 61.3553 327.897 61.2843C328.069 61.2134 328.257 61.1949 328.439 61.231C328.621 61.2672 328.788 61.3564 328.919 61.4875C329.05 61.6186 329.139 61.7855 329.175 61.9673C329.211 62.1491 329.193 62.3375 329.122 62.5088C329.051 62.68 328.931 62.8264 328.777 62.9293C328.623 63.0323 328.441 63.0873 328.256 63.0873C328.008 63.0866 327.77 62.9877 327.594 62.8121C327.418 62.6365 327.32 62.3985 327.319 62.1501Z" fill="#BCF2F3"/>
<path d="M328.382 50.4449H328.127V62.1501H328.382V50.4449Z" fill="#BCF2F3"/>
<path d="M334.09 56.9342L327.884 61.8049L328.358 62.4089L334.564 57.5382L334.09 56.9342Z" fill="#BCF2F3"/>
<path d="M86.1719 429.494H86.2856C86.95 429.494 87.483 428.61 87.4679 427.536L85.6667 301.78L80.3795 300.769L84.8887 427.544C84.9291 428.64 85.4899 429.494 86.1719 429.494Z" fill="#66D5D8"/>
<path d="M96.6479 296.493H-148.038C-149.718 296.493 -151.079 297.854 -151.079 299.534V301.039C-151.079 302.719 -149.718 304.081 -148.038 304.081H96.6479C98.3277 304.081 99.6895 302.719 99.6895 301.039V299.534C99.6895 297.854 98.3277 296.493 96.6479 296.493Z" fill="#66D5D8"/>
<path d="M85.7173 287.407H10.6147L15.6443 235.779H90.7443L85.7173 287.407Z" fill="#275962"/>
<path d="M88.4329 287.407H13.3328L18.3599 235.779H93.4625L88.4329 287.407Z" fill="#317A8B"/>
<path d="M55.1633 295.245H41.838L46.1955 265.492H59.5235L55.1633 295.245Z" fill="#275962"/>
<path d="M61.3651 294.351H34.0069V296.495H61.3651V294.351Z" fill="#275962"/>
<path d="M391.764 319.317H349.42V354.228H391.764V319.317Z" fill="#EAB9A8"/>
<path d="M370.592 319.317H328.248V354.228H370.592V319.317Z" fill="#F9D4C4"/>
<path d="M370.594 330.123H363.882L364.474 328.234L363.882 326.885H370.594V330.123Z" fill="white"/>
<path d="M370.594 326.885H377.304L376.713 328.774L377.304 330.123H370.594V326.885Z" fill="#D89C8B"/>
<path d="M328.248 345.751H334.958L334.367 347.638L334.958 348.99H328.248V345.751Z" fill="white"/>
<path d="M350.885 350.49H367.237V344.13H350.885V350.49Z" fill="white"/>
<path d="M18.1729 355.534H-22.291V388.897H18.1729V355.534Z" fill="#EAB9A8"/>
<path d="M18.1502 380.438H11.7388L12.3022 378.634L11.7388 377.343H18.1502V380.438Z" fill="#D89C8B"/>
<path d="M-2.05905 362.766H4.35236L3.78903 364.572L4.35236 365.86H-2.05905V362.766Z" fill="#D89C8B"/>
<path d="M372.941 260.061H339.429V287.692H372.941V260.061Z" fill="#EAB9A8"/>
<path d="M356.185 260.061H322.673V287.692H356.185V260.061Z" fill="#F9D4C4"/>
<path d="M372.921 280.683H367.611L368.078 279.19L367.611 278.121H372.921V280.683Z" fill="#D89C8B"/>
<path d="M356.185 268.611H350.873L351.343 267.116L350.873 266.05H356.185V268.611Z" fill="white"/>
<path d="M356.185 266.05H361.495L361.028 267.543L361.495 268.611H356.185V266.05Z" fill="#D89C8B"/>
<path d="M322.671 280.981H327.981L327.513 282.474L327.981 283.542H322.671V280.981Z" fill="white"/>
<path d="M340.586 284.732H353.528V279.698H340.586V284.732Z" fill="white"/>
</g>
</g>
<defs>
<clipPath id="clip0_13_1009">
<rect width="777" height="466" fill="white" transform="translate(-345.02 -6)"/>
</clipPath>
</defs>
</svg>
