<svg width="931" height="1024" viewBox="0 0 931 1024" fill="none" xmlns="http://www.w3.org/2000/svg">
<g clip-path="url(#clip0_178_1830)">
<path d="M1330.13 -41.7163H-547.918V612.601H1330.13V-41.7163Z" fill="#ECFAF9"/>
<path d="M1330.13 -41.7102H568.458V602.857H1330.13V-41.7102Z" fill="#DFFCFF"/>
<path d="M568.617 208.78H542.637V150.834L541.415 150.138H533.667H488.606H488.569V158.826H488.606V164.804H488.569V173.479H488.606V179.475H488.569V188.163H488.606V188.193L483.831 188.163V142.727H433.268V148.484V157.166V164.804V173.479V179.475V188.163V193.706V202.394V207.938V216.626V221.852V227.347V227.957H376.276V277.673H354.979V290.189H332.027V268.637H290.727V210.026H284.267V204.189H283.339V210.026H251.198V204.195H250.276V210.026H243.346V239.484L208.652 239.326V257.513H179.234V145.114H92.0673V265.542H65.458V200.422H-21.6481V621.723L573.801 619.451L568.617 208.78Z" fill="#E1F9FA"/>
<path d="M388.513 204.781H386.907V228.391H388.513V204.781Z" fill="#E1F9FA"/>
<path d="M416.459 184.506H413.962V230.229H416.459V184.506Z" fill="#E1F9FA"/>
<path d="M98.8937 136.695H97.8557V145.114H98.8937V136.695Z" fill="#E1F9FA"/>
<path d="M120.954 136.695H119.916V145.114H120.954V136.695Z" fill="#E1F9FA"/>
<path d="M171.523 136.695H170.485V145.114H171.523V136.695Z" fill="#E1F9FA"/>
<path d="M439.112 136.23H438.306V142.727H439.112V136.23Z" fill="#E1F9FA"/>
<path d="M477.072 136.23H476.266V142.727H477.072V136.23Z" fill="#E1F9FA"/>
<path d="M151.752 136.695H150.714V145.114H151.752V136.695Z" fill="#E1F9FA"/>
<path d="M1.25513 219.63H-9.00916V237.164H1.25513V219.63Z" fill="#EFFFFF"/>
<path d="M40.7109 252.733H30.4469V270.268H40.7109V252.733Z" fill="#EFFFFF"/>
<path d="M280.592 223.897H270.328V241.432H280.592V223.897Z" fill="#EFFFFF"/>
<path d="M116.54 159.187H106.276V176.721H116.54V159.187Z" fill="#EFFFFF"/>
<path d="M136.915 159.187H126.651V176.721H136.915V159.187Z" fill="#EFFFFF"/>
<path d="M454.633 150.419H444.369V167.954H454.633V150.419Z" fill="#EFFFFF"/>
<path d="M454.633 258.576H444.369V276.11H454.633V258.576Z" fill="#EFFFFF"/>
<path d="M502.881 216.589H492.618V234.124H502.881V216.589Z" fill="#EFFFFF"/>
<path d="M438.306 331.974H428.042V349.509H438.306V331.974Z" fill="#EFFFFF"/>
<path d="M482.201 375.524H471.937V393.059H482.201V375.524Z" fill="#EFFFFF"/>
<path d="M527.757 304.47H517.493V322.004H527.757V304.47Z" fill="#EFFFFF"/>
<path d="M6.39014 304.47H-3.87378V322.004H6.39014V304.47Z" fill="#EFFFFF"/>
<path d="M69.3719 323.213H59.108V340.748H69.3719V323.213Z" fill="#EFFFFF"/>
<path d="M590.47 -41.7102H568.458V602.857H590.47V-41.7102Z" fill="#C8F7FC"/>
<path d="M918.873 101.979H680.678V307.584H918.873V101.979Z" fill="#B5F5FB"/>
<path d="M914.245 105.405H685.214V303.487H914.245V105.405Z" fill="#E1FBFB"/>
<path d="M765.262 191.588H715.078V128.922L723.584 121.254H765.262V191.588Z" fill="#EFFFFF"/>
<path d="M715.078 128.923H723.315L723.584 121.254L715.078 128.923Z" fill="#B6FDFF"/>
<path d="M748.209 127.353H732.138V128.116H748.209V127.353Z" fill="#B6FDFF"/>
<path d="M751.988 129.649H728.352V130.412H751.988V129.649Z" fill="#B6FDFF"/>
<path d="M760.262 144.393H721.019V145.376H760.262V144.393Z" fill="#B6FDFF"/>
<path d="M760.262 147.379H721.019V148.362H760.262V147.379Z" fill="#B6FDFF"/>
<path d="M760.262 150.365H721.019V151.347H760.262V150.365Z" fill="#B6FDFF"/>
<path d="M760.262 153.356H721.019V154.339H760.262V153.356Z" fill="#B6FDFF"/>
<path d="M760.262 185.324H721.019V186.307H760.262V185.324Z" fill="#B6FDFF"/>
<path d="M823.213 278.528H773.029V215.863L781.534 208.194H823.213V278.528Z" fill="#EFFFFF"/>
<path d="M773.029 215.863H781.266L781.535 208.194L773.029 215.863Z" fill="#B6FDFF"/>
<path d="M806.153 214.294H790.083V215.057H806.153V214.294Z" fill="#B6FDFF"/>
<path d="M809.939 216.589H786.303V217.353H809.939V216.589Z" fill="#B6FDFF"/>
<path d="M818.212 231.334H778.97V232.317H818.212V231.334Z" fill="#B6FDFF"/>
<path d="M818.212 234.319H778.97V235.302H818.212V234.319Z" fill="#B6FDFF"/>
<path d="M818.212 237.305H778.97V238.288H818.212V237.305Z" fill="#B6FDFF"/>
<path d="M818.212 240.296H778.97V241.279H818.212V240.296Z" fill="#B6FDFF"/>
<path d="M818.212 249.485H778.97V250.468H818.212V249.485Z" fill="#B6FDFF"/>
<path d="M818.212 252.477H778.97V253.46H818.212V252.477Z" fill="#B6FDFF"/>
<path d="M818.212 255.938H778.97V256.921H818.212V255.938Z" fill="#B6FDFF"/>
<path d="M851.538 121.254H823.824V145.682H851.538V121.254Z" fill="#B6FDFF"/>
<path d="M836.463 124.166C836.463 123.925 836.534 123.689 836.669 123.488C836.803 123.287 836.993 123.131 837.217 123.038C837.44 122.946 837.685 122.922 837.922 122.969C838.159 123.016 838.377 123.132 838.548 123.303C838.718 123.474 838.835 123.691 838.882 123.928C838.929 124.165 838.905 124.411 838.812 124.634C838.72 124.857 838.563 125.048 838.363 125.182C838.162 125.316 837.925 125.387 837.684 125.387C837.36 125.387 837.049 125.259 836.82 125.03C836.591 124.801 836.463 124.49 836.463 124.166Z" fill="#FF7D1D"/>
<path d="M850.648 153.437L823 155.366L824.7 179.734L852.348 177.806L850.648 153.437Z" fill="#EFFFFF"/>
<path d="M835.925 158.826C835.907 158.585 835.96 158.343 836.079 158.132C836.198 157.921 836.377 157.75 836.593 157.641C836.81 157.532 837.053 157.489 837.294 157.519C837.534 157.549 837.76 157.65 837.943 157.809C838.126 157.968 838.258 158.177 838.321 158.411C838.385 158.645 838.377 158.892 838.3 159.122C838.222 159.351 838.078 159.553 837.886 159.7C837.694 159.848 837.462 159.934 837.22 159.95C836.9 159.97 836.585 159.863 836.342 159.653C836.1 159.443 835.95 159.146 835.925 158.826Z" fill="#B6FDFF"/>
<path d="M758.549 243.441L730.902 245.37L732.602 269.738L760.249 267.81L758.549 243.441Z" fill="#EFFFFF"/>
<path d="M743.837 248.825C743.819 248.584 743.874 248.343 743.993 248.132C744.113 247.922 744.293 247.752 744.509 247.644C744.726 247.536 744.969 247.494 745.209 247.525C745.449 247.556 745.675 247.657 745.857 247.816C746.04 247.975 746.171 248.185 746.234 248.419C746.296 248.653 746.288 248.9 746.211 249.129C746.133 249.358 745.989 249.559 745.796 249.706C745.604 249.853 745.373 249.94 745.131 249.955C744.81 249.975 744.494 249.868 744.252 249.656C744.009 249.445 743.86 249.146 743.837 248.825Z" fill="#B6FDFF"/>
<path d="M723.79 260.83L696.077 261.115L696.329 285.542L724.042 285.256L723.79 260.83Z" fill="#EFFFFF"/>
<path d="M708.753 265.475C708.753 265.233 708.824 264.997 708.958 264.797C709.093 264.596 709.283 264.439 709.506 264.347C709.729 264.254 709.975 264.23 710.212 264.277C710.449 264.324 710.666 264.441 710.837 264.612C711.008 264.782 711.124 265 711.171 265.237C711.218 265.474 711.194 265.719 711.102 265.942C711.009 266.165 710.853 266.356 710.652 266.49C710.451 266.624 710.215 266.696 709.974 266.696C709.65 266.696 709.339 266.567 709.11 266.338C708.881 266.109 708.753 265.799 708.753 265.475Z" fill="#B6FDFF"/>
<path d="M892.633 172.925L865.351 168.051L861.054 192.097L888.336 196.971L892.633 172.925Z" fill="#EFFFFF"/>
<path d="M877.348 173.632C877.384 173.426 877.48 173.235 877.625 173.084C877.77 172.933 877.956 172.828 878.16 172.783C878.365 172.738 878.578 172.754 878.773 172.831C878.968 172.907 879.135 173.04 879.255 173.211C879.374 173.383 879.44 173.587 879.443 173.796C879.447 174.005 879.388 174.211 879.275 174.387C879.162 174.563 878.998 174.701 878.806 174.784C878.614 174.867 878.402 174.891 878.196 174.853C878.06 174.829 877.93 174.778 877.814 174.703C877.698 174.629 877.597 174.532 877.519 174.418C877.44 174.305 877.384 174.177 877.355 174.042C877.325 173.907 877.323 173.768 877.348 173.632Z" fill="#81E7EA"/>
<path d="M807.487 152.804L779.934 155.787L782.564 180.073L810.117 177.089L807.487 152.804Z" fill="#EFFFFF"/>
<path d="M793.007 157.77C792.986 157.563 793.026 157.353 793.123 157.169C793.22 156.984 793.37 156.832 793.553 156.733C793.736 156.633 793.945 156.59 794.153 156.609C794.361 156.627 794.559 156.707 794.721 156.838C794.883 156.969 795.003 157.145 795.066 157.344C795.128 157.544 795.13 157.757 795.072 157.957C795.013 158.157 794.897 158.336 794.737 158.47C794.577 158.604 794.381 158.688 794.173 158.71C794.035 158.726 793.895 158.713 793.761 158.674C793.628 158.635 793.503 158.57 793.395 158.483C793.286 158.395 793.196 158.287 793.13 158.165C793.063 158.043 793.022 157.909 793.007 157.77Z" fill="#81E7EA"/>
<path d="M735.544 210.564L708.439 216.344L713.535 240.234L740.64 234.454L735.544 210.564Z" fill="#BEE8CD"/>
<path d="M722.106 217.627C721.931 217.514 721.793 217.351 721.71 217.159C721.627 216.967 721.603 216.755 721.641 216.549C721.679 216.344 721.776 216.154 721.922 216.004C722.068 215.854 722.255 215.751 722.459 215.707C722.664 215.664 722.876 215.682 723.07 215.759C723.265 215.836 723.431 215.97 723.55 216.142C723.668 216.314 723.733 216.518 723.736 216.727C723.738 216.936 723.679 217.141 723.565 217.316C723.413 217.55 723.173 217.715 722.9 217.773C722.626 217.832 722.341 217.779 722.106 217.627Z" fill="#FF7D1D"/>
<path d="M808.205 145.682H781.828V127.964L789.13 121.254H808.205V145.682Z" fill="#EFFFFF"/>
<path d="M781.687 127.964H788.892L789.13 121.254L781.687 127.964Z" fill="#EFFFFF"/>
<path d="M795.114 123.519C795.114 123.348 795.165 123.18 795.26 123.037C795.355 122.895 795.491 122.784 795.649 122.718C795.807 122.652 795.982 122.635 796.15 122.669C796.318 122.702 796.473 122.785 796.594 122.906C796.715 123.027 796.798 123.182 796.831 123.35C796.865 123.518 796.847 123.692 796.782 123.851C796.716 124.009 796.605 124.145 796.462 124.24C796.32 124.335 796.152 124.386 795.981 124.386C795.867 124.387 795.754 124.365 795.648 124.322C795.542 124.278 795.447 124.215 795.366 124.134C795.285 124.053 795.221 123.957 795.178 123.852C795.135 123.746 795.113 123.633 795.114 123.519Z" fill="#B6FDFF"/>
<path d="M885.273 290.745H858.896V273.021L866.198 266.311H885.273V290.745Z" fill="#EFFFFF"/>
<path d="M858.755 273.021H865.96L866.198 266.311L858.755 273.021Z" fill="#EFFFFF"/>
<path d="M872.182 268.576C872.182 268.405 872.233 268.237 872.328 268.095C872.423 267.952 872.559 267.841 872.717 267.775C872.875 267.71 873.05 267.693 873.218 267.726C873.386 267.76 873.541 267.842 873.662 267.963C873.783 268.085 873.866 268.239 873.899 268.407C873.933 268.575 873.915 268.75 873.85 268.908C873.784 269.067 873.673 269.202 873.53 269.297C873.388 269.392 873.22 269.443 873.049 269.443C872.819 269.443 872.598 269.352 872.436 269.189C872.273 269.027 872.182 268.806 872.182 268.576Z" fill="#B6FDFF"/>
<path d="M897.301 255.578H870.93V237.854L878.233 231.145H897.301V255.578Z" fill="#EFFFFF"/>
<path d="M870.784 237.854H877.989L878.233 231.145L870.784 237.854Z" fill="#EFFFFF"/>
<path d="M884.21 233.409C884.21 233.238 884.261 233.07 884.357 232.928C884.452 232.785 884.587 232.674 884.746 232.608C884.904 232.543 885.079 232.526 885.247 232.559C885.415 232.593 885.57 232.675 885.691 232.796C885.812 232.918 885.895 233.072 885.928 233.24C885.962 233.409 885.945 233.583 885.879 233.741C885.813 233.9 885.702 234.035 885.559 234.13C885.417 234.226 885.249 234.276 885.078 234.276C884.848 234.275 884.628 234.183 884.466 234.021C884.304 233.858 884.212 233.639 884.21 233.409Z" fill="#B6FDFF"/>
<path d="M862.498 255.578H836.121V237.854L843.423 231.145H862.498V255.578Z" fill="#BEE8CD"/>
<path d="M835.98 237.854H843.185L843.423 231.145L835.98 237.854Z" fill="#A5D6B5"/>
<path d="M849.401 233.409C849.401 233.238 849.452 233.07 849.547 232.928C849.642 232.785 849.778 232.674 849.936 232.608C850.095 232.543 850.269 232.526 850.437 232.559C850.606 232.593 850.76 232.675 850.882 232.796C851.003 232.918 851.085 233.072 851.119 233.24C851.152 233.409 851.135 233.583 851.07 233.741C851.004 233.9 850.893 234.035 850.75 234.13C850.607 234.226 850.44 234.276 850.268 234.276C850.039 234.275 849.819 234.183 849.657 234.021C849.494 233.858 849.402 233.639 849.401 233.409Z" fill="#F97B50"/>
<path d="M904.744 139.57H878.373V121.846L885.676 115.136H904.744V139.57Z" fill="#BEE8CD"/>
<path d="M878.233 121.846H885.432L885.676 115.136L878.233 121.846Z" fill="#A5D6B5"/>
<path d="M891.654 117.402C891.654 117.23 891.704 117.063 891.8 116.92C891.895 116.777 892.03 116.666 892.189 116.601C892.347 116.535 892.521 116.518 892.69 116.551C892.858 116.585 893.012 116.667 893.133 116.789C893.255 116.91 893.337 117.064 893.371 117.233C893.404 117.401 893.387 117.575 893.321 117.733C893.256 117.892 893.145 118.027 893.002 118.122C892.86 118.218 892.692 118.269 892.52 118.269C892.291 118.267 892.071 118.175 891.909 118.013C891.747 117.851 891.655 117.631 891.654 117.402Z" fill="#F97B50"/>
<path d="M815.923 387.625L816.197 387.93L816.472 388.223C819.098 390.5 827.817 386.392 836.243 378.876C844.669 371.36 849.706 363.13 847.734 360.267L847.478 359.961L847.209 359.65C845.377 357.577 843.154 355.886 840.666 354.675C838.179 353.464 835.476 352.756 832.714 352.594C829.952 352.431 827.185 352.816 824.573 353.726C821.96 354.637 819.554 356.055 817.491 357.899C815.429 359.743 813.752 361.977 812.556 364.472C811.36 366.967 810.669 369.673 810.523 372.436C810.378 375.198 810.78 377.963 811.706 380.569C812.633 383.176 814.066 385.574 815.923 387.625Z" fill="#A6F1F7"/>
<path d="M816.197 387.93L816.283 388.04C816.344 388.107 816.405 388.162 816.472 388.223C819.098 390.5 827.817 386.391 836.243 378.876C844.669 371.36 849.706 363.136 847.734 360.267C847.685 360.193 847.63 360.126 847.576 360.059C847.546 360.025 847.513 359.995 847.478 359.967C845.689 358.27 840.828 359.784 835.15 363.46C832.501 365.195 829.988 367.13 827.634 369.248C825.743 370.937 823.952 372.733 822.267 374.626C817.156 380.451 814.573 385.787 816.197 387.93Z" fill="#BAFAFC"/>
<path d="M822.266 374.62C823.845 375.91 825.828 376.601 827.867 376.571C829.905 376.541 831.867 375.793 833.408 374.458C834.948 373.123 835.967 371.287 836.286 369.273C836.605 367.26 836.202 365.199 835.15 363.454C832.501 365.188 829.988 367.123 827.634 369.242C825.743 370.931 823.951 372.726 822.266 374.62Z" fill="#CAFDFF"/>
<path d="M798.918 466.176H800.841V433.043L781.156 382.814L816.307 355.578L815.129 354.058L778.842 382.179L798.918 433.409V466.176Z" fill="#A6F1F7"/>
<path d="M820.276 359.082C820.701 358.781 820.988 358.324 821.076 357.812C821.165 357.299 821.046 356.772 820.746 356.347L817.816 352.22C817.515 351.795 817.058 351.508 816.545 351.42C816.032 351.331 815.505 351.45 815.08 351.75C814.87 351.899 814.69 352.089 814.553 352.307C814.416 352.526 814.323 352.77 814.28 353.024C814.237 353.279 814.245 353.539 814.302 353.791C814.36 354.043 814.466 354.28 814.616 354.491L817.541 358.618C817.69 358.828 817.879 359.007 818.097 359.144C818.315 359.281 818.558 359.374 818.812 359.417C819.066 359.46 819.326 359.453 819.578 359.396C819.829 359.338 820.066 359.231 820.276 359.082Z" fill="#A6F1F7"/>
<path d="M782.982 382.24C782.982 381.736 782.832 381.244 782.553 380.825C782.273 380.407 781.875 380.08 781.41 379.888C780.945 379.695 780.433 379.645 779.939 379.743C779.445 379.841 778.991 380.083 778.635 380.44C778.279 380.796 778.036 381.249 777.938 381.743C777.84 382.237 777.89 382.749 778.083 383.214C778.276 383.679 778.602 384.077 779.021 384.357C779.44 384.636 779.932 384.786 780.435 384.786C781.111 384.786 781.758 384.517 782.236 384.04C782.713 383.563 782.982 382.915 782.982 382.24Z" fill="#A6F1F7"/>
<path d="M809.902 470.731H790.541V468.899C790.541 467.918 790.93 466.977 791.624 466.283C792.318 465.589 793.259 465.199 794.241 465.199H806.342C807.287 465.199 808.192 465.574 808.859 466.242C809.527 466.91 809.902 467.815 809.902 468.759V470.713V470.731Z" fill="#A6F1F7"/>
<path d="M797.855 466.176H801.922V435.393H797.855V466.176Z" fill="#A6F1F7"/>
<path d="M1330.13 612.595H-547.918V1084.63H1330.13V612.595Z" fill="#D5F9FC"/>
<path d="M1330.13 602.857H-547.918V622.339H1330.13V602.857Z" fill="#C8F7FC"/>
<path d="M666.207 29.3929H379.043C376.662 29.3929 374.379 28.4473 372.696 26.7642C371.013 25.0811 370.067 22.7983 370.067 20.418C370.069 18.0388 371.015 15.7575 372.698 14.0757C374.381 12.3939 376.663 11.4492 379.043 11.4492H666.207C668.586 11.4492 670.867 12.3941 672.549 14.0761C674.232 15.7581 675.177 18.0393 675.177 20.418C675.177 21.5963 674.946 22.7632 674.496 23.8521C674.045 24.9409 673.385 25.9304 672.552 26.7638C671.719 27.5973 670.729 28.2585 669.641 28.7096C668.552 29.1607 667.385 29.3929 666.207 29.3929Z" fill="white"/>
<path d="M414.939 -41.7102H405.963V11.4186H414.939V-41.7102Z" fill="white"/>
<path d="M638.145 -41.7102H629.169V11.4186H638.145V-41.7102Z" fill="white"/>
<path d="M195.207 741.278H178.3C174.753 741.278 170.814 737.73 169.825 731.234C168.836 724.738 161.552 721.185 159.977 715.867C158.401 710.549 166.479 703.046 166.479 703.046L167.829 701.312L169.233 699.48L182.629 702.631C182.629 702.631 182.959 705.818 183.167 709.878C183.344 712.974 183.362 716.078 183.222 719.176C182.831 726.271 185.212 733.908 191.507 735.288C197.802 736.668 195.207 741.278 195.207 741.278Z" fill="#305864"/>
<path d="M294.971 480.854C294.971 480.854 281.422 514.964 264.503 554.173C255.271 575.542 245.037 598.486 235.451 618.2C230.566 628.31 225.792 637.578 221.45 645.363C193.076 696.19 184.205 710.372 184.205 710.372C184.205 710.372 167.945 703.87 166.498 699.438C166.498 699.438 177.342 601.318 196.343 577.398C207.077 563.88 219.692 523.322 220.284 509.134C220.876 494.945 224.125 466.878 224.125 466.878L294.971 480.854Z" fill="#FF8460"/>
<path d="M267.666 487.002L264.503 554.161C255.271 575.529 245.037 598.473 235.451 618.188L227.959 504.017L267.666 487.002Z" fill="#ED6644"/>
<path d="M359.498 363.356C359.498 363.356 345.082 346.542 358.612 335.882C358.612 335.882 368.492 329.899 376.545 330.387C376.545 330.387 365.133 349.527 368.827 351.432C372.521 353.337 380.007 329.166 380.007 329.166C380.007 329.166 402.495 326.986 409.731 330.466C409.731 330.466 390.503 346.194 394.551 347.128C398.6 348.062 419.366 332.628 419.366 332.628C419.366 332.628 440.29 336.187 439.179 348.953C438.068 361.72 430.851 365.664 427.682 365.322C424.513 364.98 405.969 357.904 405.566 360.505C405.163 363.106 416.325 371.586 424.14 371.983C424.14 371.983 409.383 388.254 399.577 383.583C389.771 378.912 388.934 371.446 382.822 368.649C376.71 365.853 371.49 365.865 374.017 368.716C376.545 371.568 387.603 374.327 391.114 380.512C394.625 386.697 397.745 390.891 387.603 389.34C377.461 387.79 360.963 380.39 360.243 371.885L359.498 363.356Z" fill="#9DB37D"/>
<path d="M428.897 349.314C428.897 349.314 372.051 347.122 359.498 363.356C359.498 363.356 356.72 371.672 348.178 379.23L346.846 382.857C346.846 382.857 356.695 372.477 360.224 371.867C360.224 371.855 354.711 351.719 428.897 349.314Z" fill="#9DB37D"/>
<path d="M348.177 379.23C348.177 379.23 335.966 388.254 335.129 404.372L337.346 404.573C337.346 404.573 341.241 387.899 348.287 381.373C355.333 374.846 348.177 379.23 348.177 379.23Z" fill="#9DB37D"/>
<path d="M322.325 346.212C322.325 346.212 338.231 342.958 335.202 330.698C335.202 330.698 332.149 322.798 327.265 319.458C327.265 319.458 325.268 335.662 322.27 335.106C319.272 334.551 325.805 317.206 325.805 317.206C325.805 317.206 313.771 305.837 308.025 304.598C308.025 304.598 312.073 322.34 309.314 321.082C306.554 319.825 301.474 301.545 301.474 301.545C301.474 301.545 287.766 294.219 282.674 302.089C277.582 309.958 279.981 315.52 281.966 316.742C283.95 317.963 297.841 322.236 296.931 323.891C296.021 325.545 285.721 325.472 281.056 322.188C281.056 322.188 282.277 338.232 290.062 339.893C297.847 341.554 301.663 337.652 306.468 338.788C311.274 339.924 314.272 342.268 311.536 342.781C308.801 343.294 301.156 339.924 296.351 341.926C291.546 343.929 287.858 344.936 294.415 348.642C300.973 352.348 313.85 355.431 318.088 350.84L322.325 346.212Z" fill="#C0D2A3"/>
<path d="M288.529 306.881C288.529 306.881 322.405 331.162 322.356 346.212C322.356 346.212 320.225 352.269 321.745 360.486L320.353 359.833C320.353 359.833 318.986 352.433 318.1 350.803C318.088 350.803 330.33 341.627 288.529 306.881Z" fill="#9DB37D"/>
<path d="M321.733 360.486C321.733 360.486 327.149 381.244 320.396 390.976H318.668C318.668 390.976 325.757 384.389 320.707 361.671C319.181 354.808 321.733 360.486 321.733 360.486Z" fill="#9DB37D"/>
<path d="M345.576 324.495C345.576 324.495 315.346 307.571 329.439 284.597C329.439 284.597 340.722 270.493 352.818 266.891C352.818 266.891 346.364 301.155 352.818 301.96C359.272 302.766 357.251 263.265 357.251 263.265C357.251 263.265 389.093 247.953 401.585 249.161C401.585 249.161 381.833 282.613 388.287 281.807C394.741 281.001 416.905 247.147 416.905 247.147C416.905 247.147 449.553 241.102 454.761 260.444C459.97 279.786 451.538 289.463 446.702 290.672C441.866 291.881 410.83 291.478 411.63 295.507C412.429 299.537 433.397 305.99 445.09 302.363C445.09 302.363 432.188 334.203 415.263 332.591C398.337 330.979 393.092 320.496 382.608 319.69C372.125 318.885 364.474 321.705 369.713 324.526C374.952 327.347 392.689 325.454 401.152 332.646C409.615 339.838 416.472 344.277 400.749 347.5C385.026 350.724 356.817 348.721 351.169 336.621L345.576 324.495Z" fill="#C0D2A3"/>
<path d="M439.894 266.458C439.894 266.458 355.254 293.865 345.576 324.495C345.576 324.495 345.979 338.202 337.517 353.917V359.968C337.517 359.968 346.382 339.411 351.218 336.59C351.218 336.59 332.278 309.989 439.894 266.458Z" fill="#9DB37D"/>
<path d="M337.517 353.917C337.517 353.917 324.462 373.741 331.905 397.876L335.264 396.972C335.264 396.972 332.003 370.395 338.836 357.031C345.668 343.666 337.517 353.917 337.517 353.917Z" fill="#9DB37D"/>
<path d="M403.777 390.977C403.777 406.683 397.537 421.747 386.43 432.853C375.323 443.959 360.259 450.199 344.551 450.199C328.843 450.199 313.778 443.959 302.671 432.853C291.564 421.747 285.324 406.683 285.324 390.977H403.777Z" fill="#80DEE5"/>
<path d="M405.121 390.977H283.394V392.796H405.121V390.977Z" fill="#317A8B"/>
<path d="M376.24 425.38C378.737 423.762 384.391 420.197 384.648 421.052C384.831 421.662 384.495 422.682 383.793 423.726C388.739 425.557 392.28 417.01 396.45 419.519C397.855 420.362 396.927 430.509 391.108 434.001C385.289 437.493 379.726 439.142 375.672 436.388L370.14 435.246L369.804 426.052C369.804 426.052 372.992 425.795 376.24 425.38Z" fill="#FFA087"/>
<path d="M232.081 330.741C232.081 330.741 247.877 343.642 263.129 334.148C263.129 334.148 265.064 324.923 263.929 318.604C263.788 317.822 263.66 317.071 263.538 316.351C262.317 309.226 261.786 305.196 261.786 305.196C260.98 305.025 234.694 299.579 234.871 300.41C238.87 319.55 232.081 330.741 232.081 330.741Z" fill="#FFA087"/>
<path d="M238.162 304.531C241.331 308.45 250.984 315.472 263.538 316.351C262.317 309.226 261.786 305.196 261.786 305.196C261.053 305.141 237.24 303.377 238.162 304.531Z" fill="#ED8267"/>
<path d="M266.756 303.524C266.756 303.524 240.501 315.124 233.546 298.639C226.592 282.155 218.495 272.612 234.95 264.51C251.406 256.408 257.347 261.299 261.01 266.22C264.674 271.141 273.405 300.056 266.756 303.524Z" fill="#FFA087"/>
<path d="M235.36 303.145C235.03 303.456 229.467 306.375 214.105 286.196C211.693 283.028 209.08 275.683 211.919 268.228C214.758 260.774 228.283 252.8 239.908 248.252C244.596 246.471 249.73 246.234 254.562 247.574C255.729 247.888 256.821 248.43 257.776 249.17C258.73 249.91 259.528 250.832 260.123 251.883C260.718 252.934 261.098 254.093 261.241 255.293C261.384 256.492 261.286 257.707 260.955 258.869C258.757 266.568 253.305 271.293 246.399 271.08C241.777 270.939 242.07 280.384 242.125 282.637C242.18 284.89 242.051 286.807 236.227 285.873C231.238 285.067 234.053 291.655 235.726 294.622C236.588 296.07 237.012 297.737 236.947 299.421C236.921 300.821 236.352 302.156 235.36 303.145Z" fill="#308796"/>
<path d="M312.953 741.278H268.13C267.802 741.227 267.482 741.134 267.177 741.003C264.185 739.507 265.119 728.047 265.48 724.518C265.547 723.865 265.602 723.481 265.602 723.481C265.602 723.481 281.361 710.873 283.529 720.526C283.602 720.831 283.675 721.136 283.761 721.417C286.496 730.447 298.726 734.549 305.797 735.691C311.17 736.589 312.568 739.733 312.953 741.278Z" fill="#305864"/>
<path d="M303.892 482.838C303.892 482.838 301.498 512.699 298.689 548.599C294.861 597.362 290.263 657.274 289.812 668.605C289.024 688.314 285.867 719.829 285.867 719.829C285.867 719.829 278.381 727.315 263.41 724.158C263.41 724.158 250.063 679.168 246.246 631.564C246.191 630.783 246.13 629.995 246.069 629.214C242.528 580.749 223.038 476.781 223.038 476.781L303.892 482.838Z" fill="#FF8460"/>
<path d="M297.243 478.698C290.929 479.083 224.259 476.562 224.241 472.837C224.18 459.888 221.469 438.928 218.092 413.469C217.473 408.723 216.985 404.022 216.627 399.365C215.684 387.942 215.66 376.462 216.553 365.035C218.233 345.455 226.549 329.661 235.036 322.297C236.153 321.369 240.263 324.489 247.156 327.279C253.525 329.862 258.562 328.012 264.289 326.412L271.616 332.848C277.722 338.526 284.225 347.171 287.406 354.967C287.394 354.967 297.81 478.662 297.243 478.698Z" fill="#308796"/>
<path d="M287.394 354.967L269.18 359.198L244.146 427.059C242.39 431.819 239.218 435.925 235.056 438.826C230.894 441.726 225.943 443.281 220.87 443.281L223.062 476.781L303.916 482.838L287.394 354.967Z" fill="#FF8460"/>
<path d="M374.714 430.515C375.294 425.216 372.57 424.22 372.57 424.22C372.57 424.22 318.9 412.333 314.357 410.715C309.814 409.097 272.111 366.702 272.111 366.702C272.111 366.702 257.707 349.137 245.245 352.409C234.401 355.254 229.889 363.448 228.149 371.336C227.156 375.948 227.575 380.752 229.353 385.122C231.13 389.493 234.183 393.226 238.113 395.837C256.12 407.858 292.187 431.577 300.784 434.465C319.92 440.888 372.131 437.683 372.131 437.683C373.528 435.522 374.412 433.07 374.714 430.515Z" fill="#308796"/>
<path d="M250.313 339.545C246.039 335.607 232.478 324.789 232.478 324.789L235.036 322.304C236.868 321.919 250.911 332.487 255.582 336.657C261.212 341.676 276.855 358.063 276.855 358.063L269.18 359.205C269.18 359.205 255.301 344.179 250.313 339.545Z" fill="#ED6644"/>
<g opacity="0.7">
<path opacity="0.7" d="M846.281 512.601V414.958C846.281 397.772 858.859 383.821 874.368 383.821H937.905C953.42 383.821 965.992 397.747 965.992 414.958V512.601H846.281Z" fill="#A6F1F7"/>
<path opacity="0.7" d="M853.034 512.601V414.958C853.034 397.772 865.612 383.821 881.121 383.821H944.665C960.186 383.821 972.752 397.747 972.752 414.958V512.601H853.034Z" fill="#B5F5FB"/>
<path opacity="0.7" d="M846.281 512.601H991.472V528.017H855.623C853.145 528.017 850.769 527.033 849.017 525.281C847.265 523.53 846.281 521.154 846.281 518.676V512.571V512.601Z" fill="#A6F1F7"/>
<path opacity="0.7" d="M1007.76 512.602H904.976C901.163 512.602 898.071 515.693 898.071 519.507V521.112C898.071 524.926 901.163 528.018 904.976 528.018H1007.76C1011.57 528.018 1014.66 524.926 1014.66 521.112V519.507C1014.66 515.693 1011.57 512.602 1007.76 512.602Z" fill="#B6FDFF"/>
<path opacity="0.7" d="M922.189 639.514H913.427L910.966 528.018H924.356L922.189 639.514Z" fill="#A6F1F7"/>
<path opacity="0.7" d="M960.271 639.514H875.052V631.815L918.489 627.901L960.271 631.815V639.514Z" fill="#A6F1F7"/>
<path opacity="0.7" d="M866.754 638.305C866.755 636.919 867.167 635.564 867.938 634.412C868.709 633.26 869.804 632.363 871.085 631.834C872.366 631.304 873.775 631.166 875.135 631.437C876.494 631.708 877.742 632.376 878.722 633.357C879.702 634.337 880.369 635.586 880.639 636.946C880.909 638.305 880.77 639.714 880.239 640.994C879.708 642.275 878.81 643.369 877.657 644.139C876.505 644.909 875.15 645.32 873.763 645.32C872.842 645.32 871.93 645.138 871.08 644.786C870.229 644.433 869.456 643.916 868.805 643.265C868.154 642.613 867.638 641.84 867.286 640.989C866.934 640.138 866.753 639.226 866.754 638.305Z" fill="#A6F1F7"/>
<path opacity="0.7" d="M957.218 535.332H878.105C876.161 535.332 874.298 534.56 872.923 533.186C871.549 531.812 870.777 529.948 870.777 528.005H964.521C964.521 529.944 963.752 531.804 962.383 533.177C961.015 534.551 959.157 535.325 957.218 535.332Z" fill="#A6F1F7"/>
<path opacity="0.7" d="M1144.7 470.731H744.905C742.295 470.731 740.18 472.847 740.18 475.457V477.233C740.18 479.843 742.295 481.959 744.905 481.959H1144.7C1147.31 481.959 1149.42 479.843 1149.42 477.233V475.457C1149.42 472.847 1147.31 470.731 1144.7 470.731Z" fill="#80DEE5"/>
</g>
<path d="M838.813 869.753C838.813 869.753 849.126 879.314 847.111 886.103C845.096 892.892 835.791 897.428 834.533 905.726C833.275 914.023 828.244 918.547 823.714 918.547H802.123C802.123 918.547 798.79 912.704 806.837 910.946C814.885 909.187 817.925 899.425 817.425 890.371C816.924 881.316 818.182 869.234 818.182 869.234L835.278 865.21L838.813 869.753Z" fill="#305864"/>
<path d="M712.276 895.817C712.276 895.817 714.792 915.965 710.261 918.211C705.731 920.458 651.645 919.719 651.645 919.719C651.645 919.719 651.645 912.924 660.956 911.416C670.268 909.908 686.601 904.37 689.391 892.043C692.182 879.717 712.276 895.817 712.276 895.817Z" fill="#305864"/>
<path d="M663.313 588.467C663.313 588.467 666.366 626.607 669.962 672.452C674.847 734.727 680.721 811.227 681.301 825.697C682.308 850.857 686.338 891.109 686.338 891.109C686.338 891.109 695.894 900.677 715.036 896.641C715.036 896.641 732.077 839.183 736.944 778.386C737.023 777.391 737.096 776.384 737.17 775.382C741.7 713.486 748.771 583.161 748.771 583.161L663.313 588.467Z" fill="#F97B50"/>
<path d="M687.852 618.969L736.944 778.411C737.023 777.415 737.096 776.408 737.17 775.407C741.7 713.511 748.771 583.186 748.771 583.186L687.852 618.969Z" fill="#ED6644"/>
<path d="M677.277 592.997C677.277 592.997 732.376 731.124 768.608 796.037C804.84 860.949 816.167 879.07 816.167 879.07C816.167 879.07 836.926 870.772 838.813 865.107C838.813 865.107 824.953 739.794 800.688 709.249C786.981 691.983 770.874 640.185 770.123 622.071C769.371 603.956 765.238 568.099 765.238 568.099L677.277 592.997Z" fill="#F97B50"/>
<path d="M608.085 638.024C608.085 638.024 595.629 655.626 594.5 658.99C593.37 662.354 593.444 675.773 594.311 676.305C595.178 676.836 596.142 676.61 597.101 674.687C598.06 672.763 599.897 665.907 600.514 666.646C601.131 667.385 597.089 687.654 600.777 689.413C604.465 691.171 615.712 683.796 619.76 675.315C623.808 666.835 620.761 645.613 621.237 644.099C625.267 631.247 608.085 638.024 608.085 638.024Z" fill="#FFA087"/>
<path d="M612.183 647.188C605.179 645.705 604.477 644.746 604.477 644.746C604.477 644.746 605.643 575.884 605.472 569.424C605.301 562.965 577.947 475.695 577.947 475.695L624.785 428.47C624.785 428.47 641.991 552.024 642.107 568.411C642.303 595.494 622.245 646.657 622.245 646.657C618.991 647.691 615.527 647.873 612.183 647.188Z" fill="#275962"/>
<path d="M608.836 416.662C608.836 416.662 596.362 460.419 576.237 470.639C576.237 470.639 574.564 460.907 576.042 451.755C576.267 450.418 576.123 449.044 575.625 447.782C575.126 446.519 574.293 445.417 573.215 444.594C571.969 443.654 570.807 442.758 569.728 441.908C566.025 439.043 562.475 435.986 559.092 432.749L561.589 411.503L563.281 397.088C566.405 400.512 569.884 403.595 573.661 406.283C591.581 418.945 608.836 416.662 608.836 416.662Z" fill="#FFA087"/>
<path d="M573.673 406.271C573.673 406.271 581 424.892 569.741 441.907C566.037 439.043 562.487 435.986 559.104 432.749L561.601 411.503C568.788 407.229 573.673 406.271 573.673 406.271Z" fill="#ED8267"/>
<path d="M554.03 436.98C554.03 436.98 583.564 416.302 570.4 398.108C557.236 379.914 552.186 364.992 532.77 377.429C513.353 389.865 514.757 399.408 517.676 406.57C520.595 413.731 546.007 441.889 554.03 436.98Z" fill="#FFA087"/>
<path d="M619.192 550.363C617.735 548.686 616.231 546.999 614.68 545.302C606.879 536.805 599.813 527.661 593.56 517.968C589.07 511.082 585.13 503.853 581.776 496.349C577.251 486.037 575.468 477.514 575.016 468.576C575.016 468.502 575.016 454.704 575.016 454.649C593.267 440.125 592.278 415.026 592.278 415.026C592.278 415.026 665.548 410.508 727.681 494.481C727.681 494.481 731.955 500.787 737.719 510.19C738.97 512.229 740.302 514.415 741.675 516.722C751.023 532.358 638.7 572.77 619.192 550.363Z" fill="#308796"/>
<path d="M659.46 484.535C672.533 488.809 705.01 494.273 713.546 517.718C716.342 525.398 735.405 509.005 738.25 511.081L723.407 487.35L659.46 484.535Z" fill="#275962"/>
<path d="M565.931 359.442C566.053 358.936 566.596 358.289 568.098 357.397C566.954 357.348 565.816 357.581 564.783 358.075C563.323 356.066 560.167 352.8 555.978 353.801C556.771 353.847 557.544 354.071 558.24 354.455C558.935 354.84 559.535 355.376 559.996 356.023C553.389 353.795 542.521 355.327 518.183 370.609C486.103 390.757 508.487 406.759 514.177 407.095C519.868 407.431 527.061 394.628 535.475 391.068C543.888 387.509 551.606 398.553 555.19 398.755C558.775 398.956 556.204 396.636 559.019 393.004C561.834 389.371 565.448 395.446 566.492 400.037C567.536 404.628 575.419 407.363 575.419 407.363L577.629 399.054C579.84 390.745 572.256 364.376 567.249 360.517L565.931 359.442Z" fill="#317A8B"/>
<path d="M741.584 595.488C733.035 617.62 679.811 626.534 675.836 614.805C674.902 612.058 666.799 628.848 666.28 625.636C659.466 583.186 638.706 572.758 619.198 550.363C617.741 548.686 616.237 546.999 614.686 545.302C606.885 536.805 599.819 527.661 593.566 517.968C589.076 511.082 585.136 503.854 581.781 496.349L613.788 473.759C616.757 471.665 620.388 470.727 624 471.122C627.611 471.516 630.954 473.216 633.4 475.902C646.418 490.164 672.752 514.494 700.058 513.291C719.725 512.424 731.197 511.185 737.706 510.178C738.958 512.217 740.289 514.403 741.663 516.71C751.029 532.346 763.424 551.767 765.219 568.075C766.617 580.67 743.104 591.501 741.584 595.488Z" fill="#F97B50"/>
<path d="M597.614 415.068C597.614 415.068 592.809 425.399 595.782 448.355C598.31 467.837 605.728 481.641 605.728 481.641L611.309 478.167C611.309 478.167 595.117 448.098 603.451 415.502C603.463 415.502 602.981 415.105 597.614 415.068Z" fill="#F97B50"/>
<path d="M942.919 894.754C940.666 894.754 895.354 894.309 864.153 860.705C842.746 837.639 833.489 804.957 836.677 763.568C843.124 679.046 829.35 610.653 798.82 575.932C785.07 560.296 768.224 551.853 748.752 550.833C715.414 549.087 684.152 587.343 683.841 587.728L672.582 578.643C674.047 576.811 708.905 534.269 749.515 536.388C773.035 537.609 793.282 547.707 809.701 566.384C826.578 585.573 838.728 613.065 845.817 648.098C852.668 681.988 854.463 721.209 851.147 764.667C848.308 801.873 856.276 830.874 874.826 850.863C901.857 879.985 942.485 880.291 942.98 880.291V894.754H942.919Z" fill="#80DEE5"/>
<path d="M1068.65 901.238C1067.02 902.859 1065.09 904.142 1062.96 905.014C1060.83 905.886 1058.55 906.329 1056.26 906.318H927.562C925.929 906.318 924.318 905.94 922.856 905.214C921.393 904.488 920.118 903.433 919.131 902.132C918.144 900.831 917.472 899.319 917.166 897.715C916.861 896.111 916.931 894.458 917.371 892.886C922.628 874.326 933.93 841.961 951.063 831.423C954.281 829.529 957.788 828.173 961.443 827.412C991.808 820.519 1050.62 837.919 1071.18 879.112C1071.18 879.112 1071.67 880.004 1072.37 881.554C1073.83 884.822 1074.26 888.461 1073.6 891.98C1072.93 895.499 1071.21 898.73 1068.65 901.238Z" fill="#F98250"/>
<path d="M690.752 589.163L516.65 819.506L450.567 906.946L439.387 898.79L502.79 809.395L669.815 573.893L690.752 589.163Z" fill="#317A8B"/>
<path d="M516.65 819.506L450.567 906.947L439.387 898.79L502.79 809.395L516.65 819.506Z" fill="#F98250"/>
<path d="M472.926 904.334V911.739C472.917 913.507 472.211 915.199 470.961 916.449C469.712 917.7 468.02 918.407 466.253 918.419H401.488C399.721 918.406 398.031 917.698 396.783 916.447C395.535 915.197 394.83 913.506 394.82 911.739V904.334C394.832 902.568 395.537 900.878 396.785 899.629C398.033 898.381 399.723 897.673 401.488 897.66H466.253C468.019 897.672 469.71 898.378 470.959 899.627C472.208 900.876 472.915 902.567 472.926 904.334Z" fill="#ED5E35"/>
<path d="M457.051 904.334V911.739C457.042 913.507 456.336 915.199 455.086 916.449C453.837 917.7 452.145 918.407 450.377 918.419H401.53C399.764 918.406 398.073 917.698 396.825 916.447C395.577 915.197 394.872 913.506 394.863 911.739V904.334C394.874 902.568 395.58 900.878 396.827 899.629C398.075 898.381 399.765 897.673 401.53 897.66H450.377C452.144 897.672 453.835 898.378 455.084 899.627C456.333 900.876 457.04 902.567 457.051 904.334Z" fill="#F98250"/>
<path d="M1068.65 901.238C1067.02 902.859 1065.09 904.142 1062.96 905.014C1060.83 905.886 1058.55 906.329 1056.25 906.318H927.562C925.929 906.318 924.318 905.94 922.856 905.214C921.393 904.488 920.118 903.433 919.131 902.132C918.144 900.831 917.472 899.319 917.166 897.715C916.861 896.111 916.931 894.458 917.371 892.886C922.628 874.326 933.93 841.961 951.063 831.423C954.281 829.529 957.788 828.173 961.443 827.412C973.203 849.55 1005.23 896.964 1068.65 901.238Z" fill="#F37042"/>
<path d="M775.911 534.856C775.911 534.856 771.997 550.998 772.15 553.727C772.302 556.457 774.47 564.778 775.239 564.912C776.009 565.047 778.353 565.431 778.487 563.783C778.622 562.134 777.737 560.48 778.39 560.834C779.043 561.188 778.5 567.391 781.644 567.605C784.789 567.819 794.387 565.456 794.875 558.233C795.364 551.01 787.145 536.687 787.054 535.466C786.285 525.148 775.911 534.856 775.911 534.856Z" fill="#FFA087"/>
<path d="M782.615 536.309C775.105 537.53 769.945 536.309 769.945 536.309C769.945 536.309 727.754 493.602 721.849 490.073C715.945 486.544 640.227 482.508 640.227 482.508C632.66 474.605 626.469 465.492 621.909 455.547C615.193 441.028 605.753 415.795 605.753 415.795C605.753 415.795 623.155 415.661 636.331 419.635C665.908 428.549 724.744 446.743 735.716 453.593C760.139 468.857 791.432 529.043 791.432 529.043C791.432 529.043 788.745 535.301 782.615 536.309Z" fill="#308796"/>
<path d="M612.799 484.016C612.799 483.392 612.984 482.782 613.331 482.262C613.678 481.743 614.171 481.339 614.748 481.1C615.325 480.861 615.959 480.798 616.572 480.92C617.184 481.042 617.747 481.343 618.188 481.784C618.63 482.226 618.93 482.788 619.052 483.4C619.174 484.013 619.111 484.647 618.872 485.224C618.634 485.801 618.229 486.294 617.71 486.641C617.191 486.987 616.58 487.173 615.956 487.173C615.119 487.173 614.316 486.84 613.724 486.248C613.132 485.656 612.799 484.853 612.799 484.016Z" fill="#ED6644"/>
<path d="M13.3203 752.005V597.704C13.3203 570.56 33.1948 548.55 57.7159 548.55H158.115C182.636 548.55 202.51 570.56 202.51 597.704V752.005H13.3203Z" fill="#80DEE5"/>
<path d="M23.9871 752.005V597.704C23.9871 570.56 43.8616 548.55 68.3827 548.55H168.781C193.302 548.55 213.177 570.56 213.177 597.704V752.005H23.9871Z" fill="#A6F1F7"/>
<path d="M13.3203 751.98H242.742V776.341H28.0842C24.1686 776.341 20.4133 774.786 17.6445 772.017C14.8757 769.248 13.3203 765.493 13.3203 761.578V751.98Z" fill="#80DEE5"/>
<path d="M268.465 751.999H106.068C100.039 751.999 95.1509 756.886 95.1509 762.915V765.443C95.1509 771.472 100.039 776.359 106.068 776.359H268.465C274.495 776.359 279.383 771.472 279.383 765.443V762.915C279.383 756.886 274.495 751.999 268.465 751.999Z" fill="#B6FDFF"/>
<path d="M133.264 952.542H119.422L115.532 776.359H136.689L133.264 952.542Z" fill="#6AD3D6"/>
<path d="M193.443 952.542H58.7782V940.38L127.414 934.189L193.443 940.38V952.542Z" fill="#6AD3D6"/>
<path d="M67.7483 952.487C68.7231 946.448 64.6179 940.763 58.579 939.788C52.54 938.813 46.8543 942.918 45.8794 948.957C44.9046 954.995 49.0098 960.68 55.0487 961.655C61.0876 962.63 66.7734 958.525 67.7483 952.487Z" fill="#6AD3D6"/>
<path d="M205.274 949.951C206.252 943.896 202.137 938.194 196.081 937.215C190.025 936.236 184.322 940.352 183.343 946.407C182.365 952.463 186.48 958.165 192.536 959.144C198.592 960.123 204.295 956.007 205.274 949.951Z" fill="#6AD3D6"/>
<path d="M188.613 787.923H63.608C60.5419 787.923 57.6014 786.705 55.4328 784.538C53.2642 782.371 52.0451 779.431 52.0435 776.365H200.171C200.171 779.43 198.954 782.37 196.786 784.538C194.618 786.705 191.678 787.923 188.613 787.923Z" fill="#6AD3D6"/>
<path d="M494.297 1010.9H494.571C496.177 1010.9 497.465 1008.76 497.429 1006.16L493.075 702.203L480.296 699.761L491.195 1006.18C491.293 1008.83 492.648 1010.9 494.297 1010.9Z" fill="#66D5D8"/>
<path d="M519.618 689.425H-71.8016C-75.8617 689.425 -79.153 692.716 -79.153 696.776V700.415C-79.153 704.474 -75.8617 707.766 -71.8016 707.766H519.618C523.678 707.766 526.969 704.474 526.969 700.415V696.776C526.969 692.716 523.678 689.425 519.618 689.425Z" fill="#66D5D8"/>
<path d="M493.198 667.464H311.671L323.827 542.677H505.348L493.198 667.464Z" fill="#275962"/>
<path d="M499.761 667.464H318.24L330.391 542.677H511.918L499.761 667.464Z" fill="#317A8B"/>
<path d="M419.347 686.409H387.139L397.671 614.494H429.886L419.347 686.409Z" fill="#275962"/>
<path d="M434.337 684.248H368.211V689.431H434.337V684.248Z" fill="#275962"/>
<path d="M48.2089 667.873L34.0616 673.679C34.0616 673.679 -5.87674 650.522 -24.408 633.793C-25.2221 633.077 -25.9751 632.372 -26.6671 631.68C-34.3422 624.226 -75.0743 548.794 -84.1842 525.679C-93.2941 502.564 -57.1719 499.426 -57.1719 499.426C-41.7974 500.788 -9.08839 600.165 1.17553 611.002C2.03645 611.905 3.20266 613.291 4.6009 615.05C12.5019 624.946 27.852 646.547 37.8228 659.759C42.9151 666.542 48.2089 667.873 48.2089 667.873Z" fill="#FFA087"/>
<path d="M84.8745 686.69C83.348 688.845 64.7252 685.34 55.8229 683.936C54.4095 683.675 52.9826 683.494 51.5488 683.393C49.4484 683.393 45.9986 685.316 43.1533 686.305C41.2239 686.97 39.5692 687.209 38.7998 686.11C38.4154 685.527 38.0784 684.915 37.7924 684.278C37.1513 682.892 36.4796 681.122 35.8935 679.424C34.8555 676.451 34.0617 673.728 34.0617 673.728L44.0814 667.677C44.0814 667.677 45.7605 667.726 48.209 667.922C53.7042 668.343 63.1316 669.503 65.9159 672.507C70.0068 676.811 86.0041 685.108 84.8745 686.69Z" fill="#FFA087"/>
<path d="M57.4899 686.329C56.6778 686.793 52.9898 686.091 44.3378 686.329C43.9226 686.329 43.538 686.329 43.1595 686.329C40.5095 686.201 38.8487 685.34 37.7985 684.278C35.9668 682.385 36.0095 679.833 35.8996 679.424H48.5021C48.5021 679.424 52.7762 683.02 54.8522 683.594C55.1913 683.691 55.5204 683.82 55.8352 683.979C57.3128 684.675 58.1615 685.933 57.4899 686.329Z" fill="#FFA087"/>
<path d="M30.4959 689.431C30.4959 689.431 25.654 682.862 58.7843 681.152C64.6764 680.847 68.7918 684.156 77.34 685.493C85.8881 686.83 90.1622 687.184 90.1622 689.431H30.4959Z" fill="#308796"/>
<path d="M84.8745 686.69C83.348 688.845 64.7252 685.341 55.8229 683.936C57.3127 684.675 58.1614 685.933 57.4898 686.33C56.6777 686.794 52.9897 686.092 44.3378 686.33C43.9226 686.33 43.5379 686.33 43.1594 686.33C41.2299 686.995 39.5752 687.233 38.8059 686.134C38.4214 685.552 38.0845 684.939 37.7984 684.303C35.9667 682.41 36.0094 679.858 35.8995 679.449C34.8615 676.476 34.0678 673.753 34.0678 673.753C34.0678 673.753 -5.87061 650.595 -24.4019 633.866C-16.2689 630.911 -4.05106 625.142 4.60704 615.153C12.508 625.05 27.8581 646.651 37.8289 659.863C42.9273 666.579 48.2089 667.94 48.2089 667.94C53.7042 668.362 63.1316 669.522 65.9159 672.525C70.0068 676.811 86.0041 685.109 84.8745 686.69Z" fill="#FF9C49"/>
<path d="M167.896 636.577L168.061 685.469C168.062 686.013 167.957 686.551 167.75 687.054C167.544 687.557 167.24 688.014 166.857 688.4C166.474 688.785 166.018 689.091 165.517 689.301C165.015 689.51 164.477 689.619 163.933 689.621L144.895 689.688C143.798 689.689 142.744 689.256 141.966 688.482C141.188 687.709 140.748 686.658 140.743 685.561L140.688 669.161C140.677 663.901 142.638 658.828 146.184 654.942L152.943 647.506C156.695 643.365 158.858 638.028 159.049 632.444L159.586 623.621C159.633 622.575 160.094 621.59 160.867 620.883C161.639 620.176 162.661 619.804 163.707 619.848C164.826 619.896 165.883 620.374 166.657 621.183C167.431 621.992 167.862 623.07 167.859 624.189L167.896 636.577Z" fill="#F9D4C4"/>
<path d="M166.357 610.867L147.179 610.928C146.799 610.93 146.423 611.006 146.072 611.153C145.722 611.3 145.404 611.515 145.136 611.784C144.868 612.054 144.656 612.374 144.513 612.726C144.369 613.078 144.295 613.454 144.297 613.834C144.3 614.472 144.514 615.09 144.905 615.593C145.296 616.097 145.842 616.457 146.458 616.618C149.438 617.406 154.683 619.177 156.594 622.235C156.851 622.655 157.209 623.002 157.636 623.245C158.063 623.489 158.545 623.62 159.036 623.627L168.806 623.591C169.534 623.586 170.233 623.304 170.761 622.803C171.29 622.302 171.608 621.619 171.651 620.892C171.718 620.033 171.859 619.181 172.072 618.346C172.302 617.468 172.328 616.55 172.149 615.66C171.97 614.771 171.59 613.934 171.039 613.213C170.489 612.492 169.78 611.906 168.969 611.499C168.158 611.093 167.265 610.877 166.357 610.867Z" fill="#F9D4C4"/>
<path d="M150.592 631.155C150.712 631.155 150.83 631.13 150.94 631.082C158.267 627.932 160.447 620.422 160.532 620.093C160.571 619.977 160.586 619.854 160.576 619.733C160.566 619.611 160.531 619.493 160.474 619.385C160.417 619.277 160.338 619.183 160.243 619.106C160.147 619.03 160.038 618.974 159.92 618.941C159.802 618.909 159.679 618.901 159.558 618.918C159.438 618.934 159.321 618.976 159.217 619.039C159.112 619.102 159.022 619.186 158.951 619.285C158.88 619.384 158.83 619.497 158.804 619.616C158.804 619.732 156.741 626.631 150.256 629.428C150.038 629.522 149.865 629.698 149.777 629.919C149.689 630.14 149.692 630.387 149.786 630.606C149.854 630.765 149.966 630.9 150.109 630.998C150.252 631.095 150.419 631.15 150.592 631.155Z" fill="#F9D4C4"/>
<path d="M140.676 677.978L167.987 677.887L167.939 663.534L140.628 663.624L140.676 677.978Z" fill="#F97B50"/>
<g opacity="0.3">
<path opacity="0.3" d="M188.235 137.287C185.518 139.454 182.294 137.232 178.135 135.846C173.977 134.46 179.149 129.789 179.149 129.789C179.288 129.781 179.423 129.744 179.546 129.679C180.767 129.222 184.614 127.585 187.734 127.237C188.459 127.149 189.193 127.163 189.914 127.28C194.86 128.233 190.946 135.132 188.235 137.287Z" fill="#ED8267"/>
<path opacity="0.3" d="M188.235 130.827L186.671 132.622L180.883 132.995C180.883 132.995 180.083 131.078 179.546 129.679C180.767 129.222 184.614 127.585 187.734 127.237L188.235 130.827Z" fill="#FFA087"/>
<path opacity="0.3" d="M200.485 57.5437L197.75 57.1287L177.718 189.111L180.452 189.526L200.485 57.5437Z" fill="#308796"/>
<path opacity="0.3" d="M224.442 55.8411L176.701 62.8074L176.731 43.9662L224.479 37L224.442 55.8411Z" fill="#FF8460"/>
<path opacity="0.3" d="M190.14 128.782C190.14 128.782 186.879 131.017 186.793 132.854C186.708 134.692 187.404 137.665 188.668 137.128C189.932 136.591 191.782 133.123 191.44 131.419C191.25 130.44 190.801 129.529 190.14 128.782Z" fill="#ED8267"/>
<path opacity="0.3" d="M78.0668 68.2168C78.0668 68.2168 63.6935 75.0304 61.1535 78.3883C58.6135 81.7463 70.7397 84.6891 70.7397 84.6891L80.5091 77.0207L78.0668 68.2168Z" fill="#308796"/>
<path opacity="0.3" d="M179.027 133.019C179.027 133.019 180.437 134.918 182.227 134.918C184.016 134.918 189.67 135.168 190.128 134.124C190.585 133.08 187.013 130.375 185.456 130.461C183.899 130.546 180.297 130.742 179.027 133.019Z" fill="#FFA087"/>
<path opacity="0.3" d="M181.066 133.257C181.518 129.716 179.711 129.02 179.711 129.02C179.711 129.02 143.918 120.387 140.902 119.251C137.886 118.116 113.188 89.2252 113.188 89.2252C113.188 89.2252 103.76 77.2831 95.3645 79.3162C88.0375 81.0868 84.9479 86.5206 83.684 91.7895C82.961 94.8652 83.1819 98.0874 84.3179 101.036C85.454 103.984 87.4524 106.521 90.0524 108.317C101.959 116.596 125.808 132.933 131.53 134.973C144.266 139.515 179.265 138.025 179.265 138.025C180.223 136.595 180.839 134.963 181.066 133.257Z" fill="#24747C"/>
<path opacity="0.3" d="M130.577 350.431H100.426C100.217 350.395 100.012 350.335 99.8157 350.254C97.8008 349.259 98.3869 341.584 98.5945 339.209C98.6373 338.77 98.6678 338.513 98.6678 338.513C98.6678 338.513 109.176 330.015 110.666 336.468C110.715 336.67 110.77 336.871 110.824 337.079C112.693 343.117 120.899 345.821 125.631 346.56C129.252 347.116 130.333 349.381 130.577 350.431Z" fill="#305864"/>
<path opacity="0.3" d="M75.4716 73.9619C75.4716 73.9619 85.8883 82.8025 96.2317 76.6361C96.2317 76.6361 97.6421 70.4819 96.9582 66.257L96.7262 64.7489C95.9813 59.9623 95.6944 57.2577 95.6944 57.2577C95.157 57.1294 77.6209 53.1549 77.7308 53.7104C80.1609 66.5317 75.4716 73.9619 75.4716 73.9619Z" fill="#FFA087"/>
<path opacity="0.3" d="M79.8739 56.464C81.9499 59.132 88.3428 63.9552 96.7201 64.7001C95.9752 59.9135 95.6882 57.2088 95.6882 57.2088C95.1998 57.16 79.2572 55.6825 79.8739 56.464Z" fill="#ED8267"/>
<path opacity="0.3" d="M99.0342 56.1342C99.0342 56.1342 81.3271 63.5706 76.8575 52.471C72.388 41.3715 67.0881 34.851 78.2252 29.6309C89.3624 24.4108 93.2641 27.7626 95.6515 31.1023C98.0389 34.4419 103.522 53.9119 99.0342 56.1342Z" fill="#FFA087"/>
<path opacity="0.3" d="M78.0177 55.5054C77.7918 55.7068 74.0305 57.5934 63.9741 43.9052C62.825 42.1378 62.1147 40.1215 61.9023 38.0241C61.6899 35.9267 61.9815 33.809 62.7529 31.8471C64.7496 26.8956 70.135 23.2507 77.9811 20.3507C85.8272 17.4506 92.3055 20.1553 94.986 24.4107C95.4674 25.1669 96.0238 25.8726 96.6468 26.5171C99.596 29.6186 97.0132 34.7105 92.7451 34.3381C89.6922 34.0633 87.0605 33.5505 85.8027 34.1915C83.0429 35.6019 82.7864 40.3702 82.8169 41.8782C82.8475 43.3862 82.7132 44.6683 78.8237 43.9662C74.9343 43.2641 78.0422 49.4611 78.8237 50.5905C78.8359 50.5722 79.8922 53.8142 78.0177 55.5054Z" fill="#308796"/>
<path opacity="0.3" d="M51.6222 350.327L40.2957 350.394C37.9205 350.394 35.2706 348.044 34.5867 343.678C33.9028 339.313 29.0059 336.962 27.9313 333.421C26.8567 329.88 32.2421 324.819 32.2421 324.819L33.1396 323.653L34.0738 322.432L43.0556 324.489C43.0556 324.489 43.2876 326.626 43.4402 329.373C43.5686 331.447 43.593 333.525 43.5135 335.601C43.2754 340.357 44.8935 345.461 49.1188 346.365C53.344 347.268 51.6222 350.327 51.6222 350.327Z" fill="#305864"/>
<path opacity="0.3" d="M121.656 176.685C121.656 176.685 121.956 196.832 120.203 220.893C117.822 253.563 114.958 293.694 114.708 301.295C114.256 314.495 112.266 335.613 112.266 335.613C112.266 335.613 107.277 340.656 97.239 338.599C97.239 338.599 88.1352 308.518 85.4059 276.648L85.2777 275.072C82.7254 242.629 78.6589 174.334 78.6589 174.334L121.656 176.685Z" fill="#FF8460"/>
<path opacity="0.3" d="M115.38 180.806C115.38 180.806 118.579 187.986 112.937 211.43C108.791 228.653 85.3876 276.66 85.3876 276.66L85.2594 275.085C82.7071 242.641 78.6406 174.346 78.6406 174.346L115.38 180.806Z" fill="#ED6644"/>
<path opacity="0.3" d="M117.468 175.531C117.468 175.531 87.6407 251.848 68.8286 285.983C50.0164 320.118 44.1303 329.654 44.1303 329.654C44.1303 329.654 33.2191 325.381 32.2117 322.395C32.2117 322.395 39.1174 256.647 51.7504 240.583C58.8882 231.492 64.5728 203.744 64.9086 194.244C65.1261 188.455 65.7257 182.687 66.7037 176.978L117.468 175.531Z" fill="#FF8460"/>
<path opacity="0.3" d="M117.26 173.833C113.022 174.01 68.4131 171.489 68.4131 168.992C68.5352 160.322 66.9843 146.249 65.0427 129.16C64.6885 125.98 64.4321 122.817 64.2367 119.697C63.7507 112.037 63.8794 104.35 64.6214 96.7105C65.9891 83.6206 71.753 73.1499 77.5291 68.3266C78.2862 67.7161 81.0033 69.853 85.5827 71.8128C89.814 73.6444 93.2089 72.4233 97.0617 71.4465L101.885 75.8484C105.891 79.7253 110.146 85.617 112.18 90.8554C112.21 90.8554 117.638 173.815 117.26 173.833Z" fill="#308796"/>
<path opacity="0.3" d="M108.364 91.3134L97.5625 92.6077C95.5073 92.8536 93.5853 93.7528 92.0794 95.1728C90.5735 96.5928 89.5634 98.4587 89.1975 100.496L82.3346 138.587C81.0987 141.753 78.9217 144.463 76.0972 146.353C73.2727 148.243 69.9366 149.221 66.5388 149.156L66.7097 176.947L121.662 176.685L112.632 94.7202C112.579 94.2149 112.426 93.7251 112.182 93.2795C111.938 92.8338 111.608 92.441 111.21 92.124C110.813 91.8071 110.357 91.5722 109.869 91.433C109.38 91.2938 108.868 91.2532 108.364 91.3134Z" fill="#FF8460"/>
<path opacity="0.3" d="M86.8346 78.4067C81.4126 72.5822 73.4018 70.5491 73.4018 70.5491L76.6623 68.9128C79.2389 68.9128 86.5476 73.3026 89.7165 76.9231C93.0441 80.7267 98.8752 92.4551 98.8752 92.4551L94.6377 93.4625C94.6377 93.4625 89.9424 81.7463 86.8346 78.4067Z" fill="#ED6644"/>
<path opacity="0.3" d="M153.651 -41.7163H149.615V358.234H153.651V-41.7163Z" fill="#80DEE5"/>
<path opacity="0.3" d="M165.429 350.431H-28.7675V368.704H165.429V350.431Z" fill="#80DEE5"/>
<path opacity="0.3" d="M153.651 161.421H-15.4629V166.733H153.651V161.421Z" fill="#80DEE5"/>
<path opacity="0.3" d="M153.651 223.677H-15.4629V228.989H153.651V223.677Z" fill="#80DEE5"/>
<path opacity="0.3" d="M153.651 285.097H-15.4629V290.409H153.651V285.097Z" fill="#80DEE5"/>
<path opacity="0.3" d="M43.8067 173.021C43.8067 173.021 43.2755 175.995 43.8067 178.009C44.3379 180.024 46.9756 185.666 47.8549 185.336C51.0726 184.225 48.7891 177.863 49.8637 177.185C50.5659 176.74 49.9309 179.75 50.5476 180.372C51.2864 181.129 52.0313 178.272 52.1473 176.74C52.2633 175.207 50.1629 172.466 50.1629 172.466L43.8067 173.021Z" fill="#FFA087"/>
<path opacity="0.3" d="M47.1894 174.352C50.2423 174.139 50.6514 172.698 50.6514 172.698C50.6514 172.698 54.7789 136.255 55.4322 133.092C56.0856 129.93 80.6615 100.96 80.6615 100.96C80.6615 100.96 90.962 89.7626 87.6221 81.7951C84.7218 74.8717 78.8603 72.6371 73.4566 72.2403C70.3051 72.0128 67.1581 72.7405 64.4263 74.3284C61.6946 75.9164 59.505 78.2908 58.1433 81.1419C51.8543 94.2073 39.5022 120.344 38.397 126.322C35.9547 139.613 43.5687 173.473 43.5687 173.473C43.5687 173.473 44.3868 174.554 47.1894 174.352Z" fill="#308796"/>
</g>
<path d="M329.939 832.132H232.136V912.771H329.939V832.132Z" fill="#EAB9A8"/>
<path d="M281.037 832.132H183.234V912.771H281.037V832.132Z" fill="#F9D4C4"/>
<path d="M329.884 892.324H314.388L315.749 887.965L314.388 884.845H329.884V892.324Z" fill="#D89C8B"/>
<path d="M281.037 857.09H265.541L266.902 852.731L265.541 849.611H281.037V857.09Z" fill="white"/>
<path d="M281.037 849.611H296.534L295.173 853.977L296.534 857.09H281.037V849.611Z" fill="#D89C8B"/>
<path d="M183.228 893.191H198.731L197.363 897.551L198.731 900.664H183.228V893.191Z" fill="white"/>
<path d="M235.518 904.138H273.289V889.449H235.518V904.138Z" fill="white"/>
</g>
<defs>
<clipPath id="clip0_178_1830">
<rect width="1878.05" height="1126.35" fill="white" transform="translate(-547.918 -41.7163)"/>
</clipPath>
</defs>
</svg>
