<svg width="28" height="15" viewBox="0 0 28 15" fill="none" xmlns="http://www.w3.org/2000/svg">
<path d="M15.3236 1.14169C15.6345 0.845725 16.0482 0.682106 16.4774 0.685353C16.9066 0.688601 17.3178 0.858462 17.6241 1.15909C17.9305 1.45973 18.1081 1.86762 18.1194 2.29669C18.1308 2.72577 17.975 3.14247 17.6849 3.45887L8.87962 14.471C8.72821 14.6341 8.54547 14.765 8.34232 14.8558C8.13918 14.9467 7.9198 14.9956 7.6973 14.9997C7.47481 15.0038 7.25377 14.9631 7.0474 14.8798C6.84103 14.7965 6.65357 14.6725 6.49623 14.5152L0.656918 8.67585C0.494303 8.52432 0.363874 8.3416 0.273411 8.13857C0.182948 7.93554 0.134306 7.71637 0.130385 7.49414C0.126463 7.2719 0.167344 7.05115 0.250589 6.84506C0.333833 6.63897 0.457735 6.45175 0.614904 6.29458C0.772073 6.13741 0.959288 6.01351 1.16538 5.93027C1.37147 5.84702 1.59222 5.80614 1.81446 5.81006C2.03669 5.81398 2.25586 5.86263 2.45889 5.95309C2.66192 6.04355 2.84465 6.17398 2.99617 6.3366L7.6173 10.9555L15.2795 1.19024C15.2932 1.1732 15.3079 1.15699 15.3236 1.14169ZM13.2933 12.4849L15.3236 14.5152C15.4809 14.6722 15.6682 14.7959 15.8744 14.879C16.0806 14.962 16.3013 15.0027 16.5236 14.9986C16.7458 14.9945 16.9649 14.9456 17.1678 14.855C17.3708 14.7643 17.5534 14.6338 17.7048 14.471L26.5145 3.45887C26.6728 3.30263 26.7979 3.1161 26.8825 2.91042C26.967 2.70474 27.0093 2.48412 27.0067 2.26175C27.0041 2.03938 26.9567 1.81981 26.8674 1.61615C26.778 1.4125 26.6486 1.22894 26.4867 1.07643C26.3249 0.923921 26.1339 0.805593 25.9253 0.728514C25.7167 0.651434 25.4947 0.617182 25.2726 0.627805C25.0505 0.638428 24.8328 0.693707 24.6325 0.790341C24.4322 0.886974 24.2534 1.02298 24.1068 1.19024L16.4425 10.9555L15.3721 9.88299L13.2911 12.4849H13.2933Z" fill="white"/>
</svg>
