<svg width="16" height="16" viewBox="0 0 16 16" fill="none" xmlns="http://www.w3.org/2000/svg">
<path fill-rule="evenodd" clip-rule="evenodd" d="M8 0C3.58182 0 0 3.58182 0 8C0 12.4182 3.58182 16 8 16C12.4182 16 16 12.4182 16 8C16 3.58182 12.4182 0 8 0ZM5.60509 6.39491C5.46793 6.26243 5.28422 6.18913 5.09353 6.19078C4.90284 6.19244 4.72043 6.26893 4.58559 6.40377C4.45074 6.53861 4.37426 6.72102 4.3726 6.91171C4.37094 7.1024 4.44425 7.28611 4.57673 7.42327L7.48582 10.3324C7.6222 10.4687 7.80715 10.5453 8 10.5453C8.19285 10.5453 8.3778 10.4687 8.51418 10.3324L11.4233 7.42327C11.5558 7.28611 11.6291 7.1024 11.6274 6.91171C11.6257 6.72102 11.5493 6.53861 11.4144 6.40377C11.2796 6.26893 11.0972 6.19244 10.9065 6.19078C10.7158 6.18913 10.5321 6.26243 10.3949 6.39491L8 8.78982L5.60509 6.39491Z" fill="#00A78E"/>
</svg>
