<svg width="23" height="24" viewBox="0 0 23 24" fill="none" xmlns="http://www.w3.org/2000/svg">
<path d="M12.3951 21.9076C11.0275 23.1154 9.1909 23.7884 7.28086 23.7817C5.37082 23.775 3.54008 23.0892 2.18274 21.8719C1.51241 21.2724 0.979176 20.5591 0.613652 19.7727C0.248129 18.9863 0.0574734 18.1423 0.0525866 17.289C0.0476998 16.4358 0.2287 15.59 0.585196 14.8003C0.941692 14.0105 1.46669 13.2921 2.13012 12.6864L12.382 3.45931L13.6643 2.30965C14.6877 1.39078 16.0703 0.875244 17.5112 0.875244C18.9522 0.875244 20.3348 1.39078 21.3582 2.30965C21.8618 2.76257 22.2615 3.30128 22.5343 3.89475C22.807 4.48823 22.9474 5.12473 22.9474 5.76758C22.9474 6.41044 22.807 7.04694 22.5343 7.64041C22.2615 8.23389 21.8618 8.7726 21.3582 9.22552L10.0673 19.2866C9.39344 19.8695 8.49544 20.1918 7.5637 20.1852C6.63196 20.1785 5.73971 19.8434 5.07613 19.2509C4.75007 18.9601 4.49053 18.614 4.31238 18.2322C4.13422 17.8505 4.04094 17.4406 4.03788 17.0262C4.03483 16.6118 4.12208 16.2008 4.29459 15.817C4.46711 15.4331 4.72151 15.0839 5.04326 14.7892L6.30583 13.6634L12.599 8.03415L13.855 9.16L6.2927 15.9091C6.12687 16.0556 5.99505 16.2307 5.90507 16.424C5.81508 16.6174 5.76872 16.8251 5.76872 17.0349C5.76872 17.2448 5.81508 17.4525 5.90507 17.6458C5.99505 17.8392 6.12687 18.0143 6.2927 18.1608C6.62657 18.4612 7.07806 18.6299 7.54869 18.6299C8.01931 18.6299 8.47085 18.4612 8.80471 18.1608L20.089 8.06989H20.135C20.4712 7.76757 20.7381 7.40797 20.9202 7.01181C21.1023 6.61564 21.196 6.19076 21.196 5.76162C21.196 5.33249 21.1023 4.9076 20.9202 4.51144C20.7381 4.11528 20.4712 3.75568 20.135 3.45336C19.4519 2.84221 18.5305 2.49951 17.5704 2.49951C16.6103 2.49951 15.6889 2.84221 15.0058 3.45336L14.9664 3.49505L13.6512 4.65068L3.44531 13.8361C2.9407 14.2891 2.54014 14.8282 2.26679 15.4222C1.99344 16.0163 1.8527 16.6535 1.8527 17.297C1.8527 17.9406 1.99344 18.5778 2.26679 19.1718C2.54014 19.7658 2.9407 20.3049 3.44531 20.7579C4.46925 21.6736 5.85012 22.187 7.28893 22.187C8.72773 22.187 10.1086 21.6736 11.1326 20.7579L20.0824 12.6864L21.3976 11.5308L22.7128 12.6864L21.3976 13.8361L12.3951 21.9076Z" fill="white"/>
</svg>
