<svg width="25" height="26" viewBox="0 0 25 26" fill="none" xmlns="http://www.w3.org/2000/svg">
<g clip-path="url(#clip0_164_1407)">
<path d="M12.5 25.1163C19.4036 25.1163 25 19.5199 25 12.6163C25 5.71277 19.4036 0.116333 12.5 0.116333C5.59644 0.116333 0 5.71277 0 12.6163C0 19.5199 5.59644 25.1163 12.5 25.1163Z" fill="#00A58D"/>
<path d="M13.834 10.6161H19.1679V14.6165H13.834V10.6161Z" fill="white"/>
<path d="M17.8342 6.61572H7.83321C6.73043 6.61572 5.83301 7.51315 5.83301 8.61593V16.6168C5.83301 17.7195 6.73043 18.617 7.83321 18.617H17.8342C18.5697 18.617 19.1677 18.0189 19.1677 17.2835V15.95H13.8338C13.0984 15.95 12.5004 15.352 12.5004 14.6165V10.6161C12.5004 9.88073 13.0984 9.28266 13.8338 9.28266H19.1677V7.94919C19.1677 7.21378 18.5697 6.61572 17.8342 6.61572Z" fill="white"/>
</g>
<defs>
<clipPath id="clip0_164_1407">
<rect width="25" height="25" fill="white" transform="translate(0 0.116333)"/>
</clipPath>
</defs>
</svg>
