<svg width="46" height="34" viewBox="0 0 46 34" fill="none" xmlns="http://www.w3.org/2000/svg">
<g clip-path="url(#clip0_72_24)">
<path d="M43.491 3.72513H40.0703V1.71396C40.0703 1.48726 39.9811 1.26985 39.8225 1.10956C39.6638 0.949259 39.4486 0.859207 39.2242 0.859207H31.1154C30.8907 0.859205 30.6751 0.94915 30.516 1.10935C30.3568 1.26955 30.2669 1.48696 30.266 1.71396V3.72513H16.5533V1.71396C16.5533 1.48726 16.4642 1.26985 16.3055 1.10956C16.1469 0.949259 15.9317 0.859207 15.7073 0.859207H7.59844C7.37375 0.859205 7.15822 0.94915 6.99903 1.10935C6.83984 1.26955 6.74995 1.48696 6.74908 1.71396V3.72513H3.32837C2.68716 3.72602 2.07247 3.98375 1.61906 4.44181C1.16566 4.89988 0.910546 5.5209 0.909668 6.1687V31.429C0.910546 32.0768 1.16566 32.6979 1.61906 33.1559C2.07247 33.614 2.68716 33.8717 3.32837 33.8726H43.491C44.1322 33.8717 44.7469 33.614 45.2003 33.1559C45.6537 32.6979 45.9088 32.0768 45.9097 31.429V6.1687C45.9088 5.5209 45.6537 4.89988 45.2003 4.44181C44.7469 3.98375 44.1322 3.72602 43.491 3.72513V3.72513ZM15.0503 13.6938H8.25207V12.3531H15.0503V13.6938ZM38.5673 13.6938H35.8334V16.4592H34.5062V13.6938H31.769V12.3531H34.5062V9.59105H35.8334V12.3531H38.5673V13.6938Z" fill="#00A78E"/>
</g>
<defs>
<clipPath id="clip0_72_24">
<rect width="45" height="33" fill="white" transform="translate(0.909668 0.87262)"/>
</clipPath>
</defs>
</svg>
