<svg width="67" height="73" viewBox="0 0 67 73" fill="none" xmlns="http://www.w3.org/2000/svg">
<path d="M0 36.4026C0 26.658 0 16.9134 0 7.16877C0 2.64728 2.59026 0 7.03895 0C18.701 0 30.363 0 42.0251 0C46.3903 0 49.0255 2.65053 49.0287 7.04209C49.0287 26.6872 49.0287 46.3334 49.0287 65.9806C49.0287 70.2878 46.3839 72.9838 42.1567 72.987C30.3876 72.987 18.6186 72.987 6.84957 72.987C2.7026 72.9902 0 70.2845 0 66.1138C0 56.2111 0 46.3074 0 36.4026ZM24.6797 5.43423C19.4991 5.43423 14.3176 5.43423 9.1349 5.43423C6.96512 5.43423 6.6602 5.75905 6.65378 7.99057C6.64736 10.2221 6.67946 12.538 6.65378 14.8118C6.62168 16.2183 7.20264 16.8906 8.64061 16.8906C19.2178 16.8733 29.796 16.8733 40.3753 16.8906C41.8068 16.8906 42.3974 16.2215 42.3781 14.8053C42.3428 12.4828 42.3781 10.1571 42.3781 7.83141C42.3781 5.74931 42.0572 5.43099 39.9163 5.42774C34.8363 5.42774 29.7575 5.4299 24.6797 5.43423ZM42.3685 57.4054C42.3685 55.0829 42.3364 52.7605 42.3685 50.438C42.3942 48.9179 41.7266 48.2812 40.2372 48.3169C38.2632 48.3657 36.2893 48.3494 34.3153 48.3169C33.0057 48.3007 32.3124 48.8529 32.3156 50.2334C32.3284 54.9303 32.3284 59.6282 32.3156 64.3273C32.3156 65.6916 32.9576 66.2957 34.2768 66.2762C36.3053 66.2535 38.3339 66.247 40.3753 66.2762C41.8068 66.299 42.4006 65.6266 42.3813 64.1974C42.3428 61.9269 42.3685 59.6564 42.3685 57.3892V57.4054ZM11.6321 27.535C10.5151 27.535 9.38527 27.5155 8.2747 27.535C7.25721 27.5577 6.6923 28.1196 6.66983 29.1591C6.64415 30.5623 6.65057 31.9655 6.66983 33.3817C6.66983 34.4959 7.26042 35.0838 8.35815 35.087C10.605 35.087 12.8325 35.1065 15.0697 35.087C16.0904 35.087 16.6553 34.5024 16.6746 33.4629C16.6906 32.0467 16.6906 30.6435 16.6906 29.2338C16.6906 28.1196 16.1 27.5382 15.0023 27.5252C13.9046 27.5122 12.7523 27.5317 11.6321 27.535ZM24.593 27.535C23.4728 27.535 22.3462 27.535 21.2356 27.535C20.125 27.535 19.5248 28.0774 19.5088 29.2013C19.4852 30.6045 19.4852 32.0121 19.5088 33.424C19.528 34.5478 20.1507 35.0903 21.2356 35.0935C23.4182 35.0935 25.603 35.0935 27.7899 35.0935C28.9807 35.0935 29.5296 34.4439 29.5296 33.268C29.5296 32.2416 29.5296 31.2184 29.5296 30.1952C29.5296 27.8468 29.2439 27.5577 26.9907 27.5447C26.1914 27.5187 25.3922 27.5252 24.593 27.5252V27.535ZM37.4319 27.535C36.3117 27.535 35.1851 27.535 34.0745 27.535C32.964 27.535 32.3734 28.0904 32.3573 29.211C32.3381 30.6143 32.3349 32.0175 32.3573 33.4175C32.3766 34.5446 32.9993 35.074 34.0938 35.0773C36.2796 35.0773 38.4623 35.0773 40.6481 35.0773C41.8421 35.0773 42.3781 34.4082 42.3749 33.2356C42.3749 31.9363 42.3749 30.637 42.3749 29.3377C42.3749 28.0384 41.6977 27.4927 40.4491 27.5122C39.4444 27.5382 38.4302 27.5285 37.4191 27.5317L37.4319 27.535ZM11.6353 45.4748C12.7555 45.4748 13.8821 45.4748 14.9927 45.4748C16.1032 45.4748 16.6682 44.8803 16.681 43.7662C16.681 42.363 16.7003 40.963 16.681 39.5436C16.6617 38.5106 16.0936 37.9389 15.0761 37.9195C12.8293 37.8967 10.6018 37.9032 8.36457 37.9195C7.26363 37.9195 6.68909 38.5139 6.67625 39.628C6.67625 40.976 6.67625 42.324 6.67625 43.672C6.67625 44.8674 7.27968 45.4585 8.45444 45.4585L11.6353 45.4748ZM24.4742 45.4748C25.5944 45.4748 26.721 45.4748 27.8316 45.4748C28.9422 45.4748 29.5071 44.8803 29.5199 43.7662C29.5199 42.4182 29.5199 41.0702 29.5199 39.7222C29.5199 38.5269 28.9165 37.9357 27.7417 37.9357C25.5559 37.9357 23.3701 37.9357 21.1875 37.9357C20.0865 37.9357 19.512 38.5301 19.4991 39.6443C19.4991 40.9923 19.4991 42.3403 19.4991 43.6883C19.4991 44.8836 20.1026 45.4748 21.2773 45.4748H24.4742ZM37.3998 45.4748H40.6096C41.7907 45.4748 42.3749 44.8609 42.3749 43.672C42.3749 42.324 42.3749 40.976 42.3749 39.628C42.3749 38.5139 41.7683 37.9389 40.6738 37.9325C38.4911 37.9325 36.3053 37.9325 34.1227 37.9325C32.9415 37.9325 32.3573 38.5464 32.3573 39.7352C32.3573 41.0832 32.3573 42.4312 32.3573 43.776C32.3573 44.8933 32.9608 45.4618 34.0553 45.4748C35.1498 45.4878 36.27 45.4748 37.3998 45.4748ZM11.8118 48.3169H8.45444C7.2861 48.3169 6.66662 48.8886 6.6602 50.0905C6.6602 51.3897 6.6602 52.689 6.6602 53.9721C6.6602 55.2551 7.23795 55.8755 8.49938 55.869H14.8868C16.0551 55.869 16.6778 55.2973 16.6842 54.0955C16.6842 52.7962 16.6842 51.4969 16.6842 50.2139C16.6842 48.9309 16.1064 48.3072 14.8418 48.3137C13.8372 48.3234 12.8389 48.3169 11.8118 48.3169ZM24.4325 55.869C25.5527 55.869 26.6793 55.869 27.7899 55.869C28.9005 55.869 29.4975 55.3233 29.5135 54.1994C29.5349 52.7984 29.5349 51.3973 29.5135 49.9963C29.5135 48.8724 28.8716 48.3299 27.7867 48.3267C25.6008 48.3267 23.4182 48.3267 21.2324 48.3267C20.0384 48.3267 19.4927 48.9763 19.4959 50.1554C19.4991 51.3345 19.4767 52.5299 19.4959 53.7284C19.5248 55.4792 19.9228 55.8593 21.7139 55.8852C22.619 55.8852 23.5274 55.869 24.4325 55.869ZM11.7284 66.2632H14.9381C16.1193 66.2632 16.697 65.6428 16.7003 64.454C16.7003 63.1547 16.7003 61.8554 16.7003 60.5724C16.7003 59.2894 16.0583 58.7047 14.8258 58.7112C12.6945 58.7112 10.5632 58.7112 8.43197 58.7112C7.25079 58.7112 6.67304 59.3316 6.67304 60.5172C6.67304 61.8165 6.67304 63.1157 6.67304 64.415C6.67304 65.7143 7.31499 66.2925 8.55073 66.2795C9.59711 66.2632 10.6627 66.2632 11.7284 66.2632ZM24.4389 66.2632C25.5591 66.2632 26.6857 66.2632 27.7963 66.2632C28.9069 66.2632 29.5007 65.7078 29.5167 64.5872C29.536 63.1839 29.5392 61.784 29.5167 60.3807C29.4975 59.2569 28.8748 58.7242 27.7803 58.7209C25.5976 58.7209 23.4118 58.7209 21.2292 58.7209C20.032 58.7209 19.4959 59.3706 19.4991 60.5561C19.4991 61.8554 19.4991 63.1547 19.4991 64.454C19.4991 65.7533 20.1732 66.3022 21.4057 66.2827C22.4136 66.2632 23.4311 66.2632 24.4389 66.2632Z" fill="#00A58D"/>
<path d="M52.6397 22.9648C52.6397 17.393 52.6397 11.8224 52.6397 6.25279C52.6397 5.37253 52.6397 4.52475 53.4678 3.94332C54.1739 3.45284 53.9236 2.64404 53.9107 1.9944C53.8915 0.649649 54.4339 -0.0324727 55.8109 9.31846e-06C57.1879 0.0324913 58.5905 0.0292431 59.9836 9.31846e-06C61.2386 -0.0227281 61.9094 0.519721 61.8548 1.83199C61.8099 2.80645 61.8548 3.72569 62.7664 4.43055C63.3281 4.85282 63.174 5.63563 63.1323 6.26903C63.0649 7.33769 63.3891 7.82817 64.5606 7.83791C66.8524 7.83791 66.9936 8.05554 66.9968 10.3748C66.9968 15.5134 66.9968 20.6488 66.9968 25.7875C66.9968 26.8009 66.9423 27.5577 65.5878 27.5577C64.2333 27.5577 64.1947 26.7717 64.1947 25.768C64.1947 21.4414 64.2236 17.1148 64.1755 12.7752C64.1755 12.0995 64.6184 10.8685 63.7069 10.8425C62.715 10.8133 63.174 12.0443 63.1708 12.6972C63.1355 21.6752 63.1484 30.6533 63.1452 39.6313C63.1452 41.7913 63.1452 41.7946 61.0364 41.8011C58.8473 41.8011 56.6519 41.7329 54.466 41.8271C53.073 41.8855 52.6012 41.4275 52.6172 39.9853C52.6846 34.3205 52.6397 28.6426 52.6397 22.9648Z" fill="#00A58D"/>
<path d="M63.1386 52.598C63.1386 54.979 63.113 57.3566 63.1386 59.7441C63.1547 60.7932 62.8754 61.3487 61.7039 61.3227C59.1361 61.2675 56.5683 61.2772 54.0005 61.3227C52.9542 61.3389 52.6011 60.8939 52.6075 59.8707C52.6375 55.1067 52.6375 50.3481 52.6075 45.5949C52.6075 44.5392 53.0248 44.169 54.0391 44.1819C56.6068 44.2209 59.1746 44.2209 61.7424 44.1819C62.7888 44.1657 63.1515 44.6107 63.1354 45.6339C63.113 47.9499 63.1386 50.2723 63.1386 52.598Z" fill="#00A58D"/>
<path d="M62.4839 64.402C62.3972 64.6424 62.3009 64.9477 62.1629 65.2433C61.2856 67.3265 60.405 69.4075 59.5213 71.4864C59.2003 72.2529 58.8376 72.9805 57.8426 72.961C56.9342 72.9448 56.5779 72.2822 56.273 71.5676C55.3486 69.388 54.4435 67.1987 53.4998 65.0289C53.0665 64.0545 53.3297 63.6484 54.3985 63.6614C56.7448 63.6939 59.0879 63.6614 61.4343 63.6809C61.89 63.6842 62.4742 63.5607 62.4839 64.402Z" fill="#00A58D"/>
</svg>
