<svg width="17" height="17" viewBox="0 0 17 17" fill="none" xmlns="http://www.w3.org/2000/svg">
<path d="M16.4191 12.5385L15.704 15.6388C15.6035 16.077 15.2183 16.3837 14.7671 16.3837C7.00755 16.3831 0.696289 10.0718 0.696289 2.31191C0.696289 1.86102 1.0029 1.47533 1.44121 1.37538L4.54148 0.660284C4.99299 0.55565 5.45434 0.790016 5.64196 1.21759L7.07275 4.55469C7.24001 4.94776 7.12719 5.40572 6.79656 5.67577L5.14062 7.00537C6.18573 9.13435 7.91672 10.8653 10.0463 11.9111L11.4021 10.2563C11.6693 9.92479 12.1307 9.81007 12.5238 9.98031L15.8608 11.4108C16.2622 11.6219 16.5237 12.0894 16.4191 12.5385Z" fill="white"/>
</svg>
