<svg width="48" height="38" viewBox="0 0 48 38" fill="none" xmlns="http://www.w3.org/2000/svg">
<g clip-path="url(#clip0_72_19)">
<path d="M25.4658 27.6151L26.7913 25.8029C26.9972 25.5373 27.122 25.2185 27.1509 24.8844C27.1798 24.5503 27.1116 24.2149 26.9544 23.9182C26.7566 23.5526 26.4602 23.2491 26.0985 23.0418C25.7369 22.8345 25.3243 22.7316 24.9072 22.7446H22.27C21.8539 22.7329 21.4426 22.8356 21.0814 23.0415C20.7202 23.2473 20.4231 23.5483 20.2228 23.9113C20.0658 24.2075 19.9968 24.542 20.0238 24.8757C20.0508 25.2095 20.1728 25.5287 20.3754 25.796L21.6871 27.6082C21.9079 27.8969 22.1937 28.13 22.5215 28.2889C22.8494 28.4478 23.2101 28.5279 23.5747 28.523C23.9396 28.5307 24.3011 28.4524 24.6297 28.2947C24.9584 28.1369 25.2449 27.904 25.4658 27.6151Z" fill="#00A78E"/>
<path d="M40.081 20.0729L35.2232 8.06405C34.298 5.74722 32.6938 3.76075 30.619 2.36277C28.5441 0.96479 26.0945 0.219926 23.5886 0.224973H23.5643C21.0589 0.220619 18.6101 0.965806 16.5359 2.36374C14.4617 3.76168 12.858 5.74777 11.9331 8.06405L7.07521 20.0729C6.31064 21.9691 6.025 24.0229 6.24329 26.0544C6.46158 28.0859 7.17714 30.0332 8.32734 31.7259C9.47754 33.4185 11.0273 34.8048 12.841 35.7635C14.6546 36.7222 16.6769 37.224 18.7307 37.225H22.8946V29.8415C21.9549 29.6887 21.1128 29.1757 20.5489 28.4125L19.2373 26.6003C18.8851 26.1276 18.6736 25.5659 18.627 24.9793C18.5803 24.3928 18.7004 23.805 18.9736 23.2831C19.289 22.6927 19.7627 22.2008 20.3422 21.862C20.9216 21.5232 21.5841 21.3508 22.2561 21.3639H24.8932C25.5665 21.3508 26.2302 21.5239 26.8104 21.864C27.3906 22.2041 27.8645 22.6978 28.1792 23.29C28.4518 23.814 28.5704 24.4038 28.5213 24.9918C28.4722 25.5797 28.2574 26.142 27.9017 26.6141L26.5796 28.4298C26.0227 29.1708 25.2022 29.6721 24.286 29.8312V37.225H28.4152C30.4693 37.2248 32.492 36.7236 34.3061 35.7651C36.1202 34.8067 37.6704 33.4203 38.8208 31.7274C39.9711 30.0345 40.6866 28.0868 40.9045 26.055C41.1224 24.0231 40.8361 21.9691 40.0706 20.0729H40.081ZM18.9805 17.5945C18.6324 17.5952 18.2919 17.4931 18.0022 17.3012C17.7124 17.1094 17.4864 16.8363 17.3527 16.5166C17.219 16.1968 17.1837 15.8448 17.2512 15.5051C17.3187 15.1654 17.4859 14.8533 17.7318 14.6082C17.9777 14.3631 18.2912 14.1961 18.6325 14.1282C18.9739 14.0604 19.3278 14.0949 19.6495 14.2273C19.9711 14.3596 20.2461 14.5839 20.4396 14.8718C20.633 15.1597 20.7363 15.4982 20.7363 15.8444C20.7363 16.308 20.5514 16.7526 20.2222 17.0807C19.8931 17.4088 19.4465 17.5936 18.9805 17.5945ZM28.2001 17.5945C27.8521 17.5945 27.512 17.4919 27.2227 17.2996C26.9334 17.1073 26.7079 16.8339 26.5747 16.5142C26.4416 16.1944 26.4068 15.8425 26.4746 15.503C26.5425 15.1635 26.7101 14.8517 26.9561 14.6069C27.2021 14.3622 27.5156 14.1955 27.8569 14.128C28.1981 14.0605 28.5518 14.0951 28.8733 14.2276C29.1948 14.36 29.4695 14.5843 29.6628 14.8721C29.8561 15.1599 29.9593 15.4983 29.9593 15.8444C29.9598 16.0744 29.9146 16.3022 29.8263 16.5147C29.7381 16.7272 29.6085 16.9203 29.4451 17.0829C29.2816 17.2455 29.0875 17.3744 28.8738 17.4622C28.6602 17.55 28.4312 17.595 28.2001 17.5945Z" fill="#00A78E"/>
<path d="M45.8376 11.975L38.7243 3.21425C38.0485 2.38461 37.1511 1.76149 36.1352 1.4165C35.1194 1.07151 34.0263 1.01864 32.9816 1.26397L32.2876 1.42966C34.3253 2.98445 35.9039 5.0569 36.8575 7.42891L41.7154 19.4378C41.9374 19.9884 42.1252 20.5521 42.2775 21.1257C43.2679 20.9788 44.2017 20.5743 44.9844 19.953C45.7671 19.3317 46.371 18.5157 46.7348 17.5876C47.0986 16.6596 47.2094 15.6524 47.0562 14.668C46.9029 13.6836 46.4909 12.7569 45.8619 11.9819L45.8376 11.975Z" fill="#00A78E"/>
<path d="M5.48952 19.4378L10.3474 7.42891C11.2995 5.05706 12.8771 2.98454 14.9138 1.42966L14.2198 1.26397C13.1726 1.01515 12.0759 1.06626 11.0566 1.41138C10.0373 1.7565 9.13701 2.38154 8.45979 3.21425L1.34646 11.9819C0.716426 12.7564 0.303432 13.6828 0.149381 14.6673C-0.00466996 15.6518 0.105692 16.6593 0.469264 17.5876C0.832835 18.516 1.43669 19.3322 2.21962 19.9536C3.00255 20.5749 3.93671 20.9793 4.9274 21.1257C5.08127 20.5526 5.26897 19.9889 5.48952 19.4378Z" fill="#00A78E"/>
</g>
<defs>
<clipPath id="clip0_72_19">
<rect width="47" height="37" fill="white" transform="translate(0.090332 0.224976)"/>
</clipPath>
</defs>
</svg>
