<svg width="283" height="156" viewBox="0 0 283 156" fill="none" xmlns="http://www.w3.org/2000/svg">
<path d="M304.192 -27.4274H0V78.554H304.192V-27.4274Z" fill="#ECFAF9"/>
<path d="M304.192 -27.4264H180.822V76.9757H304.192V-27.4264Z" fill="#DFFCFF"/>
<path d="M180.848 13.1462H176.64V3.76052L176.442 3.64779H175.187H167.888H167.882V5.05499H167.888V6.02313H167.882V7.42835H167.888V8.39946H167.882V9.80666H167.888V9.8116L167.115 9.80666V2.44727H158.925V3.3798V4.78601V6.02313V7.42835V8.39946V9.80666V10.7046V12.1118V13.0097V14.4169V15.2634V16.1534V16.2523H149.694V24.3049H146.244V26.3322H142.527V22.8414H135.837V13.3479H134.791V12.4025H134.641V13.3479H129.435V12.4035H129.285V13.3479H128.163V18.1194L122.544 18.0936V21.0396H117.779V2.83393H103.66V22.34H99.35V11.7924H85.2412V80.0314L181.688 79.6635L180.848 13.1462Z" fill="#E1F9FA"/>
<path d="M85.2492 24.2169V30.6131V40.1273V79.5656H78.1602V40.1273V30.6131V24.2169H85.2492Z" fill="#E1F9FA"/>
<path d="M151.676 12.4985H151.416V16.3225H151.676V12.4985Z" fill="#E1F9FA"/>
<path d="M156.203 9.21436H155.798V16.6202H156.203V9.21436Z" fill="#E1F9FA"/>
<path d="M104.766 1.47028H104.597V2.83397H104.766V1.47028Z" fill="#E1F9FA"/>
<path d="M108.339 1.47028H108.171V2.83397H108.339V1.47028Z" fill="#E1F9FA"/>
<path d="M116.529 1.47028H116.361V2.83397H116.529V1.47028Z" fill="#E1F9FA"/>
<path d="M159.871 1.39508H159.741V2.44727H159.871V1.39508Z" fill="#E1F9FA"/>
<path d="M166.02 1.39508H165.89V2.44727H166.02V1.39508Z" fill="#E1F9FA"/>
<path d="M113.327 1.47028H113.159V2.83397H113.327V1.47028Z" fill="#E1F9FA"/>
<path d="M88.9509 14.9035H87.2883V17.7436H88.9509V14.9035Z" fill="#EFFFFF"/>
<path d="M95.3417 20.2653H93.6792V23.1054H95.3417V20.2653Z" fill="#EFFFFF"/>
<path d="M134.196 15.5947H132.533V18.4348H134.196V15.5947Z" fill="#EFFFFF"/>
<path d="M107.624 5.11334H105.961V7.95346H107.624V5.11334Z" fill="#EFFFFF"/>
<path d="M110.924 5.11334H109.261V7.95346H110.924V5.11334Z" fill="#EFFFFF"/>
<path d="M162.386 3.6933H160.723V6.53342H162.386V3.6933Z" fill="#EFFFFF"/>
<path d="M162.386 21.2117H160.723V24.0518H162.386V21.2117Z" fill="#EFFFFF"/>
<path d="M170.201 14.411H168.538V17.2511H170.201V14.411Z" fill="#EFFFFF"/>
<path d="M159.741 33.1002H158.079V35.9404H159.741V33.1002Z" fill="#EFFFFF"/>
<path d="M166.851 40.1541H165.188V42.9942H166.851V40.1541Z" fill="#EFFFFF"/>
<path d="M174.23 28.6452H172.567V31.4853H174.23V28.6452Z" fill="#EFFFFF"/>
<path d="M89.7826 28.6452H88.1201V31.4853H89.7826V28.6452Z" fill="#EFFFFF"/>
<path d="M99.984 31.6812H98.3215V34.5213H99.984V31.6812Z" fill="#EFFFFF"/>
<path d="M78.3252 13.1452H74.1171V3.76057L73.9193 3.64883H72.6683H65.3686H65.3627V5.05504H65.3686V6.02318H65.3627V7.4284H65.3686V8.3995H65.3627V9.80671H65.3686H64.5952V2.4483H56.4065V3.37985H56.4015V4.78606H56.4065V6.02318H56.4015V7.4284H56.4065V8.3995H56.4015V9.80671H56.4065V10.7046H56.4015V12.1118H56.4065V13.0098H56.4015V14.417H56.4065V15.2635H56.4015V16.1535H56.4065V16.2524H47.1744V24.304H43.7258V26.3322H40.0072V22.8424H33.3197V13.3489H32.2704V12.4036H32.1221V13.3489H26.9151V12.4045H26.7658V13.3489H25.6353V18.1204L20.016 18.0947V21.0396H15.252V2.83397H0V78.554H79.1471L78.3252 13.1452Z" fill="#E1F9FA"/>
<path d="M49.1534 12.4985H48.8933V16.3225H49.1534V12.4985Z" fill="#E1F9FA"/>
<path d="M53.6799 9.21436H53.2754V16.6202H53.6799V9.21436Z" fill="#E1F9FA"/>
<path d="M2.24308 1.47028H2.07495V2.83397H2.24308V1.47028Z" fill="#E1F9FA"/>
<path d="M5.81608 1.47028H5.64795V2.83397H5.81608V1.47028Z" fill="#E1F9FA"/>
<path d="M14.007 1.47028H13.8389V2.83397H14.007V1.47028Z" fill="#E1F9FA"/>
<path d="M57.3491 1.39508H57.2185V2.44727H57.3491V1.39508Z" fill="#E1F9FA"/>
<path d="M63.4975 1.39508H63.3669V2.44727H63.4975V1.39508Z" fill="#E1F9FA"/>
<path d="M10.8046 1.47028H10.6365V2.83397H10.8046V1.47028Z" fill="#E1F9FA"/>
<path d="M12.2989 4.55365H10.6365V7.39377H12.2989V4.55365Z" fill="#EFFFFF"/>
<path d="M17.6049 27.6266H15.9424V30.4668H17.6049V27.6266Z" fill="#EFFFFF"/>
<path d="M26.8666 35.9404H25.2041V38.7805H26.8666V35.9404Z" fill="#EFFFFF"/>
<path d="M6.64783 22.1887H4.98535V25.0288H6.64783V22.1887Z" fill="#EFFFFF"/>
<path d="M61.0626 14.5703H59.4001V17.4104H61.0626V14.5703Z" fill="#EFFFFF"/>
<path d="M53.036 27.6266H51.3735V30.4668H53.036V27.6266Z" fill="#EFFFFF"/>
<path d="M66.6058 33.1002H64.9434V35.9404H66.6058V33.1002Z" fill="#EFFFFF"/>
<path d="M72.7782 -27.4264H69.2129V76.9757H72.7782V-27.4264Z" fill="#C8F7FC"/>
<path d="M184.387 -27.4264H180.822V76.9757H184.387V-27.4264Z" fill="#C8F7FC"/>
<path d="M237.58 -4.15265H198.999V29.1495H237.58V-4.15265Z" fill="#B5F5FB"/>
<path d="M236.83 -3.59784H199.733V28.486H236.83V-3.59784Z" fill="#E1FBFB"/>
<path d="M212.699 10.3615H204.571V0.211419L205.948 -1.03064H212.699V10.3615Z" fill="#EFFFFF"/>
<path d="M211.889 2.71729H205.533V2.8765H211.889V2.71729Z" fill="#B6FDFF"/>
<path d="M211.889 3.20087H205.533V3.36008H211.889V3.20087Z" fill="#B6FDFF"/>
<path d="M211.889 3.68439H205.533V3.8436H211.889V3.68439Z" fill="#B6FDFF"/>
<path d="M211.889 4.16895H205.533V4.32816H211.889V4.16895Z" fill="#B6FDFF"/>
<path d="M211.889 9.34686H205.533V9.50608H211.889V9.34686Z" fill="#B6FDFF"/>
<path d="M222.085 24.4434H213.957V14.2933L215.334 13.0513H222.085V24.4434Z" fill="#EFFFFF"/>
<path d="M213.957 14.2933H215.291L215.335 13.0513L213.957 14.2933Z" fill="#B6FDFF"/>
<path d="M219.322 14.0392H216.719V14.1628H219.322V14.0392Z" fill="#B6FDFF"/>
<path d="M219.935 14.411H216.107V14.5346H219.935V14.411Z" fill="#B6FDFF"/>
<path d="M221.275 16.7992H214.919V16.9584H221.275V16.7992Z" fill="#B6FDFF"/>
<path d="M221.275 17.2828H214.919V17.442H221.275V17.2828Z" fill="#B6FDFF"/>
<path d="M221.275 17.7664H214.919V17.9256H221.275V17.7664Z" fill="#B6FDFF"/>
<path d="M221.275 18.2509H214.919V18.4101H221.275V18.2509Z" fill="#B6FDFF"/>
<path d="M221.275 19.7392H214.919V19.8984H221.275V19.7392Z" fill="#B6FDFF"/>
<path d="M221.275 20.2238H214.919V20.383H221.275V20.2238Z" fill="#B6FDFF"/>
<path d="M221.275 20.7845H214.919V20.9437H221.275V20.7845Z" fill="#B6FDFF"/>
<path d="M226.673 -1.03064H222.184V2.92595H226.673V-1.03064Z" fill="#B6FDFF"/>
<path d="M226.529 4.18212L222.051 4.49445L222.326 8.44145L226.805 8.12912L226.529 4.18212Z" fill="#EFFFFF"/>
<path d="M224.144 5.055C224.141 5.01588 224.15 4.97673 224.169 4.94253C224.189 4.90834 224.218 4.88065 224.253 4.86298C224.288 4.84531 224.327 4.83846 224.366 4.84331C224.405 4.84816 224.442 4.86448 224.471 4.89021C224.501 4.91593 224.522 4.94989 224.533 4.98776C224.543 5.02563 224.542 5.06571 224.529 5.10288C224.516 5.14006 224.493 5.17266 224.462 5.19654C224.431 5.22041 224.393 5.23448 224.354 5.23695C224.302 5.24023 224.251 5.22298 224.212 5.18894C224.173 5.15489 224.148 5.10678 224.144 5.055Z" fill="#B6FDFF"/>
<path d="M211.612 18.7603L207.134 19.0726L207.409 23.0196L211.887 22.7073L211.612 18.7603Z" fill="#EFFFFF"/>
<path d="M209.229 19.6324C209.226 19.5933 209.235 19.5542 209.254 19.5202C209.273 19.4861 209.302 19.4585 209.337 19.441C209.373 19.4235 209.412 19.4168 209.451 19.4218C209.49 19.4267 209.526 19.4432 209.556 19.4689C209.585 19.4947 209.607 19.5287 209.617 19.5665C209.627 19.6044 209.626 19.6444 209.613 19.6816C209.6 19.7187 209.577 19.7512 209.546 19.7751C209.515 19.7989 209.477 19.8129 209.438 19.8154C209.386 19.8186 209.335 19.8012 209.296 19.767C209.257 19.7327 209.232 19.6844 209.229 19.6324Z" fill="#B6FDFF"/>
<path d="M205.982 21.5768L201.493 21.623L201.534 25.5794L206.022 25.5332L205.982 21.5768Z" fill="#EFFFFF"/>
<path d="M203.546 22.3291C203.546 22.29 203.558 22.2518 203.579 22.2192C203.601 22.1867 203.632 22.1614 203.668 22.1464C203.704 22.1314 203.744 22.1275 203.782 22.1351C203.821 22.1428 203.856 22.1616 203.884 22.1893C203.911 22.2169 203.93 22.2522 203.938 22.2905C203.945 22.3289 203.941 22.3687 203.926 22.4048C203.911 22.441 203.886 22.4718 203.854 22.4936C203.821 22.5153 203.783 22.5269 203.744 22.5269C203.691 22.5269 203.641 22.5061 203.604 22.469C203.567 22.4319 203.546 22.3816 203.546 22.3291Z" fill="#B6FDFF"/>
<path d="M233.329 7.33854L228.91 6.54907L228.214 10.444L232.633 11.2335L233.329 7.33854Z" fill="#EFFFFF"/>
<path d="M230.854 7.45312C230.859 7.41973 230.875 7.38883 230.898 7.36434C230.922 7.33985 230.952 7.32289 230.985 7.31559C231.018 7.3083 231.053 7.311 231.084 7.32336C231.116 7.33573 231.143 7.35719 231.162 7.38503C231.182 7.41287 231.192 7.44582 231.193 7.47972C231.194 7.51362 231.184 7.54692 231.166 7.57541C231.147 7.6039 231.121 7.62628 231.09 7.63972C231.059 7.65316 231.024 7.65705 230.991 7.6509C230.969 7.64696 230.948 7.63872 230.929 7.62665C230.91 7.61457 230.894 7.5989 230.881 7.58053C230.868 7.56216 230.859 7.54145 230.855 7.51958C230.85 7.49772 230.85 7.47513 230.854 7.45312Z" fill="#81E7EA"/>
<path d="M219.538 4.07954L215.075 4.56274L215.501 8.49634L219.964 8.01313L219.538 4.07954Z" fill="#EFFFFF"/>
<path d="M217.193 4.88397C217.189 4.85036 217.196 4.81646 217.212 4.78655C217.227 4.75664 217.252 4.73207 217.281 4.71592C217.311 4.69977 217.345 4.69278 217.378 4.69583C217.412 4.69887 217.444 4.71181 217.47 4.73303C217.497 4.75424 217.516 4.78277 217.526 4.81502C217.536 4.84726 217.537 4.88178 217.527 4.91422C217.518 4.94666 217.499 4.97556 217.473 4.99728C217.447 5.019 217.415 5.03257 217.382 5.03626C217.359 5.03873 217.337 5.03675 217.315 5.03042C217.293 5.02409 217.273 5.01355 217.256 4.99939C217.238 4.98524 217.223 4.96776 217.213 4.94795C217.202 4.92814 217.195 4.9064 217.193 4.88397Z" fill="#81E7EA"/>
<path d="M207.885 13.435L203.495 14.3713L204.321 18.2408L208.711 17.3045L207.885 13.435Z" fill="#BEE8CD"/>
<path d="M205.709 14.5791C205.68 14.5608 205.658 14.5344 205.645 14.5033C205.631 14.4722 205.627 14.4378 205.633 14.4045C205.64 14.3712 205.655 14.3405 205.679 14.3162C205.703 14.292 205.733 14.2752 205.766 14.2682C205.799 14.2611 205.834 14.264 205.865 14.2766C205.896 14.2891 205.923 14.3107 205.943 14.3385C205.962 14.3664 205.972 14.3994 205.973 14.4333C205.973 14.4671 205.964 14.5003 205.945 14.5287C205.92 14.5667 205.882 14.5933 205.837 14.6028C205.793 14.6122 205.747 14.6037 205.709 14.5791Z" fill="#FF7D1D"/>
<path d="M219.654 2.92595H215.382V0.0561643L216.565 -1.03064H219.654V2.92595Z" fill="#EFFFFF"/>
<path d="M232.137 26.4222H227.865V23.5514L229.048 22.4646H232.137V26.4222Z" fill="#EFFFFF"/>
<path d="M227.842 23.5514H229.009L229.048 22.4646L227.842 23.5514Z" fill="#EFFFFF"/>
<path d="M230.017 22.8315C230.017 22.8037 230.025 22.7766 230.041 22.7535C230.056 22.7304 230.078 22.7124 230.104 22.7018C230.129 22.6912 230.157 22.6884 230.185 22.6938C230.212 22.6992 230.237 22.7126 230.257 22.7322C230.276 22.7519 230.29 22.7769 230.295 22.8041C230.3 22.8314 230.298 22.8596 230.287 22.8852C230.276 22.9109 230.258 22.9328 230.235 22.9483C230.212 22.9637 230.185 22.9719 230.157 22.9719C230.12 22.9719 230.084 22.9571 230.058 22.9308C230.032 22.9045 230.017 22.8688 230.017 22.8315Z" fill="#B6FDFF"/>
<path d="M234.086 20.7261H229.814V17.8554L230.997 16.7686H234.086V20.7261Z" fill="#EFFFFF"/>
<path d="M229.791 17.8554H230.958L230.997 16.7686L229.791 17.8554Z" fill="#EFFFFF"/>
<path d="M231.965 17.1354C231.965 17.1076 231.974 17.0805 231.989 17.0574C232.004 17.0343 232.026 17.0163 232.052 17.0057C232.078 16.9951 232.106 16.9923 232.133 16.9977C232.16 17.0031 232.185 17.0165 232.205 17.0361C232.225 17.0558 232.238 17.0808 232.244 17.108C232.249 17.1353 232.246 17.1635 232.236 17.1892C232.225 17.2148 232.207 17.2367 232.184 17.2522C232.161 17.2676 232.134 17.2758 232.106 17.2758C232.069 17.2756 232.033 17.2607 232.007 17.2344C231.98 17.2081 231.966 17.1726 231.965 17.1354Z" fill="#B6FDFF"/>
<path d="M228.448 20.7261H224.176V17.8554L225.359 16.7686H228.448V20.7261Z" fill="#BEE8CD"/>
<path d="M224.153 17.8554H225.32L225.359 16.7686L224.153 17.8554Z" fill="#A5D6B5"/>
<path d="M226.327 17.1354C226.327 17.1076 226.335 17.0805 226.351 17.0574C226.366 17.0343 226.388 17.0163 226.414 17.0057C226.44 16.9951 226.468 16.9923 226.495 16.9977C226.522 17.0031 226.547 17.0165 226.567 17.0361C226.587 17.0558 226.6 17.0808 226.605 17.108C226.611 17.1353 226.608 17.1635 226.597 17.1892C226.587 17.2148 226.569 17.2367 226.546 17.2522C226.523 17.2676 226.495 17.2758 226.468 17.2758C226.43 17.2756 226.395 17.2607 226.369 17.2344C226.342 17.2081 226.327 17.1726 226.327 17.1354Z" fill="#F97B50"/>
<path d="M235.291 1.93602H231.02V-0.934747L232.203 -2.02155H235.291V1.93602Z" fill="#BEE8CD"/>
<path d="M220.904 42.114L220.949 42.1635L220.993 42.211C221.419 42.5798 222.831 41.9143 224.196 40.6969C225.561 39.4796 226.376 38.1466 226.057 37.6828L226.015 37.6333L225.972 37.5829C225.675 37.247 225.315 36.9732 224.912 36.777C224.509 36.5809 224.072 36.4663 223.624 36.44C223.177 36.4136 222.729 36.476 222.306 36.6234C221.882 36.7709 221.493 37.0006 221.158 37.2993C220.824 37.598 220.553 37.9598 220.359 38.3639C220.165 38.768 220.053 39.2064 220.03 39.6538C220.006 40.1013 220.071 40.549 220.221 40.9713C220.372 41.3935 220.604 41.7819 220.904 42.114Z" fill="#A6F1F7"/>
<path d="M220.949 42.1635L220.963 42.1813C220.973 42.1921 220.983 42.201 220.994 42.2109C221.419 42.5798 222.831 41.9143 224.196 40.6969C225.561 39.4796 226.377 38.1475 226.057 37.6828C226.049 37.6709 226.04 37.66 226.031 37.6491C226.027 37.6437 226.021 37.6387 226.016 37.6343C225.726 37.3594 224.939 37.6046 224.019 38.2C223.59 38.481 223.183 38.7944 222.801 39.1374C222.495 39.411 222.205 39.7019 221.932 40.0087C221.104 40.9521 220.686 41.8164 220.949 42.1635Z" fill="#BAFAFC"/>
<path d="M221.932 40.0077C222.188 40.2165 222.509 40.3284 222.839 40.3236C223.169 40.3188 223.487 40.1976 223.737 39.9813C223.986 39.7651 224.151 39.4677 224.203 39.1416C224.255 38.8155 224.189 38.4817 224.019 38.199C223.59 38.48 223.183 38.7934 222.801 39.1365C222.495 39.41 222.205 39.7009 221.932 40.0077Z" fill="#CAFDFF"/>
<path d="M218.15 54.8372H218.462V49.4705L215.273 41.3348L220.967 36.9233L220.776 36.6771L214.898 41.2319L218.15 49.5298V54.8372Z" fill="#A6F1F7"/>
<path d="M221.61 37.4909C221.678 37.4422 221.725 37.3682 221.739 37.2851C221.754 37.2021 221.734 37.1168 221.686 37.0479L221.211 36.3794C221.162 36.3107 221.088 36.2641 221.005 36.2498C220.922 36.2355 220.837 36.2547 220.768 36.3032C220.734 36.3275 220.705 36.3582 220.683 36.3936C220.661 36.429 220.645 36.4684 220.638 36.5097C220.632 36.5509 220.633 36.5931 220.642 36.6339C220.651 36.6746 220.669 36.7132 220.693 36.7473L221.167 37.4158C221.191 37.4498 221.221 37.4788 221.257 37.501C221.292 37.5232 221.331 37.5382 221.373 37.5452C221.414 37.5522 221.456 37.551 221.497 37.5417C221.537 37.5324 221.576 37.5151 221.61 37.4909Z" fill="#A6F1F7"/>
<path d="M215.569 41.2418C215.569 41.1603 215.545 41.0806 215.499 41.0127C215.454 40.9449 215.39 40.8921 215.314 40.8609C215.239 40.8296 215.156 40.8215 215.076 40.8374C214.996 40.8533 214.923 40.8926 214.865 40.9503C214.807 41.0079 214.768 41.0814 214.752 41.1614C214.736 41.2414 214.744 41.3243 214.776 41.3997C214.807 41.475 214.86 41.5394 214.927 41.5847C214.995 41.63 215.075 41.6542 215.157 41.6542C215.266 41.6542 215.371 41.6108 215.448 41.5334C215.526 41.4561 215.569 41.3512 215.569 41.2418Z" fill="#A6F1F7"/>
<path d="M219.929 55.575H216.793V55.2783C216.793 55.1193 216.857 54.9669 216.969 54.8545C217.081 54.7422 217.234 54.679 217.393 54.679H219.353C219.506 54.679 219.652 54.7398 219.761 54.8479C219.869 54.956 219.929 55.1026 219.929 55.2555V55.572V55.575Z" fill="#A6F1F7"/>
<path d="M217.978 54.8372H218.637V49.8512H217.978V54.8372Z" fill="#A6F1F7"/>
<g opacity="0.7">
<path opacity="0.7" d="M285.411 54.767C285.411 54.767 286.821 53.1224 285.498 52.0772C285.498 52.0772 284.531 51.4927 283.743 51.5402C283.743 51.5402 284.86 53.4122 284.499 53.5981C284.138 53.784 283.405 51.4225 283.405 51.4225C283.405 51.4225 281.205 51.2089 280.498 51.5491C280.498 51.5491 282.377 53.0878 281.982 53.1798C281.586 53.2718 279.555 51.7607 279.555 51.7607C279.555 51.7607 277.508 52.1088 277.616 53.3578C277.725 54.6068 278.431 54.9915 278.741 54.9588C279.051 54.9262 280.864 54.233 280.904 54.4871C280.943 54.7413 279.853 55.5749 279.088 55.6105C279.088 55.6105 280.531 57.2017 281.49 56.7418C282.45 56.282 282.531 55.5551 283.129 55.2822C283.727 55.0093 284.237 55.0093 283.99 55.2881C283.744 55.567 282.661 55.837 282.319 56.4422C281.977 57.0474 281.67 57.4548 282.663 57.3055C283.656 57.1562 285.268 56.4303 285.339 55.5986L285.411 54.767Z" fill="#80DEE5"/>
<path opacity="0.7" d="M278.621 53.3914C278.621 53.3914 284.181 53.1768 285.409 54.767C285.648 55.3661 286.028 55.8989 286.516 56.3205L286.646 56.6756C286.646 56.6756 285.683 55.66 285.338 55.5986C285.338 55.5986 285.877 53.6287 278.621 53.3914Z" fill="#80DEE5"/>
<path opacity="0.7" d="M286.77 50.9667C286.77 50.9667 289.728 49.3112 288.348 47.0635C288.348 47.0635 287.243 45.684 286.06 45.329C286.06 45.329 286.691 48.6803 286.06 48.7585C285.429 48.8366 285.627 44.9749 285.627 44.9749C285.627 44.9749 282.513 43.4767 281.291 43.5954C281.291 43.5954 283.222 46.8667 282.592 46.7876C281.962 46.7085 279.792 43.3976 279.792 43.3976C279.792 43.3976 276.6 42.8043 276.087 44.699C275.573 46.5938 276.402 47.5372 276.878 47.6548C277.353 47.7725 280.386 47.734 280.307 48.1285C280.229 48.5231 278.178 49.153 277.035 48.798C277.035 48.798 278.297 51.9121 279.952 51.7548C281.608 51.5976 282.12 50.5681 283.146 50.493C284.171 50.4178 284.919 50.6908 284.407 50.9667C283.895 51.2426 282.16 51.0567 281.332 51.7578C280.504 52.4589 279.834 52.895 281.372 53.2105C282.909 53.5259 285.669 53.3282 286.218 52.1464L286.77 50.9667Z" fill="#A6EEF4"/>
<path opacity="0.7" d="M277.545 45.2904C277.545 45.2904 285.824 47.9703 286.77 50.9667C286.77 50.9667 286.731 52.3066 287.562 53.8444V54.4377C287.562 54.4377 286.696 52.4233 286.219 52.1494C286.219 52.1494 288.071 49.5476 277.545 45.2904Z" fill="#A6EEF4"/>
<path opacity="0.7" d="M286.87 63.2597C286.11 63.2597 285.356 63.1098 284.654 62.8186C283.951 62.5275 283.312 62.1008 282.774 61.5628C282.237 61.0249 281.81 60.3862 281.519 59.6834C281.228 58.9806 281.079 58.2273 281.079 57.4667H292.662C292.662 58.2273 292.512 58.9806 292.222 59.6834C291.931 60.3862 291.504 61.0249 290.966 61.5628C290.428 62.1008 289.79 62.5275 289.087 62.8186C288.384 63.1098 287.631 63.2597 286.87 63.2597Z" fill="#A6EEF4"/>
<path opacity="0.7" d="M280.947 57.6457H292.853V57.4677H280.947V57.6457Z" fill="#80DEE5"/>
</g>
<path d="M304.192 78.553H0V155.009H304.192V78.553Z" fill="#D5F9FC"/>
<path d="M304.192 76.9758H0V80.1313H304.192V76.9758Z" fill="#C8F7FC"/>
<g opacity="0.7">
<path opacity="0.7" d="M12.5718 61.5153V45.1688C12.5718 42.2921 14.6783 39.9603 17.2754 39.9603H27.9119C30.5099 39.9603 32.6154 42.2921 32.6154 45.1688V61.5153H12.5718Z" fill="#A6F1F7"/>
<path opacity="0.7" d="M13.7024 61.5153V45.1688C13.7024 42.2921 15.8079 39.9603 18.406 39.9603H29.0425C31.6395 39.9603 33.7461 42.2921 33.7461 45.1688V61.5153H13.7024Z" fill="#B5F5FB"/>
<path opacity="0.7" d="M12.5718 61.5153H36.878V64.0963H14.1314C13.7168 64.0963 13.3191 63.9316 13.0258 63.6384C12.7326 63.3452 12.5679 62.9475 12.5679 62.5329V61.5153H12.5718Z" fill="#A6F1F7"/>
<path opacity="0.7" d="M39.6026 61.5153H22.3973C21.7588 61.5153 21.2412 62.0328 21.2412 62.6713V62.9403C21.2412 63.5788 21.7588 64.0963 22.3973 64.0963H39.6026C40.2411 64.0963 40.7587 63.5788 40.7587 62.9403V62.6713C40.7587 62.0328 40.2411 61.5153 39.6026 61.5153Z" fill="#B6FDFF"/>
<path opacity="0.7" d="M25.2792 82.7608H23.8125L23.4011 64.0953H25.6422L25.2792 82.7608Z" fill="#A6F1F7"/>
<path opacity="0.7" d="M31.6542 82.7608H17.3882V81.4723L24.6592 80.8167L31.6542 81.4723V82.7608Z" fill="#A6F1F7"/>
<path opacity="0.7" d="M16.0027 82.5591C16.0027 82.3269 16.0716 82.0999 16.2006 81.9068C16.3296 81.7138 16.513 81.5633 16.7276 81.4745C16.9422 81.3857 17.1782 81.3625 17.406 81.4079C17.6337 81.4533 17.8429 81.5652 18.007 81.7294C18.1712 81.8937 18.2829 82.1029 18.3281 82.3307C18.3733 82.5585 18.3499 82.7945 18.2609 83.009C18.1719 83.2235 18.0213 83.4067 17.8281 83.5356C17.6349 83.6644 17.4078 83.7331 17.1756 83.7329C16.8644 83.7327 16.5661 83.6089 16.3462 83.3888C16.1262 83.1687 16.0027 82.8702 16.0027 82.5591Z" fill="#A6F1F7"/>
<path opacity="0.7" d="M30.2688 82.5591C30.2688 82.3268 30.3377 82.0998 30.4668 81.9067C30.5959 81.7137 30.7793 81.5632 30.9939 81.4744C31.2086 81.3856 31.4447 81.3625 31.6725 81.408C31.9002 81.4534 32.1094 81.5654 32.2735 81.7298C32.4376 81.8941 32.5492 82.1035 32.5943 82.3313C32.6394 82.5591 32.6159 82.7952 32.5267 83.0097C32.4375 83.2241 32.2868 83.4073 32.0935 83.536C31.9002 83.6648 31.673 83.7333 31.4407 83.7329C31.1297 83.7324 30.8317 83.6085 30.6119 83.3884C30.3922 83.1683 30.2688 82.8701 30.2688 82.5591Z" fill="#A6F1F7"/>
<path opacity="0.7" d="M31.1438 65.3206H17.8994C17.7383 65.3206 17.5788 65.2888 17.43 65.227C17.2812 65.1653 17.146 65.0747 17.0323 64.9606C16.9185 64.8465 16.8284 64.7111 16.7671 64.5621C16.7058 64.4131 16.6745 64.2535 16.6751 64.0924H32.3682C32.3686 64.2535 32.3372 64.413 32.2759 64.562C32.2145 64.7109 32.1244 64.8463 32.0107 64.9603C31.897 65.0744 31.7619 65.1649 31.6131 65.2268C31.4644 65.2886 31.3049 65.3205 31.1438 65.3206Z" fill="#A6F1F7"/>
<path opacity="0.7" d="M7.4835 87.4521H7.45482C7.28472 87.4521 7.14725 87.2336 7.15121 86.9676L7.61108 55.8172L8.965 55.57L7.80987 86.9735C7.80393 87.2405 7.65658 87.4521 7.4835 87.4521Z" fill="#80DEE5"/>
<path opacity="0.7" d="M69.905 87.4521H69.9337C70.1038 87.4521 70.2403 87.2336 70.2373 86.9676L69.7774 55.8172L68.4285 55.566L69.5826 86.9695C69.5875 87.2405 69.7309 87.4521 69.905 87.4521Z" fill="#80DEE5"/>
<path opacity="0.7" d="M72.0185 54.506H5.09123C4.65427 54.506 4.30005 54.8602 4.30005 55.2971V55.5948C4.30005 56.0317 4.65427 56.3859 5.09123 56.3859H72.0185C72.4555 56.3859 72.8097 56.0317 72.8097 55.5948V55.2971C72.8097 54.8602 72.4555 54.506 72.0185 54.506Z" fill="#80DEE5"/>
<path opacity="0.7" d="M64.9028 52.1791H45.6721L46.9598 38.9595H66.1905L64.9028 52.1791Z" fill="#B5EDED"/>
<path opacity="0.7" d="M65.5991 52.1791H46.3684L47.6561 38.9595H66.8868L65.5991 52.1791Z" fill="#80DEE5"/>
<path opacity="0.7" d="M57.08 54.1856H53.667L54.7835 46.5671H58.1955L57.08 54.1856Z" fill="#A6F1F7"/>
<path opacity="0.7" d="M58.6683 53.9572H51.6624V54.506H58.6683V53.9572Z" fill="#A6F1F7"/>
</g>
<path d="M277.689 63.5564V64.0924C277.689 64.2802 277.749 64.4335 277.823 64.4335H297.377C297.452 64.4335 297.512 64.2802 297.512 64.0924V63.5574C297.512 63.3695 297.452 63.2162 297.377 63.2162H277.823C277.749 63.2152 277.689 63.3685 277.689 63.5564Z" fill="#80DEE5"/>
<path d="M277.689 63.5564V64.0924C277.689 64.2802 277.744 64.4335 277.812 64.4335H293.332C293.4 64.4335 293.456 64.2802 293.456 64.0924V63.5574C293.456 63.3695 293.4 63.2162 293.332 63.2162H277.812C277.744 63.2152 277.689 63.3685 277.689 63.5564Z" fill="#B5F5FB"/>
<path d="M282.637 84.6595H296.515V64.4325H282.637V84.6595Z" fill="#A6F1F7"/>
<path d="M278.748 84.6595H292.626V64.4325H278.748V84.6595Z" fill="#B6FDFF"/>
<path d="M279.493 65.0042H291.88V83.543H279.493V65.0042ZM291.746 65.1377H279.626V83.4095H291.746V65.1377Z" fill="#A6F1F7"/>
<path d="M291.813 71.1363H279.56V71.2698H291.813V71.1363Z" fill="#A6F1F7"/>
<path d="M291.813 77.3891H279.56V77.5226H291.813V77.3891Z" fill="#A6F1F7"/>
<path d="M120.366 99.396H117.627C117.053 99.396 116.415 98.8215 116.255 97.7693C116.094 96.7171 114.915 96.1416 114.659 95.2802C114.404 94.4189 115.713 93.2036 115.713 93.2036L115.931 92.9227L116.159 92.626L118.329 93.1363C118.329 93.1363 118.382 93.6525 118.416 94.3101C118.444 94.8117 118.447 95.3144 118.425 95.8162C118.361 96.9653 118.747 98.2024 119.767 98.4259C120.786 98.6494 120.366 99.396 120.366 99.396Z" fill="#305864"/>
<path d="M136.525 57.2145C136.525 57.2145 134.33 62.7395 131.59 69.0902C130.094 72.5514 128.437 76.2677 126.884 79.4608C126.093 81.0984 125.32 82.5996 124.616 83.8604C120.021 92.093 118.584 94.3902 118.584 94.3902C118.584 94.3902 115.95 93.337 115.716 92.6191C115.716 92.6191 117.472 76.7265 120.55 72.852C122.288 70.6626 124.332 64.0933 124.428 61.7951C124.523 59.4969 125.05 54.9509 125.05 54.9509L136.525 57.2145Z" fill="#FF8460"/>
<path d="M132.102 58.2104L131.59 69.0883C130.094 72.5494 128.437 76.2657 126.884 79.4589L125.671 60.9665L132.102 58.2104Z" fill="#ED6644"/>
<path d="M146.976 38.1832C146.976 38.1832 144.641 35.4598 146.833 33.7331C146.833 33.7331 148.433 32.764 149.738 32.8431C149.738 32.8431 147.889 35.9433 148.488 36.2519C149.086 36.5604 150.298 32.6454 150.298 32.6454C150.298 32.6454 153.941 32.2923 155.113 32.856C155.113 32.856 151.998 35.4034 152.654 35.5547C153.31 35.706 156.673 33.2061 156.673 33.2061C156.673 33.2061 160.063 33.7826 159.883 35.8504C159.703 37.9182 158.534 38.557 158.02 38.5016C157.507 38.4462 154.504 37.3001 154.438 37.7214C154.373 38.1427 156.181 39.5162 157.447 39.5805C157.447 39.5805 155.056 42.2159 153.468 41.4594C151.88 40.7029 151.744 39.4935 150.754 39.0406C149.764 38.5877 148.919 38.5896 149.328 39.0515C149.738 39.5133 151.529 39.9603 152.097 40.962C152.666 41.9638 153.171 42.6431 151.529 42.392C149.886 42.1408 147.214 40.9422 147.097 39.5647L146.976 38.1832Z" fill="#9DB37D"/>
<path d="M158.217 35.9087C158.217 35.9087 149.01 35.5537 146.976 38.1832C146.976 38.1832 146.526 39.53 145.143 40.7543L144.927 41.3417C144.927 41.3417 146.522 39.6606 147.094 39.5617C147.094 39.5597 146.201 36.2983 158.217 35.9087Z" fill="#9DB37D"/>
<path d="M145.143 40.7543C145.143 40.7543 143.165 42.2159 143.029 44.8266L143.388 44.8592C143.388 44.8592 144.019 42.1586 145.161 41.1014C146.302 40.0443 145.143 40.7543 145.143 40.7543Z" fill="#9DB37D"/>
<path d="M140.955 35.4063C140.955 35.4063 143.532 34.8792 143.041 32.8935C143.041 32.8935 142.547 31.6139 141.755 31.0729C141.755 31.0729 141.432 33.6975 140.946 33.6075C140.461 33.5175 141.519 30.708 141.519 30.708C141.519 30.708 139.57 28.8667 138.639 28.666C138.639 28.666 139.295 31.5397 138.848 31.336C138.401 31.1323 137.578 28.1715 137.578 28.1715C137.578 28.1715 135.358 26.9848 134.533 28.2595C133.708 29.5342 134.097 30.4351 134.418 30.6329C134.74 30.8307 136.989 31.5229 136.842 31.7909C136.695 32.0589 135.026 32.047 134.271 31.515C134.271 31.515 134.469 34.1138 135.73 34.3828C136.99 34.6518 137.609 34.0199 138.387 34.2038C139.165 34.3877 139.651 34.7675 139.208 34.8505C138.765 34.9336 137.527 34.3877 136.748 34.7121C135.97 35.0365 135.373 35.1996 136.435 35.7999C137.497 36.4002 139.583 36.8995 140.269 36.1559L140.955 35.4063Z" fill="#C0D2A3"/>
<path d="M135.481 29.0358C135.481 29.0358 140.968 32.9687 140.96 35.4063C140.96 35.4063 140.615 36.3873 140.862 37.7184L140.636 37.6125C140.636 37.6125 140.415 36.414 140.271 36.15C140.269 36.15 142.252 34.6637 135.481 29.0358Z" fill="#9DB37D"/>
<path d="M140.86 37.7183C140.86 37.7183 141.737 41.0806 140.643 42.6569H140.363C140.363 42.6569 141.511 41.5899 140.693 37.9102C140.446 36.7987 140.86 37.7183 140.86 37.7183Z" fill="#9DB37D"/>
<path d="M144.722 31.8888C144.722 31.8888 139.825 29.1476 142.108 25.4264C142.108 25.4264 143.935 23.142 145.894 22.5586C145.894 22.5586 144.849 28.1083 145.894 28.2388C146.94 28.3693 146.612 21.9712 146.612 21.9712C146.612 21.9712 151.77 19.491 153.793 19.6868C153.793 19.6868 150.594 25.105 151.639 24.9744C152.685 24.8439 156.275 19.3605 156.275 19.3605C156.275 19.3605 161.563 18.3815 162.406 21.5143C163.25 24.6471 161.884 26.2145 161.101 26.4103C160.318 26.6061 155.291 26.5409 155.42 27.1935C155.55 27.8462 158.946 28.8915 160.84 28.3041C160.84 28.3041 158.75 33.4612 156.009 33.2001C153.267 32.939 152.418 31.2411 150.72 31.1106C149.022 30.98 147.782 31.4369 148.631 31.8938C149.48 32.3507 152.352 32.0441 153.723 33.209C155.094 34.3739 156.205 35.0929 153.658 35.615C151.111 36.1371 146.542 35.8128 145.627 33.8528L144.722 31.8888Z" fill="#C0D2A3"/>
<path d="M159.998 22.4883C159.998 22.4883 146.289 26.9275 144.721 31.8888C144.721 31.8888 144.787 34.1089 143.416 36.6543V37.6343C143.416 37.6343 144.852 34.3047 145.635 33.8478C145.635 33.8478 142.567 29.5392 159.998 22.4883Z" fill="#9DB37D"/>
<path d="M143.416 36.6543C143.416 36.6543 141.301 39.8653 142.507 43.7744L143.051 43.628C143.051 43.628 142.523 39.3234 143.629 37.1587C144.736 34.994 143.416 36.6543 143.416 36.6543Z" fill="#9DB37D"/>
<path d="M154.148 42.6569C154.148 45.201 153.138 47.6408 151.339 49.4397C149.54 51.2386 147.1 52.2492 144.555 52.2492C142.011 52.2492 139.571 51.2386 137.772 49.4397C135.973 47.6408 134.962 45.201 134.962 42.6569H154.148Z" fill="#80DEE5"/>
<path d="M154.366 42.6569H134.65V42.9516H154.366V42.6569Z" fill="#317A8B"/>
<path d="M149.688 48.2294C150.093 47.9673 151.008 47.3898 151.05 47.5283C151.08 47.6272 151.025 47.7923 150.912 47.9614C151.713 48.2581 152.286 46.8736 152.962 47.2801C153.189 47.4165 153.039 49.0601 152.096 49.6257C151.154 50.1914 150.253 50.4584 149.596 50.0124L148.7 49.8275L148.646 48.3382C148.646 48.3382 149.162 48.2966 149.688 48.2294Z" fill="#FFA087"/>
<path d="M126.338 32.9005C126.338 32.9005 128.897 34.99 131.367 33.4523C131.367 33.4523 131.681 31.9581 131.497 30.9346C131.474 30.808 131.453 30.6863 131.433 30.5696C131.236 29.4156 131.15 28.7629 131.15 28.7629C131.019 28.7352 126.761 27.8531 126.79 27.9876C127.438 31.0878 126.338 32.9005 126.338 32.9005Z" fill="#FFA087"/>
<path d="M127.323 28.6551C127.837 29.29 129.4 30.4272 131.434 30.5696C131.236 29.4156 131.15 28.7629 131.15 28.7629C131.031 28.754 127.174 28.4682 127.323 28.6551Z" fill="#ED8267"/>
<path d="M131.955 28.492C131.955 28.492 127.702 30.3709 126.576 27.7008C125.449 25.0308 124.138 23.4851 126.803 22.1729C129.468 20.8606 130.431 21.6527 131.024 22.4498C131.617 23.2468 133.032 27.9303 131.955 28.492Z" fill="#FFA087"/>
<path d="M126.869 28.4306C126.816 28.4811 125.915 28.9538 123.427 25.6854C123.036 25.1722 122.613 23.9826 123.073 22.7751C123.533 21.5677 125.723 20.2762 127.606 19.5394C128.365 19.2511 129.197 19.2126 129.98 19.4297C130.169 19.4805 130.346 19.5684 130.5 19.6882C130.655 19.8081 130.784 19.9574 130.88 20.1277C130.977 20.2979 131.038 20.4856 131.061 20.6799C131.085 20.8741 131.069 21.071 131.015 21.2591C130.659 22.5061 129.776 23.2715 128.657 23.2369C127.909 23.2142 127.956 24.744 127.965 25.1089C127.974 25.4738 127.953 25.7843 127.01 25.633C126.202 25.5025 126.658 26.5695 126.929 27.0501C127.068 27.2847 127.137 27.5546 127.126 27.8274C127.122 28.0542 127.03 28.2705 126.869 28.4306Z" fill="#308796"/>
<path d="M139.437 99.3961H132.177C132.124 99.3878 132.072 99.3729 132.023 99.3516C131.538 99.1093 131.69 97.2531 131.748 96.6815C131.759 96.5757 131.768 96.5134 131.768 96.5134C131.768 96.5134 134.32 94.4714 134.671 96.0348C134.683 96.0843 134.695 96.1337 134.709 96.1792C135.152 97.6418 137.133 98.3063 138.278 98.4912C139.148 98.6366 139.375 99.1459 139.437 99.3961Z" fill="#305864"/>
<path d="M137.97 57.5359C137.97 57.5359 137.582 62.3726 137.127 68.1874C136.507 76.0857 135.762 85.7898 135.689 87.6252C135.561 90.8173 135.05 95.922 135.05 95.922C135.05 95.922 133.838 97.1344 131.413 96.6232C131.413 96.6232 129.251 89.336 128.633 81.6255C128.624 81.4989 128.614 81.3714 128.604 81.2448C128.03 73.3949 124.874 56.5549 124.874 56.5549L137.97 57.5359Z" fill="#FF8460"/>
<path d="M136.893 56.8655C135.87 56.9278 125.071 56.5194 125.068 55.9161C125.058 53.8187 124.619 50.4238 124.072 46.3001C123.972 45.5314 123.893 44.7699 123.835 44.0157C123.682 42.1655 123.678 40.306 123.823 38.4551C124.095 35.2837 125.442 32.7254 126.817 31.5328C126.998 31.3825 127.663 31.8878 128.78 32.3398C129.812 32.7581 130.627 32.4584 131.555 32.1993L132.742 33.2416C133.731 34.1613 134.784 35.5616 135.299 36.8244C135.297 36.8244 136.985 56.8595 136.893 56.8655Z" fill="#308796"/>
<path d="M135.297 36.8244L132.347 37.5097L128.292 48.5013C128.008 49.2722 127.494 49.9373 126.82 50.4072C126.146 50.877 125.344 51.1288 124.522 51.1288L124.878 56.5549L137.974 57.5359L135.297 36.8244Z" fill="#FF8460"/>
<path d="M149.441 49.0611C149.535 48.2027 149.094 48.0415 149.094 48.0415C149.094 48.0415 140.401 46.1161 139.665 45.8541C138.929 45.592 132.822 38.7251 132.822 38.7251C132.822 38.7251 130.489 35.88 128.471 36.4101C126.714 36.8709 125.983 38.198 125.701 39.4757C125.541 40.2227 125.609 41.0009 125.896 41.7087C126.184 42.4166 126.679 43.0213 127.315 43.4441C130.232 45.3913 136.074 49.2331 137.466 49.7009C140.566 50.7412 149.023 50.222 149.023 50.222C149.249 49.8721 149.392 49.4749 149.441 49.0611Z" fill="#308796"/>
<path d="M129.291 34.3265C128.599 33.6886 126.403 31.9363 126.403 31.9363L126.817 31.5338C127.114 31.4715 129.388 33.1833 130.145 33.8587C131.057 34.6716 133.591 37.3258 133.591 37.3258L132.347 37.5107C132.347 37.5107 130.099 35.0771 129.291 34.3265Z" fill="#ED6644"/>
<path d="M284.169 87.3602H260.298V107.041H284.169V87.3602Z" fill="#D85433"/>
<path d="M272.233 87.3602H248.362V107.041H272.233V87.3602Z" fill="#FF8460"/>
<path d="M284.154 102.05H280.372L280.705 100.985L280.372 100.225H284.154V102.05Z" fill="#C14323"/>
<path d="M272.233 93.4508H268.45L268.783 92.3858L268.45 91.6253H272.233V93.4508Z" fill="#FFA087"/>
<path d="M272.233 91.6253H276.015L275.682 92.6903L276.015 93.4508H272.233V91.6253Z" fill="#C14323"/>
<path d="M248.362 102.261H252.144L251.811 103.325L252.144 104.085H248.362V102.261Z" fill="#FFA087"/>
<path d="M249.924 91.3672H256.794V88.6952H249.924V91.3672Z" fill="white"/>
<g opacity="0.7">
<path opacity="0.7" d="M225.822 62.3568V46.5413C225.822 43.7576 227.859 41.4979 230.371 41.4979H240.662C243.175 41.4979 245.212 43.7536 245.212 46.5413V62.3568H225.822Z" fill="#A6F1F7"/>
<path opacity="0.7" d="M226.916 62.3568V46.5413C226.916 43.7576 228.953 41.4979 231.465 41.4979H241.757C244.271 41.4979 246.307 43.7536 246.307 46.5413V62.3568H226.916Z" fill="#B5F5FB"/>
<path opacity="0.7" d="M225.822 62.3568H249.339V64.8538H227.335C226.934 64.8538 226.549 64.6944 226.265 64.4106C225.981 64.1269 225.822 63.742 225.822 63.3408V62.3519V62.3568Z" fill="#A6F1F7"/>
<path opacity="0.7" d="M251.976 62.3568H235.329C234.711 62.3568 234.21 62.8576 234.21 63.4753V63.7353C234.21 64.353 234.711 64.8538 235.329 64.8538H251.976C252.594 64.8538 253.095 64.353 253.095 63.7353V63.4753C253.095 62.8576 252.594 62.3568 251.976 62.3568Z" fill="#B6FDFF"/>
<path opacity="0.7" d="M238.117 82.9131H236.697L236.299 64.8538H238.468L238.117 82.9131Z" fill="#A6F1F7"/>
<path opacity="0.7" d="M244.285 82.9131H230.482V81.6661L237.518 81.0322L244.285 81.6661V82.9131Z" fill="#A6F1F7"/>
<path opacity="0.7" d="M229.138 82.7173C229.138 82.4928 229.205 82.2734 229.33 82.0868C229.454 81.9003 229.632 81.7549 229.839 81.6691C230.047 81.5834 230.275 81.561 230.495 81.6049C230.715 81.6489 230.918 81.7571 231.076 81.9159C231.235 82.0747 231.343 82.277 231.387 82.4971C231.43 82.7173 231.408 82.9456 231.322 83.1529C231.236 83.3603 231.09 83.5376 230.904 83.6623C230.717 83.787 230.498 83.8535 230.273 83.8535C230.124 83.8535 229.976 83.8241 229.838 83.767C229.701 83.7099 229.575 83.6262 229.47 83.5207C229.364 83.4151 229.281 83.2899 229.224 83.152C229.167 83.0142 229.138 82.8664 229.138 82.7173Z" fill="#A6F1F7"/>
<path opacity="0.7" d="M242.944 82.7173C242.944 82.4925 243.011 82.2728 243.135 82.0859C243.26 81.8991 243.438 81.7534 243.646 81.6674C243.853 81.5815 244.082 81.559 244.302 81.603C244.523 81.6469 244.725 81.7552 244.884 81.9142C245.043 82.0732 245.151 82.2758 245.195 82.4962C245.238 82.7167 245.216 82.9452 245.13 83.1528C245.044 83.3604 244.898 83.5378 244.711 83.6625C244.524 83.7873 244.304 83.8537 244.079 83.8535C243.93 83.8535 243.782 83.8241 243.644 83.767C243.507 83.7099 243.381 83.6262 243.276 83.5207C243.171 83.4152 243.087 83.2899 243.03 83.152C242.973 83.0142 242.944 82.8665 242.944 82.7173Z" fill="#A6F1F7"/>
<path opacity="0.7" d="M243.791 66.0385H230.976C230.662 66.0385 230.36 65.9135 230.137 65.6909C229.915 65.4684 229.79 65.1665 229.79 64.8518H244.973C244.973 65.1659 244.849 65.4671 244.627 65.6895C244.405 65.912 244.105 66.0374 243.791 66.0385Z" fill="#A6F1F7"/>
<path opacity="0.7" d="M272.112 87.4521H272.141C272.305 87.4521 272.437 87.2405 272.437 86.9833L271.993 56.8397L270.675 56.6004L271.793 86.9853C271.805 87.2474 271.945 87.4521 272.112 87.4521Z" fill="#80DEE5"/>
<path opacity="0.7" d="M274.157 55.575H209.402C208.979 55.575 208.636 55.9176 208.636 56.3404V56.6281C208.636 57.0508 208.979 57.3935 209.402 57.3935H274.157C274.58 57.3935 274.923 57.0508 274.923 56.6281V56.3404C274.923 55.9176 274.58 55.575 274.157 55.575Z" fill="#80DEE5"/>
<path opacity="0.7" d="M267.273 53.3242H248.666L249.912 40.5328H268.519L267.273 53.3242Z" fill="#B5EDED"/>
<path opacity="0.7" d="M267.946 53.3242H249.339L250.585 40.5328H269.191L267.946 53.3242Z" fill="#80DEE5"/>
<path opacity="0.7" d="M259.703 55.2654H256.401L257.481 47.8942H260.783L259.703 55.2654Z" fill="#A6F1F7"/>
<path opacity="0.7" d="M261.24 55.0439H254.462V55.5749H261.24V55.0439Z" fill="#A6F1F7"/>
</g>
<path d="M224.612 120.205C224.612 120.205 226.283 121.754 225.956 122.854C225.63 123.953 224.123 124.688 223.919 126.032C223.715 127.376 222.9 128.109 222.167 128.109H218.669C218.669 128.109 218.129 127.162 219.433 126.878C220.736 126.593 221.229 125.012 221.148 123.545C221.067 122.078 221.27 120.121 221.27 120.121L224.04 119.47L224.612 120.205Z" fill="#305864"/>
<path d="M204.117 124.427C204.117 124.427 204.524 127.69 203.79 128.054C203.056 128.418 194.296 128.299 194.296 128.299C194.296 128.299 194.296 127.198 195.804 126.954C197.312 126.709 199.958 125.813 200.41 123.816C200.862 121.819 204.117 124.427 204.117 124.427Z" fill="#305864"/>
<path d="M196.186 74.6449C196.186 74.6449 196.681 80.8225 197.263 88.2482C198.054 98.3349 199.006 110.726 199.1 113.07C199.263 117.145 199.915 123.665 199.915 123.665C199.915 123.665 201.463 125.214 204.564 124.561C204.564 124.561 207.324 115.254 208.112 105.407C208.125 105.245 208.137 105.082 208.149 104.92C208.883 94.8946 210.028 73.7855 210.028 73.7855L196.186 74.6449Z" fill="#F97B50"/>
<path d="M200.161 79.5854L208.112 105.411C208.125 105.249 208.137 105.086 208.149 104.924C208.883 94.8985 210.028 73.7895 210.028 73.7895L200.161 79.5854Z" fill="#ED6644"/>
<path d="M198.448 75.3786C198.448 75.3786 207.372 97.7515 213.241 108.265C219.109 118.779 220.944 121.715 220.944 121.715C220.944 121.715 224.307 120.371 224.612 119.453C224.612 119.453 222.367 99.1557 218.437 94.2083C216.217 91.4117 213.608 83.0218 213.486 80.0878C213.364 77.1537 212.695 71.3459 212.695 71.3459L198.448 75.3786Z" fill="#F97B50"/>
<path d="M187.24 82.6718C187.24 82.6718 185.223 85.5228 185.04 86.0677C184.857 86.6126 184.869 88.7862 185.009 88.8722C185.15 88.9582 185.306 88.9216 185.461 88.6101C185.617 88.2986 185.914 87.1881 186.014 87.3078C186.114 87.4274 185.459 90.7106 186.057 90.9954C186.654 91.2802 188.476 90.0856 189.131 88.712C189.787 87.3384 189.294 83.901 189.371 83.6557C190.023 81.5741 187.24 82.6718 187.24 82.6718Z" fill="#FFA087"/>
<path d="M187.904 84.1561C186.77 83.9158 186.656 83.7605 186.656 83.7605C186.656 83.7605 186.845 72.6067 186.817 71.5605C186.789 70.5142 182.359 56.3789 182.359 56.3789L189.945 48.7297C189.945 48.7297 192.732 68.7421 192.751 71.3963C192.783 75.7831 189.534 84.0701 189.534 84.0701C189.007 84.2375 188.446 84.2671 187.904 84.1561Z" fill="#275962"/>
<path d="M187.362 46.8173C187.362 46.8173 185.342 53.9047 182.082 55.5601C182.082 55.5601 181.811 53.9838 182.05 52.5015C182.087 52.2847 182.063 52.0622 181.983 51.8578C181.902 51.6534 181.767 51.4749 181.592 51.3415C181.391 51.1892 181.202 51.0441 181.028 50.9064C180.428 50.4424 179.853 49.9473 179.305 49.423L179.709 45.9816L179.983 43.6469C180.489 44.2015 181.053 44.7007 181.665 45.1361C184.567 47.1871 187.362 46.8173 187.362 46.8173Z" fill="#FFA087"/>
<path d="M181.667 45.1342C181.667 45.1342 182.853 48.1503 181.03 50.9064C180.43 50.4424 179.855 49.9473 179.307 49.423L179.711 45.9816C180.875 45.2894 181.667 45.1342 181.667 45.1342Z" fill="#ED8267"/>
<path d="M178.485 50.1083C178.485 50.1083 183.269 46.7589 181.137 43.8119C179.004 40.865 178.187 38.4481 175.042 40.4625C171.897 42.4769 172.124 44.0226 172.597 45.1826C173.07 46.3425 177.186 50.9034 178.485 50.1083Z" fill="#FFA087"/>
<path d="M189.04 68.4731C188.804 68.2015 188.56 67.9283 188.309 67.6533C187.045 66.2771 185.901 64.796 184.888 63.226C184.161 62.1107 183.522 60.9399 182.979 59.7243C182.246 58.0541 181.957 56.6736 181.884 55.2258C181.884 55.214 181.884 52.9791 181.884 52.9702C184.84 50.6176 184.68 46.5522 184.68 46.5522C184.68 46.5522 196.548 45.8204 206.612 59.4217C206.612 59.4217 207.304 60.4433 208.238 61.9662C208.44 62.2965 208.656 62.6505 208.878 63.0243C210.393 65.5569 192.199 72.1024 189.04 68.4731Z" fill="#308796"/>
<path d="M195.562 57.8109C197.679 58.5031 202.94 59.3881 204.322 63.1855C204.775 64.4295 207.863 61.7744 208.324 62.1106L205.919 58.2667L195.562 57.8109Z" fill="#275962"/>
<path d="M180.413 37.5493C180.432 37.4672 180.52 37.3624 180.764 37.218C180.578 37.2101 180.394 37.2478 180.227 37.3278C179.99 37.0024 179.479 36.4733 178.801 36.6355C178.929 36.643 179.054 36.6792 179.167 36.7415C179.28 36.8038 179.377 36.8906 179.451 36.9955C178.381 36.6345 176.621 36.8828 172.679 39.358C167.483 42.6213 171.108 45.2132 172.03 45.2676C172.952 45.322 174.117 43.2483 175.48 42.6718C176.842 42.0952 178.092 43.8842 178.673 43.9168C179.254 43.9494 178.837 43.5736 179.293 42.9852C179.749 42.3968 180.334 43.3808 180.504 44.1245C180.673 44.8681 181.949 45.3111 181.949 45.3111L182.307 43.9652C182.665 42.6193 181.437 38.3483 180.626 37.7233L180.413 37.5493Z" fill="#317A8B"/>
<path d="M208.864 75.7821C207.479 79.3669 198.858 80.8106 198.214 78.911C198.063 78.466 196.751 81.1854 196.666 80.6653C195.563 73.7895 192.2 72.1004 189.04 68.4731C188.804 68.2015 188.561 67.9282 188.31 67.6533C187.046 66.2771 185.902 64.796 184.889 63.226C184.162 62.1107 183.523 60.9398 182.98 59.7243L188.164 56.0654C188.645 55.7262 189.233 55.5743 189.818 55.6382C190.403 55.7021 190.945 55.9775 191.341 56.4125C193.449 58.7226 197.715 62.6633 202.137 62.4685C205.323 62.3281 207.181 62.1274 208.236 61.9642C208.438 62.2945 208.654 62.6485 208.876 63.0223C210.393 65.5549 212.401 68.7006 212.692 71.3419C212.918 73.382 209.11 75.1363 208.864 75.7821Z" fill="#F97B50"/>
<path d="M185.545 46.5591C185.545 46.5591 184.766 48.2324 185.248 51.9506C185.657 55.1062 186.859 57.3421 186.859 57.3421L187.763 56.7794C187.763 56.7794 185.14 51.9091 186.49 46.6294C186.492 46.6294 186.414 46.5651 185.545 46.5591Z" fill="#F97B50"/>
<path d="M255.264 126.241C255.264 125.852 255.379 125.472 255.595 125.149C255.811 124.826 256.118 124.574 256.477 124.425C256.836 124.277 257.231 124.238 257.613 124.314C257.994 124.389 258.344 124.577 258.619 124.852C258.893 125.127 259.081 125.477 259.156 125.858C259.232 126.239 259.193 126.634 259.044 126.993C258.895 127.352 258.643 127.659 258.32 127.875C257.997 128.091 257.617 128.206 257.228 128.206C256.97 128.206 256.714 128.155 256.476 128.056C256.238 127.957 256.021 127.813 255.839 127.63C255.656 127.448 255.512 127.231 255.413 126.993C255.314 126.754 255.264 126.499 255.264 126.241Z" fill="#F98250"/>
<path d="M256.028 126.241C256.028 126.003 256.099 125.771 256.231 125.574C256.363 125.377 256.551 125.223 256.77 125.133C256.989 125.042 257.231 125.019 257.463 125.066C257.696 125.112 257.91 125.227 258.077 125.395C258.245 125.563 258.359 125.777 258.405 126.01C258.451 126.243 258.426 126.484 258.335 126.703C258.244 126.922 258.09 127.109 257.892 127.241C257.694 127.372 257.462 127.442 257.225 127.441C256.907 127.44 256.602 127.314 256.378 127.089C256.154 126.863 256.028 126.559 256.028 126.241Z" fill="#ED5E35"/>
<path d="M241.474 124.255C241.109 124.255 233.77 124.183 228.717 118.74C225.249 115.004 223.75 109.71 224.266 103.007C225.311 89.3162 223.079 78.2385 218.134 72.6147C215.907 70.0821 213.179 68.7144 210.025 68.5493C204.625 68.2665 199.561 74.4629 199.511 74.5252L197.687 73.0537C197.925 72.7571 203.571 65.8664 210.148 66.2095C213.958 66.4073 217.237 68.043 219.897 71.068C222.63 74.1761 224.598 78.6291 225.747 84.3034C226.856 89.7928 227.147 96.1455 226.61 103.185C226.15 109.211 227.441 113.908 230.445 117.146C234.824 121.863 241.404 121.912 241.484 121.912V124.255H241.474Z" fill="#80DEE5"/>
<path d="M261.839 125.305C261.575 125.568 261.262 125.776 260.918 125.917C260.573 126.058 260.204 126.13 259.832 126.128H238.987C238.722 126.128 238.462 126.067 238.225 125.949C237.988 125.832 237.781 125.661 237.621 125.45C237.462 125.239 237.353 124.994 237.303 124.735C237.254 124.475 237.265 124.207 237.336 123.952C238.188 120.946 240.018 115.704 242.794 113.997C243.315 113.69 243.883 113.471 244.475 113.347C249.393 112.231 258.919 115.049 262.249 121.721C262.249 121.721 262.329 121.866 262.442 122.117C262.679 122.646 262.748 123.236 262.641 123.806C262.533 124.376 262.253 124.899 261.839 125.305Z" fill="#F98250"/>
<path d="M200.63 74.7576L172.431 112.067L161.727 126.23L159.916 124.909L170.186 110.429L197.239 72.2844L200.63 74.7576Z" fill="#317A8B"/>
<path d="M172.431 112.067L161.727 126.23L159.916 124.909L170.186 110.429L172.431 112.067Z" fill="#F98250"/>
<path d="M165.348 125.807V127.006C165.347 127.292 165.233 127.567 165.03 127.769C164.828 127.972 164.554 128.086 164.268 128.088H153.777C153.491 128.086 153.218 127.971 153.015 127.769C152.813 127.566 152.699 127.292 152.698 127.006V125.807C152.699 125.521 152.814 125.247 153.016 125.045C153.218 124.842 153.492 124.728 153.777 124.726H164.268C164.554 124.728 164.828 124.842 165.03 125.044C165.232 125.247 165.347 125.52 165.348 125.807Z" fill="#ED5E35"/>
<path d="M162.777 125.807V127.006C162.776 127.292 162.661 127.567 162.459 127.769C162.257 127.972 161.983 128.086 161.696 128.088H153.784C153.498 128.086 153.224 127.971 153.022 127.769C152.82 127.566 152.706 127.292 152.704 127.006V125.807C152.706 125.521 152.82 125.247 153.023 125.045C153.225 124.842 153.498 124.728 153.784 124.726H161.696C161.982 124.728 162.256 124.842 162.459 125.044C162.661 125.247 162.775 125.52 162.777 125.807Z" fill="#F98250"/>
<path d="M261.839 125.305C261.575 125.568 261.262 125.776 260.918 125.917C260.573 126.058 260.204 126.13 259.832 126.128H238.987C238.722 126.128 238.462 126.067 238.225 125.949C237.988 125.832 237.781 125.661 237.621 125.45C237.462 125.239 237.353 124.994 237.303 124.735C237.254 124.475 237.265 124.207 237.336 123.952C238.188 120.946 240.018 115.704 242.794 113.997C243.315 113.69 243.883 113.471 244.475 113.347C246.38 116.933 251.567 124.613 261.839 125.305Z" fill="#F37042"/>
<path d="M240.593 123.511C240.593 122.583 240.868 121.675 241.384 120.902C241.9 120.13 242.633 119.528 243.491 119.173C244.349 118.817 245.294 118.724 246.205 118.905C247.115 119.086 247.952 119.534 248.609 120.19C249.266 120.847 249.713 121.684 249.894 122.595C250.075 123.505 249.982 124.45 249.627 125.308C249.271 126.166 248.669 126.899 247.897 127.415C247.124 127.931 246.216 128.206 245.288 128.206C244.043 128.206 242.848 127.711 241.968 126.831C241.088 125.95 240.593 124.756 240.593 123.511Z" fill="#275962"/>
<path d="M242.42 123.511C242.42 122.944 242.588 122.39 242.903 121.918C243.218 121.446 243.666 121.079 244.19 120.862C244.714 120.645 245.291 120.588 245.847 120.699C246.404 120.809 246.915 121.082 247.316 121.484C247.717 121.885 247.99 122.396 248.101 122.952C248.211 123.508 248.154 124.085 247.937 124.609C247.72 125.133 247.353 125.581 246.881 125.896C246.409 126.211 245.855 126.379 245.288 126.379C244.527 126.379 243.798 126.077 243.26 125.539C242.722 125.001 242.42 124.272 242.42 123.511Z" fill="#308796"/>
<path d="M214.424 65.9614C214.424 65.9614 213.79 68.576 213.814 69.0181C213.839 69.4601 214.19 70.808 214.315 70.8297C214.439 70.8515 214.819 70.9138 214.841 70.6468C214.863 70.3798 214.719 70.1118 214.825 70.1692C214.931 70.2265 214.843 71.2312 215.352 71.2659C215.862 71.3005 217.416 70.9178 217.495 69.7479C217.574 68.578 216.243 66.258 216.228 66.0603C216.104 64.389 214.424 65.9614 214.424 65.9614Z" fill="#FFA087"/>
<path d="M215.51 66.1967C214.293 66.3944 213.457 66.1967 213.457 66.1967C213.457 66.1967 206.624 59.2793 205.667 58.7077C204.711 58.1361 192.447 57.4825 192.447 57.4825C191.221 56.2024 190.218 54.7263 189.48 53.1155C188.392 50.7639 186.863 46.6768 186.863 46.6768C186.863 46.6768 189.681 46.655 191.816 47.2988C196.606 48.7426 206.136 51.6895 207.913 52.7991C211.869 55.2713 216.938 65.0199 216.938 65.0199C216.938 65.0199 216.502 66.0335 215.51 66.1967Z" fill="#308796"/>
<path d="M188.004 57.7268C188.004 57.6257 188.034 57.5268 188.09 57.4427C188.147 57.3587 188.226 57.2931 188.32 57.2544C188.413 57.2157 188.516 57.2056 188.615 57.2253C188.714 57.2451 188.806 57.2938 188.877 57.3653C188.949 57.4368 188.997 57.5279 189.017 57.627C189.037 57.7262 189.027 57.829 188.988 57.9224C188.949 58.0159 188.884 58.0957 188.8 58.1519C188.715 58.2081 188.617 58.238 188.515 58.238C188.38 58.238 188.25 58.1842 188.154 58.0883C188.058 57.9924 188.004 57.8624 188.004 57.7268Z" fill="#ED6644"/>
<path d="M270.905 -9.07733H255.729C255.029 -9.07733 254.462 -8.51017 254.462 -7.81055V6.83703C254.462 7.53665 255.029 8.10381 255.729 8.10381H270.905C271.605 8.10381 272.172 7.53665 272.172 6.83703V-7.81055C272.172 -8.51017 271.605 -9.07733 270.905 -9.07733Z" fill="#C5F7FB"/>
<path d="M270.248 -8.33368H256.386C255.747 -8.33368 255.229 -7.81567 255.229 -7.17667V6.20117C255.229 6.84017 255.747 7.35819 256.386 7.35819H270.248C270.887 7.35819 271.405 6.84017 271.405 6.20117V-7.17667C271.405 -7.81567 270.887 -8.33368 270.248 -8.33368Z" fill="#E1FBFD"/>
<path d="M269.061 2.50562C269.112 2.5569 269.147 2.62227 269.162 2.69346C269.176 2.76466 269.169 2.83847 269.141 2.90557C269.113 2.97266 269.066 3.03001 269.006 3.07037C268.945 3.11073 268.874 3.13227 268.802 3.13227C268.729 3.13227 268.658 3.11073 268.598 3.07037C268.537 3.03001 268.49 2.97266 268.463 2.90557C268.435 2.83847 268.428 2.76466 268.442 2.69346C268.456 2.62227 268.491 2.5569 268.543 2.50562C268.611 2.43702 268.705 2.3985 268.802 2.3985C268.899 2.3985 268.992 2.43702 269.061 2.50562Z" fill="#BCF2F3"/>
<path d="M266.499 5.44067C266.701 5.44067 266.865 5.27641 266.865 5.07379C266.865 4.87117 266.701 4.70691 266.499 4.70691C266.296 4.70691 266.132 4.87117 266.132 5.07379C266.132 5.27641 266.296 5.44067 266.499 5.44067Z" fill="#BCF2F3"/>
<path d="M262.95 6.00537C262.95 5.9328 262.971 5.86187 263.012 5.80154C263.052 5.74121 263.109 5.69418 263.176 5.66642C263.244 5.63865 263.317 5.63138 263.388 5.64554C263.46 5.65969 263.525 5.69464 263.576 5.74595C263.628 5.79725 263.663 5.86262 263.677 5.93379C263.691 6.00496 263.684 6.07873 263.656 6.14577C263.628 6.2128 263.581 6.2701 263.521 6.31042C263.46 6.35073 263.389 6.37225 263.317 6.37225C263.22 6.37225 263.126 6.33359 263.057 6.26479C262.989 6.19599 262.95 6.10267 262.95 6.00537Z" fill="#BCF2F3"/>
<path d="M257.82 3.13159C258.023 3.13159 258.187 2.96733 258.187 2.76471C258.187 2.56209 258.023 2.39783 257.82 2.39783C257.618 2.39783 257.453 2.56209 257.453 2.76471C257.453 2.96733 257.618 3.13159 257.82 3.13159Z" fill="#BCF2F3"/>
<path d="M260.124 5.44067C260.326 5.44067 260.49 5.27641 260.49 5.07379C260.49 4.87117 260.326 4.70691 260.124 4.70691C259.921 4.70691 259.757 4.87117 259.757 5.07379C259.757 5.27641 259.921 5.44067 260.124 5.44067Z" fill="#BCF2F3"/>
<path d="M90.905 101.134V76.1411C90.905 71.7445 94.1242 68.1795 98.0959 68.1795H114.358C118.329 68.1795 121.549 71.7445 121.549 76.1411V101.134H90.905Z" fill="#80DEE5"/>
<path d="M92.6328 101.134V76.1411C92.6328 71.7445 95.8519 68.1795 99.8237 68.1795H116.085C120.057 68.1795 123.276 71.7445 123.276 76.1411V101.134H92.6328Z" fill="#A6F1F7"/>
<path d="M90.905 101.13H128.065V105.075H93.2964C92.6622 105.075 92.0539 104.823 91.6054 104.375C91.157 103.927 90.905 103.318 90.905 102.684V101.13Z" fill="#80DEE5"/>
<path d="M132.232 101.133H105.928C104.951 101.133 104.159 101.924 104.159 102.901V103.31C104.159 104.287 104.951 105.078 105.928 105.078H132.232C133.208 105.078 134 104.287 134 103.31V102.901C134 101.924 133.208 101.133 132.232 101.133Z" fill="#B6FDFF"/>
<path d="M110.333 133.615H108.091L107.461 105.078H110.888L110.333 133.615Z" fill="#6AD3D6"/>
<path d="M120.08 133.615H98.2681V131.645L109.385 130.642L120.08 131.645V133.615Z" fill="#6AD3D6"/>
<path d="M99.7209 133.606C99.8788 132.628 99.2138 131.707 98.2357 131.549C97.2576 131.391 96.3366 132.056 96.1787 133.034C96.0208 134.012 96.6858 134.933 97.6639 135.091C98.642 135.249 99.563 134.584 99.7209 133.606Z" fill="#6AD3D6"/>
<path d="M121.996 133.195C122.155 132.215 121.488 131.291 120.507 131.132C119.526 130.974 118.603 131.641 118.444 132.621C118.285 133.602 118.952 134.526 119.933 134.684C120.914 134.843 121.838 134.176 121.996 133.195Z" fill="#6AD3D6"/>
<path d="M119.298 106.951H99.0504C98.5538 106.951 98.0775 106.754 97.7262 106.403C97.375 106.052 97.1775 105.576 97.1772 105.079H121.17C121.17 105.576 120.973 106.052 120.622 106.403C120.27 106.754 119.794 106.951 119.298 106.951Z" fill="#6AD3D6"/>
<path d="M80.7909 143.067H80.7464C80.4863 143.067 80.2776 142.721 80.2836 142.3L80.9887 93.0671L83.0586 92.6716L81.2943 142.304C81.2785 142.733 81.0589 143.067 80.7909 143.067Z" fill="#66D5D8"/>
<path d="M168.81 143.067H168.854C169.115 143.067 169.323 142.721 169.317 142.3L168.612 93.0671L166.542 92.6716L168.308 142.303C168.323 142.733 168.543 143.067 168.81 143.067Z" fill="#66D5D8"/>
<path d="M172.911 90.9974H77.1177C76.4601 90.9974 75.927 91.5304 75.927 92.188V92.7774C75.927 93.435 76.4601 93.968 77.1177 93.968H172.911C173.569 93.968 174.102 93.435 174.102 92.7774V92.188C174.102 91.5304 173.569 90.9974 172.911 90.9974Z" fill="#66D5D8"/>
<path d="M168.632 87.4403H139.23L141.199 67.2281H170.6L168.632 87.4403Z" fill="#275962"/>
<path d="M169.695 87.4403H140.294L142.262 67.2281H171.664L169.695 87.4403Z" fill="#317A8B"/>
<path d="M156.67 90.5088H151.453L153.159 78.8605H158.377L156.67 90.5088Z" fill="#275962"/>
<path d="M159.098 90.1588H148.387V90.9983H159.098V90.1588Z" fill="#275962"/>
<path d="M79.7375 41.0885C79.7375 41.0885 79.3221 37.0687 74.9103 37.9369C74.9103 37.9369 76.3186 38.0358 77.1533 38.6291C77.1533 38.6291 74.0133 37.5315 71.4498 40.6732C68.8864 43.8149 71.3608 49.3458 70.6675 50.7382C69.9743 52.1306 62.7557 52.5489 65.8067 59.5187C67.4148 63.1914 81.5315 63.9064 81.4603 67.2805C81.4603 67.2805 84.5429 60.0517 80.8669 57.7525C80.8669 57.7525 82.6589 58.8788 83.1415 60.5412C83.1415 60.5412 82.9012 57.1562 80.591 56.5134C78.5458 55.9438 76.3482 52.8238 76.3888 52.18C76.4293 51.5362 79.7375 41.0885 79.7375 41.0885Z" fill="#305864"/>
<path d="M96.5561 87.5065L94.2647 88.447C94.2647 88.447 87.7958 84.6961 84.7942 81.9865C84.6624 81.8704 84.5404 81.7564 84.4283 81.6443C83.1852 80.4369 76.5877 68.219 75.1121 64.475C73.6366 60.7311 79.4874 60.2228 79.4874 60.2228C81.9776 60.4433 87.2756 76.5396 88.938 78.2949C89.0775 78.4413 89.2664 78.6658 89.4929 78.9506C90.7726 80.5536 93.2589 84.0523 94.8739 86.1923C95.6987 87.2909 96.5561 87.5065 96.5561 87.5065Z" fill="#FFA087"/>
<path d="M102.495 90.5543C102.248 90.9034 99.2313 90.3357 97.7894 90.1083C97.5604 90.066 97.3293 90.0367 97.0971 90.0203C96.7569 90.0203 96.1981 90.3318 95.7372 90.492C95.4247 90.5998 95.1567 90.6383 95.0321 90.4603C94.9698 90.366 94.9152 90.2668 94.8689 90.1637C94.7651 89.9392 94.6563 89.6524 94.5613 89.3775C94.3932 88.8959 94.2646 88.4549 94.2646 88.4549L95.8876 87.4749C95.8876 87.4749 96.1595 87.4828 96.5561 87.5144C97.4462 87.5826 98.9732 87.7705 99.4242 88.2571C100.087 88.9543 102.678 90.2982 102.495 90.5543Z" fill="#FFA087"/>
<path d="M98.0593 90.4959C97.9278 90.5711 97.3304 90.4574 95.929 90.4959C95.8618 90.4959 95.7995 90.4959 95.7382 90.4959C95.3089 90.4752 95.0399 90.3357 94.8698 90.1637C94.5731 89.8571 94.5801 89.4438 94.5623 89.3775H96.6035C96.6035 89.3775 97.2958 89.96 97.6321 90.0529C97.687 90.0686 97.7403 90.0895 97.7913 90.1152C98.0306 90.228 98.1681 90.4317 98.0593 90.4959Z" fill="#FFA087"/>
<path d="M77.0514 80.4507C76.9495 80.5789 76.8168 80.6793 76.6657 80.7424C76.1989 80.9293 75.0557 80.8631 75.0557 80.8631C75.0675 80.8374 75.2762 80.427 75.8755 80.1323C76.4956 79.8277 77.3085 79.5083 77.3323 79.7427C77.3491 79.8979 77.2542 80.2114 77.0514 80.4507Z" fill="#FFA087"/>
<path d="M72.6811 139.96L70.8297 140.652C70.8297 140.652 62.7893 129.5 61.7994 119.687C61.6223 117.935 61.6807 116.238 62.0634 114.671C62.0634 114.671 61.9853 114.222 61.8478 113.429C61.7835 113.059 61.7054 112.613 61.6164 112.101C61.3543 110.604 60.9953 108.555 60.5839 106.221C59.6374 100.852 58.4081 93.9878 57.4597 88.9414L57.9542 88.7812L63.356 87.0348L64.4726 83.4965L68.4908 82.4384C68.4908 82.4384 69.3888 84.1947 70.1919 92.4906C70.3392 93.5784 70.4737 94.7779 70.5756 96.0793C70.9451 100.923 70.8169 105.792 70.1928 110.61C70.0089 112.052 69.7735 113.539 69.4867 115.07C69.2751 116.192 69.2434 117.719 69.3324 119.475C69.7369 127.495 72.6811 139.96 72.6811 139.96Z" fill="#F97B50"/>
<path d="M62.0634 114.67C62.0001 114.3 61.7054 112.612 61.6164 112.098C61.3543 110.601 58.4121 93.9848 57.4626 88.9385C57.4626 88.9385 66.6532 85.4615 66.676 86.3673C66.9766 98.7899 62.0634 114.67 62.0634 114.67Z" fill="#ED5E35"/>
<path d="M58.4546 143.067H49.1305C49.1305 143.067 48.907 141.646 49.3945 140.568C49.8603 139.533 50.5922 139.064 50.4171 137.812C51.0105 138.422 51.9748 139.105 53.3228 138.923C53.4879 139.191 54.3889 140.624 54.9407 141.021C55.5499 141.459 58.2667 141.303 58.4546 143.067Z" fill="#275962"/>
<path d="M78.4747 143.067H69.1506C69.1506 143.067 68.8025 141.584 69.4146 140.568C69.9566 139.678 69.7489 139.163 69.3474 138.422C69.8422 138.637 70.3788 138.738 70.9179 138.719C71.3827 138.692 71.8732 138.481 72.3024 138.231C72.704 138.689 74.4218 140.636 74.9588 141.022C75.57 141.459 78.2877 141.303 78.4747 143.067Z" fill="#275962"/>
<path d="M77.5953 39.9147C77.6081 39.6625 72.8383 43.3333 72.6286 43.6834C70.6902 46.922 72.1035 50.3723 73.5296 50.1271C74.4444 49.9698 74.565 51.5175 74.565 51.5175L83.8615 45.234C83.8615 45.234 81.2377 38.3572 77.5953 39.9147Z" fill="#305864"/>
<path d="M77.6261 58.0541C77.6261 58.0541 80.1064 59.757 81.3733 61.985C81.3733 61.985 80.4209 66.7604 75.926 68.8925C75.927 68.8925 76.467 58.3973 77.6261 58.0541Z" fill="#EAB9A8"/>
<path d="M75.1466 64.3248C69.3185 64.1428 70.7169 56.0348 71.067 56.109C71.8088 55.7995 73.8599 53.6822 74.8558 50.7343L75.0961 50.8718L79.1094 53.1996C79.1094 53.1996 78.5477 54.5228 78.1076 55.7975C77.7634 56.7953 77.4944 57.7654 77.625 58.0542C77.9444 58.2163 76.7012 64.3742 75.1466 64.3248Z" fill="#FFA087"/>
<path d="M79.1095 53.2006C79.1095 53.2006 78.5468 54.5228 78.1067 55.7985C75.7193 54.9084 75.1981 52.2701 75.0933 50.8727L79.1095 53.2006Z" fill="#ED8369"/>
<path d="M79.5051 54.6859C79.5051 54.6859 73.7691 52.8268 74.9815 49.2727C76.194 45.7186 76.2672 43.0851 79.9838 44.1215C83.7004 45.1579 83.9397 46.7559 83.827 48.0405C83.7142 49.3251 81.0262 55.0775 79.5051 54.6859Z" fill="#FFA087"/>
<path d="M84.3312 46.0073C83.8159 44.6367 83.0693 44.6437 82.5856 44.8365C80.0548 42.0557 77.1779 43.901 77.1779 43.901C75.9239 46.3198 73.5859 47.1505 73.5859 47.1505C73.5859 47.1505 74.4058 48.1483 77.0127 48.353C77.8099 48.4153 78.6416 48.1187 79.413 47.6786C78.427 48.494 77.3343 49.171 76.1652 49.691C79.4812 49.3479 81.9942 45.7601 82.2524 45.3784C82.4937 45.8106 82.9446 46.7243 82.9288 47.462C82.9031 48.4638 82.3938 50.3704 82.9585 50.493C82.9585 50.493 85.1046 48.0623 84.3312 46.0073Z" fill="#305864"/>
<path d="M77.2819 71.962C75.4889 73.656 73.2271 74.8377 72.1936 75.8187C69.6964 78.197 55.9417 73.9547 58.3736 69.9071C58.3783 69.8985 58.3836 69.8902 58.3894 69.8824C58.6604 69.4321 58.9324 68.9937 59.2053 68.5671L59.2261 68.5335C60.9337 65.8421 62.8906 63.3172 65.071 60.9921C66.0115 59.9939 67.0017 59.0437 68.0379 58.1451C68.1793 58.0215 68.3188 57.9028 68.4563 57.7871C70.9999 55.6471 71.6922 55.6867 71.6922 55.6867C71.6922 55.6867 75.1151 58.1837 76.6964 58.9164C77.7734 59.4109 77.63 58.0868 77.63 58.0591C77.6518 58.1451 78.619 61.5707 78.7931 65.3492C78.9117 68.0331 78.624 70.6942 77.2819 71.962Z" fill="#F9D4C4"/>
<path d="M93.6871 90.9984C93.6871 90.9984 92.9028 89.9343 98.269 89.6574C99.2234 89.6079 99.89 90.1439 101.275 90.3605C102.659 90.5771 103.351 90.6344 103.351 90.9984H93.6871Z" fill="#308796"/>
<path d="M77.2819 71.962C75.4889 73.656 73.2271 74.8378 72.1936 75.8188C69.6965 78.1971 68.5344 82.7559 68.5344 82.7559C53.8906 89.8265 51.6753 85.1421 51.6753 85.1421C53.589 78.9753 55.9418 73.9586 58.3737 69.9131C58.3783 69.9045 58.3836 69.8962 58.3895 69.8883L59.2311 68.5424C59.2311 68.5424 67.0608 71.787 72.3618 69.4483C77.6627 67.1095 75.6046 65.5846 76.3909 65.3938C77.1832 65.2345 77.9979 65.2208 78.7951 65.3532C78.9118 68.0332 78.624 70.6943 77.2819 71.962Z" fill="#F97B50"/>
<path d="M77.7715 65.5292L76.4225 65.7022C76.4225 65.7022 76.0863 60.3038 72.7633 58.51C69.4799 56.7398 65.1847 60.8833 65.075 60.9941C66.0155 59.9958 67.0057 59.0456 68.0419 58.147C70.1118 57.2056 71.4262 57.2768 71.4262 57.2768C76.919 57.8375 77.7715 65.5292 77.7715 65.5292Z" fill="#F97B50"/>
<path d="M75.1091 82.7351C69.2415 82.29 64.9632 81.5187 62.3582 80.6435C60.7353 80.0996 59.7602 79.5132 59.4556 78.9406C58.6644 77.4474 67.5593 60.5105 67.5593 60.5105C71.625 57.8039 72.4241 65.5035 72.1412 66.8197C71.8584 68.1359 65.7415 75.5586 65.3459 75.9492C65.247 76.0481 65.8038 76.4031 66.6979 76.8808C69.3681 78.3186 75.0557 80.8631 75.0557 80.8631L75.1091 82.7351Z" fill="#FFA087"/>
<path d="M67.6937 60.3019C66.6404 61.3699 65.2875 63.0837 64.1284 65.6419C64.1284 65.6419 67.1636 69.0329 72.7108 67.4012C72.7108 67.4012 74.036 63.7037 72.8374 61.1415C71.9058 59.1478 69.2365 58.7355 67.6937 60.3019Z" fill="#F9D4C4"/>
<path d="M76.3612 82.4513L76.3355 90.3704C76.3349 90.4584 76.3518 90.5457 76.3851 90.6272C76.4184 90.7087 76.4675 90.7828 76.5295 90.8453C76.5915 90.9078 76.6653 90.9574 76.7466 90.9913C76.8278 91.0252 76.915 91.0427 77.003 91.0428L80.0867 91.0527C80.1747 91.0531 80.2619 91.0362 80.3433 91.0028C80.4248 90.9695 80.4989 90.9204 80.5613 90.8584C80.6238 90.7964 80.6734 90.7227 80.7074 90.6415C80.7413 90.5603 80.7589 90.4732 80.7592 90.3852L80.7681 87.729C80.7698 86.877 80.4523 86.0553 79.878 85.4259L78.7832 84.2214C78.1758 83.5505 77.8254 82.6862 77.7942 81.7818L77.7082 80.3528C77.7002 80.1833 77.6254 80.0237 77.5001 79.9092C77.3748 79.7947 77.2092 79.7344 77.0396 79.7417C76.8583 79.7491 76.687 79.8265 76.5615 79.9576C76.4361 80.0887 76.3664 80.2634 76.3671 80.4448L76.3612 82.4513Z" fill="#9DB37D"/>
<path d="M76.6114 78.287L79.7168 78.2969C79.841 78.2975 79.9598 78.3472 80.0474 78.4353C80.1349 78.5233 80.1839 78.6425 80.1836 78.7667C80.1832 78.8699 80.1487 78.9701 80.0856 79.0518C80.0225 79.1334 79.9343 79.1921 79.8345 79.2186C79.3509 79.3462 78.5014 79.6329 78.1918 80.1284C78.1498 80.1969 78.091 80.2536 78.0208 80.2929C77.9507 80.3322 77.8717 80.3528 77.7913 80.3529H76.2089C76.0907 80.3521 75.9772 80.3064 75.8915 80.225C75.8057 80.1437 75.7541 80.0328 75.7471 79.9148C75.7362 79.7756 75.7134 79.6376 75.6788 79.5024C75.6411 79.3594 75.6366 79.2096 75.6657 79.0646C75.6948 78.9196 75.7567 78.7832 75.8468 78.6658C75.9368 78.5485 76.0526 78.4533 76.1851 78.3877C76.3177 78.322 76.4635 78.2876 76.6114 78.287Z" fill="#9DB37D"/>
<path d="M79.164 81.5721C79.1447 81.5724 79.1255 81.5687 79.1076 81.5612C77.9208 81.051 77.5688 79.8337 77.5539 79.7813C77.548 79.7626 77.5459 79.743 77.5478 79.7236C77.5496 79.7042 77.5553 79.6853 77.5646 79.6681C77.5739 79.651 77.5865 79.6358 77.6018 79.6237C77.6171 79.6115 77.6346 79.6025 77.6534 79.5973C77.6722 79.592 77.6919 79.5906 77.7112 79.5931C77.7306 79.5956 77.7492 79.602 77.7661 79.6119C77.7829 79.6218 77.7976 79.635 77.8092 79.6506C77.8209 79.6663 77.8292 79.6842 77.8338 79.7031C77.8397 79.7229 78.1681 80.8404 79.2184 81.2923C79.2492 81.3055 79.2745 81.329 79.2899 81.3588C79.3054 81.3885 79.31 81.4227 79.3032 81.4555C79.2963 81.4884 79.2783 81.5178 79.2522 81.5389C79.2261 81.5599 79.1936 81.5713 79.16 81.5711L79.164 81.5721Z" fill="#9DB37D"/>
<path d="M81.1676 86.5414H76.7439V88.8663H81.1676V86.5414Z" fill="#F97B50"/>
<path d="M78.8128 82.6342C78.2531 83.4194 75.1061 82.7331 75.1061 82.7331L75.0527 80.8611C75.0923 80.8522 76.0496 80.6267 77.0465 80.4497C78.0948 80.2628 79.1877 80.1283 79.3054 80.3508C79.5427 80.7958 79.3766 81.85 78.8128 82.6342Z" fill="#FFA087"/>
<path d="M102.495 90.5543C102.248 90.9034 99.2313 90.3357 97.7894 90.1083C98.0307 90.2279 98.1681 90.4317 98.0593 90.4959C97.9278 90.5711 97.3305 90.4574 95.9291 90.4959C95.8618 90.4959 95.7995 90.4959 95.7382 90.4959C95.4257 90.6037 95.1577 90.6423 95.0331 90.4643C94.9708 90.37 94.9162 90.2707 94.8699 90.1676C94.5732 89.8611 94.5801 89.4477 94.5623 89.3814C94.3942 88.8999 94.2656 88.4588 94.2656 88.4588C94.2656 88.4588 87.7967 84.7079 84.7952 81.9983C86.1125 81.5197 88.0914 80.5852 89.4938 78.9673C90.7735 80.5704 93.2598 84.0691 94.8748 86.2091C95.7006 87.2968 96.5561 87.5174 96.5561 87.5174C97.4462 87.5856 98.9732 87.7735 99.4241 88.26C100.087 88.9542 102.678 90.2982 102.495 90.5543Z" fill="#FF9C49"/>
<path d="M78.8128 82.6342C78.2531 83.4194 75.1061 82.7331 75.1061 82.7331C69.2385 82.2881 64.9602 81.5167 62.3552 80.6416C65.248 79.7862 66.2874 77.9814 66.6949 76.8837C69.3651 78.3216 75.0527 80.866 75.0527 80.866C75.0646 80.8403 75.2733 80.4299 75.8726 80.1352C76.4927 79.8307 77.3056 79.5112 77.3294 79.7456C77.3442 79.9019 77.2493 80.2104 77.0465 80.4546C78.0948 80.2677 79.1877 80.1333 79.3054 80.3558C79.5427 80.7958 79.3766 81.85 78.8128 82.6342Z" fill="#FF9C49"/>
<path d="M12.198 28.3179H10.9519V34.9386H12.198V28.3179Z" fill="#EAB9A8"/>
<path d="M17.1656 28.3179H12.198V34.9386H17.1656V28.3179Z" fill="#F9D4C4"/>
<path d="M12.9388 29.8359C12.8606 29.8359 12.7841 29.8127 12.719 29.7692C12.654 29.7257 12.6033 29.664 12.5733 29.5917C12.5434 29.5194 12.5356 29.4399 12.5508 29.3631C12.5661 29.2864 12.6038 29.2159 12.6591 29.1606C12.7144 29.1053 12.7849 29.0676 12.8616 29.0523C12.9384 29.0371 13.0179 29.0449 13.0902 29.0748C13.1625 29.1048 13.2243 29.1555 13.2677 29.2205C13.3112 29.2856 13.3344 29.3621 13.3344 29.4403C13.3344 29.5452 13.2927 29.6458 13.2185 29.72C13.1443 29.7942 13.0437 29.8359 12.9388 29.8359ZM12.9388 29.1634C12.8832 29.1632 12.8288 29.1795 12.7825 29.2103C12.7362 29.241 12.7 29.2848 12.6786 29.3361C12.6572 29.3874 12.6515 29.4439 12.6622 29.4984C12.6729 29.553 12.6996 29.6031 12.7389 29.6425C12.7781 29.6819 12.8281 29.7087 12.8827 29.7196C12.9372 29.7306 12.9937 29.7251 13.0451 29.7038C13.0964 29.6826 13.1404 29.6466 13.1713 29.6004C13.2022 29.5542 13.2187 29.4999 13.2187 29.4443C13.2187 29.3699 13.1892 29.2987 13.1368 29.246C13.0843 29.1934 13.0131 29.1637 12.9388 29.1634Z" fill="#EAB9A8"/>
<path d="M12.9388 32.7818C12.8606 32.7818 12.7841 32.7586 12.719 32.7151C12.654 32.6717 12.6033 32.6099 12.5733 32.5376C12.5434 32.4653 12.5356 32.3858 12.5508 32.309C12.5661 32.2323 12.6038 32.1618 12.6591 32.1065C12.7144 32.0512 12.7849 32.0135 12.8616 31.9983C12.9384 31.983 13.0179 31.9908 13.0902 32.0208C13.1625 32.0507 13.2243 32.1014 13.2677 32.1665C13.3112 32.2315 13.3344 32.308 13.3344 32.3862C13.3344 32.4911 13.2927 32.5917 13.2185 32.6659C13.1443 32.7401 13.0437 32.7818 12.9388 32.7818ZM12.9388 32.1093C12.8832 32.1091 12.8287 32.1255 12.7824 32.1562C12.736 32.187 12.6999 32.2309 12.6785 32.2822C12.6571 32.3336 12.6515 32.3902 12.6623 32.4447C12.6731 32.4993 12.6999 32.5494 12.7392 32.5888C12.7786 32.6281 12.8287 32.6549 12.8833 32.6657C12.9378 32.6765 12.9944 32.6708 13.0458 32.6495C13.0971 32.6281 13.141 32.5919 13.1718 32.5456C13.2025 32.4993 13.2189 32.4448 13.2187 32.3892C13.2184 32.315 13.1889 32.244 13.1364 32.1916C13.084 32.1392 13.013 32.1096 12.9388 32.1093Z" fill="#EAB9A8"/>
<path d="M11.7106 28.5602H11.2339V29.8349H11.7106V28.5602Z" fill="#FFE8DF"/>
<path d="M15.3045 28.3179H14.0583V34.9386H15.3045V28.3179Z" fill="#80DEE5"/>
<path d="M20.2721 28.3179H15.3044V34.9386H20.2721V28.3179Z" fill="#A6F1F7"/>
<path d="M16.0452 29.8359C15.967 29.8359 15.8905 29.8127 15.8255 29.7692C15.7604 29.7257 15.7097 29.664 15.6798 29.5917C15.6498 29.5194 15.642 29.4399 15.6573 29.3631C15.6725 29.2864 15.7102 29.2159 15.7655 29.1606C15.8208 29.1053 15.8913 29.0676 15.9681 29.0523C16.0448 29.0371 16.1243 29.0449 16.1966 29.0748C16.2689 29.1048 16.3307 29.1555 16.3742 29.2205C16.4176 29.2856 16.4408 29.3621 16.4408 29.4403C16.4408 29.5452 16.3992 29.6458 16.325 29.72C16.2508 29.7942 16.1502 29.8359 16.0452 29.8359ZM16.0452 29.1634C15.9897 29.1634 15.9354 29.1799 15.8892 29.2107C15.843 29.2416 15.807 29.2855 15.7858 29.3368C15.7645 29.3881 15.7589 29.4446 15.7698 29.4991C15.7806 29.5535 15.8074 29.6036 15.8466 29.6429C15.8859 29.6821 15.936 29.7089 15.9905 29.7197C16.0449 29.7306 16.1014 29.725 16.1527 29.7037C16.2041 29.6825 16.2479 29.6465 16.2788 29.6003C16.3096 29.5541 16.3261 29.4998 16.3261 29.4443C16.3261 29.4074 16.3188 29.3709 16.3047 29.3368C16.2906 29.3027 16.2699 29.2718 16.2439 29.2457C16.2178 29.2196 16.1868 29.1989 16.1527 29.1848C16.1187 29.1707 16.0821 29.1634 16.0452 29.1634Z" fill="#80DEE5"/>
<path d="M16.0452 32.7818C15.967 32.7818 15.8905 32.7586 15.8255 32.7151C15.7604 32.6717 15.7097 32.6099 15.6798 32.5376C15.6498 32.4653 15.642 32.3858 15.6573 32.309C15.6725 32.2323 15.7102 32.1618 15.7655 32.1065C15.8208 32.0512 15.8913 32.0135 15.9681 31.9983C16.0448 31.983 16.1243 31.9908 16.1966 32.0208C16.2689 32.0507 16.3307 32.1014 16.3742 32.1665C16.4176 32.2315 16.4408 32.308 16.4408 32.3862C16.4408 32.4911 16.3992 32.5917 16.325 32.6659C16.2508 32.7401 16.1502 32.7818 16.0452 32.7818ZM16.0452 32.1093C15.9897 32.1093 15.9353 32.1258 15.8891 32.1567C15.8429 32.1876 15.8069 32.2316 15.7857 32.2829C15.7644 32.3343 15.7589 32.3908 15.7699 32.4453C15.7808 32.4998 15.8076 32.5499 15.847 32.5891C15.8864 32.6284 15.9365 32.655 15.9911 32.6658C16.0456 32.6765 16.1021 32.6708 16.1534 32.6494C16.2047 32.628 16.2485 32.5918 16.2793 32.5455C16.31 32.4992 16.3263 32.4448 16.3261 32.3892C16.3261 32.3524 16.3188 32.3159 16.3047 32.2819C16.2906 32.2478 16.2699 32.2169 16.2438 32.1909C16.2177 32.1649 16.1867 32.1444 16.1527 32.1303C16.1186 32.1163 16.0821 32.1092 16.0452 32.1093Z" fill="#80DEE5"/>
<path d="M14.8168 31.3588H14.3401V32.6334H14.8168V31.3588Z" fill="#FFE8DF"/>
<path d="M18.4119 28.3179H17.1658V34.9386H18.4119V28.3179Z" fill="#EAB9A8"/>
<path d="M23.3795 28.3179H18.4119V34.9386H23.3795V28.3179Z" fill="#F9D4C4"/>
<path d="M19.1527 29.8359C19.0744 29.8359 18.9979 29.8127 18.9329 29.7692C18.8678 29.7257 18.8171 29.664 18.7872 29.5917C18.7573 29.5194 18.7494 29.4399 18.7647 29.3631C18.7799 29.2864 18.8176 29.2159 18.8729 29.1606C18.9283 29.1053 18.9988 29.0676 19.0755 29.0523C19.1522 29.0371 19.2318 29.0449 19.3041 29.0748C19.3763 29.1048 19.4381 29.1555 19.4816 29.2205C19.5251 29.2856 19.5483 29.3621 19.5483 29.4403C19.5483 29.5452 19.5066 29.6458 19.4324 29.72C19.3582 29.7942 19.2576 29.8359 19.1527 29.8359ZM19.1527 29.1634C19.0971 29.1632 19.0427 29.1795 18.9964 29.2103C18.95 29.241 18.9139 29.2848 18.8925 29.3361C18.8711 29.3874 18.8654 29.4439 18.8761 29.4984C18.8868 29.553 18.9135 29.6031 18.9527 29.6425C18.992 29.6819 19.042 29.7087 19.0965 29.7196C19.151 29.7306 19.2076 29.7251 19.2589 29.7038C19.3103 29.6826 19.3542 29.6466 19.3852 29.6004C19.4161 29.5542 19.4326 29.4999 19.4326 29.4443C19.4326 29.3699 19.4031 29.2987 19.3506 29.246C19.2982 29.1934 19.227 29.1637 19.1527 29.1634Z" fill="#EAB9A8"/>
<path d="M19.1527 32.7818C19.0744 32.7818 18.9979 32.7586 18.9329 32.7151C18.8678 32.6717 18.8171 32.6099 18.7872 32.5376C18.7573 32.4653 18.7494 32.3858 18.7647 32.309C18.7799 32.2323 18.8176 32.1618 18.8729 32.1065C18.9283 32.0512 18.9988 32.0135 19.0755 31.9983C19.1522 31.983 19.2318 31.9908 19.3041 32.0208C19.3763 32.0507 19.4381 32.1014 19.4816 32.1665C19.5251 32.2315 19.5483 32.308 19.5483 32.3862C19.5483 32.4911 19.5066 32.5917 19.4324 32.6659C19.3582 32.7401 19.2576 32.7818 19.1527 32.7818ZM19.1527 32.1093C19.097 32.1091 19.0426 32.1255 18.9963 32.1562C18.9499 32.187 18.9138 32.2309 18.8924 32.2822C18.871 32.3336 18.8654 32.3902 18.8762 32.4447C18.887 32.4993 18.9137 32.5494 18.9531 32.5888C18.9924 32.6281 19.0426 32.6549 19.0971 32.6657C19.1517 32.6765 19.2083 32.6708 19.2596 32.6495C19.311 32.6281 19.3548 32.5919 19.3856 32.5456C19.4164 32.4993 19.4328 32.4448 19.4326 32.3892C19.4323 32.315 19.4027 32.244 19.3503 32.1916C19.2979 32.1392 19.2268 32.1096 19.1527 32.1093Z" fill="#EAB9A8"/>
<path d="M17.9242 28.5602H17.4475V29.8349H17.9242V28.5602Z" fill="#FFE8DF"/>
<path d="M23.0867 36.414H21.6596L20.4619 29.1377L21.889 28.8351L23.0867 36.414Z" fill="#A94463"/>
<path d="M28.7725 36.414H23.0868L21.8892 28.8351H27.5748L28.7725 36.414Z" fill="#CE6C91"/>
<path d="M23.0115 30.5736C22.8866 30.5693 22.7669 30.5224 22.6723 30.4408C22.5777 30.3591 22.5138 30.2476 22.4913 30.1246C22.4799 30.0693 22.4812 30.0122 22.4951 29.9574C22.509 29.9027 22.5351 29.8518 22.5714 29.8086C22.6078 29.7654 22.6535 29.731 22.705 29.708C22.7566 29.685 22.8127 29.6739 22.8691 29.6757C22.9942 29.6794 23.1142 29.7261 23.2089 29.8078C23.3036 29.8896 23.3673 30.0014 23.3893 30.1246C23.4007 30.1799 23.3994 30.2371 23.3855 30.2918C23.3716 30.3465 23.3456 30.3974 23.3092 30.4406C23.2728 30.4838 23.2272 30.5182 23.1756 30.5413C23.1241 30.5643 23.068 30.5753 23.0115 30.5736ZM22.8899 29.8032C22.8495 29.8019 22.8093 29.8098 22.7724 29.8263C22.7355 29.8428 22.7028 29.8674 22.6768 29.8984C22.6508 29.9293 22.6322 29.9658 22.6223 30.0049C22.6125 30.0441 22.6116 30.0851 22.6199 30.1246C22.6357 30.2124 22.6811 30.2921 22.7486 30.3504C22.8161 30.4087 22.9016 30.4421 22.9908 30.445C23.031 30.4463 23.0711 30.4384 23.1079 30.422C23.1447 30.4056 23.1774 30.381 23.2033 30.3502C23.2293 30.3194 23.248 30.2831 23.2579 30.244C23.2679 30.2049 23.2688 30.1641 23.2607 30.1246C23.2451 30.0367 23.1998 29.9567 23.1323 29.8982C23.0648 29.8397 22.9792 29.8062 22.8899 29.8032Z" fill="#A94463"/>
<path d="M23.5447 33.9447C23.4196 33.941 23.2997 33.8943 23.2049 33.8126C23.1102 33.7308 23.0465 33.619 23.0245 33.4958C23.0131 33.4405 23.0144 33.3833 23.0283 33.3286C23.0422 33.2739 23.0683 33.223 23.1046 33.1798C23.141 33.1366 23.1867 33.1022 23.2382 33.0791C23.2898 33.0561 23.3459 33.0451 23.4023 33.0468C23.5277 33.0503 23.648 33.0968 23.7431 33.1786C23.8382 33.2603 23.9023 33.3723 23.9245 33.4958C23.9359 33.5512 23.9346 33.6086 23.9206 33.6635C23.9066 33.7184 23.8803 33.7693 23.8438 33.8126C23.8072 33.8558 23.7613 33.8902 23.7095 33.9131C23.6577 33.936 23.6013 33.9468 23.5447 33.9447ZM23.4231 33.1754C23.3828 33.1741 23.3427 33.182 23.3059 33.1984C23.2691 33.2148 23.2365 33.2394 23.2105 33.2702C23.1845 33.301 23.1658 33.3373 23.1559 33.3764C23.146 33.4155 23.145 33.4563 23.1531 33.4958C23.1687 33.5837 23.214 33.6637 23.2816 33.7222C23.3491 33.7807 23.4347 33.8142 23.524 33.8172C23.5644 33.8185 23.6045 33.8106 23.6414 33.7941C23.6783 33.7776 23.711 33.753 23.737 33.722C23.763 33.6911 23.7816 33.6546 23.7915 33.6155C23.8014 33.5763 23.8022 33.5353 23.7939 33.4958C23.7781 33.408 23.7327 33.3283 23.6652 33.27C23.5977 33.2117 23.5122 33.1783 23.4231 33.1754Z" fill="#A94463"/>
<path d="M32.3476 33.1032H17.3784V43.2612H32.3476V33.1032Z" fill="#EAB9A8"/>
<path d="M24.863 33.1032H9.8938V43.2612H24.863V33.1032Z" fill="#F9D4C4"/>
<path d="M32.3386 40.1313H29.9661L30.1757 39.4638L29.9661 38.9871H32.3386V40.1313Z" fill="#E0A493"/>
<path d="M9.8938 40.2639H12.2654L12.0567 40.9314L12.2654 41.408H9.8938V40.2639Z" fill="#FFDDD0"/>
<path d="M23.8532 35.9404H8.88501L9.89377 33.1032H24.863L23.8532 35.9404Z" fill="#FFDDD0"/>
<path d="M32.8698 35.9404H25.3862L24.863 33.1032H32.3466L32.8698 35.9404Z" fill="#E0A493"/>
<path d="M16.9551 42.737C16.5912 42.5007 15.7684 41.9825 15.7318 42.1061C15.7051 42.1951 15.7535 42.3435 15.8554 42.4957C15.3609 42.3326 14.8664 42.2327 13.7103 42.5017C13.5953 42.5267 13.4866 42.5746 13.3906 42.6426C13.2946 42.7105 13.2133 42.7971 13.1515 42.8972C13.0398 43.0871 13.0042 43.3195 13.3088 43.4906C13.917 43.8377 13.737 43.6231 14.5836 44.1294C15.4301 44.6357 16.4478 44.7336 17.0372 44.3331L17.8432 44.166L17.8917 42.831C17.8917 42.831 17.4279 42.7974 16.9551 42.737Z" fill="#FFA087"/>
<path d="M37.9373 28.9617C37.9373 28.9617 35.638 30.8406 33.4177 29.4562C33.4177 29.4562 33.1368 28.1132 33.301 27.1936C33.3218 27.0798 33.3406 26.9701 33.3584 26.8652C33.5394 25.8289 33.6135 25.2415 33.6135 25.2415C33.7312 25.2167 37.5566 24.4246 37.5309 24.5492C36.9484 27.333 37.9373 28.9617 37.9373 28.9617Z" fill="#FFA087"/>
<path d="M37.0522 25.1475C36.5904 25.7181 35.1821 26.7396 33.3584 26.8672C33.5394 25.8308 33.6136 25.2434 33.6136 25.2434C33.7154 25.2355 37.1887 24.9793 37.0522 25.1475Z" fill="#ED8267"/>
<path d="M32.8896 24.9972C32.8896 24.9972 36.7091 26.6852 37.7238 24.2911C38.7385 21.897 39.9144 20.5016 37.5191 19.3229C35.1237 18.1441 34.2604 18.8551 33.7263 19.5721C33.1923 20.289 31.9224 24.4958 32.8896 24.9972Z" fill="#FFA087"/>
<path d="M37.4595 24.9457C37.507 24.9902 38.317 25.4155 40.553 22.4784C40.9041 22.0166 41.2849 20.9486 40.8715 19.8638C40.4581 18.779 38.49 17.618 36.7969 16.9564C35.1038 16.2948 34.4985 17.2027 33.8992 18.1174C33.2692 19.0776 31.856 19.6996 31.856 19.6996C33.2109 20.829 35.26 19.9617 35.8544 20.2781C36.4488 20.5946 36.4854 21.6329 36.4725 21.9593C36.4597 22.2856 36.4834 22.5664 37.3309 22.43C38.1785 22.2935 37.4783 23.6226 37.3013 23.8678C37.3013 23.8698 37.058 24.568 37.4595 24.9457Z" fill="#A94463"/>
<path d="M43.3085 88.716H45.7701C46.2854 88.716 46.858 88.1997 47.0024 87.2534C47.1468 86.307 48.2069 85.7918 48.4364 85.0175C48.6658 84.2432 47.4899 83.1534 47.4899 83.1534L47.2921 82.9002L47.0874 82.6372L45.1381 83.0961C45.1381 83.0961 45.0897 83.5598 45.06 84.1512C45.0346 84.6017 45.032 85.0532 45.0521 85.504C45.1095 86.5364 44.7633 87.6479 43.8455 87.8487C42.9278 88.0494 43.3085 88.716 43.3085 88.716Z" fill="#305864"/>
<path d="M26.1694 88.716H32.6967C32.7444 88.7086 32.791 88.6949 32.8352 88.6754C33.2713 88.4579 33.1319 86.7906 33.0824 86.2753C33.0725 86.1764 33.0646 86.124 33.0646 86.124C33.0646 86.124 30.7712 84.2886 30.4557 85.6939C30.4448 85.7374 30.4339 85.7809 30.4211 85.8234C30.0255 87.1377 28.2453 87.735 27.2148 87.9001C26.4256 88.0316 26.2218 88.4895 26.1694 88.716Z" fill="#305864"/>
<path d="M27.4849 51.0992C27.4849 51.0992 27.833 55.4454 28.2424 60.6708C28.7992 67.7681 29.4688 76.4852 29.535 78.1367C29.6497 81.0045 30.1086 85.592 30.1086 85.592C30.1086 85.592 31.1965 86.6798 33.3772 86.2229C33.3772 86.2229 35.3196 79.6744 35.8754 72.7452C35.8833 72.6315 35.8922 72.5178 35.9011 72.4031C36.4163 65.3492 37.2194 50.4969 37.2194 50.4969L27.4849 51.0992Z" fill="#FF8460"/>
<path d="M28.7834 50.8094C28.7834 50.8094 28.5579 53.522 29.8119 58.6099C30.7326 62.343 35.8753 72.7452 35.8753 72.7452C35.8832 72.6315 35.8921 72.5178 35.901 72.4031C36.4163 65.3493 37.2194 50.4969 37.2194 50.4969L28.7834 50.8094Z" fill="#ED6644"/>
<path d="M28.7832 50.8094C28.7832 50.8094 35.356 67.3557 39.485 74.7537C43.6139 82.1516 44.9046 84.2164 44.9046 84.2164C44.9046 84.2164 47.2702 83.2701 47.4848 82.6243C47.4848 82.6243 45.9024 68.3436 43.1412 64.8617C41.5786 62.8948 39.7431 56.991 39.657 54.9272C39.571 52.8634 39.0973 48.7762 39.0973 48.7762L28.7832 50.8094Z" fill="#FF8460"/>
<path d="M28.4521 50.497C29.3718 50.5524 39.0757 50.1855 39.0787 49.6436C39.0866 47.7587 39.4812 44.7079 39.9687 41.0025C40.0591 40.3123 40.1303 39.628 40.1824 38.9496C40.3191 37.2872 40.3224 35.6166 40.1923 33.9537C39.948 31.1036 38.7375 28.8045 37.5032 27.7335C37.341 27.598 36.7427 28.0519 35.7389 28.4583C34.8122 28.8341 34.0784 28.5641 33.2457 28.3318L32.1805 29.2692C31.2904 30.095 30.345 31.3538 29.8831 32.4881C29.8871 32.4881 28.3749 50.491 28.4521 50.497Z" fill="#308796"/>
<path d="M29.8871 32.4881L32.5376 33.1042L36.1879 42.9813C36.4435 43.6738 36.9052 44.2714 37.5108 44.6934C38.1165 45.1155 38.8369 45.3418 39.5751 45.3418L39.2537 50.2171L27.4849 51.0992L29.8871 32.4881Z" fill="#FF8460"/>
<path d="M17.1765 43.4857C17.0934 42.7133 17.489 42.569 17.489 42.569C17.489 42.569 25.302 40.8394 25.9616 40.603C26.6213 40.3667 32.1101 34.1969 32.1101 34.1969C32.1101 34.1969 34.2067 31.6406 36.0225 32.1202C37.6049 32.5346 38.2576 33.7272 38.5098 34.8783C38.6544 35.5494 38.5934 36.2485 38.3348 36.8844C38.0762 37.5203 37.6319 38.0635 37.0599 38.4433C34.4392 40.1936 29.1896 43.6459 27.9386 44.0661C25.1526 45.0007 17.5543 44.5339 17.5543 44.5339C17.3493 44.2182 17.22 43.8595 17.1765 43.4857Z" fill="#308796"/>
<path d="M35.2839 30.2433C35.901 29.6697 37.8789 28.0964 37.8789 28.0964L37.5071 27.7355C37.243 27.6791 35.1978 29.2188 34.5164 29.824C33.6965 30.5538 31.4209 32.939 31.4209 32.939L32.5375 33.1062C32.5375 33.1062 34.557 30.9177 35.2839 30.2433Z" fill="#ED6644"/>
<path d="M115.942 82.4374L115.969 90.3565C115.969 90.4446 115.952 90.5318 115.918 90.6133C115.885 90.6947 115.836 90.7688 115.774 90.8312C115.712 90.8937 115.638 90.9433 115.557 90.9772C115.475 91.0111 115.388 91.0287 115.3 91.029L112.217 91.0399C112.039 91.0401 111.868 90.9699 111.742 90.8446C111.616 90.7193 111.545 90.5491 111.544 90.3714L111.535 87.7152C111.533 86.8632 111.851 86.0414 112.425 85.412L113.52 84.2076C114.128 83.5369 114.478 82.6725 114.509 81.7679L114.596 80.339C114.604 80.1695 114.678 80.01 114.803 79.8954C114.929 79.7808 115.094 79.7206 115.264 79.7278C115.445 79.7355 115.616 79.813 115.741 79.944C115.867 80.0751 115.937 80.2496 115.936 80.4309L115.942 82.4374Z" fill="#F9D4C4"/>
<path d="M115.693 78.2732L112.586 78.2831C112.525 78.2833 112.464 78.2957 112.407 78.3195C112.35 78.3433 112.299 78.3781 112.256 78.4218C112.212 78.4655 112.178 78.5173 112.155 78.5743C112.131 78.6312 112.119 78.6922 112.12 78.7538C112.12 78.857 112.155 78.9572 112.218 79.0387C112.281 79.1202 112.37 79.1786 112.47 79.2047C112.952 79.3323 113.802 79.6191 114.111 80.1145C114.153 80.1824 114.211 80.2387 114.28 80.2781C114.349 80.3176 114.427 80.3388 114.507 80.34L116.089 80.334C116.207 80.3333 116.321 80.2877 116.406 80.2065C116.492 80.1253 116.543 80.0147 116.55 79.897C116.561 79.7578 116.584 79.6198 116.618 79.4846C116.656 79.3424 116.66 79.1936 116.631 79.0495C116.602 78.9054 116.54 78.7699 116.451 78.6531C116.362 78.5363 116.247 78.4414 116.116 78.3756C115.984 78.3098 115.84 78.2747 115.693 78.2732Z" fill="#F9D4C4"/>
<path d="M113.139 81.5593C113.159 81.5593 113.178 81.5552 113.196 81.5474C114.383 81.0372 114.736 79.8208 114.749 79.7674C114.756 79.7487 114.758 79.7289 114.757 79.7092C114.755 79.6895 114.749 79.6703 114.74 79.6528C114.731 79.6354 114.718 79.62 114.703 79.6077C114.687 79.5953 114.669 79.5862 114.65 79.581C114.631 79.5757 114.611 79.5744 114.592 79.5771C114.572 79.5798 114.553 79.5865 114.536 79.5967C114.519 79.607 114.505 79.6205 114.493 79.6366C114.482 79.6527 114.474 79.671 114.47 79.6903C114.47 79.7091 114.135 80.8265 113.085 81.2794C113.05 81.2947 113.022 81.3233 113.007 81.3591C112.993 81.3949 112.994 81.4349 113.009 81.4703C113.02 81.496 113.038 81.518 113.061 81.5338C113.084 81.5495 113.111 81.5584 113.139 81.5593Z" fill="#F9D4C4"/>
<path d="M111.533 89.1432L115.957 89.1285L115.949 86.8036L111.525 86.8183L111.533 89.1432Z" fill="#F97B50"/>
<path d="M38.6552 142.821H23.5347L22.4468 122.807H40.0397L38.6552 142.821Z" fill="#F97B50"/>
<path d="M40.5481 123.436H21.9395C21.9395 123.129 22.0614 122.835 22.2784 122.618C22.4954 122.401 22.7897 122.279 23.0966 122.279H39.39C39.542 122.279 39.6926 122.309 39.8331 122.367C39.9736 122.425 40.1013 122.51 40.2088 122.618C40.3164 122.725 40.4017 122.853 40.4599 122.993C40.5181 123.134 40.5481 123.284 40.5481 123.436Z" fill="#ED5E35"/>
<path d="M38.6552 142.821H23.5298V143.473H38.6552V142.821Z" fill="#ED5E35"/>
<path d="M31.0926 131.196C29.3539 131.194 27.6869 130.503 26.4575 129.273C25.228 128.044 24.5365 126.377 24.5347 124.639C24.5347 124.528 24.5785 124.422 24.6566 124.344C24.7347 124.266 24.8406 124.222 24.951 124.222C25.0615 124.222 25.1674 124.266 25.2454 124.344C25.3235 124.422 25.3674 124.528 25.3674 124.639C25.3574 125.397 25.4981 126.149 25.7814 126.852C26.0646 127.556 26.4847 128.196 27.0172 128.735C27.5498 129.275 28.1843 129.703 28.8838 129.996C29.5833 130.288 30.3339 130.439 31.0921 130.439C31.8503 130.439 32.6009 130.288 33.3004 129.996C33.9999 129.703 34.6344 129.275 35.1669 128.735C35.6995 128.196 36.1196 127.556 36.4028 126.852C36.6861 126.149 36.8268 125.397 36.8168 124.639C36.822 124.532 36.8682 124.431 36.9458 124.357C37.0234 124.283 37.1265 124.242 37.2337 124.242C37.3408 124.242 37.4439 124.283 37.5215 124.357C37.5991 124.431 37.6453 124.532 37.6505 124.639C37.6487 126.377 36.9572 128.044 35.7277 129.273C34.4983 130.503 32.8313 131.194 31.0926 131.196Z" fill="#305864"/>
<path d="M26.7332 122.279C26.7332 122.279 25.7848 124.246 26.2011 124.408C26.6175 124.57 27.2653 123.436 27.4047 123.436C27.5442 123.436 26.6867 125.427 27.4047 125.727C28.1227 126.028 29.7654 124.085 30.2728 122.279H26.7332Z" fill="#FF9C49"/>
<g opacity="0.3">
<path opacity="0.3" d="M119.236 1.56621C118.796 1.91727 118.274 1.55731 117.601 1.33283C116.927 1.10835 117.765 0.351842 117.765 0.351842C117.787 0.350484 117.809 0.34442 117.829 0.334043C118.027 0.259875 118.65 -0.00515102 119.155 -0.0615185C119.273 -0.0758086 119.392 -0.0734806 119.508 -0.0545984C120.309 0.0996704 119.676 1.21713 119.236 1.56621Z" fill="#ED8267"/>
<path opacity="0.3" d="M119.236 0.519951L118.983 0.810685L118.046 0.87101C118.046 0.87101 117.916 0.560495 117.829 0.334037C118.027 0.259869 118.65 -0.00515606 119.155 -0.0615234L119.236 0.519951Z" fill="#FFA087"/>
<path opacity="0.3" d="M121.221 -11.35L120.778 -11.4172L117.533 9.96026L117.976 10.0275L121.221 -11.35Z" fill="#308796"/>
<path opacity="0.3" d="M119.545 0.18866C119.545 0.18866 119.017 0.550596 119.003 0.848256C118.989 1.14592 119.102 1.62751 119.307 1.54049C119.511 1.45346 119.811 0.891767 119.756 0.615863C119.725 0.45719 119.652 0.309668 119.545 0.18866Z" fill="#ED8267"/>
<path opacity="0.3" d="M117.745 0.874937C117.745 0.874937 117.974 1.18248 118.263 1.18248C118.553 1.18248 119.469 1.22303 119.543 1.05393C119.617 0.884825 119.039 0.446742 118.787 0.460587C118.534 0.474431 117.951 0.506077 117.745 0.874937Z" fill="#FFA087"/>
<path opacity="0.3" d="M118.075 0.913514C118.149 0.339953 117.856 0.227219 117.856 0.227219C117.856 0.227219 112.058 -1.17108 111.57 -1.35502C111.081 -1.53896 107.081 -6.21843 107.081 -6.21843C107.081 -6.21843 105.554 -8.15271 104.194 -7.82341C103.007 -7.53663 102.507 -6.65651 102.302 -5.80309C102.185 -5.30491 102.221 -4.783 102.405 -4.30547C102.589 -3.82793 102.913 -3.41695 103.334 -3.12614C105.262 -1.78519 109.125 0.861103 110.052 1.19139C112.115 1.92714 117.784 1.68584 117.784 1.68584C117.939 1.45412 118.039 1.18989 118.075 0.913514Z" fill="#24747C"/>
<path opacity="0.3" d="M109.898 36.0897H105.014C104.98 36.0837 104.947 36.0741 104.915 36.061C104.589 35.8998 104.684 34.6567 104.717 34.2721C104.724 34.2009 104.729 34.1593 104.729 34.1593C104.729 34.1593 106.431 32.7828 106.672 33.828C106.68 33.8607 106.689 33.8933 106.698 33.9269C107.001 34.905 108.33 35.343 109.096 35.4627C109.683 35.5527 109.858 35.9196 109.898 36.0897Z" fill="#305864"/>
<path opacity="0.3" d="M97.109 36.0729L95.2744 36.0837C94.8897 36.0837 94.4605 35.703 94.3497 34.9959C94.239 34.2889 93.4458 33.9081 93.2717 33.3346C93.0977 32.761 93.97 31.9412 93.97 31.9412L94.1154 31.7523L94.2667 31.5546L95.7215 31.8878C95.7215 31.8878 95.7591 32.2339 95.7838 32.679C95.8046 33.0148 95.8085 33.3514 95.7956 33.6876C95.7571 34.458 96.0192 35.2847 96.7035 35.4311C97.3879 35.5774 97.109 36.0729 97.109 36.0729Z" fill="#305864"/>
<path opacity="0.3" d="M108.453 7.94756C108.453 7.94756 108.501 11.2109 108.217 15.1082C107.832 20.3998 107.368 26.8998 107.327 28.131C107.254 30.269 106.932 33.6896 106.932 33.6896C106.932 33.6896 106.124 34.5064 104.498 34.1732C104.498 34.1732 103.023 29.3009 102.581 24.1388L102.56 23.8837C102.147 18.6287 101.488 7.56683 101.488 7.56683L108.453 7.94756Z" fill="#FF8460"/>
<path opacity="0.3" d="M107.436 8.61504C107.436 8.61504 107.954 9.77799 107.04 13.5754C106.369 16.3651 102.578 24.1408 102.578 24.1408L102.557 23.8856C102.144 18.6306 101.485 7.56879 101.485 7.56879L107.436 8.61504Z" fill="#ED6644"/>
<path opacity="0.3" d="M107.774 7.76062C107.774 7.76062 102.943 20.1219 99.896 25.6508C96.849 31.1797 95.8956 32.7244 95.8956 32.7244C95.8956 32.7244 94.1283 32.0322 93.9651 31.5486C93.9651 31.5486 95.0836 20.8991 97.1298 18.2973C98.2859 16.8249 99.2067 12.3303 99.2611 10.7916C99.2963 9.85401 99.3934 8.91978 99.5518 7.99499L107.774 7.76062Z" fill="#FF8460"/>
<path opacity="0.3" d="M107.74 7.48577C107.054 7.51445 99.8286 7.10604 99.8286 6.70158C99.8484 5.29734 99.5972 3.01793 99.2827 0.249993C99.2253 -0.265224 99.1838 -0.777473 99.1522 -1.2828C99.0734 -2.52354 99.0943 -3.7686 99.2145 -5.00601C99.436 -7.12621 100.37 -8.82218 101.305 -9.60341C101.428 -9.7023 101.868 -9.35618 102.61 -9.03875C103.295 -8.74208 103.845 -8.93986 104.469 -9.09808L105.25 -8.38508C105.899 -7.75713 106.588 -6.80284 106.918 -5.95437C106.923 -5.95437 107.802 7.48281 107.74 7.48577Z" fill="#308796"/>
<path opacity="0.3" d="M106.3 -5.88021L104.55 -5.67056C104.217 -5.63073 103.906 -5.48509 103.662 -5.25509C103.418 -5.02509 103.255 -4.72286 103.195 -4.3929L102.084 1.77685C101.883 2.28958 101.531 2.72859 101.073 3.03468C100.616 3.34077 100.076 3.49921 99.5251 3.48863L99.5528 7.99011L108.454 7.94758L106.991 -5.3284C106.982 -5.41025 106.958 -5.48957 106.918 -5.56176C106.879 -5.63395 106.825 -5.69756 106.761 -5.7489C106.696 -5.80025 106.623 -5.83829 106.543 -5.86083C106.464 -5.88337 106.381 -5.88996 106.3 -5.88021Z" fill="#FF8460"/>
<path opacity="0.3" d="M86.883 -27.4274H86.2292V37.3535H86.883V-27.4274Z" fill="#80DEE5"/>
<path opacity="0.3" d="M113.635 -27.4274H112.981V37.3535H113.635V-27.4274Z" fill="#80DEE5"/>
<path opacity="0.3" d="M115.543 36.0897H84.0881V39.0494H115.543V36.0897Z" fill="#80DEE5"/>
<path opacity="0.3" d="M113.635 5.47528H86.2432V6.33562H113.635V5.47528Z" fill="#80DEE5"/>
<path opacity="0.3" d="M113.635 15.5591H86.2432V16.4195H113.635V15.5591Z" fill="#80DEE5"/>
<path opacity="0.3" d="M113.635 25.5074H86.2432V26.3678H113.635V25.5074Z" fill="#80DEE5"/>
<path opacity="0.3" d="M95.8432 7.35421C95.8432 7.35421 95.7571 7.83581 95.8432 8.16214C95.9292 8.48848 96.3564 9.40222 96.4989 9.34882C97.02 9.16884 96.6502 8.13841 96.8242 8.02864C96.938 7.95645 96.8351 8.44398 96.935 8.54485C97.0547 8.66747 97.1753 8.20466 97.1941 7.95645C97.2129 7.70824 96.8727 7.26422 96.8727 7.26422L95.8432 7.35421Z" fill="#FFA087"/>
<path opacity="0.3" d="M96.391 7.56982C96.8855 7.53521 96.9518 7.30183 96.9518 7.30183C96.9518 7.30183 97.6203 1.39909 97.7261 0.886838C97.832 0.374588 101.813 -4.31774 101.813 -4.31774C101.813 -4.31774 103.481 -6.13139 102.94 -7.4219C102.47 -8.54331 101.521 -8.90525 100.646 -8.96953C100.135 -9.00637 99.6254 -8.8885 99.1829 -8.6313C98.7405 -8.3741 98.3858 -7.98951 98.1653 -7.52771C97.1466 -5.41147 95.1459 -1.17798 94.9669 -0.209852C94.5713 1.94298 95.8046 7.42742 95.8046 7.42742C95.8046 7.42742 95.9371 7.60246 96.391 7.56982Z" fill="#308796"/>
</g>
<path d="M288.448 99.933H271.871V113.601H288.448V99.933Z" fill="#EAB9A8"/>
<path d="M280.159 99.933H263.582V113.601H280.159V99.933Z" fill="#F9D4C4"/>
<path d="M280.16 104.164H277.532L277.764 103.424L277.532 102.896H280.16V104.164Z" fill="white"/>
<path d="M280.16 102.896H282.787L282.555 103.635L282.787 104.164H280.16V102.896Z" fill="#D89C8B"/>
<path d="M263.582 110.282H266.209L265.977 111.021L266.209 111.55H263.582V110.282Z" fill="white"/>
<path d="M272.444 112.137H278.846V109.647H272.444V112.137Z" fill="white"/>
<path d="M142.189 114.112H126.347V127.173H142.189V114.112Z" fill="#EAB9A8"/>
<path d="M134.268 114.112H118.427V127.173H134.268V114.112Z" fill="#F9D4C4"/>
<path d="M142.18 123.861H139.67L139.89 123.155L139.67 122.65H142.18V123.861Z" fill="#D89C8B"/>
<path d="M134.268 118.155H131.758L131.978 117.448L131.758 116.943H134.268V118.155Z" fill="white"/>
<path d="M134.268 116.943H136.778L136.557 117.65L136.778 118.155H134.268V116.943Z" fill="#D89C8B"/>
<path d="M118.426 124.002H120.937L120.715 124.708L120.937 125.212H118.426V124.002Z" fill="white"/>
<path d="M126.895 125.775H133.013V123.396H126.895V125.775Z" fill="white"/>
<path d="M281.079 76.7344H267.959V87.552H281.079V76.7344Z" fill="#EAB9A8"/>
<path d="M274.519 76.7344H261.399V87.552H274.519V76.7344Z" fill="#F9D4C4"/>
<path d="M281.071 84.8078H278.992L279.175 84.2234L278.992 83.8051H281.071V84.8078Z" fill="#D89C8B"/>
<path d="M274.519 80.0818H272.439L272.623 79.4964L272.439 79.0791H274.519V80.0818Z" fill="white"/>
<path d="M274.519 79.0791H276.598L276.415 79.6635L276.598 80.0818H274.519V79.0791Z" fill="#D89C8B"/>
<path d="M261.398 84.9245H263.477L263.294 85.5089L263.477 85.9272H261.398V84.9245Z" fill="white"/>
<path d="M268.412 86.393H273.479V84.4221H268.412V86.393Z" fill="white"/>
</svg>
