<svg width="35" height="43" viewBox="0 0 35 43" fill="none" xmlns="http://www.w3.org/2000/svg">
<g clip-path="url(#clip0_72_13)">
<path d="M17.4887 6.56233C11.232 6.56233 5.57856 8.07378 3.08765 10.4129L3.97772 11.3682C6.20455 9.27771 11.6363 7.87094 17.4887 7.87094C23.341 7.87094 28.7532 9.27117 30.9898 11.3551L31.8766 10.3998C29.389 8.06724 23.7388 6.56233 17.4887 6.56233Z" fill="#00A78E"/>
<path d="M17.4886 39.4511C13.3914 39.4663 9.31553 38.8597 5.39917 37.6518L5.96647 40.7924L6.32186 40.9168C13.5499 43.4643 21.4273 43.4643 28.6553 40.9168L29.014 40.7924L29.578 37.6518C25.6617 38.8597 21.5858 39.4663 17.4886 39.4511Z" fill="#00A78E"/>
<path d="M0.697598 11.4402C1.70179 17.1948 6.99009 21.7848 13.9347 22.9985C14.1226 22.5652 14.4324 22.1963 14.8263 21.9371C15.2201 21.6779 15.6808 21.5397 16.1517 21.5394H18.8285C19.3019 21.5399 19.7649 21.6796 20.16 21.9413C20.5552 22.2029 20.8653 22.575 21.052 23.0116C27.9412 21.8273 33.2197 17.2701 34.2631 11.5351L34.8206 8.43692C34.9218 8.13533 34.9746 7.8195 34.9771 7.50126C34.9771 3.69974 27.4522 0.833868 17.4754 0.833868C8.8746 0.833868 -0.0229492 3.32678 -0.0229492 7.50126C-0.0218799 7.81962 0.0309948 8.13566 0.133562 8.43692L0.697598 11.4402ZM17.4885 2.13921C27.0316 2.13921 33.686 4.96255 33.686 7.49799C33.6838 7.68883 33.6496 7.87795 33.5849 8.05742C32.8317 10.1218 27.9477 12.2515 20.7227 12.7521C19.6881 12.8241 18.61 12.86 17.4885 12.86C16.9277 12.86 16.3767 12.86 15.8355 12.8339C7.74976 12.5558 2.20389 10.2723 1.39532 8.05742C1.32934 7.87829 1.29514 7.68896 1.29425 7.49799C1.30403 4.96255 7.95517 2.13921 17.4885 2.13921Z" fill="#00A78E"/>
<path d="M21.2314 24.3072C21.1477 24.8847 20.8601 25.4129 20.4208 25.7954C19.9815 26.1779 19.4199 26.3893 18.8383 26.3911H16.1615C15.5776 26.3903 15.0136 26.1775 14.5738 25.792C14.134 25.4066 13.8479 24.8746 13.7684 24.2941C8.60075 23.4009 4.27098 20.7444 1.70508 17.1163L5.13497 36.1894C12.686 38.7477 22.2845 38.7477 29.8387 36.1894L33.2784 17.1458C30.719 20.7739 26.3893 23.4337 21.2314 24.3072Z" fill="#00A78E"/>
<path d="M16.1617 22.8448C16.0152 22.8448 15.8702 22.8737 15.735 22.9299C15.5997 22.9862 15.4768 23.0686 15.3732 23.1725C15.2697 23.2764 15.1875 23.3997 15.1315 23.5355C15.0755 23.6712 15.0466 23.8167 15.0466 23.9636C15.0466 24.1106 15.0755 24.2561 15.1315 24.3918C15.1875 24.5276 15.2697 24.6509 15.3732 24.7548C15.4768 24.8587 15.5997 24.9411 15.735 24.9973C15.8702 25.0536 16.0152 25.0825 16.1617 25.0825H18.8384C19.1342 25.0825 19.4178 24.9646 19.6269 24.7548C19.836 24.545 19.9535 24.2604 19.9535 23.9636C19.9535 23.6669 19.836 23.3823 19.6269 23.1725C19.4178 22.9627 19.1342 22.8448 18.8384 22.8448H16.1617Z" fill="#00A78E"/>
</g>
<defs>
<clipPath id="clip0_72_13">
<rect width="35" height="42" fill="white" transform="translate(0 0.830597)"/>
</clipPath>
</defs>
</svg>
