<svg width="14" height="16" viewBox="0 0 14 16" fill="none" xmlns="http://www.w3.org/2000/svg">
<path d="M10.1111 7.27273H9.33333V1.45455C9.33333 0.654545 8.63333 0 7.77778 0H6.22222C5.36667 0 4.66667 0.654545 4.66667 1.45455V7.27273H3.88889C1.74222 7.27273 0 8.90182 0 10.9091V16H14V10.9091C14 8.90182 12.2578 7.27273 10.1111 7.27273ZM12.4444 14.5455H10.8889V12.3636C10.8889 11.9636 10.5389 11.6364 10.1111 11.6364C9.68333 11.6364 9.33333 11.9636 9.33333 12.3636V14.5455H7.77778V12.3636C7.77778 11.9636 7.42778 11.6364 7 11.6364C6.57222 11.6364 6.22222 11.9636 6.22222 12.3636V14.5455H4.66667V12.3636C4.66667 11.9636 4.31667 11.6364 3.88889 11.6364C3.46111 11.6364 3.11111 11.9636 3.11111 12.3636V14.5455H1.55556V10.9091C1.55556 9.70909 2.60556 8.72727 3.88889 8.72727H10.1111C11.3944 8.72727 12.4444 9.70909 12.4444 10.9091V14.5455Z" fill="white"/>
</svg>
