<svg width="14" height="13" viewBox="0 0 14 13" fill="none" xmlns="http://www.w3.org/2000/svg">
<path d="M0.338715 2.66409C0.555934 2.14276 0.869144 1.67033 1.26081 1.27326C1.65277 0.875002 2.1149 0.558512 2.62208 0.341001C3.14799 0.114559 3.71205 -0.0013468 4.28153 1.18067e-05C5.08046 1.18067e-05 5.85995 0.226778 6.53734 0.655113C6.6994 0.757578 6.85335 0.870121 6.9992 0.992743C7.14505 0.870121 7.299 0.757578 7.46106 0.655113C8.13845 0.226778 8.91794 1.18067e-05 9.71687 1.18067e-05C10.2922 1.18067e-05 10.8496 0.114235 11.3763 0.341001C11.8852 0.559368 12.3438 0.873481 12.7376 1.27326C13.1298 1.66989 13.4431 2.14242 13.6597 2.66409C13.8849 3.20665 14 3.7828 14 4.37575C14 4.93511 13.8898 5.51798 13.671 6.11093C13.4879 6.60646 13.2254 7.12046 12.8899 7.6395C12.3584 8.4609 11.6275 9.31757 10.72 10.186C9.21612 11.6255 7.72683 12.62 7.66363 12.6603L7.27955 12.9156C7.1094 13.0281 6.89062 13.0281 6.72046 12.9156L6.33639 12.6603C6.27319 12.6183 4.78552 11.6255 3.28002 10.186C2.37251 9.31757 1.64164 8.4609 1.1101 7.6395C0.774643 7.12046 0.510493 6.60646 0.328991 6.11093C0.110216 5.51798 1.71661e-05 4.93511 1.71661e-05 4.37575C-0.00160313 3.7828 0.113457 3.20665 0.338715 2.66409Z" fill="white"/>
</svg>
