<svg width="14" height="10" viewBox="0 0 14 10" fill="none" xmlns="http://www.w3.org/2000/svg">
<path d="M13.1635 0.206177H0.836218C0.654584 0.206177 0.48039 0.278331 0.351955 0.406765C0.223521 0.535199 0.151367 0.709394 0.151367 0.891027V3.63043H0.762939C1.44505 3.63043 2.07785 4.09681 2.18743 4.77002C2.22081 4.9666 2.21089 5.16809 2.15837 5.36044C2.10584 5.55279 2.01197 5.73136 1.88332 5.88369C1.75466 6.03602 1.59431 6.15844 1.41346 6.2424C1.23261 6.32637 1.03561 6.36986 0.836218 6.36983H0.151367V9.10923C0.151367 9.29087 0.223521 9.46506 0.351955 9.5935C0.48039 9.72193 0.654584 9.79409 0.836218 9.79409H13.1635C13.3452 9.79409 13.5194 9.72193 13.6478 9.5935C13.7762 9.46506 13.8484 9.29087 13.8484 9.10923V6.36983H13.1635C12.9641 6.36986 12.7671 6.32637 12.5863 6.2424C12.4054 6.15844 12.2451 6.03602 12.1164 5.88369C11.9878 5.73136 11.8939 5.55279 11.8414 5.36044C11.7889 5.16809 11.7789 4.9666 11.8123 4.77002C11.9219 4.09681 12.5547 3.63043 13.2368 3.63043H13.8484V0.891027C13.8484 0.709394 13.7762 0.535199 13.6478 0.406765C13.5194 0.278331 13.3452 0.206177 13.1635 0.206177ZM6.31502 8.42438H4.94532V7.05468H6.31502V8.42438ZM6.31502 5.68498H4.94532V4.31528H6.31502V5.68498ZM6.31502 2.94558H4.94532V1.57588H6.31502V2.94558Z" fill="white"/>
</svg>
