<svg width="18" height="24" viewBox="0 0 18 24" fill="none" xmlns="http://www.w3.org/2000/svg">
<path d="M1.1249 21.75H16.8749C17.0936 21.7496 17.3044 21.8311 17.466 21.9784C17.6276 22.1257 17.7282 22.3282 17.7479 22.5459C17.7677 22.7637 17.7052 22.981 17.5728 23.155C17.4403 23.3289 17.2476 23.447 17.0324 23.486L16.8749 23.5H1.1249C0.906249 23.5004 0.695366 23.4189 0.533783 23.2716C0.372201 23.1243 0.271628 22.9218 0.251872 22.7041C0.232115 22.4863 0.294606 22.269 0.427038 22.095C0.55947 21.9211 0.752246 21.803 0.967404 21.764L1.1249 21.75H16.8749H1.1249ZM8.8424 0.764L8.9999 0.75C9.2047 0.749932 9.40303 0.8217 9.56036 0.952806C9.71769 1.08391 9.82404 1.26605 9.8609 1.4675L9.8749 1.625V17.011L14.5684 12.3193C14.7132 12.1743 14.9042 12.0848 15.1083 12.0662C15.3123 12.0477 15.5164 12.1013 15.6849 12.2177L15.8074 12.3193C15.9521 12.4642 16.0413 12.6554 16.0595 12.8594C16.0778 13.0635 16.0238 13.2674 15.9072 13.4357L15.8057 13.5565L9.6194 19.7445C9.47441 19.8892 9.28325 19.9784 9.07923 19.9966C8.8752 20.0149 8.67125 19.9609 8.5029 19.8442L8.3804 19.7445L2.19415 13.5565C2.03913 13.4022 1.94754 13.1954 1.93742 12.9769C1.92731 12.7583 1.99941 12.544 2.13951 12.376C2.27961 12.208 2.47756 12.0986 2.69433 12.0693C2.91111 12.04 3.13099 12.093 3.31065 12.2177L3.4314 12.3193L8.1249 17.011V1.625C8.12484 1.42021 8.1966 1.22187 8.32771 1.06455C8.45882 0.907219 8.64095 0.800863 8.8424 0.764L8.9999 0.75L8.8424 0.764Z" fill="#00A58D"/>
</svg>
