<svg width="15" height="14" viewBox="0 0 15 14" fill="none" xmlns="http://www.w3.org/2000/svg">
<path d="M6.75661 9.28719L3.77545 10.2923C3.64401 10.3364 3.50293 10.3429 3.36797 10.3112C3.23301 10.2795 3.10952 10.2107 3.01149 10.1127C2.91346 10.0147 2.84474 9.89123 2.81301 9.75627C2.78128 9.62131 2.78779 9.48017 2.83187 9.34873L3.83705 6.36414L9.06427 1.13685C9.25514 0.943041 9.48267 0.78913 9.73359 0.684072C9.9845 0.579014 10.2538 0.524902 10.5258 0.524902C10.7979 0.524902 11.0672 0.579014 11.3181 0.684072C11.569 0.78913 11.7965 0.943041 11.9873 1.13685V1.13685C12.1811 1.32772 12.3351 1.55523 12.4401 1.80615C12.5452 2.05706 12.5993 2.32635 12.5993 2.59836C12.5993 2.87038 12.5452 3.13969 12.4401 3.3906C12.3351 3.64151 12.1811 3.86903 11.9873 4.05989L6.75661 9.28719Z" stroke="#9D9D9D" stroke-miterlimit="10"/>
<path d="M8.44897 1.75568L11.3686 4.6753" stroke="#9D9D9D" stroke-miterlimit="10"/>
<path d="M0.480957 12.9719H14.9114" stroke="#9D9D9D"/>
</svg>
