<svg width="37" height="38" viewBox="0 0 37 38" fill="none" xmlns="http://www.w3.org/2000/svg">
<g clip-path="url(#clip0_193_619)">
<path d="M18.5 37.8782C28.7173 37.8782 37 29.5954 37 19.3782C37 9.16091 28.7173 0.878174 18.5 0.878174C8.28273 0.878174 0 9.16091 0 19.3782C0 29.5954 8.28273 37.8782 18.5 37.8782Z" fill="#00A58D"/>
<path d="M16.8353 26.2501L11.5183 28.0428C11.2838 28.1214 11.0322 28.1331 10.7915 28.0765C10.5508 28.0199 10.3305 27.8973 10.1557 27.7224C9.98085 27.5476 9.85828 27.3274 9.80169 27.0867C9.7451 26.846 9.75672 26.5943 9.83533 26.3599L11.6281 21.0367L20.9512 11.7135C21.2916 11.3678 21.6974 11.0933 22.1449 10.906C22.5924 10.7186 23.0728 10.6221 23.558 10.6221C24.0431 10.6221 24.5235 10.7186 24.971 10.906C25.4185 11.0933 25.8242 11.3678 26.1646 11.7135V11.7135C26.5103 12.0539 26.7848 12.4597 26.9722 12.9072C27.1596 13.3548 27.2561 13.835 27.2561 14.3202C27.2561 14.8054 27.1596 15.2857 26.9722 15.7332C26.7848 16.1807 26.5103 16.5865 26.1646 16.9269L16.8353 26.2501Z" stroke="white" stroke-width="2" stroke-miterlimit="10"/>
<path d="M19.8538 12.8172L25.0611 18.0245" stroke="white" stroke-width="2" stroke-miterlimit="10"/>
</g>
<defs>
<clipPath id="clip0_193_619">
<rect width="37" height="37" fill="white" transform="translate(0 0.878174)"/>
</clipPath>
</defs>
</svg>
