<svg width="37" height="38" viewBox="0 0 37 38" fill="none" xmlns="http://www.w3.org/2000/svg">
<g clip-path="url(#clip0_109_141)">
<path d="M18.5 37.4639C28.7173 37.4639 37 29.1811 37 18.9639C37 8.7466 28.7173 0.463867 18.5 0.463867C8.28273 0.463867 0 8.7466 0 18.9639C0 29.1811 8.28273 37.4639 18.5 37.4639Z" fill="#00A58D"/>
<path d="M16.8353 25.8358L11.5182 27.6285C11.2838 27.7071 11.0322 27.7188 10.7915 27.6622C10.5508 27.6056 10.3305 27.483 10.1557 27.3081C9.98082 27.1333 9.85825 26.9131 9.80166 26.6724C9.74507 26.4317 9.75668 26.18 9.8353 25.9455L11.6281 20.6224L20.9511 11.2992C21.2916 10.9535 21.6974 10.679 22.1449 10.4917C22.5924 10.3043 23.0728 10.2078 23.5579 10.2078C24.0431 10.2078 24.5235 10.3043 24.971 10.4917C25.4185 10.679 25.8242 10.9535 26.1646 11.2992V11.2992C26.5103 11.6396 26.7848 12.0454 26.9722 12.4929C27.1596 12.9405 27.2561 13.4207 27.2561 13.9059C27.2561 14.3911 27.1596 14.8714 26.9722 15.3189C26.7848 15.7664 26.5103 16.1722 26.1646 16.5126L16.8353 25.8358Z" stroke="white" stroke-width="2" stroke-miterlimit="10"/>
<path d="M19.8538 12.4029L25.0611 17.6102" stroke="white" stroke-width="2" stroke-miterlimit="10"/>
</g>
<defs>
<clipPath id="clip0_109_141">
<rect width="37" height="37" fill="white" transform="translate(0 0.463867)"/>
</clipPath>
</defs>
</svg>
