<svg width="25" height="26" viewBox="0 0 25 26" fill="none" xmlns="http://www.w3.org/2000/svg">
<g clip-path="url(#clip0_164_1317)">
<path d="M12.5 25.9701C19.4036 25.9701 25 20.3737 25 13.4701C25 6.56653 19.4036 0.970093 12.5 0.970093C5.59644 0.970093 0 6.56653 0 13.4701C0 20.3737 5.59644 25.9701 12.5 25.9701Z" fill="#00A58D"/>
<path d="M11.3754 18.1133L7.78282 19.3246C7.62442 19.3777 7.45441 19.3856 7.29177 19.3474C7.12913 19.3091 6.98031 19.2263 6.86217 19.1081C6.74403 18.99 6.66121 18.8412 6.62297 18.6786C6.58474 18.516 6.59259 18.3459 6.64571 18.1875L7.85705 14.5907L14.1564 8.2913C14.3864 8.05773 14.6606 7.87226 14.963 7.74565C15.2654 7.61904 15.5899 7.55383 15.9178 7.55383C16.2456 7.55383 16.5701 7.61904 16.8725 7.74565C17.1749 7.87226 17.449 8.05773 17.679 8.2913V8.2913C17.9126 8.52132 18.0981 8.79549 18.2247 9.09787C18.3513 9.40024 18.4165 9.72476 18.4165 10.0526C18.4165 10.3804 18.3513 10.7049 18.2247 11.0073C18.0981 11.3097 17.9126 11.5839 17.679 11.8139L11.3754 18.1133Z" stroke="white" stroke-width="2" stroke-miterlimit="10"/>
<path d="M13.4146 9.03699L16.933 12.5554" stroke="white" stroke-width="2" stroke-miterlimit="10"/>
</g>
<defs>
<clipPath id="clip0_164_1317">
<rect width="25" height="25" fill="white" transform="translate(0 0.970093)"/>
</clipPath>
</defs>
</svg>
