<svg width="18" height="13" viewBox="0 0 18 13" fill="none" xmlns="http://www.w3.org/2000/svg">
<g clip-path="url(#clip0_15_1923)">
<path d="M9 12.1099C7.16565 12.1159 5.36649 11.5915 3.80723 10.5965C2.24797 9.60142 0.991215 8.17565 0.179965 6.48137L0 6.10903L0.179965 5.73669C0.99591 4.04624 2.25375 2.62381 3.81195 1.62946C5.37016 0.635121 7.16689 0.108326 9 0.108326C10.8331 0.108326 12.6298 0.635121 14.188 1.62946C15.7463 2.62381 17.0041 4.04624 17.82 5.73669L18 6.10903L17.82 6.48137C17.0086 8.17553 15.7518 9.6012 14.1926 10.5962C12.6334 11.5912 10.8343 12.1157 9 12.1099ZM1.82237 6.10903C2.53726 7.42249 3.57909 8.51605 4.84064 9.27719C6.10218 10.0383 7.53789 10.4395 9 10.4395C10.4621 10.4395 11.8978 10.0383 13.1594 9.27719C14.4209 8.51605 15.4627 7.42249 16.1776 6.10903C15.4627 4.79557 14.4209 3.70201 13.1594 2.94087C11.8978 2.17974 10.4621 1.77852 9 1.77852C7.53789 1.77852 6.10218 2.17974 4.84064 2.94087C3.57909 3.70201 2.53726 4.79557 1.82237 6.10903Z" fill="#B3B3B3"/>
<path d="M9.00003 7.94069C9.98233 7.94069 10.7786 7.12064 10.7786 6.10905C10.7786 5.09746 9.98233 4.27741 9.00003 4.27741C8.01774 4.27741 7.22144 5.09746 7.22144 6.10905C7.22144 7.12064 8.01774 7.94069 9.00003 7.94069Z" fill="#B3B3B3"/>
</g>
<defs>
<clipPath id="clip0_15_1923">
<rect width="18" height="12" fill="white" transform="translate(0 0.108215)"/>
</clipPath>
</defs>
</svg>
