<svg width="45" height="64" viewBox="0 0 45 64" fill="none" xmlns="http://www.w3.org/2000/svg">
<path d="M23.004 -1.17692e-05C28.3464 0.000323966 33.5064 1.94736 37.5224 5.47822C41.5384 9.00908 44.1364 13.8829 44.8321 19.1913C45.4014 23.4396 44.4596 27.4567 42.9276 31.3712C40.0421 38.7585 35.9235 45.4676 31.4771 51.9873C29.0873 55.4943 26.5401 58.8909 23.9641 62.2665C23.2243 63.2366 22.7993 63.2576 22.0281 62.2823C16.0969 54.7872 10.533 47.0344 6.14162 38.5298C3.85151 34.0895 1.72666 29.5493 1.15742 24.4991C0.241896 16.3494 3.21668 9.73234 9.50464 4.6243C13.4107 1.45117 17.9699 -0.0289301 23.004 -1.17692e-05ZM13.8671 21.8202C13.8671 24.2473 14.8292 26.575 16.5417 28.2912C18.2542 30.0074 20.5769 30.9716 22.9987 30.9716C25.4206 30.9716 27.7432 30.0074 29.4557 28.2912C31.1682 26.575 32.1303 24.2473 32.1303 21.8202C32.1303 16.7779 27.9593 12.5584 22.9856 12.5716C21.7797 12.5747 20.5863 12.8168 19.4742 13.284C18.3621 13.7513 17.3532 14.4344 16.5057 15.294C15.6581 16.1537 14.9886 17.1729 14.5358 18.2929C14.083 19.413 13.8557 20.6118 13.8671 21.8202Z" fill="#D9F2EE"/>
</svg>
