<svg width="44" height="63" viewBox="0 0 44 63" fill="none" xmlns="http://www.w3.org/2000/svg">
<path d="M22.004 -7.28044e-05C27.3464 0.000262931 32.5064 1.9473 36.5224 5.47816C40.5384 9.00902 43.1364 13.8828 43.8321 19.1912C44.4014 23.4396 43.4596 27.4566 41.9276 31.3711C39.0421 38.7584 34.9235 45.4675 30.4771 51.9873C28.0873 55.4943 25.5401 58.8909 22.9641 62.2664C22.2243 63.2365 21.7993 63.2576 21.0281 62.2822C15.0969 54.7871 9.53296 47.0343 5.14162 38.5297C2.85151 34.0894 0.726663 29.5492 0.157415 24.499C-0.758104 16.3493 2.21668 9.73228 8.50464 4.62424C12.4107 1.4511 16.9699 -0.0289912 22.004 -7.28044e-05ZM12.8671 21.8202C12.8671 24.2472 13.8292 26.5749 15.5417 28.2911C17.2542 30.0073 19.5769 30.9715 21.9987 30.9715C24.4206 30.9715 26.7432 30.0073 28.4557 28.2911C30.1682 26.5749 31.1303 24.2472 31.1303 21.8202C31.1303 16.7778 26.9593 12.5584 21.9856 12.5715C20.7797 12.5746 19.5863 12.8167 18.4742 13.284C17.3621 13.7512 16.3532 14.4343 15.5057 15.294C14.6581 16.1536 13.9886 17.1728 13.5358 18.2929C13.083 19.4129 12.8557 20.6117 12.8671 21.8202Z" fill="white"/>
</svg>
