<svg width="19" height="17" viewBox="0 0 19 17" fill="none" xmlns="http://www.w3.org/2000/svg">
<path d="M18.9271 8.0369C18.9271 8.6031 18.4583 9.04663 17.9271 9.04663H16.927L16.9489 14.0827C16.9489 14.1707 16.9427 14.2525 16.9333 14.3375V14.847C16.9333 15.5422 16.3739 16.1053 15.6832 16.1053H15.1832C15.1488 16.1053 15.1145 16.077 15.0801 16.1021C15.0363 16.077 14.9926 16.1053 14.9488 16.1053H13.1831C12.4925 16.1053 11.9331 15.5422 11.9331 14.847V12.0789C11.9331 11.5222 11.4862 11.0724 10.933 11.0724H8.93295C8.3798 11.0724 7.93291 11.5222 7.93291 12.0789V14.847C7.93291 15.5422 7.37351 16.1053 6.68286 16.1053H4.93591C4.88903 16.1053 4.84215 16.1021 4.79528 16.099C4.75778 16.1021 4.72027 16.1053 4.68277 16.1053H4.18275C3.49241 16.1053 2.9327 15.5422 2.9327 14.847V11.324C2.9327 11.2957 2.93364 11.2642 2.93551 11.2359V9.04663H1.93422C1.37076 9.04663 0.932617 8.6031 0.932617 8.0369C0.932617 7.7538 1.0265 7.50216 1.24544 7.28197L9.25796 0.252148C9.47672 0.0315185 9.72673 0 9.94549 0C10.1642 0 10.4143 0.063037 10.6049 0.22063L18.5833 7.28197C18.8334 7.50216 18.9615 7.7538 18.9271 8.0369Z" fill="#00A78E"/>
</svg>
