<svg width="44" height="40" viewBox="0 0 44 40" fill="none" xmlns="http://www.w3.org/2000/svg">
<path fill-rule="evenodd" clip-rule="evenodd" d="M21.9012 6.70731L38.8024 23.6085V35.4591C38.8024 36.5797 38.3573 37.6545 37.5649 38.4469C36.7725 39.2393 35.6978 39.6844 34.5771 39.6844H9.22531C8.10469 39.6844 7.02996 39.2393 6.23756 38.4469C5.44517 37.6545 5 36.5797 5 35.4591V23.6085L21.9012 6.70731ZM35.9856 4.47353V14.3326L30.3518 8.69884V4.47353C30.3518 4.09999 30.5002 3.74175 30.7644 3.47762C31.0285 3.21348 31.3867 3.0651 31.7603 3.0651H34.5771C34.9507 3.0651 35.3089 3.21348 35.5731 3.47762C35.8372 3.74175 35.9856 4.09999 35.9856 4.47353Z" fill="#00A58D"/>
<path fill-rule="evenodd" clip-rule="evenodd" d="M19.9097 1.65665C20.438 1.12857 21.1543 0.831909 21.9013 0.831909C22.6482 0.831909 23.3645 1.12857 23.8928 1.65665L42.6165 20.3776C42.881 20.642 43.0296 21.0007 43.0296 21.3747C43.0296 21.7488 42.881 22.1075 42.6165 22.3719C42.3521 22.6364 41.9934 22.785 41.6194 22.785C41.2453 22.785 40.8866 22.6364 40.6222 22.3719L21.9013 3.64818L3.18034 22.3719C2.91587 22.6364 2.55718 22.785 2.18316 22.785C1.80915 22.785 1.45046 22.6364 1.18599 22.3719C0.921525 22.1075 0.772949 21.7488 0.772949 21.3747C0.772949 21.0007 0.921525 20.642 1.18599 20.3776L19.9097 1.65665Z" fill="#00A58D"/>
</svg>
