<svg width="23" height="25" viewBox="0 0 23 25" fill="none" xmlns="http://www.w3.org/2000/svg">
<g clip-path="url(#clip0_67_3)">
<path d="M21.8424 24.3216H13.6965V18.7836C13.6965 18.2092 13.4647 17.6582 13.0522 17.252C12.6397 16.8458 12.0803 16.6176 11.497 16.6176C10.9136 16.6176 10.3542 16.8458 9.94172 17.252C9.52924 17.6582 9.2975 18.2092 9.2975 18.7836V24.3036H1.15154C0.845579 24.302 0.552702 24.1812 0.336923 23.9676C0.121144 23.754 4.40116e-06 23.465 8.63895e-06 23.1636V11.2836C-0.000589302 11.1316 0.0298583 10.981 0.0895177 10.8409C0.149177 10.7007 0.236835 10.5738 0.347298 10.4676L10.0956 0.993595C10.3199 0.776635 10.5855 0.605524 10.8772 0.490128C11.1689 0.374732 11.4809 0.317327 11.7952 0.321231C12.1096 0.325136 12.42 0.390302 12.7087 0.512906C12.9973 0.63551 13.2585 0.813175 13.4771 1.03564L22.6649 10.3836C22.8712 10.595 22.9868 10.8765 22.9878 11.1696V23.2116C22.9886 23.361 22.9595 23.5091 22.9019 23.6474C22.8444 23.7857 22.7597 23.9114 22.6527 24.0174C22.5457 24.1233 22.4185 24.2073 22.2784 24.2647C22.1383 24.3221 21.988 24.3516 21.8363 24.3516L21.8424 24.3216Z" fill="white"/>
</g>
<defs>
<clipPath id="clip0_67_3">
<rect width="23" height="24" fill="white" transform="translate(0 0.321533)"/>
</clipPath>
</defs>
</svg>
