<svg width="24" height="22" viewBox="0 0 24 22" fill="none" xmlns="http://www.w3.org/2000/svg">
<g clip-path="url(#clip0_81_2)">
<path d="M12.195 5.45851e-07C9.9195 -0.000684882 7.69489 0.644164 5.80257 1.85298C3.91026 3.06179 2.43523 4.78023 1.5641 6.79099C0.692969 8.80175 0.464859 11.0145 0.908613 13.1493C1.35237 15.2841 2.44805 17.245 4.05708 18.7841C5.66611 20.3231 7.71621 21.3712 9.94803 21.7957C12.1799 22.2201 14.4931 22.0019 16.5953 21.1686C18.6975 20.3354 20.494 18.9245 21.7578 17.1145C23.0216 15.3044 23.6957 13.1766 23.695 11C23.6921 8.08346 22.4796 5.28716 20.3235 3.22486C18.1675 1.16255 15.2441 0.0027533 12.195 5.45851e-07Z" fill="white"/>
<path d="M9.02836 7.569L12.1153 7.91557H12.195C12.3598 7.89194 12.5109 7.81473 12.6231 7.69698C12.7353 7.57922 12.8017 7.42813 12.8111 7.26906C12.8204 7.10999 12.7722 6.95267 12.6745 6.82362C12.5768 6.69457 12.4357 6.60164 12.2747 6.56048L7.63707 6.05798C7.48374 6.04376 7.32978 6.0781 7.19886 6.15575C7.06793 6.23339 6.9673 6.35003 6.91243 6.48772H6.88707C6.87257 6.50538 6.85926 6.52391 6.84722 6.54318C6.80321 6.59235 6.76663 6.64717 6.73853 6.70606C6.71895 6.79125 6.70082 6.87675 6.68417 6.96251V11.4297C6.6628 11.5304 6.66509 11.6344 6.69087 11.7341C6.71665 11.8338 6.76528 11.9268 6.83324 12.0063C6.90121 12.0859 6.98681 12.1499 7.08384 12.194C7.18088 12.238 7.28693 12.2608 7.39432 12.2608C7.50171 12.2608 7.60775 12.238 7.70478 12.194C7.80182 12.1499 7.88742 12.0859 7.95538 12.0063C8.02335 11.9268 8.07197 11.8338 8.09775 11.7341C8.12354 11.6344 8.12583 11.5304 8.10445 11.4297V8.58788L15.311 15.3494C15.4515 15.4393 15.6205 15.4794 15.7886 15.4627C15.9568 15.446 16.1135 15.3737 16.2318 15.2581C16.35 15.1425 16.4223 14.991 16.4361 14.8299C16.4499 14.6687 16.4044 14.508 16.3074 14.3756L9.02836 7.569Z" fill="#00A58D"/>
</g>
<defs>
<clipPath id="clip0_81_2">
<rect width="23" height="22" fill="white" transform="translate(0.695068)"/>
</clipPath>
</defs>
</svg>
