<svg width="311" height="177" viewBox="0 0 311 177" fill="none" xmlns="http://www.w3.org/2000/svg">
<g clip-path="url(#clip0_139_1524)">
<path d="M140.814 175.129C140.643 172.849 141.077 170.565 142.07 168.505C143.064 166.445 144.582 164.681 146.474 163.391C148.397 162.148 150.614 161.43 152.902 161.31C155.19 161.191 157.47 161.673 159.512 162.71C160.49 160.087 161.499 157.419 163.243 155.225C164.986 153.031 167.61 151.349 170.414 151.452V175.129H140.814Z" fill="#ECECEC"/>
<path d="M62.8997 83.5228L47.7763 113.951L52.2931 114.122L39.4773 138.305H46.2086L35.7107 159.788H94.3883L81.469 138.305L87.6621 138.036L75.2809 113.869L79.8547 113.595L62.8997 83.5228Z" fill="#ECECEC"/>
<path d="M65.4555 118.824C65.5331 118.824 65.4038 131.729 65.1709 147.601C64.9381 163.474 64.6846 176.383 64.6121 176.383C64.5397 176.383 64.6639 163.479 64.9019 147.596C65.1399 131.713 65.3831 118.819 65.4555 118.824Z" fill="#E1E1E1"/>
<path d="M72.6472 125.916C72.3621 126.413 72.0331 126.883 71.6642 127.32C71.0226 128.167 70.112 129.308 69.0772 130.557L66.4385 133.742C66.0909 134.197 65.7123 134.628 65.3054 135.032C65.5896 134.534 65.9186 134.062 66.2884 133.623C66.93 132.782 67.8406 131.636 68.8754 130.387L71.5141 127.202C71.8589 126.745 72.2377 126.316 72.6472 125.916V125.916Z" fill="#E1E1E1"/>
<path d="M65.3158 135.032C64.1599 134.302 63.0522 133.498 61.9993 132.627C60.8924 131.825 59.8414 130.949 58.8535 130.005C60.0079 130.737 61.1139 131.542 62.1648 132.415C63.272 133.217 64.3246 134.091 65.3158 135.032V135.032Z" fill="#E1E1E1"/>
<path d="M64.9122 149.96C64.5211 149.697 64.1525 149.401 63.8102 149.077C63.1479 148.515 62.258 147.74 61.2232 146.904C60.1884 146.068 59.2519 145.33 58.5638 144.798C58.1785 144.528 57.8152 144.227 57.4773 143.9C57.9038 144.103 58.3065 144.352 58.6777 144.643C59.3917 145.16 60.3644 145.856 61.394 146.708C62.4236 147.56 63.3238 148.35 63.9809 148.948C64.327 149.251 64.6392 149.59 64.9122 149.96V149.96Z" fill="#E1E1E1"/>
<path d="M73.2734 140.741C73.2026 140.89 73.1121 141.029 73.0044 141.154C72.8181 141.407 72.5284 141.763 72.1662 142.186C71.4419 143.054 70.3812 144.199 69.1912 145.438C68.0012 146.677 66.9198 147.797 66.1644 148.628C65.409 149.459 64.9434 149.981 64.9124 149.96C64.9803 149.809 65.071 149.67 65.1814 149.547C65.3677 149.294 65.6574 148.933 66.0196 148.515C66.7439 147.648 67.8046 146.502 68.9946 145.263C70.1846 144.024 71.2659 142.899 72.0265 142.073C72.4171 141.606 72.8334 141.162 73.2734 140.741V140.741Z" fill="#E1E1E1"/>
<path d="M185.982 118.148H247.294L258.749 101.919L270.757 118.607L284.867 118.38L269.66 97.9448L201.297 98.2287L185.982 118.148Z" fill="#E1E1E1"/>
<path d="M216.643 118.38V175.268H277.866V118.38H270.85L258.749 101.919L247.257 118.132L216.643 118.38Z" fill="#F5F5F5"/>
<path d="M239.615 150.605H225.294V175.268H239.615V150.605Z" fill="#E1E1E1"/>
<path d="M270.757 149.908H248.199V163.85H270.757V149.908Z" fill="#E1E1E1"/>
<path d="M254.971 149.908H254.454V163.979H254.971V149.908Z" fill="#ECECEC"/>
<path d="M264.352 149.908H263.834V163.979H264.352V149.908Z" fill="#ECECEC"/>
<path d="M264.093 157.114H254.713V157.63H264.093V157.114Z" fill="#ECECEC"/>
<path d="M270.757 122.009H248.199V135.951H270.757V122.009Z" fill="#E1E1E1"/>
<path d="M254.971 122.009H254.454V136.08H254.971V122.009Z" fill="#ECECEC"/>
<path d="M264.352 122.009H263.834V136.08H264.352V122.009Z" fill="#ECECEC"/>
<path d="M264.093 129.21H254.713V129.726H264.093V129.21Z" fill="#ECECEC"/>
<path d="M238.12 122.133H223.892V135.574H238.12V122.133Z" fill="#E1E1E1"/>
<path d="M216.648 118.38H191.798V175.263H216.648V118.38Z" fill="#E1E1E1"/>
<path d="M231.264 122.133H230.747V135.574H231.264V122.133Z" fill="#ECECEC"/>
<path d="M238.12 128.926H223.892V129.442H238.12V128.926Z" fill="#ECECEC"/>
<path d="M258.718 115.789C260.383 115.789 261.734 114.442 261.734 112.78C261.734 111.118 260.383 109.77 258.718 109.77C257.052 109.77 255.701 111.118 255.701 112.78C255.701 114.442 257.052 115.789 258.718 115.789Z" fill="#E1E1E1"/>
<path d="M237.199 109.089L241.007 104.402V93.134H233.034V109.177L237.199 109.089Z" fill="#F5F5F5"/>
<path d="M237.199 109.089V93.134H241.007V104.402L237.199 109.089Z" fill="#ECECEC"/>
<path d="M241.54 91.4771H232.144V93.134H241.54V91.4771Z" fill="#ECECEC"/>
<path d="M216.643 143.265H170.409V175.268H216.643V143.265Z" fill="#F5F5F5"/>
<path d="M199.357 143.265H170.409V175.268H199.357V143.265Z" fill="#E1E1E1"/>
<path d="M195.047 153.584H176.116V175.211H195.047V153.584Z" fill="#F5F5F5"/>
<path d="M214.098 153.496H201.903V156.593H214.098V153.496Z" fill="#ECECEC"/>
<path d="M185.982 118.148V119.795H247.257V118.133L185.982 118.148Z" fill="#ECECEC"/>
<path d="M247.257 119.795L258.718 103.747L258.749 101.919L247.294 118.148L247.257 119.795Z" fill="#ECECEC"/>
<path d="M284.572 118.38H270.85V119.444H284.572V118.38Z" fill="#ECECEC"/>
<path d="M234.731 146.827H229.666V148.747H234.731V146.827Z" fill="#E1E1E1"/>
<path d="M310.659 175.268C310.659 175.341 241.116 175.402 155.358 175.402C69.5998 175.402 0.0415039 175.341 0.0415039 175.268C0.0415039 175.196 69.5688 175.134 155.358 175.134C241.147 175.134 310.659 175.196 310.659 175.268Z" fill="#1A2E35"/>
<path d="M190.494 25.5457C179.039 9.81771 162.374 2.48798 144.963 2.48798C144.963 2.48798 102.382 2.48798 89.7731 40.5148C85.1165 54.5291 86.1513 69.7512 91.7961 83.3938C93.9136 88.5809 96.5794 93.5281 99.7484 98.1513C110.743 113.998 144.963 157.259 144.963 157.259H152.398C161.949 144.024 185.998 100.061 193.195 85.9695C202.265 68.2697 203.657 43.6016 190.494 25.5457ZM152.088 95.8853C142.446 95.8798 133.201 92.0548 126.386 85.2512C119.57 78.4475 115.741 69.2222 115.741 59.6031C115.741 49.98 119.572 40.751 126.393 33.9459C133.213 27.1409 142.463 23.3172 152.109 23.3158C161.755 23.3172 171.006 27.1407 177.827 33.9456C184.647 40.7505 188.48 49.9795 188.481 59.6031C188.481 64.3697 187.539 69.0895 185.709 73.4928C183.88 77.8962 181.199 81.8968 177.819 85.2661C174.439 88.6354 170.427 91.3074 166.012 93.1295C161.597 94.9516 156.866 95.888 152.088 95.8853V95.8853Z" fill="#FF4F5B"/>
<path d="M190.494 25.5457C179.039 9.81771 162.374 2.48798 144.963 2.48798C144.963 2.48798 102.382 2.48798 89.7731 40.5148C85.1165 54.5291 86.1513 69.7512 91.7961 83.3938C93.9136 88.5809 96.5794 93.5281 99.7484 98.1513C110.743 113.998 144.963 157.259 144.963 157.259H152.398C161.949 144.024 185.998 100.061 193.195 85.9695C202.265 68.2697 203.657 43.6016 190.494 25.5457ZM152.088 95.8853C142.446 95.8798 133.201 92.0548 126.386 85.2512C119.57 78.4475 115.741 69.2222 115.741 59.6031C115.741 49.98 119.572 40.751 126.393 33.9459C133.213 27.1409 142.463 23.3172 152.109 23.3158C161.755 23.3172 171.006 27.1407 177.827 33.9456C184.647 40.7505 188.48 49.9795 188.481 59.6031C188.481 64.3697 187.539 69.0895 185.709 73.4928C183.88 77.8962 181.199 81.8968 177.819 85.2661C174.439 88.6354 170.427 91.3074 166.012 93.1295C161.597 94.9516 156.866 95.888 152.088 95.8853V95.8853Z" fill="#006959"/>
<path d="M198.007 25.8399C186.546 10.1171 169.881 2.78735 152.476 2.78735C152.476 2.78735 109.9 2.78736 97.2908 40.8142C92.6342 54.8284 93.669 70.0454 99.3086 83.6931C101.427 88.8809 104.095 93.8281 107.266 98.4507C118.256 114.292 152.476 157.558 152.476 157.558C152.476 157.558 192.01 103.298 200.713 86.2637C209.751 68.5639 211.143 43.9009 198.007 25.8399ZM152.16 96.1846C147.374 96.2204 142.628 95.3062 138.199 93.4952C133.77 91.6842 129.746 89.0127 126.361 85.636C122.976 82.2592 120.299 78.2447 118.483 73.826C116.668 69.4073 115.752 64.6726 115.788 59.8973C115.801 50.278 119.638 41.0566 126.456 34.2552C133.275 27.4538 142.518 23.6274 152.16 23.6151C156.937 23.6138 161.666 24.5513 166.079 26.3742C170.492 28.1971 174.502 30.8695 177.879 34.2389C181.256 37.6083 183.935 41.6086 185.762 46.0111C187.59 50.4137 188.529 55.1323 188.528 59.8973C188.521 69.5219 184.685 78.7501 177.862 85.5542C171.038 92.3584 161.787 96.1819 152.14 96.1846H152.16Z" fill="#00A58D"/>
<path d="M152.088 23.3158C144.573 23.3183 137.243 25.6425 131.105 29.969C124.967 34.2955 120.323 40.412 117.811 47.4781C120.282 42.0327 124.274 37.4134 129.309 34.1735C134.344 30.9336 140.208 29.2105 146.2 29.2105C154.464 29.2119 162.389 32.488 168.232 38.3182C174.075 44.1485 177.357 52.0554 177.357 60.3C177.357 68.544 174.075 76.4504 168.232 82.2798C162.388 88.1093 154.463 91.3842 146.2 91.3842C141.457 91.3872 136.776 90.3084 132.514 88.2302C128.253 86.152 124.524 83.1294 121.613 79.3934C124.911 84.4628 129.427 88.6294 134.75 91.5141C140.074 94.3989 146.035 95.9104 152.093 95.9111C161.739 95.9111 170.99 92.0887 177.811 85.2846C184.632 78.4805 188.464 69.252 188.466 59.6289C188.469 54.8612 187.53 50.1396 185.703 45.7341C183.876 41.3285 181.197 37.3252 177.818 33.9529C174.44 30.5807 170.429 27.9055 166.014 26.0804C161.599 24.2552 156.867 23.3158 152.088 23.3158V23.3158Z" fill="#FF4F5B"/>
<path d="M152.088 23.3158C144.573 23.3183 137.243 25.6425 131.105 29.969C124.967 34.2955 120.323 40.412 117.811 47.4781C120.282 42.0327 124.274 37.4134 129.309 34.1735C134.344 30.9336 140.208 29.2105 146.2 29.2105C154.464 29.2119 162.389 32.488 168.232 38.3182C174.075 44.1485 177.357 52.0554 177.357 60.3C177.357 68.544 174.075 76.4504 168.232 82.2798C162.388 88.1093 154.463 91.3842 146.2 91.3842C141.457 91.3872 136.776 90.3084 132.514 88.2302C128.253 86.152 124.524 83.1294 121.613 79.3934C124.911 84.4628 129.427 88.6294 134.75 91.5141C140.074 94.3989 146.035 95.9104 152.093 95.9111C161.739 95.9111 170.99 92.0887 177.811 85.2846C184.632 78.4805 188.464 69.252 188.466 59.6289C188.469 54.8612 187.53 50.1396 185.703 45.7341C183.876 41.3285 181.197 37.3252 177.818 33.9529C174.44 30.5807 170.429 27.9055 166.014 26.0804C161.599 24.2552 156.867 23.3158 152.088 23.3158V23.3158Z" fill="#006959"/>
<path d="M224.611 76.2188C223.145 75.224 221.37 74.7863 219.608 74.9852C216.628 75.3258 212.313 75.7646 212.313 75.7646V75.904L191.441 77.1893L185.072 64.2745L175.386 70.639C175.386 70.639 176.659 72.6727 182.112 82.6762C183.173 84.6277 184.808 86.2073 186.798 87.2015C188.787 88.1958 191.035 88.5567 193.236 88.2355L217.807 84.648V84.6016C220.343 84.4622 223.095 84.2248 223.499 83.8634C224.259 83.1666 224.952 80.6373 224.952 80.6373C224.952 80.6373 229.33 83.2182 230.178 83.2956C231.027 83.3731 231.172 82.6504 231.699 81.902C232.025 81.3806 227.498 78.2113 224.611 76.2188Z" fill="#FFBF9D"/>
<path d="M186.355 63.4279C186.355 63.4279 182.298 55.6388 178.594 48.2884C174.03 39.2553 163.962 37.4487 163.962 37.4487L149.382 35.5388C149.382 35.5388 137.197 30.0364 125.84 43.6893L116.527 54.0748L118.509 55.8504L127.75 64.1093L129.576 65.7507L133.757 61.4561L131.78 72.363L128.35 87.5283L135.764 86.6353L140.783 56.0517L169.048 58.3023L166.833 77.5867C167.284 77.5144 170.704 76.8434 171.816 72.2081C172.176 70.7292 172.176 69.186 171.816 67.7071L173.451 71.8829L186.355 63.4279Z" fill="#97DDFD"/>
<path d="M140.793 56.0363L135.774 86.6199L128.36 87.5129C134.951 93.1984 143.375 96.323 152.088 96.3137C156.484 96.3154 160.844 95.5214 164.955 93.9703L166.844 77.5661L169.058 58.2869L140.793 56.0363Z" fill="#1A2E35"/>
<path d="M142.469 34.0162L141.854 58.8598L146.572 59.6031L147.204 34.4291C147.204 34.4291 145.548 33.6497 142.469 34.0162Z" fill="#1A2E35"/>
<path d="M162.42 58.994L166.301 37.6552C166.523 37.4178 169.715 38.5585 170.673 39.6476L167.185 59.4431L162.42 58.994Z" fill="#1A2E35"/>
<path d="M146.743 55.9486C146.786 56.0856 146.809 56.2282 146.81 56.3718C146.846 56.765 146.846 57.1607 146.81 57.5539C146.775 58.1538 146.57 58.7317 146.221 59.2211C146.009 59.5168 145.726 59.7547 145.398 59.9128C145.037 60.0758 144.634 60.1244 144.244 60.0522C143.879 59.9745 143.534 59.8232 143.229 59.6075C142.925 59.3918 142.668 59.1163 142.475 58.7979C142.177 58.2813 142 57.7043 141.957 57.11C141.922 56.7184 141.922 56.3246 141.957 55.9331C141.958 55.7873 141.983 55.6426 142.03 55.5046C142.081 55.5046 142.03 56.1241 142.144 57.0893C142.202 57.6448 142.378 58.1815 142.661 58.6636C142.84 58.9481 143.074 59.1941 143.349 59.3873C143.625 59.5805 143.936 59.717 144.265 59.7889C144.592 59.8454 144.929 59.8079 145.236 59.6809C145.543 59.5539 145.807 59.3425 145.998 59.0714C146.331 58.6174 146.537 58.0828 146.593 57.5229C146.743 56.568 146.686 55.9486 146.743 55.9486Z" fill="#375A64"/>
<path d="M143.949 58.1526C143.818 58.1008 143.698 58.0236 143.596 57.9255C143.495 57.8274 143.413 57.7103 143.357 57.5809C143.301 57.4515 143.271 57.3123 143.269 57.1712C143.266 57.0302 143.292 56.8901 143.344 56.7589C143.451 56.4945 143.658 56.2828 143.921 56.1697C144.183 56.0567 144.48 56.0514 144.746 56.155C144.878 56.2073 144.998 56.285 145.099 56.3837C145.201 56.4823 145.282 56.6 145.338 56.73C145.393 56.86 145.423 56.9997 145.424 57.1411C145.426 57.2824 145.399 57.4227 145.346 57.5538C145.294 57.685 145.217 57.8046 145.119 57.9058C145.02 58.007 144.903 58.0878 144.773 58.1434C144.643 58.1991 144.503 58.2286 144.362 58.2301C144.221 58.2317 144.08 58.2054 143.949 58.1526V58.1526Z" fill="#375A64"/>
<path d="M166.068 58.2765C166.068 58.5617 165.955 58.8354 165.753 59.0375C165.551 59.2397 165.278 59.354 164.992 59.3553C164.706 59.354 164.432 59.2397 164.23 59.0375C164.029 58.8354 163.916 58.5617 163.916 58.2765C163.916 57.9918 164.029 57.7187 164.231 57.5173C164.433 57.316 164.706 57.2029 164.992 57.2029C165.277 57.2029 165.551 57.316 165.753 57.5173C165.954 57.7187 166.068 57.9918 166.068 58.2765V58.2765Z" fill="#375A64"/>
<path d="M167.516 57.5332C167.504 57.9622 167.42 58.3862 167.268 58.7875C167.126 59.2453 166.88 59.6641 166.549 60.0109C166.34 60.228 166.084 60.3948 165.801 60.4985C165.517 60.6023 165.214 60.6403 164.914 60.6096C164.313 60.5504 163.758 60.2642 163.362 59.8096C163.051 59.4435 162.842 59.0019 162.756 58.5294C162.706 58.2148 162.706 57.8943 162.756 57.5797C162.788 57.3577 162.829 57.2441 162.85 57.2441C162.85 57.6616 162.89 58.0782 162.969 58.4881C163.071 58.9192 163.279 59.3182 163.574 59.6495C163.939 60.04 164.433 60.2856 164.966 60.3412C165.229 60.3668 165.494 60.3338 165.743 60.2445C165.992 60.1552 166.218 60.012 166.404 59.825C166.716 59.5081 166.959 59.1303 167.118 58.7153C167.366 58.0029 167.48 57.5229 167.516 57.5332Z" fill="#375A64"/>
<path d="M143.877 67.738C143.841 67.738 143.83 67.5264 143.835 67.2218C143.835 67.0618 143.835 66.8657 143.866 66.6541C143.866 66.5405 143.867 66.4269 143.892 66.3185V66.143V66.0501V65.9727L144.042 65.8385C144.65 65.861 145.251 65.9705 145.827 66.1637C145.224 66.2348 144.614 66.2157 144.017 66.1069C143.98 66.1069 144.296 65.854 144.161 65.9727V66.0553V66.143V66.3237C144.161 66.4372 144.136 66.5456 144.12 66.6644C144.089 66.8812 144.063 67.0722 144.032 67.2373C143.97 67.5419 143.918 67.738 143.877 67.738Z" fill="#375A64"/>
<path d="M143.127 74.851C143.052 74.2548 143.07 73.6507 143.178 73.0598C143.195 72.4581 143.304 71.8625 143.504 71.2945C143.573 71.8911 143.553 72.4945 143.447 73.0856C143.428 73.6867 143.32 74.2816 143.127 74.851V74.851Z" fill="#375A64"/>
<path d="M144.198 81.009C143.606 80.8661 143.04 80.6364 142.516 80.3276C142.516 80.3534 142.376 80.0695 142.444 80.1883V80.1108V80.0179V79.8373C142.444 79.7289 142.444 79.6205 142.485 79.5017C142.516 79.2901 142.547 79.0991 142.578 78.934C142.635 78.6139 142.692 78.4178 142.728 78.4178C142.764 78.4178 142.775 78.6294 142.764 78.934C142.764 79.0991 142.764 79.2953 142.733 79.5069C142.733 79.6256 142.733 79.734 142.733 79.8476V80.0282V80.116V80.1986C142.795 80.3173 142.64 80.0334 142.656 80.0644C143.214 80.3016 143.733 80.6199 144.198 81.009V81.009Z" fill="#375A64"/>
<path d="M148.952 83.3782C148.507 83.3052 148.082 83.1437 147.7 82.9034C147.277 82.7436 146.89 82.5015 146.562 82.191C147.008 82.2665 147.435 82.4278 147.819 82.6659C148.241 82.8249 148.627 83.0672 148.952 83.3782V83.3782Z" fill="#375A64"/>
<path d="M154.644 84.6842C154.146 85.0329 153.598 85.3044 153.019 85.4894H152.885H152.843L152.76 85.4481L152.6 85.3656L152.3 85.2107C152.109 85.1075 151.938 85.0146 151.783 84.9268C151.498 84.7616 151.332 84.6429 151.348 84.6068C151.363 84.5706 151.56 84.6068 151.865 84.7565C152.021 84.8184 152.193 84.8958 152.383 84.9887L152.693 85.1333L152.854 85.2107L152.936 85.252H152.978C152.931 85.252 153.092 85.252 152.869 85.252C153.429 84.9758 154.027 84.7844 154.644 84.6842Z" fill="#375A64"/>
<path d="M158.509 83.1253C158.54 83.1924 158.126 83.4247 157.593 83.6415C157.06 83.8583 156.605 83.977 156.558 83.9099C156.512 83.8428 156.941 83.6105 157.474 83.3937C158.007 83.177 158.483 83.0531 158.509 83.1253Z" fill="#375A64"/>
<path d="M162.306 79.8631C162.378 80.4663 162.36 81.0767 162.255 81.6749C162.089 81.8968 162.208 81.7368 162.172 81.7884H162.125L162.043 81.8246L161.872 81.8917L161.556 82.0104C161.354 82.0878 161.168 82.1498 161.039 82.2014C160.723 82.2994 160.521 82.3459 160.521 82.3098C160.521 82.2736 160.682 82.1704 160.977 82.0207C161.122 81.9484 161.303 81.8659 161.494 81.7833L161.805 81.6439L161.97 81.5768L162.058 81.5407H162.099C162.063 81.5923 162.187 81.4323 162.017 81.6542C162.027 81.0464 162.124 80.4432 162.306 79.8631Z" fill="#375A64"/>
<path d="M163 73.1786C163.075 73.7382 163.061 74.3061 162.958 74.8613C162.944 75.4279 162.841 75.9887 162.653 76.5234C162.578 75.9623 162.59 75.3929 162.689 74.8355C162.703 74.2701 162.807 73.7106 163 73.1786V73.1786Z" fill="#375A64"/>
<path d="M161.732 67.8413C162.336 67.7735 162.946 67.7944 163.543 67.9032L163.662 68.0478V68.1303V68.2233V68.3988L163.616 68.7394C163.616 68.9511 163.559 69.142 163.528 69.3072C163.471 69.6272 163.419 69.8234 163.383 69.8234C163.346 69.8234 163.331 69.6118 163.341 69.3072C163.341 69.142 163.341 68.9459 163.372 68.7343V68.3936V68.2181V68.1252V68.0426C163.424 68.1097 163.253 67.8929 163.491 68.1871C162.891 68.1585 162.298 68.0419 161.732 67.8413V67.8413Z" fill="#375A64"/>
<path d="M155.384 67.1599C155.915 67.0815 156.456 67.0937 156.983 67.196C157.513 67.2113 158.038 67.3142 158.535 67.5006C158.003 67.5758 157.463 67.5637 156.936 67.4644C156.406 67.4462 155.882 67.3434 155.384 67.1599V67.1599Z" fill="#375A64"/>
<path d="M149.035 66.4734C149.567 66.3984 150.107 66.4123 150.634 66.5147C151.165 66.5271 151.69 66.6301 152.186 66.8192C151.655 66.8942 151.114 66.8803 150.587 66.7779C150.056 66.7655 149.531 66.6625 149.035 66.4734V66.4734Z" fill="#375A64"/>
<path d="M115.767 57.7293C115.736 58.3488 115.72 58.9733 115.72 59.6031C115.719 62.0544 115.966 64.4996 116.455 66.9018V66.9741C116.517 67.2735 116.595 67.5677 116.662 67.8619C116.945 69.0285 117.274 70.1796 117.65 71.3151C117.702 71.4545 117.743 71.5991 117.795 71.7384C119.13 71.439 123.005 68.0994 127.46 63.9183L118.224 55.6595C116.952 56.9241 116.186 57.5848 115.767 57.7293Z" fill="#FFBF9D"/>
<path d="M174.036 4.11908C174.357 7.68587 178.434 10.6952 182.019 10.5816C183.996 10.5197 185.998 9.64219 187.902 10.1893C191.089 11.1133 192.372 15.5473 195.663 16.1409C198.105 16.5848 200.361 14.5923 202.839 14.4788C204.66 14.3807 206.378 15.2892 207.884 16.3112C209.389 17.3332 210.838 18.5205 212.54 19.0986C214.242 19.6767 215.846 18.6495 217.59 18.1178C218.025 19.2276 218.304 20.5852 218.863 21.7311C219.422 22.877 220.089 24.9985 219.101 25.4527C219.101 25.4527 216.353 26.8722 214.765 26.7999C215.407 27.4453 216.208 27.9103 217.087 28.1477C217.966 28.3852 218.893 28.3868 219.773 28.1523C220.213 30.8003 220.544 33.8613 218.739 35.8589C217.896 36.7265 216.817 37.3279 215.634 37.5881C209.865 39.0747 203.843 35.0536 197.991 36.1531C195.585 36.6022 193.386 37.8978 190.965 38.2178C189.768 38.3675 188.553 38.2761 187.393 37.9489C186.232 37.6217 185.149 37.0655 184.208 36.3131C181.9 34.4497 180.312 31.332 177.383 30.8468C176.08 30.63 174.765 31.0016 173.498 31.363C172.23 31.7243 170.911 32.0598 169.612 31.7862C168.313 31.5127 167.108 30.4184 167.17 29.1073" fill="#1A2E35"/>
<path d="M162.57 38.765C163.217 35.1517 163.967 31.3939 163.967 31.3939C163.967 31.3939 168.748 31.4404 170.776 25.5611C172.716 19.9554 174.113 6.46253 174.113 6.46253C171.047 4.55808 167.469 3.63615 163.862 3.82071C160.254 4.00527 156.79 5.28748 153.935 7.49488V7.49488L149.165 36.788C148.611 40.1896 151.105 43.3693 154.758 43.9371C158.467 44.5048 161.955 42.1872 162.57 38.765Z" fill="#FFBF9D"/>
<path d="M170.585 16.5693C170.55 16.7719 170.438 16.9532 170.272 17.0746C170.106 17.1961 169.899 17.2481 169.695 17.2197C169.594 17.2101 169.497 17.1806 169.408 17.1328C169.32 17.085 169.241 17.02 169.178 16.9416C169.115 16.8632 169.068 16.773 169.04 16.6762C169.013 16.5795 169.005 16.4782 169.017 16.3784C169.051 16.1768 169.163 15.9963 169.328 15.875C169.493 15.7537 169.699 15.701 169.902 15.728C170.003 15.7369 170.101 15.766 170.19 15.8135C170.279 15.8609 170.358 15.9258 170.422 16.0043C170.486 16.0828 170.533 16.1733 170.561 16.2704C170.589 16.3674 170.597 16.4691 170.585 16.5693V16.5693Z" fill="#1A2E35"/>
<path d="M171.971 15.9241C171.858 16.0067 171.345 15.4699 170.507 15.3253C169.669 15.1808 168.981 15.4905 168.908 15.3718C168.836 15.253 169.007 15.1498 169.307 15.0053C169.712 14.8164 170.166 14.7586 170.605 14.8401C171.04 14.9174 171.44 15.1286 171.749 15.444C171.971 15.6866 172.028 15.888 171.971 15.9241Z" fill="#1A2E35"/>
<path d="M161.965 15.2117C161.932 15.4139 161.821 15.5952 161.655 15.7167C161.49 15.8382 161.283 15.8904 161.08 15.8621C160.98 15.8525 160.882 15.823 160.794 15.7752C160.705 15.7274 160.627 15.6624 160.563 15.584C160.5 15.5056 160.453 15.4154 160.426 15.3186C160.398 15.2219 160.39 15.1206 160.402 15.0207C160.437 14.8192 160.548 14.6387 160.713 14.5174C160.878 14.3961 161.084 14.3434 161.287 14.3704C161.387 14.38 161.485 14.4095 161.574 14.4573C161.662 14.505 161.741 14.57 161.804 14.6485C161.867 14.7269 161.914 14.8171 161.941 14.9139C161.969 15.0106 161.977 15.1119 161.965 15.2117Z" fill="#1A2E35"/>
<path d="M163.186 14.6904C163.072 14.7782 162.56 14.2362 161.722 14.0917C160.884 13.9471 160.201 14.2568 160.128 14.1381C160.056 14.0194 160.221 13.9213 160.521 13.7716C160.93 13.5877 161.384 13.5318 161.825 13.6116C162.259 13.6869 162.658 13.8985 162.964 14.2156C163.186 14.4582 163.243 14.6543 163.186 14.6904Z" fill="#1A2E35"/>
<path d="M165.131 21.4162C165.597 21.3554 166.068 21.3554 166.534 21.4162C166.751 21.4162 166.958 21.4162 167.02 21.282C167.078 21.0656 167.067 20.8364 166.989 20.6264L166.647 18.8921C166.177 16.4299 165.876 14.4168 165.975 14.4013C166.073 14.3859 166.539 16.3628 167.009 18.8302C167.123 19.4341 167.227 20.0122 167.33 20.5697C167.419 20.849 167.406 21.1505 167.294 21.4214C167.249 21.4912 167.189 21.5502 167.118 21.5939C167.048 21.6377 166.968 21.6651 166.885 21.6743C166.762 21.6906 166.636 21.6906 166.513 21.6743C166.043 21.6455 165.579 21.5588 165.131 21.4162V21.4162Z" fill="#1A2E35"/>
<path d="M163.967 31.3939C161.094 30.9326 158.406 29.6813 156.206 27.7807C156.206 27.7807 157.443 32.2818 163.61 32.7825L163.967 31.3939Z" fill="#FF9A6C"/>
<path d="M164.422 23.3622C164.297 23.1359 164.117 22.9446 163.898 22.8058C163.679 22.6669 163.429 22.5849 163.17 22.5673C162.984 22.552 162.796 22.5743 162.618 22.6328C162.441 22.6913 162.276 22.7849 162.136 22.908C161.999 23.0278 161.902 23.1865 161.859 23.3628C161.815 23.5391 161.827 23.7244 161.892 23.8939C162 24.0644 162.155 24.1997 162.339 24.2832C162.523 24.3667 162.728 24.3946 162.927 24.3636C163.346 24.2907 163.746 24.1382 164.107 23.9145C164.213 23.8624 164.309 23.7926 164.391 23.708C164.43 23.6676 164.456 23.6164 164.465 23.5611C164.474 23.5059 164.467 23.4492 164.443 23.3983" fill="#FF9A6C"/>
<path d="M162.565 21.5607C162.705 21.5607 162.565 22.4796 163.212 23.259C163.859 24.0384 164.857 24.1107 164.842 24.2397C164.826 24.3688 164.599 24.3791 164.185 24.3172C163.658 24.2321 163.177 23.9676 162.824 23.5687C162.485 23.1755 162.313 22.6667 162.343 22.1492C162.363 21.7517 162.508 21.5453 162.565 21.5607Z" fill="#1A2E35"/>
<path d="M158.053 3.16929C159.673 6.73608 164.924 11.072 168.976 12.6102C168.608 11.8772 166.326 9.80734 165.959 9.07437C167.594 10.8449 169.959 13.2554 172.458 13.8542C172.747 13.9503 173.058 13.9593 173.353 13.88C173.516 13.7936 173.656 13.6709 173.764 13.5214C173.872 13.3719 173.943 13.1996 173.974 13.018C174.456 11.22 174.743 9.37506 174.827 7.51553C174.915 5.9468 174.397 4.40416 173.379 3.20542C171.997 1.65689 169.757 0.913584 167.573 0.454186C165.771 -0.00602985 163.894 -0.104284 162.053 0.165127C160.257 0.510967 158.581 1.54335 158.043 3.06091" fill="#1A2E35"/>
<path d="M148.389 16.5951C148.359 15.2168 148.411 13.8379 148.544 12.4657C148.953 9.31703 149.936 -2.12665 160.527 0.815568L159.399 3.74746C159.399 3.74746 160.211 11.1133 154.773 15.0724C154.773 15.0724 154.773 22.4228 151.032 25.076C151.032 25.076 148.409 20.0897 148.389 16.6106" fill="#1A2E35"/>
<path d="M155.001 14.5562C154.376 14.305 153.694 14.23 153.03 14.3394C152.699 14.3946 152.383 14.5142 152.099 14.6913C151.815 14.8684 151.568 15.0997 151.374 15.3718C151.011 15.9456 150.881 16.6363 151.012 17.3023C151.148 17.9619 151.427 18.5838 151.829 19.1244C152.091 19.5299 152.446 19.8678 152.864 20.1103C153.075 20.2294 153.311 20.2946 153.553 20.3C153.795 20.3054 154.035 20.2508 154.251 20.1413" fill="#FFBF9D"/>
<path d="M153.95 18.4069C154.023 18.443 153.671 18.7889 153.107 18.5256C152.807 18.3602 152.584 18.0841 152.486 17.7565C152.369 17.3918 152.323 17.008 152.352 16.6261C152.378 16.2187 152.546 15.8333 152.828 15.537C152.948 15.4108 153.095 15.3135 153.258 15.2527C153.421 15.1919 153.596 15.169 153.769 15.186C154.38 15.2789 154.494 15.7331 154.421 15.7331C154.349 15.7331 154.168 15.5163 153.754 15.5421C153.493 15.5915 153.258 15.7328 153.093 15.9403C152.928 16.1478 152.843 16.4077 152.854 16.6726C152.812 17.3488 152.957 18.0043 153.288 18.2211C153.619 18.4379 153.919 18.3501 153.95 18.4069Z" fill="#FF9A6C"/>
<path d="M216.302 15.0517C216.231 15.2075 216.135 15.3506 216.017 15.475C215.676 15.8336 215.237 16.0848 214.755 16.1976C213.993 16.3884 213.19 16.3323 212.462 16.0376C211.524 15.628 210.653 15.0818 209.875 14.4169C208.986 13.7458 207.992 12.9561 206.714 12.6773C206.056 12.5532 205.378 12.5815 204.733 12.7599C204.044 12.9643 203.376 13.2358 202.741 13.5703C202.078 13.9058 201.411 14.2775 200.671 14.6027C199.937 14.9594 199.142 15.1714 198.327 15.2273C197.471 15.2561 196.627 15.0101 195.921 14.5252C195.22 14.0186 194.608 13.3994 194.11 12.6928C193.076 11.3146 192.238 9.82285 190.97 8.84728C190.358 8.36614 189.627 8.05935 188.854 7.95947C188.108 7.87463 187.353 7.90949 186.619 8.06271C185.165 8.32596 183.809 8.78535 182.479 8.95569C181.241 9.10458 179.985 8.99561 178.79 8.63566C177.059 8.12263 175.511 7.1248 174.331 5.76054C173.894 5.27052 173.531 4.71923 173.254 4.12427L173.327 4.22751L173.534 4.54754C173.795 4.95165 174.087 5.33477 174.408 5.69344C175.603 7.00425 177.137 7.95997 178.842 8.45498C180.017 8.79829 181.25 8.89325 182.464 8.73373C183.768 8.5634 185.113 8.09882 186.603 7.81492C187.365 7.65661 188.148 7.62004 188.921 7.70654C189.738 7.8089 190.512 8.12995 191.161 8.63566C192.491 9.66802 193.329 11.1752 194.354 12.5276C194.833 13.2111 195.422 13.811 196.097 14.3033C196.76 14.7567 197.55 14.9881 198.353 14.964C199.133 14.9102 199.895 14.7087 200.599 14.3704C201.302 14.0555 201.97 13.689 202.668 13.338C203.329 12.9976 204.022 12.7244 204.738 12.5225C205.413 12.3392 206.121 12.3145 206.807 12.4502C208.006 12.8031 209.109 13.4205 210.036 14.2568C210.795 14.9208 211.647 15.4703 212.566 15.888C213.263 16.184 214.036 16.2544 214.775 16.0893C215.244 15.9886 215.676 15.7599 216.022 15.4285C216.208 15.2014 216.286 15.0466 216.302 15.0517Z" fill="#1A2E35"/>
<path d="M97.1303 117.591L87.7448 136.478L90.5439 136.581L82.5967 151.591H86.7721L80.2529 164.924H116.672L108.658 151.591L112.497 151.426L104.814 136.426L107.654 136.256L97.1303 117.591Z" fill="#375A64"/>
<path d="M98.7189 139.497C98.7913 139.497 98.7189 147.498 98.5895 157.362C98.4602 167.226 98.2687 175.222 98.1911 175.222C98.1135 175.222 98.1911 167.226 98.3205 157.357C98.4498 147.488 98.6671 139.497 98.7189 139.497Z" fill="#1A2E35"/>
<path d="M103.179 144.354C103.04 144.661 102.852 144.942 102.62 145.185C102.232 145.665 101.647 146.29 100.985 146.956C100.323 147.622 99.7224 148.215 99.3033 148.659C99.092 148.919 98.8545 149.156 98.5945 149.366C98.737 149.061 98.9274 148.781 99.1584 148.535C99.671 147.916 100.217 147.325 100.793 146.765C101.461 146.104 102.056 145.505 102.475 145.056C102.683 144.797 102.919 144.562 103.179 144.354V144.354Z" fill="#1A2E35"/>
<path d="M98.6308 149.557C97.8915 149.148 97.1978 148.662 96.5612 148.107C95.8643 147.62 95.2208 147.061 94.6416 146.44C95.379 146.854 96.0724 147.342 96.7112 147.895C97.4063 148.382 98.0496 148.939 98.6308 149.557V149.557Z" fill="#1A2E35"/>
<path d="M98.3772 158.807C97.566 158.233 96.7871 157.614 96.0438 156.954C95.2435 156.362 94.4782 155.725 93.7517 155.044C94.6383 155.509 95.4652 156.08 96.2145 156.743C97.0182 157.339 97.7446 158.033 98.3772 158.807V158.807Z" fill="#1A2E35"/>
<path d="M103.567 153.098C103.639 153.145 102.568 154.528 101.073 156.051C100.374 156.779 99.738 157.439 99.1844 158.023C98.9432 158.316 98.6727 158.584 98.3773 158.823C98.31 158.771 99.3811 157.393 100.876 155.865L102.765 153.898C103.007 153.608 103.275 153.34 103.567 153.098V153.098Z" fill="#1A2E35"/>
</g>
<defs>
<clipPath id="clip0_139_1524">
<rect width="310.612" height="176.383" fill="white" transform="translate(0.0415039)"/>
</clipPath>
</defs>
</svg>
