<svg width="25" height="26" viewBox="0 0 25 26" fill="none" xmlns="http://www.w3.org/2000/svg">
<g clip-path="url(#clip0_164_1438)">
<path d="M12.5 25.4083C19.4036 25.4083 25 19.8119 25 12.9083C25 6.00477 19.4036 0.408325 12.5 0.408325C5.59644 0.408325 0 6.00477 0 12.9083C0 19.8119 5.59644 25.4083 12.5 25.4083Z" fill="#00A58D"/>
<path d="M10.736 18.9083V11.0363H13.872V18.9083H10.736ZM12.304 10.3003C11.8453 10.3003 11.4613 10.1457 11.152 9.83632C10.8533 9.51632 10.704 9.12699 10.704 8.66832C10.704 8.20966 10.8533 7.82566 11.152 7.51632C11.4613 7.19632 11.8453 7.03632 12.304 7.03632C12.7733 7.03632 13.1573 7.19632 13.456 7.51632C13.7547 7.82566 13.904 8.20966 13.904 8.66832C13.904 9.12699 13.7547 9.51632 13.456 9.83632C13.1573 10.1457 12.7733 10.3003 12.304 10.3003Z" fill="white"/>
</g>
<defs>
<clipPath id="clip0_164_1438">
<rect width="25" height="25" fill="white" transform="translate(0 0.408325)"/>
</clipPath>
</defs>
</svg>
