<svg width="16" height="19" viewBox="0 0 16 19" fill="none" xmlns="http://www.w3.org/2000/svg">
<g clip-path="url(#clip0_2696_1914)">
<path d="M8.43262 0C12.5678 0 15.9326 3.21874 15.9326 7.1763C15.9326 12.7993 9.13769 18.6052 8.84863 18.849C8.61191 19.0501 8.2541 19.0505 8.01699 18.8497C7.72793 18.6052 0.933007 12.7993 0.933007 7.1763C0.932616 3.21874 4.29746 0 8.43262 0ZM8.43262 11.083C10.7303 11.083 12.5994 9.30741 12.5994 7.12472C12.5994 4.94203 10.7303 3.16642 8.43262 3.16642C6.13496 3.16642 4.26582 4.94203 4.26582 7.12472C4.26582 9.30741 6.13496 11.083 8.43262 11.083Z" fill="#00A78E"/>
</g>
<defs>
<clipPath id="clip0_2696_1914">
<rect width="15" height="19" fill="white" transform="matrix(-1 0 0 1 15.9326 0)"/>
</clipPath>
</defs>
</svg>
