<svg width="13" height="17" viewBox="0 0 13 17" fill="none" xmlns="http://www.w3.org/2000/svg">
<g clip-path="url(#clip0_1316_12653)">
<path d="M12.1081 7.30934H11.1584V5.58774C11.1511 4.75951 10.9258 3.94772 10.5052 3.2336C10.0845 2.51947 9.4832 1.92806 8.7614 1.51852C8.03961 1.10898 7.22264 0.89568 6.39224 0.899966C5.56184 0.904252 4.74713 1.12597 4.02962 1.54293C3.35196 1.90631 2.78616 2.44669 2.39281 3.10622C1.99947 3.76574 1.79339 4.51957 1.79665 5.28696V7.30934H0.879077C0.641934 7.30933 0.414412 7.40288 0.246127 7.56954C0.0778424 7.73619 -0.0175475 7.96243 -0.0192413 8.19895V15.5205C-0.0173476 15.6392 -0.00228392 15.7572 0.0256746 15.8725C0.105027 16.1776 0.283399 16.4479 0.532962 16.6413C0.782525 16.8346 1.08924 16.9401 1.40524 16.9413H11.5563C11.8726 16.9412 12.1798 16.8361 12.4296 16.6426C12.6794 16.4491 12.8575 16.1782 12.9358 15.8725C12.978 15.7594 13.0039 15.6409 13.0128 15.5205V8.19895C13.0129 8.08104 12.9894 7.96432 12.9437 7.85555C12.8981 7.74678 12.8313 7.64813 12.7471 7.56536C12.6629 7.48258 12.5631 7.41731 12.4534 7.37336C12.3437 7.32942 12.2263 7.30764 12.1081 7.30934ZM7.09675 12.1989V13.3254H5.90326V12.1989C5.76557 12.1128 5.64732 11.999 5.55599 11.8649C5.46466 11.7308 5.40224 11.5792 5.37268 11.4198C5.34313 11.2604 5.34708 11.0966 5.38429 10.9388C5.4215 10.7809 5.49116 10.6325 5.58885 10.5029C5.63645 10.4342 5.69496 10.3737 5.7621 10.3238C5.93441 10.1915 6.14034 10.1098 6.35667 10.0879C6.57301 10.0661 6.79116 10.1049 6.98658 10.2C7.18199 10.2952 7.34689 10.4428 7.46272 10.6264C7.57854 10.8099 7.64069 11.0221 7.64216 11.2389C7.64465 11.4328 7.59546 11.6239 7.49963 11.7925C7.4038 11.9612 7.26476 12.1015 7.09675 12.1989ZM9.11156 7.30934H3.86921V5.28055C3.86793 4.91605 3.95901 4.55711 4.13401 4.23711C4.30901 3.91711 4.56224 3.64643 4.87019 3.45016C5.24649 3.17618 5.68785 3.00469 6.1508 2.95258C6.61375 2.90047 7.08232 2.96954 7.51037 3.15297C7.93842 3.33641 8.31119 3.62789 8.59195 3.99872C8.87271 4.36954 9.0518 4.80689 9.11156 5.26774V7.30934Z" fill="#00A78E"/>
</g>
<defs>
<clipPath id="clip0_1316_12653">
<rect width="13" height="16" fill="white" transform="translate(0 0.90918)"/>
</clipPath>
</defs>
</svg>
