<svg width="18" height="19" viewBox="0 0 18 19" fill="none" xmlns="http://www.w3.org/2000/svg">
<path d="M16 18.2526H2C1.46957 18.2526 0.960859 18.0418 0.585786 17.6668C0.210714 17.2917 0 16.783 0 16.2526V12.2526H2V16.2526H16V2.25256H2V6.25256H0V2.25256C0 1.72213 0.210714 1.21342 0.585786 0.83835C0.960859 0.463277 1.46957 0.252563 2 0.252563H16C16.5304 0.252563 17.0391 0.463277 17.4142 0.83835C17.7893 1.21342 18 1.72213 18 2.25256V16.2526C18 16.783 17.7893 17.2917 17.4142 17.6668C17.0391 18.0418 16.5304 18.2526 16 18.2526ZM8 13.2526V10.2526H0V8.25256H8V5.25256L13 9.25256L8 13.2526Z" fill="#00A78E"/>
</svg>
