<svg width="14" height="16" viewBox="0 0 14 16" fill="none" xmlns="http://www.w3.org/2000/svg">
<path d="M13.9968 8.61959V8.6416C13.9968 9.67003 13.7921 10.6478 13.4238 11.5321L13.4409 11.4861C12.3529 14.1612 9.87943 16 6.99844 16C4.11745 16 1.64397 14.1606 0.573708 11.5341L0.556018 11.4861C0.186247 10.5888 -0.0030725 9.62017 3.77088e-05 8.6416V8.61826V8.59558C3.77088e-05 6.19792 1.09241 4.07036 2.77994 2.73581L2.79826 2.72247C2.92129 2.62161 3.06251 2.54829 3.21329 2.50701C3.36407 2.46573 3.52124 2.45734 3.67519 2.48237L3.66888 2.4817C3.98541 2.52105 4.25581 2.70046 4.42703 2.95857L4.42956 2.9619C4.52503 3.08936 4.59414 3.23651 4.63245 3.39389C4.67075 3.55126 4.67739 3.71536 4.65195 3.87561L4.65258 3.86895C4.63342 4.02889 4.58386 4.1831 4.50689 4.32234C4.42992 4.46158 4.32712 4.58298 4.20464 4.67928L4.20148 4.68128C3.61913 5.14049 3.14634 5.73682 2.8207 6.42283C2.49505 7.10884 2.32555 7.86561 2.32568 8.63293C2.32579 9.47352 2.52936 10.3001 2.91708 11.0344C3.30479 11.7686 3.8638 12.386 4.54105 12.8281C5.2183 13.2703 5.99134 13.5224 6.7868 13.5606C7.58227 13.5987 8.37379 13.4217 9.08625 13.0463C9.79871 12.6709 10.4085 12.1095 10.8577 11.4155C11.307 10.7214 11.5808 9.91773 11.6531 9.08062C11.7255 8.24351 11.594 7.40076 11.2712 6.63234C10.9484 5.86392 10.445 5.19531 9.80867 4.68995L9.79666 4.68062C9.67435 4.58481 9.57147 4.46409 9.49409 4.32559C9.41672 4.1871 9.36643 4.03364 9.34619 3.87428L9.34556 3.86828C9.32114 3.70857 9.32853 3.54525 9.36726 3.38873C9.40599 3.23221 9.4752 3.08593 9.57048 2.95923L9.56859 2.9619C9.656 2.82983 9.76893 2.71882 9.89993 2.63616C10.0309 2.55351 10.177 2.50109 10.3286 2.48237L10.3337 2.4817C10.4865 2.45695 10.6425 2.46573 10.792 2.5075C10.9415 2.54928 11.0812 2.62313 11.2024 2.72447L11.1999 2.72247C12.907 4.07036 14 6.19925 14 8.59758V8.62026V8.61892L13.9968 8.61959ZM8.16537 1.23185V7.41309C8.16537 7.73962 8.04249 8.05277 7.82377 8.28366C7.60504 8.51456 7.30839 8.64427 6.99907 8.64427C6.68975 8.64427 6.3931 8.51456 6.17438 8.28366C5.95565 8.05277 5.83278 7.73962 5.83278 7.41309V7.38641V7.38775V1.23185V1.22118C5.83278 0.885035 5.96545 0.581576 6.17837 0.366153L6.179 0.365486C6.38686 0.140058 6.67749 0 6.99907 0C7.32066 0 7.61128 0.140058 7.81914 0.365486C8.03269 0.581576 8.16537 0.884369 8.16537 1.22051V1.23185V1.23118V1.23185Z" fill="white"/>
</svg>
