<svg width="63" height="59" viewBox="0 0 63 59" fill="none" xmlns="http://www.w3.org/2000/svg">
<g clip-path="url(#clip0_30_57)">
<path d="M6.99866 24.1313L15.3987 18.4713V30.9233L35.0014 46.7673L54.6 30.9233V18.4713L63.0122 24.1313V58.0833H6.99866V24.1313Z" fill="#A6DB78"/>
<path d="M57.3986 53.8393H1.40136C1.0297 53.8393 0.673249 53.6901 0.410443 53.4246C0.147638 53.159 1.1083e-06 52.7988 1.1083e-06 52.4233V18.4713C-0.000289236 18.2383 0.0564713 18.0089 0.165222 17.8035C0.273973 17.598 0.431335 17.423 0.623279 17.294L9.02328 11.638C9.2336 11.4943 9.47897 11.4118 9.73258 11.3994C9.98619 11.3871 10.2383 11.4454 10.4613 11.5681C10.6833 11.6872 10.8691 11.865 10.9989 12.0825C11.1288 12.3 11.1978 12.549 11.1986 12.803V24.5676L29.4 39.2796L47.6014 24.5676V12.7989C47.6022 12.5449 47.6712 12.2959 47.8011 12.0784C47.9309 11.8609 48.1167 11.6831 48.3387 11.5639C48.5617 11.4413 48.8138 11.383 49.0674 11.3953C49.321 11.4076 49.5664 11.4902 49.7767 11.6339L58.1767 17.2899C58.3687 17.4189 58.526 17.5939 58.6348 17.7993C58.7435 18.0048 58.8003 18.2342 58.8 18.4671V52.4192C58.8005 52.6055 58.7647 52.79 58.6945 52.9623C58.6243 53.1346 58.5212 53.2912 58.391 53.4231C58.2608 53.555 58.1061 53.6597 57.9359 53.7311C57.7656 53.8026 57.583 53.8393 57.3986 53.8393ZM2.81086 51.0114H56.0136V19.2163L50.3837 15.4581V25.2633C50.384 25.4753 50.3368 25.6846 50.2458 25.8757C50.1548 26.0667 50.0223 26.2345 49.8582 26.3665L30.2596 42.2105C30.0113 42.4123 29.7023 42.5223 29.3837 42.5223C29.0651 42.5223 28.7561 42.4123 28.5078 42.2105L8.90921 26.3665C8.74507 26.2345 8.61255 26.0667 8.52156 25.8757C8.43056 25.6846 8.38344 25.4753 8.3837 25.2633V15.4581L2.79864 19.2163L2.81086 51.0114Z" fill="#00A58D"/>
<path d="M54.6001 7.15529H15.3987V30.9233L35.0014 46.7673L54.6001 30.9233V7.15529Z" fill="#C9EDA8"/>
<path d="M29.4 42.5233C29.0815 42.5221 28.7728 42.4118 28.5242 42.2105L8.92554 26.3665C8.76139 26.2345 8.62888 26.0667 8.53788 25.8757C8.44689 25.6846 8.39976 25.4753 8.40003 25.2633V1.51582C8.40002 1.33006 8.4363 1.14613 8.50678 0.974554C8.57725 0.802983 8.68053 0.647145 8.81072 0.515982C8.9409 0.384819 9.09542 0.280905 9.26542 0.210192C9.43541 0.139479 9.61755 0.103362 9.80138 0.103903H48.9987C49.3671 0.10716 49.7194 0.257351 49.9788 0.521786C50.2382 0.786221 50.3837 1.14349 50.3837 1.51582V25.2839C50.384 25.4959 50.3369 25.7052 50.2459 25.8962C50.1549 26.0873 50.0224 26.2551 49.8582 26.3871L30.2596 42.2311C30.0128 42.4215 29.7106 42.5243 29.4 42.5233ZM11.1987 24.5676L29.4 39.2796L47.6014 24.5676V2.89482H11.1987V24.5676Z" fill="#00A58D"/>
<path d="M29.4 42.5233C29.0814 42.5221 28.7727 42.4118 28.5241 42.2105L0.525482 19.5703C0.235706 19.3359 0.0498013 18.9949 0.00855936 18.6222C-0.0326825 18.2494 0.0741169 17.8754 0.30551 17.5821C0.537475 17.2893 0.874928 17.1014 1.24381 17.0598C1.6127 17.0181 1.98288 17.126 2.27311 17.3598L29.4 39.2879L56.5268 17.3598C56.6703 17.2435 56.8351 17.157 57.0118 17.1052C57.1885 17.0534 57.3735 17.0374 57.5563 17.0581C57.7391 17.0787 57.9161 17.1356 58.0771 17.2256C58.2381 17.3155 58.3799 17.4367 58.4944 17.5821C58.7258 17.8754 58.8326 18.2494 58.7914 18.6222C58.7501 18.9949 58.5642 19.3359 58.2745 19.5703L30.2758 42.2105C30.0273 42.4118 29.7185 42.5221 29.4 42.5233Z" fill="#00A58D"/>
</g>
<defs>
<clipPath id="clip0_30_57">
<rect width="63" height="58" fill="white" transform="translate(0 0.083313)"/>
</clipPath>
</defs>
</svg>
