<svg width="25" height="26" viewBox="0 0 25 26" fill="none" xmlns="http://www.w3.org/2000/svg">
<g clip-path="url(#clip0_164_1433)">
<path d="M12.5 25.2623C19.4036 25.2623 25 19.6659 25 12.7623C25 5.85877 19.4036 0.262329 12.5 0.262329C5.59644 0.262329 0 5.85877 0 12.7623C0 19.6659 5.59644 25.2623 12.5 25.2623Z" fill="#00A58D"/>
<path d="M12.7715 20.7917C13.197 20.7902 13.6048 20.6162 13.9057 20.3076C14.2066 19.999 14.3763 19.5808 14.3777 19.1444H11.1653C11.1667 19.5808 11.3364 19.999 11.6373 20.3076C11.9382 20.6162 12.3459 20.7902 12.7715 20.7917ZM17.5884 15.8515V11.7341C17.5884 9.20671 16.2796 7.09161 13.9829 6.5314V5.97674C13.9832 5.81448 13.9522 5.65377 13.8917 5.50382C13.8313 5.35387 13.7426 5.21762 13.6307 5.10289C13.5189 4.98816 13.386 4.8972 13.2398 4.83522C13.0936 4.77324 12.9369 4.74146 12.7787 4.7417C12.6205 4.74146 12.4638 4.77324 12.3176 4.83522C12.1714 4.8972 12.0385 4.98816 11.9267 5.10289C11.8148 5.21762 11.7261 5.35387 11.6657 5.50382C11.6052 5.65377 11.5742 5.81448 11.5745 5.97674V6.5314C9.2778 7.08606 7.96902 9.19931 7.96902 11.7341V15.8515L6.36279 17.4989V18.3216H19.2072V17.4989L17.5884 15.8515Z" fill="white"/>
</g>
<defs>
<clipPath id="clip0_164_1433">
<rect width="25" height="25" fill="white" transform="translate(0 0.262329)"/>
</clipPath>
</defs>
</svg>
