<svg width="14" height="16" viewBox="0 0 14 16" fill="none" xmlns="http://www.w3.org/2000/svg">
<path d="M6.90909 16L0 12V4L6.90909 0L13.8182 4V12L6.90909 16ZM6.90909 1.68145L1.45455 4.83855V11.1615L6.90909 14.3193L12.3636 11.1615V4.83855L6.90909 1.68073V1.68145V1.68145ZM6.90909 10.9091C6.23605 10.9092 5.58378 10.676 5.06342 10.2491C4.54307 9.82227 4.18682 9.22818 4.05539 8.5681C3.92395 7.90802 4.02546 7.22278 4.34262 6.62915C4.65978 6.03552 5.17296 5.57023 5.79472 5.31255C6.41648 5.05488 7.10835 5.02077 7.75245 5.21603C8.39654 5.41129 8.95301 5.82384 9.32702 6.38339C9.70104 6.94294 9.86946 7.61487 9.8036 8.28468C9.73773 8.95449 9.44166 9.58074 8.96582 10.0567C8.41917 10.6005 7.68014 10.9068 6.90909 10.9091V10.9091ZM6.90909 6.54545C6.71808 6.54541 6.52892 6.58298 6.35243 6.65604C6.17594 6.72909 6.01557 6.83619 5.88047 6.97122C5.74536 7.10626 5.63818 7.26658 5.56504 7.44303C5.4919 7.61949 5.45423 7.80862 5.45418 7.99964C5.45413 8.19065 5.49171 8.3798 5.56476 8.55629C5.63782 8.73279 5.74492 8.89316 5.87995 9.02826C6.01498 9.16336 6.17531 9.27054 6.35176 9.34369C6.52822 9.41683 6.71735 9.4545 6.90836 9.45455C7.29413 9.45464 7.66414 9.30149 7.93699 9.02878C8.20984 8.75606 8.36318 8.38613 8.36327 8.00036C8.36337 7.61459 8.21022 7.24459 7.9375 6.97174C7.66479 6.69889 7.29486 6.54555 6.90909 6.54545V6.54545Z" fill="white"/>
</svg>
