<svg width="23" height="26" viewBox="0 0 23 26" fill="none" xmlns="http://www.w3.org/2000/svg">
<path d="M11.5 26L0 19.5V6.5L11.5 0L23 6.5V19.5L11.5 26ZM11.5 2.73236L2.42105 7.86264V18.1374L11.5 23.2688L20.5789 18.1374V7.86264L11.5 2.73118V2.73236ZM11.5 17.7273C10.3797 17.7275 9.29406 17.3485 8.42794 16.6548C7.56182 15.9612 6.96886 14.9958 6.75009 13.9232C6.53132 12.8505 6.70028 11.737 7.22818 10.7724C7.75608 9.80772 8.61025 9.05162 9.64516 8.6329C10.6801 8.21418 11.8317 8.15874 12.9037 8.47604C13.9758 8.79334 14.902 9.46374 15.5246 10.373C16.1471 11.2823 16.4275 12.3742 16.3178 13.4626C16.2082 14.551 15.7154 15.5687 14.9234 16.3422C14.0135 17.2258 12.7834 17.7235 11.5 17.7273ZM11.5 10.6364C11.1821 10.6363 10.8672 10.6973 10.5735 10.8161C10.2797 10.9348 10.0128 11.1088 9.78788 11.3282C9.56301 11.5477 9.38461 11.8082 9.26287 12.0949C9.14112 12.3817 9.07842 12.689 9.07834 12.9994C9.07826 13.3098 9.14081 13.6172 9.2624 13.904C9.384 14.1908 9.56227 14.4514 9.78702 14.6709C10.0118 14.8905 10.2786 15.0646 10.5723 15.1835C10.866 15.3023 11.1809 15.3636 11.4988 15.3636C12.1409 15.3638 12.7568 15.1149 13.2109 14.6718C13.6651 14.2286 13.9203 13.6275 13.9204 13.0006C13.9206 12.3737 13.6657 11.7725 13.2118 11.3291C12.7578 10.8857 12.1421 10.6365 11.5 10.6364Z" fill="white"/>
</svg>
