<svg width="34" height="22" viewBox="0 0 34 22" fill="none" xmlns="http://www.w3.org/2000/svg">
<g clip-path="url(#clip0_932_1265)">
<path d="M34.0001 11.2002C33.8365 11.4775 33.702 11.7784 33.5053 12.0279C31.1088 15.074 28.332 17.6887 24.99 19.6424C22.7901 20.9287 20.4442 21.7935 17.8908 21.9688C15.8072 22.1121 13.7925 21.7539 11.845 21.0029C8.9064 19.8692 6.38284 18.0764 4.07677 15.9422C2.72451 14.6914 1.48846 13.3293 0.36365 11.8644C-0.119479 11.2356 -0.121969 10.7568 0.36448 10.1306C2.77681 7.02286 5.58427 4.35936 8.97364 2.37353C11.635 0.814207 14.4765 -0.126446 17.5928 0.0134719C19.7336 0.10956 21.7525 0.696204 23.6684 1.65119C27.692 3.65724 30.9112 6.64188 33.668 10.1794C33.8091 10.3607 33.8905 10.5882 34.0001 10.7947C34.0001 10.9304 34.0001 11.0653 34.0001 11.2002ZM2.53275 11.0206C3.19186 11.743 3.81113 12.4603 4.47108 13.1379C6.65595 15.3834 9.07077 17.3127 11.9463 18.5787C13.3849 19.2117 14.8816 19.6281 16.4597 19.7048C18.8612 19.8211 21.0726 19.1452 23.1761 18.0444C25.5494 16.8036 27.6032 15.1238 29.4701 13.2037C30.1516 12.5024 30.7916 11.7598 31.464 11.0206C31.3404 10.8714 31.2557 10.756 31.1577 10.6531C30.1159 9.56835 29.1206 8.43131 28.0174 7.41395C25.957 5.51326 23.6684 3.95983 21.0187 3.00654C18.3424 2.04313 15.671 2.04228 12.9947 2.99727C10.6912 3.81992 8.6665 5.12469 6.79126 6.68739C5.24724 7.97447 3.85596 9.41495 2.53275 11.0206Z" fill="#7DBA47"/>
<path d="M17.0208 4.17649C20.7447 4.19672 23.753 7.27913 23.7173 11.0358C23.6816 14.8111 20.6725 17.8396 16.9784 17.8185C13.2537 17.7974 10.2462 14.7167 10.2819 10.9591C10.3175 7.18304 13.3242 4.15626 17.0208 4.17649ZM21.4768 11.0131C21.4934 8.51479 19.5086 6.47924 17.0224 6.44721C14.5644 6.41518 12.5157 8.48529 12.5174 10.9988C12.519 13.503 14.5196 15.5368 16.9917 15.5478C19.4522 15.5587 21.4602 13.5282 21.4768 11.0131Z" fill="#7DBA47"/>
</g>
<defs>
<clipPath id="clip0_932_1265">
<rect width="34" height="22" fill="white"/>
</clipPath>
</defs>
</svg>
