<svg width="14" height="14" viewBox="0 0 14 14" fill="none" xmlns="http://www.w3.org/2000/svg">
<path fill-rule="evenodd" clip-rule="evenodd" d="M5.05556 8.74611C2.72728 9.1525 0 10.1901 0 11.6667V14H14V11.6667C14 10.1901 11.2727 9.1525 8.94444 8.74611V10.5H5.05556V8.74611ZM2.72222 14V10.5H3.5V14H2.72222ZM10.8889 10.5V14H11.6667V10.5H10.8889ZM7.38889 0.0225556V1.74222C7.38889 1.84536 7.34792 1.94428 7.27499 2.01721C7.20206 2.09014 7.10314 2.13111 7 2.13111C6.89686 2.13111 6.79794 2.09014 6.72501 2.01721C6.65208 1.94428 6.61111 1.84536 6.61111 1.74222V0C6.20962 0.0212207 5.81486 0.112014 5.44444 0.268333V2.52C5.44444 2.62314 5.40347 2.72206 5.33054 2.79499C5.25761 2.86792 5.1587 2.90889 5.05556 2.90889C4.95242 2.90889 4.8535 2.86792 4.78057 2.79499C4.70764 2.72206 4.66667 2.62314 4.66667 2.52V0.7525C4.13389 1.21061 3.82667 1.80483 3.72906 2.32556C3.72571 2.34366 3.7226 2.36181 3.71972 2.38L3.71194 2.38778C3.67733 2.63239 3.69639 2.83383 3.74617 2.97228C3.77805 3.06861 3.77102 3.17359 3.72657 3.26481C3.68212 3.35603 3.60378 3.42627 3.50826 3.46052C3.41275 3.49478 3.30763 3.49035 3.21533 3.44817C3.12304 3.406 3.05089 3.32942 3.01428 3.23478C3.00769 3.21676 3.00146 3.19861 2.99561 3.18033C0.737333 6.12889 13.2751 6.12733 11.0005 3.17528C10.9946 3.19431 10.9884 3.21324 10.9818 3.23206C10.946 3.32703 10.8744 3.40423 10.7824 3.44714C10.6904 3.49006 10.5853 3.49529 10.4894 3.46173C10.3936 3.42817 10.3147 3.35847 10.2696 3.26752C10.2245 3.17657 10.2168 3.07159 10.248 2.975C10.304 2.814 10.3203 2.61333 10.29 2.39167C10.2877 2.38996 10.2854 2.38827 10.283 2.38661C10.199 1.86083 9.87933 1.27944 9.33333 0.821334V2.52C9.33333 2.62314 9.29236 2.72206 9.21943 2.79499C9.1465 2.86792 9.04758 2.90889 8.94444 2.90889C8.8413 2.90889 8.74239 2.86792 8.66946 2.79499C8.59653 2.72206 8.55556 2.62314 8.55556 2.52V0.335222C8.40371 0.267013 8.24741 0.209194 8.08772 0.162167C7.85922 0.0955736 7.62541 0.0487348 7.38889 0.0221667V0.0225556Z" fill="white"/>
</svg>
