<svg width="29" height="30" viewBox="0 0 29 30" fill="none" xmlns="http://www.w3.org/2000/svg">
<path d="M24.915 16.404C24.969 15.954 25.005 15.486 25.005 15C25.005 14.514 24.969 14.046 24.897 13.596L27.939 11.22C28.209 11.004 28.281 10.608 28.119 10.302L25.239 5.31601C25.059 4.99201 24.681 4.88401 24.357 4.99201L20.775 6.43201C20.019 5.85601 19.227 5.38801 18.345 5.02801L17.805 1.21201C17.751 0.852006 17.445 0.600006 17.085 0.600006H11.325C10.965 0.600006 10.677 0.852006 10.623 1.21201L10.083 5.02801C9.20099 5.38801 8.391 5.87401 7.65299 6.43201L4.07099 4.99201C3.74699 4.86601 3.36899 4.99201 3.18899 5.31601L0.308994 10.302C0.128994 10.626 0.200994 11.004 0.488994 11.22L3.53099 13.596C3.45899 14.046 3.40499 14.532 3.40499 15C3.40499 15.468 3.44099 15.954 3.51299 16.404L0.470994 18.78C0.200994 18.996 0.128994 19.392 0.290994 19.698L3.17099 24.684C3.35099 25.008 3.72899 25.116 4.05299 25.008L7.63499 23.568C8.39099 24.144 9.18299 24.612 10.065 24.972L10.605 28.788C10.677 29.148 10.965 29.4 11.325 29.4H17.085C17.445 29.4 17.751 29.148 17.787 28.788L18.327 24.972C19.209 24.612 20.019 24.126 20.757 23.568L24.339 25.008C24.663 25.134 25.041 25.008 25.221 24.684L28.101 19.698C28.281 19.374 28.209 18.996 27.921 18.78L24.915 16.404ZM14.205 20.4C11.235 20.4 8.80499 17.97 8.80499 15C8.80499 12.03 11.235 9.60001 14.205 9.60001C17.175 9.60001 19.605 12.03 19.605 15C19.605 17.97 17.175 20.4 14.205 20.4Z" fill="#00A78E"/>
</svg>
