<svg width="18" height="15" viewBox="0 0 18 15" fill="none" xmlns="http://www.w3.org/2000/svg">
<path d="M0.976844 5.32872C0.976847 4.97913 1.07456 4.70413 1.26577 4.5164C1.45691 4.32875 1.73786 4.23184 2.09712 4.23093L2.09716 4.23093H2.09744C4.12575 4.22914 6.15411 4.22734 8.18249 4.23453L8.18259 4.23453C8.29768 4.23541 8.39538 4.22215 8.48432 4.18873C8.57311 4.15537 8.65452 4.10141 8.73631 4.01908L8.73641 4.01897C9.44408 3.31516 10.1598 2.62029 10.8753 1.92565C11.066 1.74048 11.2568 1.55532 11.4473 1.37002C11.714 1.11016 11.99 0.976637 12.2679 0.975015C12.5459 0.973393 12.8206 1.10376 13.0846 1.36104C14.2629 2.50752 15.4413 3.65581 16.6159 4.8023C16.8888 5.06821 17.0274 5.3367 17.025 5.60928C17.0226 5.88175 16.8794 6.15187 16.603 6.42124C16.4298 6.59024 16.2567 6.7593 16.0836 6.92835C15.1322 7.8575 14.1808 8.78663 13.2228 9.70804L13.2227 9.70813C13.1427 9.78439 13.0892 9.85971 13.056 9.94157L0.976844 5.32872ZM0.976844 5.32872C0.975 7.84271 0.975 10.3567 0.975 12.8725V12.8725C0.975 13.2477 1.07341 13.5364 1.27151 13.7313C1.46953 13.9261 1.76313 14.0233 2.14507 14.0242H2.14513H6.70166C7.20444 14.0242 7.70723 14.0244 8.21003 14.0246C9.21564 14.025 10.2213 14.0254 11.2269 14.0242C11.7598 14.0233 12.2071 13.8484 12.5215 13.5432C12.8359 13.2379 13.0156 12.8039 13.0166 12.2885V12.2885C13.0166 12.1046 13.0171 11.9206 13.0176 11.7366C13.0191 11.2307 13.0205 10.7247 13.011 10.2197L0.976844 5.32872ZM1.67491 6.45365H1.69991C1.69991 6.39753 1.70292 6.35541 1.71045 6.32349C1.71787 6.29203 1.72926 6.27225 1.74493 6.25875C1.7609 6.24499 1.78408 6.23536 1.81966 6.22968C1.85534 6.22398 1.90111 6.22258 1.96035 6.22347L1.96044 6.22347C3.12372 6.23695 4.28707 6.23527 5.45022 6.23359C5.82955 6.23304 6.20887 6.23249 6.58815 6.23246V6.23426H6.61315C7.12341 6.23426 7.63346 6.23406 8.14343 6.23386C9.16316 6.23346 10.1826 6.23306 11.2029 6.23426H11.2029C11.5565 6.23426 11.826 6.32659 12.0073 6.50023C12.1885 6.67372 12.2852 6.93189 12.2861 7.27135C12.288 8.94611 12.288 10.6191 12.2843 12.292V12.2921C12.2843 12.614 12.1868 12.8671 12.0099 13.0397C11.8329 13.2124 11.5734 13.3075 11.2434 13.3075H11.2434C8.21559 13.3093 5.18589 13.3093 2.15804 13.3093C2.05845 13.3093 1.98063 13.3046 1.91964 13.292C1.85888 13.2795 1.81667 13.2596 1.78654 13.2305C1.75649 13.2015 1.73604 13.1611 1.7232 13.103C1.71029 13.0446 1.70544 12.9699 1.70544 12.8743C1.70544 12.3987 1.70562 11.9231 1.7058 11.4475C1.70644 9.7829 1.70708 8.11821 1.69991 6.45354L1.67491 6.45365ZM1.67491 6.45365C1.67491 6.22723 1.72285 6.19488 1.96073 6.19848L2.15804 13.3343C1.75789 13.3343 1.68044 13.2588 1.68044 12.8743C1.68044 12.3987 1.68062 11.9231 1.6808 11.4475C1.68144 9.78287 1.68208 8.11826 1.67491 6.45365ZM12.9934 8.71606L13.0184 8.7158C13.0163 8.51131 13.0177 8.30624 13.0191 8.10091C13.0213 7.76851 13.0236 7.43546 13.011 7.10322C12.9889 6.48836 12.6575 6.04407 12.147 5.72063C12.1661 5.69968 12.185 5.67872 12.2038 5.65785C12.26 5.59539 12.3154 5.53378 12.3747 5.47602L12.3748 5.4759C13.0166 4.84155 13.6602 4.2072 14.3039 3.5746C14.7953 3.99411 15.2502 4.44967 15.706 4.90618C15.8739 5.0744 16.042 5.24274 16.2121 5.40946C16.2827 5.47913 16.3065 5.55416 16.2964 5.62861C16.2861 5.70433 16.2402 5.78308 16.1642 5.85711C15.5369 6.46629 14.9102 7.07678 14.283 7.68777C13.8695 8.09064 13.4557 8.49373 13.0414 8.8968C13.0284 8.88783 13.0205 8.87858 13.0155 8.86964C13.0087 8.85749 13.0061 8.84371 13.0062 8.82762C13.0063 8.81118 13.0092 8.79398 13.0124 8.77473L13.0124 8.77452L13.0124 8.77433C13.0155 8.75599 13.0189 8.73522 13.0184 8.71538L12.9934 8.71606ZM12.9934 8.71606C12.9939 8.7335 12.9907 8.75235 12.9875 8.77166C12.9782 8.82791 12.9682 8.88796 13.045 8.9281L12.986 7.10416C12.9986 7.43602 12.9963 7.76789 12.9941 8.09976C12.9927 8.30519 12.9913 8.51062 12.9934 8.71606ZM11.8934 1.92519L11.8934 1.92517C11.9814 1.83943 12.0515 1.7763 12.1126 1.7345C12.1735 1.69281 12.2232 1.67389 12.2705 1.6735C12.3178 1.67311 12.3668 1.69114 12.4264 1.73182C12.4862 1.77266 12.5545 1.83481 12.6402 1.91964C12.664 1.94324 12.6893 1.96533 12.7143 1.9868L12.72 1.99175C12.7431 2.01167 12.7657 2.03113 12.7871 2.05158C12.8294 2.09198 12.8656 2.1349 12.8883 2.18822C11.7332 3.27667 10.5981 4.38464 9.47941 5.50859H8.23271C8.25223 5.48754 8.27043 5.46765 8.28778 5.44868C8.33195 5.4004 8.37066 5.35808 8.41191 5.31789C8.79848 4.94117 9.18505 4.56426 9.57169 4.18728C10.3451 3.43315 11.1188 2.67878 11.8934 1.92519ZM2.12669 4.94582H2.12671C3.94673 4.94402 5.7649 4.94402 7.58307 4.94582H7.5831C7.59757 4.94582 7.61114 4.94484 7.62412 4.94391C7.6654 4.94094 7.70063 4.9384 7.73949 4.9691C7.59525 5.12605 7.46182 5.26982 7.29967 5.37396C7.13227 5.48148 6.93353 5.54706 6.66014 5.53736L6.66012 5.53736C5.57185 5.49944 4.48238 5.50717 3.39397 5.51489C2.9861 5.51779 2.57837 5.52068 2.17091 5.52117C2.15797 5.52117 2.14513 5.52125 2.13241 5.52133C1.99783 5.52219 1.87567 5.52297 1.7794 5.42621C1.63105 5.27327 1.7066 5.01069 1.91687 4.95768C1.9714 4.94479 2.03088 4.94521 2.09255 4.94566C2.10386 4.94574 2.11525 4.94582 2.12669 4.94582Z" fill="white" stroke="white" stroke-width="0.05"/>
</svg>
