<svg width="71" height="71" viewBox="0 0 71 71" fill="none" xmlns="http://www.w3.org/2000/svg">
<path d="M48.0439 70.9974C35.7209 71.2375 24.9994 60.6305 25.1679 47.9839C25.3363 35.3373 35.4062 25.3513 48.1903 25.2327C60.5823 25.1305 71.1933 35.7678 70.9973 48.3372C70.9397 54.3785 68.4939 60.1518 64.1936 64.3971C59.8934 68.6424 54.0878 71.0151 48.0439 70.9974ZM47.9694 62.5184C50.0513 62.5184 50.112 62.5184 50.0319 60.418C49.9795 58.9579 50.2086 57.934 51.6389 57.0204C53.8147 55.6403 54.5188 53.3909 53.9169 50.8627C53.3287 48.3924 51.7328 46.8909 49.2229 46.3803C48.6707 46.2699 48.1185 46.2395 47.5938 46.1043C47.1354 46.0238 46.7189 45.7876 46.4145 45.4355C46.1102 45.0835 45.9367 44.6373 45.9234 44.1723C45.846 43.2035 46.2271 42.4417 47.1189 42.0387C48.0108 41.6358 49.1622 41.633 49.604 42.5052C50.4544 44.1778 51.846 43.7224 53.1548 43.7886C53.95 43.83 54.0798 43.4381 53.95 42.7563C53.6269 41.0755 52.7489 39.7368 51.2689 38.9364C50.2556 38.3844 49.9215 37.6861 50.0292 36.6124C50.0623 36.0158 50.0623 35.4178 50.0292 34.8211C50.0292 34.5065 50.1037 34.0649 49.7807 33.9434C48.7311 33.5976 47.6032 33.5669 46.5363 33.8551C45.7908 34.0235 46.0697 34.8846 46.1139 35.4228C46.2519 37.1175 45.9344 38.3485 44.2915 39.4111C42.1765 40.7912 41.6243 43.0793 42.2538 45.5219C42.8557 47.8625 44.402 49.317 46.7738 49.847C47.3122 49.9684 47.8644 50.0236 48.4056 50.123C49.4245 50.3106 50.0623 50.9123 50.1948 51.9446C50.3384 53.021 49.9187 53.8767 48.8916 54.2686C47.8644 54.6605 46.9063 54.4066 46.2188 53.4406C45.6307 52.6291 43.2727 52.0605 42.4278 52.5132C41.9666 52.7561 42.1516 53.1425 42.1931 53.4792C42.4333 54.9034 43.0545 56.2393 44.3108 56.8824C45.9675 57.7325 46.2078 58.9635 46.1166 60.5919C46.0283 62.5101 46.1111 62.5157 47.9694 62.5184V62.5184Z" fill="white"/>
<path d="M23.9447 25.4727C17.3511 25.5003 11.7487 24.5067 6.54948 21.719C4.74459 20.7885 3.15275 19.4934 1.87487 17.9157C-0.494188 14.921 -0.582544 11.3163 1.65674 8.21401C3.2696 6.00315 5.46952 4.28788 8.00737 3.26245C18.4031 -1.10398 28.8098 -1.18954 39.1116 3.65714C41.2118 4.63204 43.033 6.11934 44.4075 7.98217C46.8042 11.2446 46.7489 14.8658 44.2473 18.0399C42.055 20.8192 39.0371 22.3566 35.79 23.5103C31.9908 24.8677 27.9788 25.5323 23.9447 25.4727V25.4727Z" fill="white"/>
<path d="M29.1384 29.0692C28.1885 30.2367 27.3933 31.1613 26.6533 32.1329C25.5485 33.6034 24.6052 35.1885 23.8397 36.8609C23.5636 37.4294 23.2875 37.8876 22.5365 37.8738C15.6336 37.7607 9.11731 36.4717 3.53981 32.0777C0.532923 29.6985 -0.276092 26.4968 0.0856181 22.848C0.18778 21.8516 0.657175 22.2573 1.0603 22.5913C5.34007 26.1297 10.393 27.8161 15.7606 28.7269C19.8897 29.3962 24.0895 29.5123 28.2493 29.072C28.4232 29.0554 28.6027 29.0692 29.1384 29.0692Z" fill="white"/>
<path d="M21.929 62.7115C16.4868 62.568 11.2572 61.5606 6.43076 58.9136C4.82019 58.0234 3.36764 56.8736 2.13166 55.5105C0.0304301 53.2224 -0.132477 50.4651 0.118787 47.6277C0.226471 46.4354 0.891906 47.28 1.20668 47.5394C3.96782 49.8413 7.17074 51.3207 10.5946 52.3474C13.752 53.3421 17.0322 53.8939 20.3414 53.9869C21.5287 54.009 22.1693 54.3595 22.4564 55.6016C22.9341 57.6689 23.8591 59.5843 24.9166 61.4225C25.4688 62.3858 25.212 62.7529 24.1435 62.7143C23.4007 62.6894 22.6635 62.7115 21.929 62.7115Z" fill="white"/>
<path d="M20.2006 50.2334C14.0984 49.6096 8.2172 48.3786 3.32722 44.2882C0.46115 41.8925 -0.262269 38.7681 0.0856351 35.2434C0.162947 34.4596 0.535701 34.5534 0.977484 34.9233C5.89508 39.0358 11.7653 40.667 17.9668 41.4232C18.9663 41.5447 19.9797 41.564 20.9875 41.6302C21.7081 41.6772 22.045 41.9283 21.8959 42.7674C21.5121 44.9313 21.1531 47.1062 21.374 49.3281C21.4624 50.1892 20.8632 50.272 20.2006 50.2334Z" fill="white"/>
</svg>
