<svg width="42" height="42" viewBox="0 0 42 42" fill="none" xmlns="http://www.w3.org/2000/svg">
<g clip-path="url(#clip0_72_26)">
<path d="M20.5903 18.7887C20.0783 18.788 19.5776 18.9391 19.1516 19.223C18.7255 19.5069 18.3933 19.9107 18.1968 20.3835C18.0004 20.8563 17.9486 21.3767 18.048 21.8789C18.1475 22.3811 18.3936 22.8426 18.7553 23.2049C19.1171 23.5671 19.5782 23.814 20.0802 23.9141C20.5823 24.0143 21.1028 23.9633 21.5759 23.7675C22.0489 23.5718 22.4533 23.2401 22.7378 22.8145C23.0223 22.3888 23.1742 21.8884 23.1742 21.3764C23.1732 20.6911 22.9008 20.0341 22.4165 19.5491C21.9323 19.0641 21.2756 18.7907 20.5903 18.7887V18.7887Z" fill="#00A78E"/>
<path d="M20.5903 0.87262C16.5358 0.87262 12.5724 2.07492 9.20115 4.32749C5.82994 6.58006 3.2024 9.78173 1.6508 13.5276C0.0992081 17.2735 -0.306752 21.3954 0.484245 25.372C1.27524 29.3486 3.22767 33.0013 6.09465 35.8683C8.96162 38.7353 12.6144 40.6877 16.591 41.4787C20.5676 42.2697 24.6895 41.8638 28.4353 40.3122C32.1812 38.7606 35.3829 36.133 37.6355 32.7618C39.888 29.3906 41.0903 25.4271 41.0903 21.3726C41.0833 15.9378 38.9212 10.7277 35.0783 6.88472C31.2353 3.04175 26.0251 0.879668 20.5903 0.87262V0.87262ZM15.491 35.6431C13.1972 34.8328 11.1337 33.4792 9.47699 31.6978C7.82023 29.9165 6.61947 27.7604 5.97738 25.414H12.0281C12.9442 25.415 13.8225 25.7794 14.4703 26.4272C15.118 27.075 15.4824 27.9533 15.4834 28.8694L15.491 35.6431ZM20.5903 25.4825C19.7772 25.4833 18.982 25.2428 18.3056 24.7915C17.6291 24.3401 17.1017 23.6983 16.7902 22.9472C16.4787 22.196 16.397 21.3694 16.5554 20.5718C16.7139 19.7742 17.1054 19.0415 17.6804 18.4665C18.2554 17.8915 18.9881 17.5 19.7857 17.3415C20.5833 17.1831 21.4099 17.2648 22.1611 17.5763C22.9122 17.8878 23.554 18.4152 24.0054 19.0917C24.4567 19.7681 24.6972 20.5632 24.6964 21.3764C24.6944 22.4648 24.2612 23.508 23.4916 24.2776C22.722 25.0473 21.6787 25.4805 20.5903 25.4825V25.4825ZM20.8643 14.2146C19.0351 14.2168 17.2359 14.6787 15.6318 15.5579C14.2518 16.3092 12.7051 16.7017 11.1338 16.6995H6.18667C7.17408 13.6527 9.10127 10.9969 11.6917 9.11332C14.2822 7.22973 17.4027 6.21515 20.6056 6.21515C23.8084 6.21515 26.929 7.22973 29.5194 9.11332C32.1098 10.9969 34.037 13.6527 35.0244 16.6995H30.6558C29.2348 16.6975 27.8325 16.3749 26.5535 15.7558L25.6478 15.3105C24.1571 14.5871 22.5213 14.2123 20.8643 14.2146V14.2146ZM25.6744 35.6431V28.858C25.6754 27.9418 26.0398 27.0636 26.6876 26.4158C27.3354 25.768 28.2137 25.4036 29.1298 25.4026H35.1881C34.5476 27.7511 33.3476 29.9095 31.6907 31.6929C30.0339 33.4764 27.9695 34.8318 25.6744 35.6431V35.6431Z" fill="#00A78E"/>
</g>
<defs>
<clipPath id="clip0_72_26">
<rect width="41" height="41" fill="white" transform="translate(0.090332 0.87262)"/>
</clipPath>
</defs>
</svg>
